<svg xmlns="http://www.w3.org/2000/svg" xmlns:xlink="http://www.w3.org/1999/xlink" viewBox="0 0 387.17 371.55"><defs><style>.cls-1{fill:#6de0f6;}.cls-2{fill:none;}.cls-3{isolation:isolate;}.cls-33,.cls-4,.cls-44{opacity:0.4;}.cls-4{mix-blend-mode:lighten;fill:url(#radial-gradient);}.cls-5{fill:url(#Áåçûìÿííûé_ãðàäèåíò_151);}.cls-6{fill:url(#Áåçûìÿííûé_ãðàäèåíò_377);}.cls-39,.cls-7{fill:#6ee8fc;}.cls-8{fill:url(#Áåçûìÿííûé_ãðàäèåíò_300);}.cls-9{fill:#f88b93;}.cls-10{fill:url(#Áåçûìÿííûé_ãðàäèåíò_302);}.cls-11{clip-path:url(#clip-path);}.cls-12{fill:#267fe5;}.cls-13,.cls-40{fill:#25bfec;}.cls-14{fill:#18d0f7;}.cls-15{fill:url(#Áåçûìÿííûé_ãðàäèåíò_377-2);}.cls-16{fill:url(#Áåçûìÿííûé_ãðàäèåíò_300-2);}.cls-17{fill:url(#Áåçûìÿííûé_ãðàäèåíò_302-2);}.cls-18{clip-path:url(#clip-path-2);}.cls-19{fill:url(#Áåçûìÿííûé_ãðàäèåíò_377-3);}.cls-20{fill:url(#Áåçûìÿííûé_ãðàäèåíò_300-3);}.cls-21{fill:url(#Áåçûìÿííûé_ãðàäèåíò_151-2);}.cls-22{fill:url(#Áåçûìÿííûé_ãðàäèåíò_6);}.cls-23{fill:#3a9bd5;}.cls-24{fill:url(#Áåçûìÿííûé_ãðàäèåíò_14);}.cls-25{fill:url(#Áåçûìÿííûé_ãðàäèåíò_3);}.cls-26{fill:url(#Áåçûìÿííûé_ãðàäèåíò_349);}.cls-27{fill:url(#Áåçûìÿííûé_ãðàäèåíò_3-2);}.cls-28{fill:url(#Áåçûìÿííûé_ãðàäèåíò_103);}.cls-29{fill:url(#Áåçûìÿííûé_ãðàäèåíò_144);}.cls-30{fill:#9ff3fc;}.cls-31{fill:url(#Áåçûìÿííûé_ãðàäèåíò_151-3);}.cls-32,.cls-33,.cls-34,.cls-43{fill:#50deff;}.cls-32{opacity:0.1;}.cls-34{opacity:0.6;}.cls-35{fill:#31dbf7;opacity:0.8;}.cls-36{fill:#31d8f4;}.cls-37{fill:#22215b;}.cls-38{clip-path:url(#clip-path-3);}.cls-39,.cls-40{opacity:0.5;}.cls-41{fill:url(#New_Gradient_Swatch_3);}.cls-42{fill:url(#New_Gradient_Swatch_3-2);}.cls-44{fill:#0c0f38;}.cls-45{opacity:0.35;}.cls-46{fill:#1852b7;}.cls-47{fill:url(#linear-gradient);}.cls-48{fill:url(#linear-gradient-2);}.cls-49{fill:url(#linear-gradient-3);}</style><radialGradient id="radial-gradient" cx="-2740.82" cy="226.31" r="140.08" gradientTransform="matrix(0.87, 0.5, -0.87, 0.5, 2741.09, 1529.75)" gradientUnits="userSpaceOnUse"><stop offset="0.01" stop-color="#25bfec"/><stop offset="0.07" stop-color="#25bfec" stop-opacity="0.86"/><stop offset="0.15" stop-color="#25bfec" stop-opacity="0.66"/><stop offset="0.25" stop-color="#25bfec" stop-opacity="0.48"/><stop offset="0.34" stop-color="#25bfec" stop-opacity="0.33"/><stop offset="0.45" stop-color="#25bfec" stop-opacity="0.21"/><stop offset="0.55" stop-color="#25bfec" stop-opacity="0.12"/><stop offset="0.67" stop-color="#25bfec" stop-opacity="0.05"/><stop offset="0.81" stop-color="#25bfec" stop-opacity="0.01"/><stop offset="1" stop-color="#25bfec" stop-opacity="0"/></radialGradient><linearGradient id="Áåçûìÿííûé_ãðàäèåíò_151" x1="62.73" y1="227.19" x2="193.48" y2="227.19" gradientUnits="userSpaceOnUse"><stop offset="0" stop-color="#6ee8fc"/><stop offset="1" stop-color="#6ee8fc"/></linearGradient><linearGradient id="Áåçûìÿííûé_ãðàäèåíò_377" x1="2091.9" y1="149.07" x2="2249.6" y2="149.07" gradientTransform="matrix(-1, 0, 0, 1, 2296.96, 0)" gradientUnits="userSpaceOnUse"><stop offset="0" stop-color="#a31fa9"/><stop offset="0.07" stop-color="#8b17a0"/><stop offset="0.15" stop-color="#740f98"/><stop offset="0.24" stop-color="#640a92"/><stop offset="0.34" stop-color="#5b078f"/><stop offset="0.48" stop-color="#58068e"/><stop offset="0.63" stop-color="#4d22a3"/><stop offset="0.94" stop-color="#3168da"/><stop offset="1" stop-color="#2c75e4"/></linearGradient><linearGradient id="Áåçûìÿííûé_ãðàäèåíò_300" x1="1497.32" y1="-311.17" x2="1576.43" y2="-379.68" gradientTransform="matrix(-0.87, 0.5, 1, 0.58, 1805.91, -487.2)" gradientUnits="userSpaceOnUse"><stop offset="0" stop-color="#8d139b"/><stop offset="0.17" stop-color="#851ba1"/><stop offset="0.43" stop-color="#6e33b2"/><stop offset="0.76" stop-color="#4958cd"/><stop offset="1" stop-color="#2979e4"/></linearGradient><linearGradient id="Áåçûìÿííûé_ãðàäèåíò_302" x1="1511.31" y1="-323.28" x2="1563.02" y2="-368.07" gradientTransform="matrix(-0.87, 0.5, 1, 0.58, 1805.91, -487.2)" gradientUnits="userSpaceOnUse"><stop offset="0" stop-color="#630692"/><stop offset="0.23" stop-color="#5b0e94"/><stop offset="0.59" stop-color="#432399"/><stop offset="1" stop-color="#2142a1"/></linearGradient><clipPath id="clip-path" transform="translate(-34.42 -9.48)"><path class="cls-1" d="M105.07,93.14l42.75-24.68c3-1.75,2.66-4.82-.85-6.85l16,9.32c-3.51-2-8.82-2.25-11.86-.49L108.39,95.12c-3,1.76-2.66,4.82.85,6.85l-16-9.32C96.72,94.68,102,94.9,105.07,93.14Z"/></clipPath><linearGradient id="Áåçûìÿííûé_ãðàäèåíò_377-2" x1="2091.9" y1="77.38" x2="2249.6" y2="77.38" xlink:href="#Áåçûìÿííûé_ãðàäèåíò_377"/><linearGradient id="Áåçûìÿííûé_ãðàäèåíò_300-2" x1="1478.44" y1="-327.52" x2="1557.55" y2="-396.03" xlink:href="#Áåçûìÿííûé_ãðàäèåíò_300"/><linearGradient id="Áåçûìÿííûé_ãðàäèåíò_302-2" x1="1492.42" y1="-339.63" x2="1544.14" y2="-384.42" xlink:href="#Áåçûìÿííûé_ãðàäèåíò_302"/><clipPath id="clip-path-2" transform="translate(-34.42 -9.48)"><path class="cls-1" d="M105.07,74.26l42.75-24.68c3-1.76,2.66-4.82-.85-6.85l16,9.32c-3.51-2-8.82-2.25-11.86-.49L108.39,76.24c-3,1.75-2.66,4.82.85,6.85l-16-9.32C96.72,75.8,102,76,105.07,74.26Z"/></clipPath><linearGradient id="Áåçûìÿííûé_ãðàäèåíò_377-3" x1="2091.9" y1="61.3" x2="2249.6" y2="61.3" xlink:href="#Áåçûìÿííûé_ãðàäèåíò_377"/><linearGradient id="Áåçûìÿííûé_ãðàäèåíò_300-3" x1="1462.36" y1="-341.45" x2="1541.46" y2="-409.96" xlink:href="#Áåçûìÿííûé_ãðàäèåíò_300"/><linearGradient id="Áåçûìÿííûé_ãðàäèåíò_151-2" x1="112.28" y1="295.13" x2="395.56" y2="295.13" xlink:href="#Áåçûìÿííûé_ãðàäèåíò_151"/><linearGradient id="Áåçûìÿííûé_ãðàäèåíò_6" x1="-5386.97" y1="165.67" x2="-5187.42" y2="165.67" gradientTransform="matrix(-1, 0, 0, 1, -4965.38, 0)" gradientUnits="userSpaceOnUse"><stop offset="0" stop-color="#7bdaff"/><stop offset="1" stop-color="#59bdef"/></linearGradient><linearGradient id="Áåçûìÿííûé_ãðàäèåíò_14" x1="-5384.26" y1="166.54" x2="-5184.71" y2="166.54" gradientTransform="matrix(-1, 0, 0, 1, -4965.38, 0)" gradientUnits="userSpaceOnUse"><stop offset="0" stop-color="#2573ba"/><stop offset="1" stop-color="#0063ad"/></linearGradient><linearGradient id="Áåçûìÿííûé_ãðàäèåíò_3" x1="-5384.26" y1="166.54" x2="-5184.71" y2="166.54" gradientTransform="matrix(-1, 0, 0, 1, -4965.38, 0)" gradientUnits="userSpaceOnUse"><stop offset="0" stop-color="#2c75e4"/><stop offset="0.04" stop-color="#3461d5"/><stop offset="0.13" stop-color="#4140bb"/><stop offset="0.22" stop-color="#4b27a7"/><stop offset="0.32" stop-color="#521499"/><stop offset="0.41" stop-color="#570a91"/><stop offset="0.52" stop-color="#58068e"/><stop offset="0.66" stop-color="#5b078f"/><stop offset="0.76" stop-color="#640a92"/><stop offset="0.85" stop-color="#740f98"/><stop offset="0.93" stop-color="#8b17a0"/><stop offset="1" stop-color="#a31fa9"/></linearGradient><linearGradient id="Áåçûìÿííûé_ãðàäèåíò_349" x1="-5380.16" y1="166.56" x2="-5189" y2="166.56" gradientTransform="matrix(-1, 0, 0, 1, -4999.8, -9.48)" gradientUnits="userSpaceOnUse"><stop offset="0" stop-color="#59bdef"/><stop offset="1" stop-color="#7bdaff"/></linearGradient><linearGradient id="Áåçûìÿííûé_ãðàäèåíò_3-2" x1="-5360.23" y1="274.37" x2="-5078.4" y2="274.37" xlink:href="#Áåçûìÿííûé_ãðàäèåíò_3"/><radialGradient id="Áåçûìÿííûé_ãðàäèåíò_103" cx="-5368.87" cy="287.8" r="299.22" gradientTransform="matrix(-1, 0, 0, 1, -4965.38, 0)" gradientUnits="userSpaceOnUse"><stop offset="0" stop-color="#2979e4"/><stop offset="0.24" stop-color="#4958cd"/><stop offset="0.57" stop-color="#6e33b2"/><stop offset="0.83" stop-color="#851ba1"/><stop offset="1" stop-color="#8d139b"/></radialGradient><linearGradient id="Áåçûìÿííûé_ãðàäèåíò_144" x1="112.93" y1="295.13" x2="394.91" y2="295.13" gradientUnits="userSpaceOnUse"><stop offset="0" stop-color="#d4088c"/><stop offset="0.1" stop-color="#d30e8f"/><stop offset="0.23" stop-color="#cf1e97"/><stop offset="0.38" stop-color="#c939a3"/><stop offset="0.54" stop-color="#c05fb5"/><stop offset="0.71" stop-color="#b58fcc"/><stop offset="0.89" stop-color="#a8c9e8"/><stop offset="1" stop-color="#9ff3fc"/></linearGradient><linearGradient id="Áåçûìÿííûé_ãðàäèåíò_151-3" x1="57" y1="296.62" x2="198.3" y2="296.62" xlink:href="#Áåçûìÿííûé_ãðàäèåíò_151"/><clipPath id="clip-path-3" transform="translate(-34.42 -9.48)"><path class="cls-2" d="M24.63,251.54l55.7-36.28c1.63,1,3,0,3-2.23V127.7a7.11,7.11,0,0,0-3-5.65l-3.17-1.82c-1.63-1-3,.06-3,2.23l-52.62,24C21.59,148.67,23,250.6,24.63,251.54Z"/></clipPath><linearGradient id="New_Gradient_Swatch_3" x1="1807.5" y1="172.17" x2="1891.95" y2="209.76" gradientTransform="matrix(-1, 0, 0, 1, 1884.1, 0)" gradientUnits="userSpaceOnUse"><stop offset="0" stop-color="#2c75e4"/><stop offset="0.06" stop-color="#3168da"/><stop offset="0.37" stop-color="#4d22a3"/><stop offset="0.52" stop-color="#58068e"/><stop offset="0.66" stop-color="#5b078f"/><stop offset="0.76" stop-color="#640a92"/><stop offset="0.85" stop-color="#740f98"/><stop offset="0.93" stop-color="#8b17a0"/><stop offset="1" stop-color="#a31fa9"/></linearGradient><linearGradient id="New_Gradient_Swatch_3-2" x1="1842.11" y1="188.24" x2="1730.17" y2="188.24" xlink:href="#New_Gradient_Swatch_3"/><linearGradient id="linear-gradient" x1="124.86" y1="164.26" x2="147.76" y2="164.26" gradientUnits="userSpaceOnUse"><stop offset="0" stop-color="#2c75e4"/><stop offset="1" stop-color="#2c75e4"/></linearGradient><linearGradient id="linear-gradient-2" x1="122.87" y1="151.26" x2="173.41" y2="151.26" xlink:href="#linear-gradient"/><linearGradient id="linear-gradient-3" x1="148.34" y1="138.19" x2="171.26" y2="138.19" xlink:href="#linear-gradient"/></defs><title>developer</title><g class="cls-3"><g id="Layer_1" data-name="Layer 1"><ellipse class="cls-4" cx="171.56" cy="272.5" rx="171.56" ry="99.05"/><path class="cls-5" d="M100.22,265.16A26.25,26.25,0,0,1,87.46,262l-19-10.92c-3.63-2.1-5.71-4.92-5.71-7.74,0-2.38,1.47-4.54,4.13-6.08l79.26-45.76c5.8-3.35,15.95-2.94,22.63.91l19,10.92c3.63,2.1,5.71,4.92,5.71,7.75,0,2.38-1.47,4.53-4.13,6.07l-79.26,45.76A20.16,20.16,0,0,1,100.22,265.16ZM156,190.49a18.82,18.82,0,0,0-9.23,2.11L67.51,238.36c-2.25,1.3-3.48,3.06-3.48,5,0,2.35,1.84,4.76,5,6.62l19,10.92c6.32,3.64,15.9,4.05,21.34.91L188.7,216c2.25-1.3,3.48-3.06,3.48-4.95,0-2.35-1.84-4.77-5.06-6.62l-19-10.92A24.9,24.9,0,0,0,156,190.49Z" transform="translate(-34.42 -9.48)"/><path class="cls-6" d="M63.38,98.3h39.3L146.44,73c5.64-3.26,15.48-2.85,22,.91l-14.9-8.67h39.28V179h0c.16,2.2-1.07,4.32-3.77,5.89l-79.26,45.76c-5.64,3.25-15.48,2.84-22-.91l-19-10.92c-3.38-2-5.18-4.43-5.35-6.81h0Z" transform="translate(-34.42 -9.48)"/><path class="cls-7" d="M64.52,98.3v115h0a6.76,6.76,0,0,0,1.36,3.44,7.39,7.39,0,0,1-2.5-4.69h0V98.3Z" transform="translate(-34.42 -9.48)"/><path class="cls-8" d="M109.77,116.93,189,71.17c5.63-3.25,4.93-8.93-1.58-12.69l-19-10.92c-6.51-3.76-16.35-4.16-22-.91L67.18,92.41c-5.63,3.25-4.93,8.94,1.58,12.69l19,10.92C94.29,119.78,104.13,120.19,109.77,116.93Z" transform="translate(-34.42 -9.48)"/><path class="cls-9" d="M108.2,116.93l79.26-45.76c5.64-3.25,4.93-8.93-1.58-12.69l-19-10.92a25.25,25.25,0,0,0-11.63-3.09,25.72,25.72,0,0,1,13.2,3.09l19,10.92c6.51,3.76,7.21,9.44,1.58,12.69l-79.26,45.76a19.93,19.93,0,0,1-10.36,2.18A18.88,18.88,0,0,0,108.2,116.93Z" transform="translate(-34.42 -9.48)"/><path class="cls-7" d="M67.18,92.41l79.26-45.76a20.09,20.09,0,0,1,10.41-2.18,19,19,0,0,0-8.78,2.18L68.82,92.41c-5.64,3.25-4.93,8.94,1.57,12.69l19,10.92A25.25,25.25,0,0,0,101,119.11,25.75,25.75,0,0,1,87.78,116l-19-10.92C62.25,101.35,61.55,95.66,67.18,92.41Z" transform="translate(-34.42 -9.48)"/><path class="cls-10" d="M107.16,103.74l59-34.07c4.19-2.42,3.67-6.65-1.18-9.45l.43.3c-4.85-2.79-12.18-3.1-16.37-.67L90,93.91c-4.2,2.43-3.67,6.66,1.17,9.45l-.42-.3C95.64,105.86,103,106.16,107.16,103.74Z" transform="translate(-34.42 -9.48)"/><path class="cls-1" d="M105.07,93.14l42.75-24.68c3-1.75,2.66-4.82-.85-6.85l16,9.32c-3.51-2-8.82-2.25-11.86-.49L108.39,95.12c-3,1.76-2.66,4.82.85,6.85l-16-9.32C96.72,94.68,102,94.9,105.07,93.14Z" transform="translate(-34.42 -9.48)"/><g class="cls-11"><path class="cls-12" d="M147,65l16,9.31c-3.51-2-8.82-2.25-11.86-.49L108.37,98.46a4.57,4.57,0,0,0-1.49,1.34c-1-1.67-.59-3.48,1.49-4.68l42.77-24.69c3-1.76,8.35-1.54,11.86.49l-16-9.31c2.73,1.58,3.54,3.78,2.34,5.51A6.37,6.37,0,0,0,147,65Z" transform="translate(-34.42 -9.48)"/><path class="cls-13" d="M147,69l16,9.31c-3.51-2-8.82-2.25-11.86-.49l-42.77,24.69a4.9,4.9,0,0,0-1.25,1c-1.36-1.77-1-3.78,1.25-5.07l42.77-24.69c3-1.76,8.35-1.54,11.86.49L147,65c2.89,1.67,3.62,4,2.1,5.81A7,7,0,0,0,147,69Z" transform="translate(-34.42 -9.48)"/><path class="cls-14" d="M148.67,75.22A7.07,7.07,0,0,0,147,73.9l16,9.3c-3.51-2-8.82-2.24-11.86-.49L108.37,107.4a6.27,6.27,0,0,0-.84.61c-1.8-1.88-1.59-4.12.84-5.52L151.14,77.8c3-1.76,8.35-1.54,11.86.49L147,69C150.12,70.79,150.74,73.43,148.67,75.22Z" transform="translate(-34.42 -9.48)"/></g><path class="cls-15" d="M63.38,79.42h39.3l43.76-25.27c5.64-3.25,15.48-2.84,22,.92l-14.9-8.67h39.28v8.12h0c.16,2.2-1.07,4.33-3.77,5.89l-79.26,45.76c-5.64,3.25-15.48,2.85-22-.91l-19-10.92c-3.38-2-5.18-4.42-5.35-6.8h0Z" transform="translate(-34.42 -9.48)"/><path class="cls-7" d="M64.52,79.42v9.37h0a6.73,6.73,0,0,0,1.36,3.43,7.37,7.37,0,0,1-2.5-4.68h0V79.42Z" transform="translate(-34.42 -9.48)"/><path class="cls-16" d="M109.77,98.05,189,52.29c5.63-3.25,4.93-8.93-1.58-12.69l-19-10.92c-6.51-3.76-16.35-4.17-22-.91L67.18,73.53c-5.63,3.25-4.93,8.93,1.58,12.69l19,10.92C94.29,100.9,104.13,101.31,109.77,98.05Z" transform="translate(-34.42 -9.48)"/><path class="cls-9" d="M108.2,98.05l79.26-45.76c5.64-3.25,4.93-8.93-1.58-12.69l-19-10.92a25.25,25.25,0,0,0-11.63-3.09,25.72,25.72,0,0,1,13.2,3.09l19,10.92C194,43.36,194.66,49,189,52.29L109.77,98.05a19.93,19.93,0,0,1-10.36,2.18A19,19,0,0,0,108.2,98.05Z" transform="translate(-34.42 -9.48)"/><path class="cls-7" d="M67.18,73.53l79.26-45.76a20,20,0,0,1,10.41-2.18,19,19,0,0,0-8.78,2.18L68.82,73.53c-5.64,3.25-4.93,8.93,1.57,12.69l19,10.92A25.25,25.25,0,0,0,101,100.23a25.75,25.75,0,0,1-13.21-3.09l-19-10.92C62.25,82.46,61.55,76.78,67.18,73.53Z" transform="translate(-34.42 -9.48)"/><path class="cls-17" d="M107.16,84.86l59-34.07c4.19-2.43,3.67-6.66-1.18-9.45l.43.3c-4.85-2.79-12.18-3.1-16.37-.68L90,75c-4.2,2.42-3.67,6.65,1.17,9.45l-.42-.3C95.64,87,103,87.28,107.16,84.86Z" transform="translate(-34.42 -9.48)"/><path class="cls-1" d="M105.07,74.26l42.75-24.68c3-1.76,2.66-4.82-.85-6.85l16,9.32c-3.51-2-8.82-2.25-11.86-.49L108.39,76.24c-3,1.75-2.66,4.82.85,6.85l-16-9.32C96.72,75.8,102,76,105.07,74.26Z" transform="translate(-34.42 -9.48)"/><g class="cls-18"><path class="cls-12" d="M147,46.07l16,9.31c-3.51-2-8.82-2.25-11.86-.49L108.37,79.58a4.57,4.57,0,0,0-1.49,1.34c-1-1.67-.59-3.48,1.49-4.68l42.77-24.69c3-1.76,8.35-1.54,11.86.49l-16-9.31c2.73,1.58,3.54,3.78,2.34,5.51A6.37,6.37,0,0,0,147,46.07Z" transform="translate(-34.42 -9.48)"/><path class="cls-13" d="M147,50.1l16,9.31c-3.51-2-8.82-2.25-11.86-.5l-42.77,24.7a4.71,4.71,0,0,0-1.25,1c-1.36-1.77-1-3.78,1.25-5.07l42.77-24.69c3-1.76,8.35-1.54,11.86.49l-16-9.31c2.89,1.67,3.62,4,2.1,5.8A7.14,7.14,0,0,0,147,50.1Z" transform="translate(-34.42 -9.48)"/><path class="cls-14" d="M148.67,56.34A7.36,7.36,0,0,0,147,55l16,9.31c-3.51-2-8.82-2.25-11.86-.49L108.37,88.52a6.27,6.27,0,0,0-.84.61c-1.8-1.88-1.59-4.12.84-5.52l42.77-24.7c3-1.75,8.35-1.53,11.86.5L147,50.1C150.12,51.91,150.74,54.54,148.67,56.34Z" transform="translate(-34.42 -9.48)"/></g><path class="cls-19" d="M63.38,63.33h39.3l43.76-25.26c5.64-3.25,15.48-2.85,22,.91l-14.9-8.66h39.28v8.12h0c.16,2.2-1.07,4.32-3.77,5.89L109.77,90.09c-5.64,3.25-15.48,2.84-22-.92l-19-10.92c-3.38-2-5.18-4.42-5.35-6.8h0Z" transform="translate(-34.42 -9.48)"/><path class="cls-7" d="M64.52,63.33V72.7h0a6.76,6.76,0,0,0,1.36,3.44,7.42,7.42,0,0,1-2.5-4.69h0V63.33Z" transform="translate(-34.42 -9.48)"/><path class="cls-20" d="M109.77,82,189,36.21c5.63-3.26,4.93-8.94-1.58-12.7l-19-10.92c-6.51-3.75-16.35-4.16-22-.91L67.18,57.44c-5.63,3.25-4.93,8.94,1.58,12.69l19,10.93C94.29,84.81,104.13,85.22,109.77,82Z" transform="translate(-34.42 -9.48)"/><path class="cls-7" d="M106.35,74.12l69.59-40.2c3.38-2,2.95-5.35-.94-7.6l-11.39-6.54c-3.9-2.25-9.79-2.49-13.17-.54L80.85,59.43c-3.37,2-2.95,5.35,1,7.6l11.39,6.54C97.08,75.82,103,76.06,106.35,74.12Z" transform="translate(-34.42 -9.48)"/><path class="cls-12" d="M175,27.54,163.61,21c-3.9-2.25-9.79-2.5-13.17-.55L80.85,60.65a4.23,4.23,0,0,0-2.21,2.67c-.27-1.44.44-2.87,2.21-3.89l69.59-40.19c3.38-1.95,9.27-1.71,13.17.54L175,26.32c2.43,1.4,3.51,3.26,3.15,4.93A5.88,5.88,0,0,0,175,27.54Z" transform="translate(-34.42 -9.48)"/><path class="cls-9" d="M108.2,82l79.26-45.76c5.64-3.26,4.93-8.94-1.58-12.7l-19-10.92A25.49,25.49,0,0,0,155.23,9.5a25.82,25.82,0,0,1,13.2,3.09l19,10.92C194,27.27,194.66,33,189,36.21L109.77,82a20,20,0,0,1-10.36,2.17A18.87,18.87,0,0,0,108.2,82Z" transform="translate(-34.42 -9.48)"/><path class="cls-7" d="M67.18,57.44l79.26-45.76A20.09,20.09,0,0,1,156.85,9.5a19,19,0,0,0-8.78,2.18L68.82,57.44c-5.64,3.25-4.93,8.94,1.57,12.69l19,10.93A25.36,25.36,0,0,0,101,84.14a25.75,25.75,0,0,1-13.21-3.08l-19-10.93C62.25,66.38,61.55,60.69,67.18,57.44Z" transform="translate(-34.42 -9.48)"/><path class="cls-1" d="M115.57,213.52,180,176.35a7.53,7.53,0,0,0,3.14-6v-79c0-2.31-1.41-3.37-3.14-2.37L115.57,126.1a7.53,7.53,0,0,0-3.14,6v79.05C112.43,213.46,113.84,214.52,115.57,213.52Z" transform="translate(-34.42 -9.48)"/><path class="cls-12" d="M114.42,213l64.38-37.17a7.51,7.51,0,0,0,3.14-6V90.82a3.08,3.08,0,0,0-.76-2.26c1.12,0,1.91,1,1.91,2.74v79.05a7.53,7.53,0,0,1-3.14,6l-64.38,37.17a1.86,1.86,0,0,1-2.38-.11A2.64,2.64,0,0,0,114.42,213Z" transform="translate(-34.42 -9.48)"/><path class="cls-21" d="M289,377.18a7.84,7.84,0,0,1-3.89-1l-171-98.71a3.23,3.23,0,0,1-1.87-2.63,2.49,2.49,0,0,1,1.42-2.14l102-58.91a7.62,7.62,0,0,1,7,.26l171,98.72a3.22,3.22,0,0,1,1.88,2.62,2.52,2.52,0,0,1-1.42,2.15l-102,58.91A6.31,6.31,0,0,1,289,377.18ZM114.8,276.36l171,98.71a6.46,6.46,0,0,0,5.68.27l102-58.91a1.33,1.33,0,0,0,.77-1c0-.5-.46-1.06-1.22-1.5l-171-98.72a6.4,6.4,0,0,0-5.67-.26l-102,58.91a1.28,1.28,0,0,0-.77,1c0,.5.45,1.06,1.22,1.51Z" transform="translate(-34.42 -9.48)"/><path class="cls-22" d="M222.07,178.08,243.68,49.84,242,49.11l2.61-1.5v0a1.88,1.88,0,0,1,2,.14L419.31,147.5a4.87,4.87,0,0,1,2.24,4.39L399.76,281.14a1.62,1.62,0,0,1-.91,1.32h0l-2.56,1.47-.44-2.38.15,0-171.7-99.13A4.88,4.88,0,0,1,222.07,178.08Z" transform="translate(-34.42 -9.48)"/><path class="cls-23" d="M418.34,151l2.84-1.26a3.9,3.9,0,0,1,.37,2.14L399.76,281.14a1.62,1.62,0,0,1-.91,1.32h0l-2.56,1.47-.44-2.38.15,0-8.69-5Z" transform="translate(-34.42 -9.48)"/><path class="cls-24" d="M221.6,184l172.74,99.73c1.34.77,2.48.33,2.71-1.06l21.79-129.25a4.87,4.87,0,0,0-2.24-4.39L243.86,49.32c-1.34-.77-2.48-.32-2.71,1.06L219.36,179.63A4.87,4.87,0,0,0,221.6,184Z" transform="translate(-34.42 -9.48)"/><path class="cls-25" d="M221.6,184l172.74,99.73c1.34.77,2.48.33,2.71-1.06l21.79-129.25a4.87,4.87,0,0,0-2.24-4.39L243.86,49.32c-1.34-.77-2.48-.32-2.71,1.06L219.36,179.63A4.87,4.87,0,0,0,221.6,184Z" transform="translate(-34.42 -9.48)"/><polygon class="cls-26" points="209.74 46.95 380.36 145.47 359.71 267.2 189.2 168.75 209.74 46.95"/><path class="cls-27" d="M113,245.21l9.43,4.93L217,195.56a6.85,6.85,0,0,1,6.17.26l163,94.12c1.56-.87,8.67-4.29,8.67-4.29l-3.45,9h0a2.09,2.09,0,0,1-1,1.07l-99.56,57.48a6.85,6.85,0,0,1-6.17-.26L117.86,256.6a3,3,0,0,1-1.4-1.49h0Z" transform="translate(-34.42 -9.48)"/><path class="cls-28" d="M114.48,246.76l171,98.72a7,7,0,0,0,6.32.26l102-58.91c1.62-.93,1.41-2.57-.46-3.65l-171-98.72a7.06,7.06,0,0,0-6.33-.26L114,243.11C112.4,244.05,112.6,245.68,114.48,246.76Z" transform="translate(-34.42 -9.48)"/><path class="cls-29" d="M114.48,245.09l171,98.72a7,7,0,0,0,6.32.26l102-58.91a2.34,2.34,0,0,0,.84-.77,1.7,1.7,0,0,1-.84,2.44l-102,58.91a7,7,0,0,1-6.32-.26l-171-98.72c-1.43-.82-1.88-2-1.3-2.88A3.49,3.49,0,0,0,114.48,245.09Z" transform="translate(-34.42 -9.48)"/><polygon class="cls-30" points="223.84 83.33 235.12 89.84 235.45 87.89 224.17 81.37 223.84 83.33"/><polygon class="cls-30" points="236.93 90.89 243.07 94.44 243.41 92.48 237.26 88.93 236.93 90.89"/><polygon class="cls-30" points="252.64 99.95 257.08 102.52 257.42 100.56 252.97 97.99 252.64 99.95"/><polygon class="cls-30" points="249.4 98.08 250.91 98.96 251.25 97 249.72 96.12 249.4 98.08"/><polygon class="cls-30" points="244.91 95.49 247.67 97.08 248 95.13 245.24 93.53 244.91 95.49"/><polygon class="cls-30" points="232.76 98.31 237.21 100.87 237.54 98.92 233.09 96.35 232.76 98.31"/><polygon class="cls-30" points="222.33 92.28 231.04 97.31 231.37 95.35 222.66 90.32 222.33 92.28"/><polygon class="cls-30" points="234.82 124.01 243.53 129.05 243.86 127.09 235.15 122.06 234.82 124.01"/><polygon class="cls-30" points="230.34 121.42 233.1 123.02 233.43 121.06 230.67 119.47 230.34 121.42"/><polygon class="cls-30" points="236.27 115.05 244.99 120.09 245.32 118.13 236.6 113.09 236.27 115.05"/><polygon class="cls-30" points="231.79 112.46 234.55 114.06 234.88 112.1 232.12 110.5 231.79 112.46"/><polygon class="cls-30" points="228.4 162.68 211.98 153.2 211.65 155.15 228.07 164.64 228.4 162.68"/><polygon class="cls-30" points="234.18 166.02 230.12 163.67 229.79 165.63 233.85 167.98 234.18 166.02"/><polygon class="cls-30" points="263.02 167.92 246.61 158.44 246.28 160.39 262.69 169.88 263.02 167.92"/><polygon class="cls-30" points="268.8 171.26 264.74 168.91 264.41 170.87 268.47 173.22 268.8 171.26"/><polygon class="cls-30" points="217.19 151.29 212.74 148.72 212.41 150.68 216.85 153.25 217.19 151.29"/><polygon class="cls-30" points="244.24 157.09 239.79 154.52 239.46 156.48 243.91 159.05 244.24 157.09"/><polygon class="cls-30" points="227.62 157.32 218.91 152.29 218.58 154.25 227.29 159.28 227.62 157.32"/><polygon class="cls-30" points="232.1 159.91 229.34 158.32 229.01 160.27 231.77 161.87 232.1 159.91"/><polygon class="cls-30" points="242.62 165.98 233.91 160.94 233.58 162.9 242.29 167.93 242.62 165.98"/><polygon class="cls-30" points="247.1 168.56 244.34 166.97 244.01 168.93 246.77 170.52 247.1 168.56"/><polygon class="cls-30" points="243.48 161.57 239.04 159 238.71 160.96 243.15 163.52 243.48 161.57"/><polygon class="cls-30" points="253.92 167.59 245.21 162.56 244.88 164.52 253.59 169.55 253.92 167.59"/><polygon class="cls-30" points="258.4 170.18 255.64 168.59 255.31 170.55 258.07 172.14 258.4 170.18"/><polygon class="cls-30" points="222.59 149.5 213.49 144.25 213.16 146.21 222.26 151.46 222.59 149.5"/><polygon class="cls-30" points="230.9 154.3 224.31 150.5 223.99 152.46 230.56 156.26 230.9 154.3"/><polygon class="cls-30" points="237.06 157.87 232.62 155.3 232.29 157.26 236.73 159.82 237.06 157.87"/><polygon class="cls-30" points="280.19 177.82 271.09 172.56 270.76 174.52 279.86 179.78 280.19 177.82"/><polygon class="cls-30" points="288.49 182.62 281.91 178.81 281.58 180.77 288.16 184.57 288.49 182.62"/><polygon class="cls-30" points="294.66 186.18 290.21 183.61 289.88 185.57 294.33 188.14 294.66 186.18"/><polygon class="cls-30" points="276.63 118.71 285.72 123.96 286.06 122.01 276.96 116.75 276.63 118.71"/><polygon class="cls-30" points="268.32 113.91 274.9 117.71 275.23 115.75 268.65 111.95 268.32 113.91"/><polygon class="cls-30" points="262.15 110.35 266.6 112.92 266.93 110.96 262.48 108.39 262.15 110.35"/><polygon class="cls-30" points="273.61 112.03 282.7 117.29 283.03 115.33 273.94 110.08 273.61 112.03"/><polygon class="cls-30" points="265.3 107.24 271.88 111.04 272.21 109.08 265.63 105.28 265.3 107.24"/><polygon class="cls-30" points="259.13 103.67 263.58 106.24 263.91 104.28 259.46 101.72 259.13 103.67"/><polygon class="cls-30" points="236.87 120.31 239.95 122.09 240.28 120.13 237.21 118.36 236.87 120.31"/><polygon class="cls-30" points="231.09 116.97 235.15 119.32 235.48 117.36 231.42 115.01 231.09 116.97"/><polygon class="cls-30" points="223.41 145.06 214.31 139.8 213.98 141.76 223.07 147.02 223.41 145.06"/><polygon class="cls-30" points="231.71 149.85 225.13 146.05 224.8 148.01 231.38 151.81 231.71 149.85"/><polygon class="cls-30" points="237.88 153.42 233.43 150.85 233.1 152.81 237.55 155.38 237.88 153.42"/><polygon class="cls-30" points="218.13 137.1 215.06 135.33 214.73 137.29 217.81 139.06 218.13 137.1"/><polygon class="cls-30" points="223.92 140.44 219.86 138.1 219.53 140.06 223.59 142.4 223.92 140.44"/><polygon class="cls-30" points="232.19 145.22 225.64 141.44 225.31 143.4 231.86 147.18 232.19 145.22"/><polygon class="cls-30" points="241.05 107.98 244.13 109.75 244.46 107.8 241.38 106.02 241.05 107.98"/><polygon class="cls-30" points="235.27 104.64 239.33 106.98 239.66 105.02 235.6 102.68 235.27 104.64"/><polygon class="cls-30" points="227 99.86 233.54 103.64 233.88 101.68 227.33 97.9 227 99.86"/><polygon class="cls-30" points="245.73 115.24 252.28 119.02 252.61 117.06 246.06 113.28 245.73 115.24"/><polygon class="cls-30" points="235.03 109.41 243.85 114.5 244.18 112.55 235.36 107.45 235.03 109.41"/><polygon class="cls-30" points="230.55 106.82 233.31 108.41 233.64 106.45 230.88 104.86 230.55 106.82"/><polygon class="cls-30" points="226.25 104.33 229.01 105.93 229.34 103.97 226.58 102.37 226.25 104.33"/><polygon class="cls-30" points="226.84 129.61 235.55 134.65 235.88 132.69 227.17 127.65 226.84 129.61"/><polygon class="cls-30" points="222.36 127.02 225.12 128.62 225.45 126.66 222.69 125.06 222.36 127.02"/><polygon class="cls-30" points="227.44 134.87 230.51 136.65 230.85 134.69 227.77 132.91 227.44 134.87"/><polygon class="cls-30" points="238.29 131.28 241.36 133.06 241.69 131.1 238.62 129.33 238.29 131.28"/><polygon class="cls-30" points="242.67 133.81 250.04 138.07 250.37 136.11 243 131.85 242.67 133.81"/><polygon class="cls-30" points="251.35 138.82 255.74 141.36 256.07 139.4 251.68 136.87 251.35 138.82"/><polygon class="cls-30" points="221.66 131.53 225.72 133.88 226.05 131.92 221.99 129.57 221.66 131.53"/><polygon class="cls-30" points="221.28 136.13 224.35 137.9 224.68 135.94 221.61 134.17 221.28 136.13"/><polygon class="cls-30" points="215.49 132.78 219.55 135.13 219.88 133.17 215.82 130.82 215.49 132.78"/><polygon class="cls-30" points="233.83 128.71 236.59 130.31 236.92 128.35 234.16 126.75 233.83 128.71"/><polygon class="cls-30" points="229.53 126.23 232.29 127.82 232.62 125.86 229.86 124.27 229.53 126.23"/><polygon class="cls-30" points="250.72 103.74 260.13 109.18 260.46 107.22 251.05 101.78 250.72 103.74"/><polygon class="cls-30" points="240.18 97.65 249 102.75 249.33 100.79 240.51 95.69 240.18 97.65"/><polygon class="cls-30" points="235.69 95.06 238.45 96.65 238.78 94.7 236.02 93.1 235.69 95.06"/><polygon class="cls-30" points="231.39 92.57 234.15 94.17 234.48 92.21 231.72 90.62 231.39 92.57"/><polygon class="cls-30" points="229.04 91.22 223.09 87.78 223.42 85.82 229.37 89.26 229.04 91.22"/><path class="cls-1" d="M219.37,207.34l120.87,69.79a2.86,2.86,0,0,0,2.86,0l2.94-1.7a.74.74,0,0,0,0-1.29L225.17,204.35a2.86,2.86,0,0,0-2.86,0l-2.94,1.7A.74.74,0,0,0,219.37,207.34Z" transform="translate(-34.42 -9.48)"/><path class="cls-1" d="M205.91,215.11l113.22,65.37a2.86,2.86,0,0,0,2.86,0l2.94-1.7a.74.74,0,0,0,0-1.29L211.71,212.12a2.86,2.86,0,0,0-2.86,0l-2.94,1.7A.74.74,0,0,0,205.91,215.11Z" transform="translate(-34.42 -9.48)"/><path class="cls-1" d="M197.15,220.17,330.9,297.39a2.86,2.86,0,0,0,2.86,0l2.94-1.7a.74.74,0,0,0,0-1.29L203,217.18a2.86,2.86,0,0,0-2.86,0l-2.94,1.7A.74.74,0,0,0,197.15,220.17Z" transform="translate(-34.42 -9.48)"/><path class="cls-1" d="M188.39,225.23l133.75,77.22a2.86,2.86,0,0,0,2.86,0l2.94-1.7a.74.74,0,0,0,0-1.29L194.19,222.24a2.86,2.86,0,0,0-2.86,0l-2.94,1.7A.74.74,0,0,0,188.39,225.23Z" transform="translate(-34.42 -9.48)"/><path class="cls-1" d="M179.62,230.29l133.76,77.22a2.86,2.86,0,0,0,2.86,0l2.94-1.7a.75.75,0,0,0,0-1.29L185.42,227.3a2.86,2.86,0,0,0-2.86,0l-2.94,1.7A.75.75,0,0,0,179.62,230.29Z" transform="translate(-34.42 -9.48)"/><path class="cls-1" d="M350.25,282.91l2.94,1.69a2.86,2.86,0,0,0,2.86,0l2.94-1.69a.76.76,0,0,0,0-1.3l-2.94-1.69a2.86,2.86,0,0,0-2.86,0l-2.94,1.7A.74.74,0,0,0,350.25,282.91Z" transform="translate(-34.42 -9.48)"/><path class="cls-1" d="M330.89,287.27l8.84,5.1a2.86,2.86,0,0,0,2.86,0l2.94-1.7a.74.74,0,0,0,0-1.29l-8.84-5.1a2.86,2.86,0,0,0-2.86,0L330.89,286A.75.75,0,0,0,330.89,287.27Z" transform="translate(-34.42 -9.48)"/><path class="cls-31" d="M173.74,338.27a8.78,8.78,0,0,1-4.39-1.17l-110-63.5a4.68,4.68,0,0,1,0-8.1L77.53,255l.65,1.12L60,266.62a3.39,3.39,0,0,0,0,5.86L170,336a7.5,7.5,0,0,0,7.49,0l20.16-11.68.65,1.12-20.16,11.68A8.75,8.75,0,0,1,173.74,338.27Z" transform="translate(-34.42 -9.48)"/><path class="cls-32" d="M146.35,36.11a6.78,6.78,0,0,0,6.11,0c1.68-1,1.68-2.55,0-3.52a6.78,6.78,0,0,0-6.11,0C144.67,33.56,144.67,35.14,146.35,36.11Z" transform="translate(-34.42 -9.48)"/><path class="cls-33" d="M136,42.08a6.7,6.7,0,0,0,6.1,0c1.68-1,1.68-2.55,0-3.52a6.76,6.76,0,0,0-6.1,0C134.32,39.53,134.32,41.11,136,42.08Z" transform="translate(-34.42 -9.48)"/><path class="cls-34" d="M125.66,48.06a6.76,6.76,0,0,0,6.1,0c1.69-1,1.69-2.55,0-3.53a6.76,6.76,0,0,0-6.1,0C124,45.51,124,47.08,125.66,48.06Z" transform="translate(-34.42 -9.48)"/><path class="cls-35" d="M115.32,54a6.76,6.76,0,0,0,6.1,0c1.68-1,1.68-2.55,0-3.52a6.7,6.7,0,0,0-6.1,0C113.63,51.48,113.63,53.06,115.32,54Z" transform="translate(-34.42 -9.48)"/><path class="cls-36" d="M105,60a6.7,6.7,0,0,0,6.1,0c1.69-1,1.69-2.55,0-3.52a6.76,6.76,0,0,0-6.1,0C103.29,57.45,103.29,59,105,60Z" transform="translate(-34.42 -9.48)"/><path class="cls-37" d="M77.16,213.44l3.17,1.82c1.63,1,3,0,3-2.23V127.7a7.11,7.11,0,0,0-3-5.65l-3.17-1.82c-1.63-1-3,.06-3,2.23v85.33A7.11,7.11,0,0,0,77.16,213.44Z" transform="translate(-34.42 -9.48)"/><g class="cls-38"><polygon class="cls-39" points="4.22 219.7 57.81 188.77 57.81 104.79 4.22 135.73 4.22 219.7"/><polygon class="cls-40" points="8.89 222.35 62.48 191.41 62.48 107.44 8.89 138.38 8.89 222.35"/><polygon class="cls-39" points="57.81 104.79 62.48 107.44 8.89 138.38 4.22 135.73 57.81 104.79"/><polygon class="cls-39" points="57.81 188.77 62.48 191.41 8.89 222.35 4.22 219.7 57.81 188.77"/><path class="cls-41" d="M37.45,140.57l3-1.73v0a1.9,1.9,0,0,1,1.92.15l3.16,1.83a7.08,7.08,0,0,1,3,5.65v85.32a2.58,2.58,0,0,1-1,2.36v0l-2.85,1.67.57-2-2.83-1.64a7.06,7.06,0,0,1-3-5.65V141.22Z" transform="translate(-34.42 -9.48)"/><path class="cls-1" d="M45.48,140.84,42.32,139a2,2,0,0,0-1.62-.26,2.39,2.39,0,0,1,.88.31l3.22,1.86a7.24,7.24,0,0,1,3,5.77v87a.77.77,0,0,1,0,.15,3,3,0,0,0,.64-2V146.49A7.08,7.08,0,0,0,45.48,140.84Z" transform="translate(-34.42 -9.48)"/><path class="cls-42" d="M39.4,233.93l3.16,1.83c1.63.94,3-.06,3-2.24V148.2a7.08,7.08,0,0,0-3-5.65l-3.16-1.83c-1.64-.94-3,.06-3,2.24v85.32A7.06,7.06,0,0,0,39.4,233.93Z" transform="translate(-34.42 -9.48)"/><polygon class="cls-43" points="52.34 164.92 46.65 161.63 46.65 153.3 52.34 156.59 52.34 164.92"/><polygon class="cls-43" points="52.34 169.1 52.34 177.95 46.65 174.66 46.65 165.82 52.34 169.1"/><polygon class="cls-43" points="28.37 139.69 28.37 146.55 26.4 147.68 26.4 140.82 28.37 139.69"/><polygon class="cls-43" points="32.91 143.93 30.94 145.06 30.94 138.21 32.91 137.07 32.91 143.93"/><polygon class="cls-43" points="22.53 176.71 22.53 196.07 46.3 182.34 52.24 185.77 16.83 206.22 16.83 173.42 22.53 176.71"/><polygon class="cls-43" points="46.65 146.23 46.65 136 35.47 142.45 35.47 135.59 52.34 125.85 52.34 149.52 46.65 146.23"/><polygon class="cls-43" points="16.83 165.34 22.53 168.62 22.53 172.52 16.83 169.24 16.83 165.34"/><polygon class="cls-43" points="23.84 149.16 22.53 149.92 22.53 160.74 16.83 157.45 16.83 146.35 23.84 142.31 23.84 149.16"/><polygon class="cls-43" points="39.82 148.21 43.8 145.92 43.8 141.33 39.82 143.63 39.82 148.21"/><polygon class="cls-43" points="32.91 152.2 36.88 149.91 36.88 145.32 32.91 147.62 32.91 152.2"/><polygon class="cls-43" points="32.91 159.33 36.88 157.04 36.88 152.45 32.91 154.75 32.91 159.33"/><polygon class="cls-43" points="26 190.03 29.97 187.74 29.97 183.16 26 185.45 26 190.03"/><polygon class="cls-43" points="39.82 155.34 43.8 153.05 43.8 148.46 39.82 150.75 39.82 155.34"/><polygon class="cls-43" points="26 156.19 29.97 153.9 29.97 149.32 26 151.61 26 156.19"/><path class="cls-44" d="M75.62,123.86l4.72,2.62v84l2.94-1.72,3.39-28.48V122.8s-6.22-1.44-6.16-1.31-1,.11-1,.11Z" transform="translate(-34.42 -9.48)"/></g><g id="logo" class="cls-45"><path id="nd" class="cls-46" d="M351.52,185.4c-.25,2.4-.39,4.41-.5,5.86a36.21,36.21,0,0,0-.19,4.54,10.7,10.7,0,0,0,.09,1.67,23,23,0,0,0,1,4.49,22.44,22.44,0,0,0,2.51,5.31l12.35,20.32c.41-3.3.66-6,.76-7.87a21.74,21.74,0,0,0,0-3,24.6,24.6,0,0,0-1.17-5.64c-.12-.37-.25-.77-.4-1.12a15.92,15.92,0,0,0-1.43-2.86Z" transform="translate(-34.42 -9.48)"/><path id="nx" class="cls-46" d="M353.52,159.05a107.63,107.63,0,0,0-1.08,11.63,25.08,25.08,0,0,0,.31,5.54,28.79,28.79,0,0,0,1.79,6.16h0c.39.91.84,1.84,1.27,2.73s14.45,24.22,32.35,53.94c.68-5.61,1.09-9.81,1.15-10.94V226a7.51,7.51,0,0,0-.08-1,27.27,27.27,0,0,0-1.07-5.29,33.06,33.06,0,0,0-2-4.89C384.25,211.16,371.76,189.74,353.52,159.05Z" transform="translate(-34.42 -9.48)"/><path id="nu" class="cls-46" d="M376.12,172.56c-.27,2.38-.43,4.38-.56,5.86a34.25,34.25,0,0,0-.22,4.86,23.94,23.94,0,0,0,.91,5.76,20.72,20.72,0,0,0,2.39,5.27l11.72,20.38c.4-3,.65-5.44.79-7.3a20,20,0,0,0,.1-3.55,24.55,24.55,0,0,0-1.05-5.62c-.12-.37-.23-.77-.37-1.12a16.51,16.51,0,0,0-1.35-2.85Z" transform="translate(-34.42 -9.48)"/></g></g><g id="Layer_2" data-name="Layer 2" class="cls-45"><path id="nd-2" data-name="nd" class="cls-47" d="M124.86,150c.12,2.23.27,4.07.39,5.41a28.1,28.1,0,0,0,.51,4.08,12.39,12.39,0,0,0,2,4.78,12.18,12.18,0,0,0,3.49,3.21l16.49,11c-.11-3.26-.33-5.83-.52-7.61a15.25,15.25,0,0,0-.5-2.74,14.21,14.21,0,0,0-2.2-4.38c-.19-.27-.4-.52-.61-.77a9,9,0,0,0-2-1.71Z" transform="translate(-34.42 -9.48)"/><path id="nx-2" data-name="nx" class="cls-48" d="M122.87,126.3a84.07,84.07,0,0,0,.67,10.52,15.93,15.93,0,0,0,1.16,4.56,14.37,14.37,0,0,0,2.8,4.23h0a14.34,14.34,0,0,0,1.72,1.59c.72.57,19.14,12.68,44.19,29-.29-5.65-.64-9.8-.81-10.86a18.24,18.24,0,0,0-.41-2s-.13-.45-.28-.89a16.06,16.06,0,0,0-2.19-4.21,17.57,17.57,0,0,0-3.14-3.19C163.85,153,146.63,141.62,122.87,126.3Z" transform="translate(-34.42 -9.48)"/><path id="nu-2" data-name="nu" class="cls-49" d="M148.34,124c.12,2.22.27,4.07.39,5.41a26.18,26.18,0,0,0,.58,4.37,13.49,13.49,0,0,0,1.95,4.48,10.7,10.7,0,0,0,3.49,3.21l16.51,11c-.12-2.92-.31-5.33-.48-7.1a16.42,16.42,0,0,0-.54-3.25,14.54,14.54,0,0,0-2.2-4.38,9.89,9.89,0,0,0-2.61-2.48Z" transform="translate(-34.42 -9.48)"/></g></g></svg>