<svg xmlns="http://www.w3.org/2000/svg" xmlns:xlink="http://www.w3.org/1999/xlink" viewBox="0 0 256.56 400"><defs><style>.cls-1{fill:none;}.cls-2{isolation:isolate;}.cls-3{fill:url(#Áåçûìÿííûé_ãðàäèåíò_377);}.cls-4{fill:url(#Áåçûìÿííûé_ãðàäèåíò_388);}.cls-5{fill:#d4088c;}.cls-6{fill:url(#Áåçûìÿííûé_ãðàäèåíò_300);}.cls-7{fill:#6ee8fc;}.cls-8{fill:#267fe5;}.cls-9{fill:#0c0f38;opacity:0.8;}.cls-10{fill:url(#Áåçûìÿííûé_ãðàäèåíò_388-2);}.cls-11{fill:url(#Áåçûìÿííûé_ãðàäèåíò_377-2);}.cls-12{fill:url(#Áåçûìÿííûé_ãðàäèåíò_388-3);}.cls-13{fill:url(#Áåçûìÿííûé_ãðàäèåíò_300-2);}.cls-14{fill:url(#Áåçûìÿííûé_ãðàäèåíò_302);}.cls-15{fill:#6de0f6;}.cls-16{clip-path:url(#clip-path);}.cls-17{fill:#25bfec;}.cls-18{fill:#18d0f7;}.cls-19{fill:#480689;}.cls-20{opacity:0.2;fill:url(#linear-gradient);}.cls-20,.cls-21{mix-blend-mode:lighten;}.cls-21{opacity:0.25;fill:url(#linear-gradient-2);}.cls-22{fill:url(#Áåçûìÿííûé_ãðàäèåíò_377-3);}.cls-23{fill:url(#Áåçûìÿííûé_ãðàäèåíò_388-4);}.cls-24{fill:url(#Áåçûìÿííûé_ãðàäèåíò_300-3);}</style><linearGradient id="Áåçûìÿííûé_ãðàäèåíò_377" x1="217.2" y1="197.39" x2="340.84" y2="197.39" gradientUnits="userSpaceOnUse"><stop offset="0" stop-color="#a31fa9"/><stop offset="0.07" stop-color="#8b17a0"/><stop offset="0.15" stop-color="#740f98"/><stop offset="0.24" stop-color="#640a92"/><stop offset="0.34" stop-color="#5b078f"/><stop offset="0.48" stop-color="#58068e"/><stop offset="0.63" stop-color="#4d22a3"/><stop offset="0.94" stop-color="#3168da"/><stop offset="1" stop-color="#2c75e4"/></linearGradient><linearGradient id="Áåçûìÿííûé_ãðàäèåíò_388" x1="217.2" y1="211.09" x2="340.84" y2="211.09" gradientUnits="userSpaceOnUse"><stop offset="0" stop-color="#d4088c"/><stop offset="0.23" stop-color="#d4088c"/><stop offset="0.51" stop-color="#6ee1f8"/><stop offset="0.78" stop-color="#6ee8fc"/><stop offset="1" stop-color="#6ee8fc"/></linearGradient><linearGradient id="Áåçûìÿííûé_ãðàäèåíò_300" x1="504.09" y1="697.1" x2="562.33" y2="646.67" gradientTransform="matrix(0.87, 0.5, -1, 0.58, 486.6, -479.06)" gradientUnits="userSpaceOnUse"><stop offset="0" stop-color="#8d139b"/><stop offset="0.17" stop-color="#851ba1"/><stop offset="0.43" stop-color="#6e33b2"/><stop offset="0.76" stop-color="#4958cd"/><stop offset="1" stop-color="#2979e4"/></linearGradient><linearGradient id="Áåçûìÿííûé_ãðàäèåíò_388-2" x1="91.78" y1="343.85" x2="274.13" y2="343.85" xlink:href="#Áåçûìÿííûé_ãðàäèåíò_388"/><linearGradient id="Áåçûìÿííûé_ãðàäèåíò_377-2" x1="91.7" y1="233.82" x2="278.69" y2="233.82" xlink:href="#Áåçûìÿííûé_ãðàäèåíò_377"/><linearGradient id="Áåçûìÿííûé_ãðàäèåíò_388-3" x1="91.7" y1="291.17" x2="278.69" y2="291.17" xlink:href="#Áåçûìÿííûé_ãðàäèåíò_388"/><linearGradient id="Áåçûìÿííûé_ãðàäèåíò_300-2" x1="434.86" y1="758.23" x2="523.07" y2="681.84" xlink:href="#Áåçûìÿííûé_ãðàäèåíò_300"/><linearGradient id="Áåçûìÿííûé_ãðàäèåíò_302" x1="446.37" y1="748.27" x2="512.04" y2="691.4" gradientTransform="matrix(0.87, 0.5, -1, 0.58, 486.6, -479.06)" gradientUnits="userSpaceOnUse"><stop offset="0" stop-color="#630692"/><stop offset="0.23" stop-color="#5b0e94"/><stop offset="0.59" stop-color="#432399"/><stop offset="1" stop-color="#2142a1"/></linearGradient><clipPath id="clip-path" transform="translate(-71.72 0)"><path class="cls-1" d="M178.43,199.1l-35.18-20.31c-2.5-1.45-2.19-4,.7-5.64l33.77-19.5c2.89-1.66,7.26-1.85,9.76-.4l35.18,20.31c2.5,1.44,2.19,4-.7,5.63l-33.78,19.5C185.3,200.36,180.93,200.54,178.43,199.1Z"/></clipPath><linearGradient id="linear-gradient" x1="182.98" y1="200.07" x2="182.98" gradientUnits="userSpaceOnUse"><stop offset="0.01" stop-color="#25bfec"/><stop offset="0.04" stop-color="#24b6e3" stop-opacity="0.95"/><stop offset="0.19" stop-color="#208bb7" stop-opacity="0.7"/><stop offset="0.34" stop-color="#1c6692" stop-opacity="0.49"/><stop offset="0.48" stop-color="#194773" stop-opacity="0.31"/><stop offset="0.62" stop-color="#16305c" stop-opacity="0.18"/><stop offset="0.76" stop-color="#141f4b" stop-opacity="0.08"/><stop offset="0.89" stop-color="#131440" stop-opacity="0.02"/><stop offset="1" stop-color="#13113d" stop-opacity="0"/></linearGradient><linearGradient id="linear-gradient-2" x1="182.98" y1="197.89" x2="182.98" y2="16.82" gradientUnits="userSpaceOnUse"><stop offset="0.01" stop-color="#70e8fc"/><stop offset="0.07" stop-color="#66d0e7" stop-opacity="0.89"/><stop offset="0.22" stop-color="#509eba" stop-opacity="0.66"/><stop offset="0.36" stop-color="#3d7394" stop-opacity="0.46"/><stop offset="0.5" stop-color="#2e5075" stop-opacity="0.29"/><stop offset="0.64" stop-color="#22345c" stop-opacity="0.16"/><stop offset="0.77" stop-color="#1a214b" stop-opacity="0.07"/><stop offset="0.89" stop-color="#151541" stop-opacity="0.02"/><stop offset="1" stop-color="#13113d" stop-opacity="0"/></linearGradient><linearGradient id="Áåçûìÿííûé_ãðàäèåíò_377-3" x1="62.13" y1="370.7" x2="185.76" y2="370.7" xlink:href="#Áåçûìÿííûé_ãðàäèåíò_377"/><linearGradient id="Áåçûìÿííûé_ãðàäèåíò_388-4" x1="62.13" y1="384.4" x2="185.76" y2="384.4" xlink:href="#Áåçûìÿííûé_ãðàäèåíò_388"/><linearGradient id="Áåçûìÿííûé_ãðàäèåíò_300-3" x1="587.86" y1="924.72" x2="646.1" y2="874.29" xlink:href="#Áåçûìÿííûé_ãðàäèåíò_300"/></defs><title>flexible</title><g class="cls-2"><g id="Layer_1" data-name="Layer 1"><path class="cls-3" d="M328.28,175.11H295.66l-9.05-5.2c-4.68-2.7-12.84-2.36-18.24.75l-9,5.21h-32.6v21.9h0c-.14,1.83.88,3.59,3.13,4.89l38.51,22.21c4.68,2.7,12.84,2.36,18.24-.76l37.11-21.46c2.81-1.62,4.3-3.67,4.44-5.65h0Z" transform="translate(-71.72 0)"/><path class="cls-4" d="M323.81,201.14,286.7,222.6c-5.4,3.12-13.56,3.46-18.24.76L230,201.15c-2.25-1.3-3.27-3.06-3.13-4.89h0v1.51h0c-.14,1.83.88,3.59,3.13,4.89l38.51,22.21c4.68,2.7,12.84,2.36,18.24-.76l37.11-21.46c2.81-1.62,4.3-3.67,4.44-5.65h0v-1.5h0C328.11,197.47,326.62,199.52,323.81,201.14Z" transform="translate(-71.72 0)"/><path class="cls-5" d="M228.88,199.28h0v-21.9h32.59l9-5.21c5.4-3.11,13.56-3.45,18.24-.75l9.05,5.2h30.56v-1.51H295.66l-9.05-5.2c-4.68-2.7-12.84-2.36-18.24.75l-9,5.21h-32.6v21.9h0c-.14,1.83.88,3.59,3.13,4.89l.37.21A4.59,4.59,0,0,1,228.88,199.28Z" transform="translate(-71.72 0)"/><path class="cls-6" d="M268.46,203,230,180.76c-4.68-2.7-4.09-7.41,1.31-10.53l37.11-21.46c5.4-3.12,13.56-3.46,18.24-.76l38.51,22.21c4.68,2.7,4.09,7.42-1.31,10.54L286.7,202.22C281.3,205.33,273.14,205.67,268.46,203Z" transform="translate(-71.72 0)"/><path class="cls-7" d="M325.12,170.22,286.61,148a17,17,0,0,0-9.21-1.78A15.33,15.33,0,0,1,284,148l38.51,22.21c4.67,2.7,4.09,7.42-1.31,10.54l-37.11,21.46a20.8,20.8,0,0,1-9,2.53,21.46,21.46,0,0,0,11.61-2.53l37.11-21.46C329.21,177.64,329.8,172.92,325.12,170.22Z" transform="translate(-71.72 0)"/><path class="cls-5" d="M271.41,203,232.9,180.76c-4.68-2.7-4.09-7.41,1.31-10.53l37.11-21.46a20.74,20.74,0,0,1,8.89-2.53,21.54,21.54,0,0,0-11.84,2.53l-37.11,21.46c-5.4,3.12-6,7.83-1.31,10.53L268.46,203a17.07,17.07,0,0,0,9.35,1.77A15.11,15.11,0,0,1,271.41,203Z" transform="translate(-71.72 0)"/><path class="cls-7" d="M296.36,186.36c-10.39,6-27.25,6-37.65,0s-10.4-15.73,0-21.74,27.26-6,37.65,0S306.76,180.36,296.36,186.36Z" transform="translate(-71.72 0)"/><path class="cls-8" d="M258.71,170.35c10.4-6,27.26-6,37.65,0,3.94,2.27,6.38,5.07,7.33,8,1.58-4.83-.86-10-7.33-13.74-10.39-6-27.25-6-37.65,0-6.47,3.73-8.91,8.91-7.33,13.74C252.34,175.42,254.77,172.62,258.71,170.35Z" transform="translate(-71.72 0)"/><path class="cls-9" d="M174.56,386.35,109.34,348.7c-4.64-2.68-4.06-7.36,1.3-10.45l62.62-36.15c5.35-3.09,13.45-3.43,18.09-.75L256.57,339c4.64,2.68,4.05,7.36-1.3,10.45L192.65,385.6C187.3,388.69,179.2,389,174.56,386.35Z" transform="translate(-71.72 0)"/><path class="cls-10" d="M182.32,396.8a19.62,19.62,0,0,1-9.64-2.22L95.85,350.23c-2.63-1.52-4.07-3.65-4.07-6,0-2.79,2-5.57,5.6-7.63L171.15,294c6.51-3.76,16.41-4.15,22.08-.88l76.83,44.35c2.62,1.52,4.07,3.66,4.07,6,0,2.8-2,5.58-5.6,7.63L194.76,393.7A25.56,25.56,0,0,1,182.32,396.8Zm1.27-104.38a24.07,24.07,0,0,0-11.67,2.91L98.15,337.92c-3.07,1.78-4.83,4.07-4.83,6.3,0,1.78,1.17,3.44,3.3,4.67l76.83,44.36c5.24,3,14.46,2.63,20.54-.88l73.77-42.59c3.07-1.77,4.83-4.07,4.83-6.3,0-1.78-1.17-3.44-3.3-4.67l-76.83-44.36A18.16,18.16,0,0,0,183.59,292.42Z" transform="translate(-71.72 0)"/><path class="cls-11" d="M259.7,176.17H227.35l-36-20.78c-4.64-2.68-12.74-2.35-18.09.75l-34.71,20H106.22v93.59h0c-.13,1.81.88,3.56,3.11,4.85l65.22,37.65c4.64,2.68,12.74,2.35,18.09-.75l62.62-36.15c2.78-1.61,4.26-3.64,4.41-5.6h0Z" transform="translate(-71.72 0)"/><path class="cls-12" d="M255.27,273.86,192.65,310c-5.35,3.09-13.45,3.42-18.09.75l-65.22-37.66c-2.23-1.28-3.24-3-3.11-4.84h0v1.49h0c-.13,1.81.88,3.56,3.11,4.85l65.22,37.65c4.64,2.68,12.74,2.35,18.09-.75l62.62-36.15c2.78-1.61,4.26-3.64,4.41-5.6h0v-1.49h0C259.53,270.22,258.05,272.26,255.27,273.86Z" transform="translate(-71.72 0)"/><path class="cls-5" d="M108.27,271.26h0V177.67h32.33l34.71-20c5.35-3.09,13.45-3.43,18.09-.75l36,20.79h30.3v-1.5H227.35l-36-20.78c-4.64-2.68-12.74-2.35-18.09.75l-34.71,20H106.22v93.59h0c-.13,1.81.88,3.56,3.11,4.85l.37.21A4.56,4.56,0,0,1,108.27,271.26Z" transform="translate(-71.72 0)"/><path class="cls-7" d="M257.86,177.91V271.4h0a5.77,5.77,0,0,1-1.54,3.31c2.12-1.49,3.25-3.25,3.38-4.95h0V176.4A9.49,9.49,0,0,0,257.86,177.91Z" transform="translate(-71.72 0)"/><path class="cls-13" d="M174.56,218.68,109.34,181c-4.64-2.68-4.06-7.35,1.3-10.44l62.62-36.16c5.35-3.09,13.45-3.43,18.09-.75l65.22,37.66c4.64,2.67,4.05,7.35-1.3,10.44l-62.62,36.16C187.3,221,179.2,221.35,174.56,218.68Z" transform="translate(-71.72 0)"/><path class="cls-7" d="M256.57,171.33l-65.22-37.66a16.74,16.74,0,0,0-9.13-1.76,15.27,15.27,0,0,1,6.58,1.76L254,171.33c4.63,2.67,4,7.35-1.3,10.44L190.1,217.93a20.61,20.61,0,0,1-9,2.51,21.3,21.3,0,0,0,11.51-2.51l62.62-36.16C260.62,178.68,261.21,174,256.57,171.33Z" transform="translate(-71.72 0)"/><path class="cls-14" d="M176.7,207.82l-48.55-28c-3.46-2-3-5.47,1-7.77l46.62-26.92c4-2.3,10-2.55,13.47-.56l48.56,28c3.45,2,3,5.48-1,7.78l-46.62,26.92C186.19,209.56,180.16,209.81,176.7,207.82Z" transform="translate(-71.72 0)"/><path class="cls-15" d="M178.43,199.1l-35.18-20.31c-2.5-1.45-2.19-4,.7-5.64l33.77-19.5c2.89-1.66,7.26-1.85,9.76-.4l35.18,20.31c2.5,1.44,2.19,4-.7,5.63l-33.78,19.5C185.3,200.36,180.93,200.54,178.43,199.1Z" transform="translate(-71.72 0)"/><path class="cls-5" d="M177.48,218.68,112.26,181c-4.63-2.68-4.05-7.35,1.3-10.44l62.62-36.16a20.63,20.63,0,0,1,8.82-2.5,21.27,21.27,0,0,0-11.74,2.5l-62.62,36.16c-5.36,3.09-5.94,7.76-1.3,10.44l65.22,37.66a17,17,0,0,0,9.27,1.75A15.06,15.06,0,0,1,177.48,218.68Z" transform="translate(-71.72 0)"/><g class="cls-16"><path class="cls-8" d="M143.93,175.9l33.79-19.51c2.89-1.67,7.26-1.85,9.76-.4l35.2,20.32a3.82,3.82,0,0,1,1.23,1.1c.84-1.38.48-2.86-1.23-3.85l-35.2-20.32c-2.5-1.44-6.87-1.26-9.76.4l-33.79,19.51c-2.25,1.3-2.91,3.11-1.93,4.53A5.43,5.43,0,0,1,143.93,175.9Z" transform="translate(-71.72 0)"/><path class="cls-17" d="M143.93,179.22l33.79-19.51c2.89-1.67,7.26-1.85,9.76-.41l35.2,20.32a3.89,3.89,0,0,1,1,.86c1.11-1.46.81-3.11-1-4.17L187.48,156c-2.5-1.45-6.87-1.27-9.76.4L143.93,175.9c-2.38,1.38-3,3.32-1.73,4.78A5.57,5.57,0,0,1,143.93,179.22Z" transform="translate(-71.72 0)"/><path class="cls-18" d="M142.54,184.35a6.11,6.11,0,0,1,1.39-1.09l33.79-19.51c2.89-1.67,7.26-1.85,9.76-.4l35.2,20.32a4,4,0,0,1,.68.5c1.49-1.55,1.32-3.39-.68-4.55l-35.2-20.32c-2.5-1.44-6.87-1.26-9.76.41l-33.79,19.51C141.35,180.71,140.84,182.87,142.54,184.35Z" transform="translate(-71.72 0)"/></g><path class="cls-15" d="M205.44,287.63l-3.61,2.08c-.93.54-1.69,0-1.69-1.27V237.93a4,4,0,0,1,1.69-3.22l3.61-2.09c.93-.53,1.69,0,1.69,1.28v50.51A4,4,0,0,1,205.44,287.63Z" transform="translate(-71.72 0)"/><path class="cls-8" d="M205.44,232.62l-.86.5v49.6a4,4,0,0,1-1.69,3.22l-2.75,1.59v.91c0,1.24.76,1.81,1.69,1.27l3.61-2.08a4,4,0,0,0,1.69-3.22V233.9C207.13,232.66,206.37,232.09,205.44,232.62Z" transform="translate(-71.72 0)"/><path class="cls-15" d="M218.77,279.93,215.15,282c-.93.54-1.68,0-1.68-1.27V230.24a4,4,0,0,1,1.68-3.22l3.62-2.09c.93-.54,1.68,0,1.68,1.27v50.51A4,4,0,0,1,218.77,279.93Z" transform="translate(-71.72 0)"/><path class="cls-15" d="M232.09,272.24l-3.61,2.09c-.93.53-1.69,0-1.69-1.28V222.54a4,4,0,0,1,1.69-3.22l3.61-2.08c.94-.54,1.69,0,1.69,1.27V269A4,4,0,0,1,232.09,272.24Z" transform="translate(-71.72 0)"/><path class="cls-15" d="M245.42,264.54l-3.61,2.09c-.94.54-1.69,0-1.69-1.27V214.85a4,4,0,0,1,1.69-3.22l3.61-2.09c.93-.54,1.69,0,1.69,1.28v50.5A4,4,0,0,1,245.42,264.54Z" transform="translate(-71.72 0)"/><path class="cls-8" d="M218.77,224.93l-.87.5V275a4,4,0,0,1-1.68,3.22l-2.75,1.58v.92c0,1.24.75,1.81,1.68,1.27l3.62-2.09a4,4,0,0,0,1.68-3.22V226.2C220.45,225,219.7,224.39,218.77,224.93Z" transform="translate(-71.72 0)"/><path class="cls-8" d="M232.09,217.24l-.86.5v49.59a4,4,0,0,1-1.69,3.22l-2.75,1.59v.91c0,1.24.76,1.81,1.69,1.28l3.61-2.09a4,4,0,0,0,1.69-3.22V218.51C233.78,217.27,233,216.7,232.09,217.24Z" transform="translate(-71.72 0)"/><path class="cls-8" d="M245.42,209.54l-.87.5v49.6a4,4,0,0,1-1.68,3.22l-2.75,1.59v.91c0,1.24.75,1.81,1.69,1.27l3.61-2.09a4,4,0,0,0,1.69-3.22v-50.5C247.11,209.57,246.35,209,245.42,209.54Z" transform="translate(-71.72 0)"/><path class="cls-19" d="M169.18,293.82a2.67,2.67,0,0,1-1.33-.39l-47.1-27.19a6.84,6.84,0,0,1-2.91-5.52V207.28a2.84,2.84,0,0,1,1.19-2.61,2.22,2.22,0,0,1,2.27.13L168.41,232a6.82,6.82,0,0,1,2.91,5.52V291a2.84,2.84,0,0,1-1.19,2.61A1.85,1.85,0,0,1,169.18,293.82Zm-.77-1.35a1.19,1.19,0,0,0,1.17.14,1.88,1.88,0,0,0,.63-1.65V237.52a5.79,5.79,0,0,0-2.36-4.56l-47.1-27.2a1.24,1.24,0,0,0-1.17-.14,1.88,1.88,0,0,0-.64,1.66v53.44a5.84,5.84,0,0,0,2.36,4.56Z" transform="translate(-71.72 0)"/><path class="cls-15" d="M127.05,217.75c0,1.46-1,2.05-2.29,1.32a5.06,5.06,0,0,1-2.3-4c0-1.46,1-2,2.3-1.32A5.08,5.08,0,0,1,127.05,217.75Z" transform="translate(-71.72 0)"/><path class="cls-15" d="M127.05,225.19c0,1.46-1,2.05-2.29,1.32a5.06,5.06,0,0,1-2.3-4c0-1.46,1-2.06,2.3-1.32A5.07,5.07,0,0,1,127.05,225.19Z" transform="translate(-71.72 0)"/><path class="cls-15" d="M127.05,232.62c0,1.47-1,2.06-2.29,1.33a5.06,5.06,0,0,1-2.3-4c0-1.47,1-2.06,2.3-1.33A5.08,5.08,0,0,1,127.05,232.62Z" transform="translate(-71.72 0)"/><path class="cls-8" d="M125.91,233a5.06,5.06,0,0,1-2.3-4,2.21,2.21,0,0,1,.12-.72c-.75,0-1.27.59-1.27,1.63a5.06,5.06,0,0,0,2.3,4c1,.59,1.89.3,2.18-.61A2,2,0,0,1,125.91,233Z" transform="translate(-71.72 0)"/><path class="cls-8" d="M125.91,225.6a5.06,5.06,0,0,1-2.3-4,2.21,2.21,0,0,1,.12-.72c-.75,0-1.27.59-1.27,1.62a5.08,5.08,0,0,0,2.3,4c1,.59,1.89.3,2.18-.61A2.1,2.1,0,0,1,125.91,225.6Z" transform="translate(-71.72 0)"/><path class="cls-8" d="M125.91,218.16a5.06,5.06,0,0,1-2.3-4,2.21,2.21,0,0,1,.12-.72c-.75,0-1.27.59-1.27,1.62a5.06,5.06,0,0,0,2.3,4c1,.6,1.89.31,2.18-.6A2.1,2.1,0,0,1,125.91,218.16Z" transform="translate(-71.72 0)"/><path class="cls-19" d="M164.94,267.14l-1.52-.87a2,2,0,0,1-.86-1.63v-7.29c0-.63.39-.92.86-.65l1.52.88a2,2,0,0,1,.85,1.63v7.29C165.79,267.13,165.41,267.42,164.94,267.14Z" transform="translate(-71.72 0)"/><path class="cls-20" d="M224.35,0H141.62V176.37h0a2.87,2.87,0,0,0,1.68,2.43l35.15,20.3c2.5,1.44,6.86,1.26,9.75-.41L222,179.21a4.16,4.16,0,0,0,2.38-3h0Z" transform="translate(-71.72 0)"/><path class="cls-21" d="M220.42,16.82H145.55V176.44h0a2.65,2.65,0,0,0,1.53,2.2L178.89,197c2.26,1.3,6.21,1.14,8.82-.37L218.26,179a3.76,3.76,0,0,0,2.15-2.73h0Z" transform="translate(-71.72 0)"/><circle class="cls-15" cx="91.64" cy="161.59" r="3.08"/><path class="cls-15" d="M191.84,140.93a5.26,5.26,0,1,1-5.26-5.26A5.25,5.25,0,0,1,191.84,140.93Z" transform="translate(-71.72 0)"/><path class="cls-15" d="M181.46,137.58a1.36,1.36,0,1,1-1.36-1.35A1.36,1.36,0,0,1,181.46,137.58Z" transform="translate(-71.72 0)"/><path class="cls-15" d="M205.7,111.16a2.63,2.63,0,1,1-2.63-2.63A2.63,2.63,0,0,1,205.7,111.16Z" transform="translate(-71.72 0)"/><path class="cls-15" d="M191.07,88.83A1.86,1.86,0,1,1,189.21,87,1.86,1.86,0,0,1,191.07,88.83Z" transform="translate(-71.72 0)"/><circle class="cls-15" cx="94.72" cy="74.59" r="3.37"/><path class="cls-15" d="M191.84,50.72A6.81,6.81,0,1,1,185,43.91,6.81,6.81,0,0,1,191.84,50.72Z" transform="translate(-71.72 0)"/><path class="cls-15" d="M178.2,46.39a1.88,1.88,0,1,1-1.88-1.87A1.88,1.88,0,0,1,178.2,46.39Z" transform="translate(-71.72 0)"/><path class="cls-15" d="M192.73,58.9a2.21,2.21,0,1,1-2.21-2.21A2.21,2.21,0,0,1,192.73,58.9Z" transform="translate(-71.72 0)"/><path class="cls-15" d="M194.38,54.28a1.07,1.07,0,1,1-1.07-1.06A1.06,1.06,0,0,1,194.38,54.28Z" transform="translate(-71.72 0)"/><path class="cls-15" d="M208.27,31.28a3.09,3.09,0,1,1-3.09-3.09A3.09,3.09,0,0,1,208.27,31.28Z" transform="translate(-71.72 0)"/><path class="cls-22" d="M173.21,348.42H140.59l-9.05-5.2c-4.68-2.7-12.84-2.36-18.24.75l-9,5.22H71.74v21.89h0c-.14,1.83.88,3.59,3.13,4.89l38.51,22.21c4.68,2.7,12.84,2.36,18.24-.76L168.74,376c2.8-1.62,4.3-3.67,4.44-5.64h0Z" transform="translate(-71.72 0)"/><path class="cls-23" d="M168.74,374.45l-37.11,21.46c-5.4,3.12-13.56,3.46-18.24.76L74.88,374.46c-2.25-1.3-3.27-3.06-3.13-4.89h0v1.51h0c-.14,1.83.88,3.59,3.13,4.89l38.51,22.21c4.68,2.7,12.84,2.36,18.24-.76L168.74,376c2.8-1.62,4.3-3.67,4.44-5.64h0v-1.51h0C173,370.78,171.54,372.83,168.74,374.45Z" transform="translate(-71.72 0)"/><path class="cls-5" d="M73.8,372.59h0v-21.9h32.6l9-5.21c5.4-3.11,13.57-3.45,18.25-.75l9.05,5.2h30.56v-1.51H140.59l-9.05-5.2c-4.68-2.7-12.84-2.36-18.24.75l-9,5.22H71.74v21.89h0c-.14,1.83.88,3.59,3.13,4.89l.37.21A4.58,4.58,0,0,1,73.8,372.59Z" transform="translate(-71.72 0)"/><path class="cls-24" d="M113.39,376.28,74.88,354.07c-4.68-2.7-4.09-7.41,1.31-10.53l37.11-21.46c5.4-3.12,13.56-3.46,18.24-.76l38.51,22.21c4.68,2.7,4.09,7.42-1.31,10.54l-37.11,21.46C126.23,378.64,118.07,379,113.39,376.28Z" transform="translate(-71.72 0)"/><path class="cls-7" d="M170.05,343.53l-38.51-22.21a17.11,17.11,0,0,0-9.21-1.78,15.37,15.37,0,0,1,6.64,1.78l38.51,22.21c4.67,2.7,4.09,7.42-1.31,10.54l-37.11,21.46a20.8,20.8,0,0,1-9,2.53,21.46,21.46,0,0,0,11.61-2.53l37.11-21.46C174.14,351,174.73,346.23,170.05,343.53Z" transform="translate(-71.72 0)"/><path class="cls-5" d="M116.34,376.28,77.83,354.07c-4.68-2.7-4.09-7.41,1.31-10.53l37.11-21.46a20.74,20.74,0,0,1,8.89-2.53,21.54,21.54,0,0,0-11.84,2.53L76.19,343.54c-5.4,3.12-6,7.83-1.31,10.53l38.51,22.21a17.07,17.07,0,0,0,9.35,1.77A15.11,15.11,0,0,1,116.34,376.28Z" transform="translate(-71.72 0)"/><path class="cls-7" d="M141.29,359.67c-10.4,6-27.26,6-37.65,0s-10.4-15.73,0-21.74,27.25-6,37.65,0S151.69,353.67,141.29,359.67Z" transform="translate(-71.72 0)"/><path class="cls-8" d="M103.63,343.66c10.4-6,27.26-6,37.66,0,3.93,2.27,6.37,5.07,7.33,8,1.58-4.83-.86-10-7.33-13.74-10.4-6-27.26-6-37.66,0-6.46,3.74-8.9,8.91-7.32,13.74C97.26,348.73,99.7,345.93,103.63,343.66Z" transform="translate(-71.72 0)"/></g></g></svg>