<svg xmlns="http://www.w3.org/2000/svg" xmlns:xlink="http://www.w3.org/1999/xlink" viewBox="0 0 352.19 301.51"><defs><style>.cls-1{fill:none;}.cls-2{isolation:isolate;}.cls-11,.cls-12,.cls-14,.cls-17,.cls-22,.cls-24,.cls-25,.cls-27,.cls-28,.cls-3,.cls-32,.cls-34,.cls-35,.cls-37,.cls-38,.cls-39,.cls-44,.cls-49,.cls-52,.cls-59,.cls-61,.cls-62,.cls-63,.cls-64,.cls-65,.cls-9{mix-blend-mode:lighten;}.cls-3{fill:url(#radial-gradient);}.cls-4{fill:#312a91;}.cls-5,.cls-66{opacity:0.9;}.cls-6{fill:url(#Áåçûìÿííûé_ãðàäèåíò_3);}.cls-7{fill:url(#Áåçûìÿííûé_ãðàäèåíò_3-2);}.cls-8{fill:url(#Áåçûìÿííûé_ãðàäèåíò_3-3);}.cls-11,.cls-12,.cls-14,.cls-22,.cls-24,.cls-25,.cls-27,.cls-32,.cls-34,.cls-35,.cls-37,.cls-49,.cls-52,.cls-59,.cls-61,.cls-62,.cls-63,.cls-65,.cls-9{opacity:0.7;}.cls-9{fill:url(#Áåçûìÿííûé_ãðàäèåíò_3-4);}.cls-10{fill:url(#Áåçûìÿííûé_ãðàäèåíò_59);}.cls-11{fill:url(#Áåçûìÿííûé_ãðàäèåíò_122);}.cls-12{fill:url(#Áåçûìÿííûé_ãðàäèåíò_3-5);}.cls-13{fill:url(#Áåçûìÿííûé_ãðàäèåíò_59-2);}.cls-14{fill:url(#Áåçûìÿííûé_ãðàäèåíò_122-2);}.cls-15,.cls-18,.cls-39,.cls-44,.cls-49,.cls-66,.cls-67,.cls-68{fill:#42e8e0;}.cls-15{opacity:0.3;}.cls-16{fill:#5cfff3;}.cls-16,.cls-18,.cls-39{opacity:0.5;}.cls-17{fill:url(#Áåçûìÿííûé_ãðàäèåíò_3-6);}.cls-19{fill:url(#Áåçûìÿííûé_ãðàäèåíò_3-7);}.cls-20{fill:url(#Áåçûìÿííûé_ãðàäèåíò_3-8);}.cls-21{fill:url(#Áåçûìÿííûé_ãðàäèåíò_3-9);}.cls-22{fill:url(#Áåçûìÿííûé_ãðàäèåíò_3-10);}.cls-23{fill:url(#Áåçûìÿííûé_ãðàäèåíò_59-3);}.cls-24{fill:url(#Áåçûìÿííûé_ãðàäèåíò_122-3);}.cls-25{fill:url(#Áåçûìÿííûé_ãðàäèåíò_3-11);}.cls-26{fill:url(#Áåçûìÿííûé_ãðàäèåíò_59-4);}.cls-27{fill:url(#Áåçûìÿííûé_ãðàäèåíò_122-4);}.cls-28{fill:url(#Áåçûìÿííûé_ãðàäèåíò_3-12);}.cls-29{fill:url(#Áåçûìÿííûé_ãðàäèåíò_3-13);}.cls-30{fill:url(#Áåçûìÿííûé_ãðàäèåíò_3-14);}.cls-31{fill:url(#Áåçûìÿííûé_ãðàäèåíò_3-15);}.cls-32{fill:url(#Áåçûìÿííûé_ãðàäèåíò_3-16);}.cls-33{fill:url(#Áåçûìÿííûé_ãðàäèåíò_59-5);}.cls-34{fill:url(#Áåçûìÿííûé_ãðàäèåíò_122-5);}.cls-35{fill:url(#Áåçûìÿííûé_ãðàäèåíò_3-17);}.cls-36{fill:url(#Áåçûìÿííûé_ãðàäèåíò_59-6);}.cls-37{fill:url(#Áåçûìÿííûé_ãðàäèåíò_122-6);}.cls-38{fill:url(#Áåçûìÿííûé_ãðàäèåíò_3-18);}.cls-40{fill:url(#Áåçûìÿííûé_ãðàäèåíò_59-7);}.cls-41{fill:#0b0244;opacity:0.6;}.cls-42{fill:#110749;}.cls-43{fill:url(#New_Gradient_Swatch_1);}.cls-45{fill:url(#New_Gradient_Swatch_1-2);}.cls-46{fill:url(#Áåçûìÿííûé_ãðàäèåíò_82);}.cls-47{fill:url(#New_Gradient_Swatch_1-3);}.cls-48{fill:url(#New_Gradient_Swatch_1-4);}.cls-50{fill:url(#New_Gradient_Swatch_1-5);}.cls-51{fill:#2d1f84;}.cls-52{fill:url(#Áåçûìÿííûé_ãðàäèåíò_122-7);}.cls-53{clip-path:url(#clip-path);}.cls-54{fill:url(#New_Gradient_Swatch_1-6);}.cls-55{fill:url(#New_Gradient_Swatch_1-7);}.cls-56{fill:url(#New_Gradient_Swatch_1-8);}.cls-57{fill:url(#New_Gradient_Swatch_1-9);}.cls-58{fill:#41329e;}.cls-59{fill:url(#Áåçûìÿííûé_ãðàäèåíò_3-19);}.cls-60{fill:#7979d3;}.cls-61{fill:url(#Áåçûìÿííûé_ãðàäèåíò_3-20);}.cls-62{fill:url(#Áåçûìÿííûé_ãðàäèåíò_122-8);}.cls-63{fill:url(#Áåçûìÿííûé_ãðàäèåíò_3-21);}.cls-65{fill:url(#Áåçûìÿííûé_ãðàäèåíò_3-22);}.cls-67{opacity:0.2;}.cls-69{fill:url(#New_Gradient_Swatch_2);}.cls-70{fill:url(#New_Gradient_Swatch_2-2);}.cls-71{fill:url(#New_Gradient_Swatch_2-3);}.cls-72{fill:url(#New_Gradient_Swatch_2-4);}.cls-73{fill:url(#New_Gradient_Swatch_2-5);}.cls-74{fill:url(#New_Gradient_Swatch_2-6);}</style><radialGradient id="radial-gradient" cx="-3460.38" cy="-71.9" r="118.45" gradientTransform="matrix(-0.6, 1.04, -0.6, -1.05, -1906.86, 3815.47)" gradientUnits="userSpaceOnUse"><stop offset="0" stop-color="#42e8e0"/><stop offset="0.01" stop-color="#42e8e0" stop-opacity="0.99"/><stop offset="0.11" stop-color="#42e8e0" stop-opacity="0.76"/><stop offset="0.23" stop-color="#42e8e0" stop-opacity="0.56"/><stop offset="0.34" stop-color="#42e8e0" stop-opacity="0.39"/><stop offset="0.46" stop-color="#42e8e0" stop-opacity="0.25"/><stop offset="0.58" stop-color="#42e8e0" stop-opacity="0.14"/><stop offset="0.71" stop-color="#42e8e0" stop-opacity="0.06"/><stop offset="0.84" stop-color="#42e8e0" stop-opacity="0.01"/><stop offset="1" stop-color="#42e8e0" stop-opacity="0"/></radialGradient><linearGradient id="Áåçûìÿííûé_ãðàäèåíò_3" x1="-1745.41" y1="1201.52" x2="-1872.63" y2="1175.36" gradientTransform="matrix(0.85, 0.52, -0.52, 0.85, 2481.12, 46)" gradientUnits="userSpaceOnUse"><stop offset="0" stop-color="#180d5b"/><stop offset="0.09" stop-color="#1a1660"/><stop offset="0.25" stop-color="#1e2d6e"/><stop offset="0.44" stop-color="#255385"/><stop offset="0.66" stop-color="#2f87a5"/><stop offset="0.9" stop-color="#3ccace"/><stop offset="1" stop-color="#42e8e0"/></linearGradient><linearGradient id="Áåçûìÿííûé_ãðàäèåíò_3-2" x1="-1784.14" y1="1233.53" x2="-1870.56" y2="1177.4" xlink:href="#Áåçûìÿííûé_ãðàäèåíò_3"/><linearGradient id="Áåçûìÿííûé_ãðàäèåíò_3-3" x1="1584.48" y1="1234.78" x2="1654.38" y2="1197.5" gradientTransform="matrix(-0.85, -0.52, -0.52, 0.85, 2290.16, -70.83)" xlink:href="#Áåçûìÿííûé_ãðàäèåíò_3"/><linearGradient id="Áåçûìÿííûé_ãðàäèåíò_3-4" x1="-1773.87" y1="1255.28" x2="-1864.8" y2="1205.42" xlink:href="#Áåçûìÿííûé_ãðàäèåíò_3"/><linearGradient id="Áåçûìÿííûé_ãðàäèåíò_59" x1="-1847.13" y1="1239.62" x2="-1783.9" y2="1239.62" gradientTransform="matrix(0.85, 0.52, -0.52, 0.85, 2481.12, 46)" gradientUnits="userSpaceOnUse"><stop offset="0" stop-color="#2b237c"/><stop offset="1" stop-color="#180d5b"/></linearGradient><linearGradient id="Áåçûìÿííûé_ãðàäèåíò_122" x1="-1827.8" y1="1254.82" x2="-1885.39" y2="1222.08" gradientTransform="matrix(0.85, 0.52, -0.52, 0.85, 2481.12, 46)" gradientUnits="userSpaceOnUse"><stop offset="0" stop-color="#180d5b"/><stop offset="0.1" stop-color="#1a1560"/><stop offset="0.25" stop-color="#1e2d6e"/><stop offset="0.28" stop-color="#1f3372"/><stop offset="0.38" stop-color="#22447c"/><stop offset="0.57" stop-color="#2b7097"/><stop offset="0.83" stop-color="#39b7c2"/><stop offset="1" stop-color="#42e8e0"/></linearGradient><linearGradient id="Áåçûìÿííûé_ãðàäèåíò_3-5" x1="-1802.93" y1="1180.91" x2="-1877.12" y2="1132.73" xlink:href="#Áåçûìÿííûé_ãðàäèåíò_3"/><linearGradient id="Áåçûìÿííûé_ãðàäèåíò_59-2" x1="-1847.13" y1="1178.2" x2="-1783.89" y2="1178.2" xlink:href="#Áåçûìÿííûé_ãðàäèåíò_59"/><linearGradient id="Áåçûìÿííûé_ãðàäèåíò_122-2" x1="-1835.17" y1="1189.12" x2="-1886.99" y2="1159.9" xlink:href="#Áåçûìÿííûé_ãðàäèåíò_122"/><linearGradient id="Áåçûìÿííûé_ãðàäèåíò_3-6" x1="-1817.68" y1="1165.09" x2="-1877.33" y2="1151.62" xlink:href="#Áåçûìÿííûé_ãðàäèåíò_3"/><linearGradient id="Áåçûìÿííûé_ãðàäèåíò_3-7" x1="655.23" y1="-247.42" x2="528.02" y2="-273.59" gradientTransform="matrix(-0.85, 0.52, 0.52, 0.85, 672.19, 46.35)" xlink:href="#Áåçûìÿííûé_ãðàäèåíò_3"/><linearGradient id="Áåçûìÿííûé_ãðàäèåíò_3-8" x1="616.51" y1="-215.42" x2="530.09" y2="-271.55" gradientTransform="matrix(-0.85, 0.52, 0.52, 0.85, 672.19, 46.35)" xlink:href="#Áåçûìÿííûé_ãðàäèåíò_3"/><linearGradient id="Áåçûìÿííûé_ãðàäèåíò_3-9" x1="-816.69" y1="-213.17" x2="-746.79" y2="-250.44" gradientTransform="translate(863.09 -71.58) rotate(-31.56)" xlink:href="#Áåçûìÿííûé_ãðàäèåíò_3"/><linearGradient id="Áåçûìÿííûé_ãðàäèåíò_3-10" x1="626.77" y1="-193.66" x2="535.86" y2="-243.52" gradientTransform="matrix(-0.85, 0.52, 0.52, 0.85, 672.19, 46.35)" xlink:href="#Áåçûìÿííûé_ãðàäèåíò_3"/><linearGradient id="Áåçûìÿííûé_ãðàäèåíò_59-3" x1="553.52" y1="-209.33" x2="616.75" y2="-209.33" gradientTransform="matrix(-0.85, 0.52, 0.52, 0.85, 672.19, 46.35)" xlink:href="#Áåçûìÿííûé_ãðàäèåíò_59"/><linearGradient id="Áåçûìÿííûé_ãðàäèåíò_122-3" x1="572.85" y1="-194.13" x2="515.27" y2="-226.87" gradientTransform="matrix(-0.85, 0.52, 0.52, 0.85, 672.19, 46.35)" xlink:href="#Áåçûìÿííûé_ãðàäèåíò_122"/><linearGradient id="Áåçûìÿííûé_ãðàäèåíò_3-11" x1="597.71" y1="-268.03" x2="523.53" y2="-316.21" gradientTransform="matrix(-0.85, 0.52, 0.52, 0.85, 672.19, 46.35)" xlink:href="#Áåçûìÿííûé_ãðàäèåíò_3"/><linearGradient id="Áåçûìÿííûé_ãðàäèåíò_59-4" x1="553.52" y1="-270.74" x2="616.75" y2="-270.74" gradientTransform="matrix(-0.85, 0.52, 0.52, 0.85, 672.19, 46.35)" xlink:href="#Áåçûìÿííûé_ãðàäèåíò_59"/><linearGradient id="Áåçûìÿííûé_ãðàäèåíò_122-4" x1="565.48" y1="-259.82" x2="513.66" y2="-289.04" gradientTransform="matrix(-0.85, 0.52, 0.52, 0.85, 672.19, 46.35)" xlink:href="#Áåçûìÿííûé_ãðàäèåíò_122"/><linearGradient id="Áåçûìÿííûé_ãðàäèåíò_3-12" x1="582.97" y1="-283.86" x2="523.32" y2="-297.32" gradientTransform="matrix(-0.85, 0.52, 0.52, 0.85, 672.19, 46.35)" xlink:href="#Áåçûìÿííûé_ãðàäèåíò_3"/><linearGradient id="Áåçûìÿííûé_ãðàäèåíò_3-13" x1="-508.56" y1="527.05" x2="-762.31" y2="474.86" gradientTransform="translate(857.89 -385.75) rotate(0.01)" xlink:href="#Áåçûìÿííûé_ãðàäèåíò_3"/><linearGradient id="Áåçûìÿííûé_ãðàäèåíò_3-14" x1="-585.8" y1="590.89" x2="-758.18" y2="478.93" gradientTransform="translate(857.89 -385.75) rotate(0.01)" xlink:href="#Áåçûìÿííûé_ãðàäèåíò_3"/><linearGradient id="Áåçûìÿííûé_ãðàäèåíò_3-15" x1="409.88" y1="594.22" x2="549.29" y2="519.87" gradientTransform="matrix(-1, 0, 0, 1, 633.67, -385.77)" xlink:href="#Áåçûìÿííûé_ãðàäèåíò_3"/><linearGradient id="Áåçûìÿííûé_ãðàäèåíò_3-16" x1="-565.33" y1="634.28" x2="-746.68" y2="534.82" gradientTransform="translate(857.89 -385.75) rotate(0.01)" xlink:href="#Áåçûìÿííûé_ãðàäèåíò_3"/><linearGradient id="Áåçûìÿííûé_ãðàäèåíò_59-5" x1="-711.44" y1="603.03" x2="-585.32" y2="603.03" gradientTransform="translate(857.89 -385.75) rotate(0.01)" xlink:href="#Áåçûìÿííûé_ãðàäèåíò_59"/><linearGradient id="Áåçûìÿííûé_ãðàäèåíò_122-5" x1="-672.89" y1="633.35" x2="-787.76" y2="568.05" gradientTransform="translate(857.89 -385.75) rotate(0.01)" xlink:href="#Áåçûìÿííûé_ãðàäèåíò_122"/><linearGradient id="Áåçûìÿííûé_ãðàäèåíò_3-17" x1="-623.29" y1="485.94" x2="-771.27" y2="389.83" gradientTransform="translate(857.89 -385.75) rotate(0.01)" xlink:href="#Áåçûìÿííûé_ãðàäèåíò_3"/><linearGradient id="Áåçûìÿííûé_ãðàäèåíò_59-6" x1="-711.44" y1="480.53" x2="-585.32" y2="480.53" gradientTransform="translate(857.89 -385.75) rotate(0.01)" xlink:href="#Áåçûìÿííûé_ãðàäèåíò_59"/><linearGradient id="Áåçûìÿííûé_ãðàäèåíò_122-6" x1="-687.58" y1="502.32" x2="-790.96" y2="444.04" gradientTransform="translate(857.89 -385.75) rotate(0.01)" xlink:href="#Áåçûìÿííûé_ãðàäèåíò_122"/><linearGradient id="Áåçûìÿííûé_ãðàäèåíò_3-18" x1="-652.71" y1="454.38" x2="-771.68" y2="427.51" gradientTransform="translate(857.89 -385.75) rotate(0.01)" xlink:href="#Áåçûìÿííûé_ãðàäèåíò_3"/><linearGradient id="Áåçûìÿííûé_ãðàäèåíò_59-7" x1="149.56" y1="119.32" x2="249.5" y2="119.32" gradientTransform="matrix(1, 0, 0, 1, 0, 0)" xlink:href="#Áåçûìÿííûé_ãðàäèåíò_59"/><linearGradient id="New_Gradient_Swatch_1" x1="195.75" y1="117.56" x2="174.61" y2="125.58" gradientUnits="userSpaceOnUse"><stop offset="0" stop-color="#42e8e0"/><stop offset="0.08" stop-color="#3dcfd1"/><stop offset="0.33" stop-color="#308ba7"/><stop offset="0.56" stop-color="#265587"/><stop offset="0.75" stop-color="#1e2e6f"/><stop offset="0.91" stop-color="#1a1660"/><stop offset="1" stop-color="#180d5b"/></linearGradient><linearGradient id="New_Gradient_Swatch_1-2" x1="182.11" y1="121.95" x2="168.36" y2="137.53" xlink:href="#New_Gradient_Swatch_1"/><linearGradient id="Áåçûìÿííûé_ãðàäèåíò_82" x1="177.4" y1="125.91" x2="168.69" y2="151.64" gradientUnits="userSpaceOnUse"><stop offset="0" stop-color="#42e8e0"/><stop offset="0.07" stop-color="#3dcfd1"/><stop offset="0.3" stop-color="#308ba7"/><stop offset="0.5" stop-color="#265587"/><stop offset="0.67" stop-color="#1e2e6f"/><stop offset="0.8" stop-color="#1a1660"/><stop offset="0.89" stop-color="#180d5b"/></linearGradient><linearGradient id="New_Gradient_Swatch_1-3" x1="211.93" y1="120.97" x2="182.39" y2="102.4" xlink:href="#New_Gradient_Swatch_1"/><linearGradient id="New_Gradient_Swatch_1-4" x1="220.95" y1="126.26" x2="208.59" y2="106.63" xlink:href="#New_Gradient_Swatch_1"/><linearGradient id="New_Gradient_Swatch_1-5" x1="224.12" y1="134.02" x2="221.11" y2="122.09" xlink:href="#New_Gradient_Swatch_1"/><linearGradient id="Áåçûìÿííûé_ãðàäèåíò_122-7" x1="207.99" y1="141.88" x2="186.6" y2="131.35" gradientTransform="matrix(1, 0, 0, 1, 0, 0)" xlink:href="#Áåçûìÿííûé_ãðàäèåíò_122"/><clipPath id="clip-path" transform="translate(-24.3 -75)"><path class="cls-1" d="M240.36,140.72l-29.28-2.92h0A7.08,7.08,0,0,1,208,141c-4.66,2.69-12.2,2.69-16.86,0a7.39,7.39,0,0,1-3-2.93h0l-27.35,1.77L158,141.35l10.42,9.88,6.51,4.52,8.65.42,44.07-1,15.84-11.44Z"/></clipPath><linearGradient id="New_Gradient_Swatch_1-6" x1="178.97" y1="138.59" x2="180.91" y2="159.92" xlink:href="#New_Gradient_Swatch_1"/><linearGradient id="New_Gradient_Swatch_1-7" x1="185.23" y1="145.17" x2="207.35" y2="152.59" xlink:href="#New_Gradient_Swatch_1"/><linearGradient id="New_Gradient_Swatch_1-8" x1="205.63" y1="151.47" x2="230.84" y2="138.19" xlink:href="#New_Gradient_Swatch_1"/><linearGradient id="New_Gradient_Swatch_1-9" x1="220.9" y1="145.44" x2="224.56" y2="133.03" xlink:href="#New_Gradient_Swatch_1"/><linearGradient id="Áåçûìÿííûé_ãðàäèåíò_3-19" x1="210.75" y1="139.32" x2="189.64" y2="128.24" gradientTransform="matrix(1, 0, 0, 1, 0, 0)" xlink:href="#Áåçûìÿííûé_ãðàäèåíò_3"/><linearGradient id="Áåçûìÿííûé_ãðàäèåíò_3-20" x1="230.11" y1="141.92" x2="196" y2="131.9" gradientTransform="matrix(1, 0, 0, 1, 0, 0)" xlink:href="#Áåçûìÿííûé_ãðàäèåíò_3"/><linearGradient id="Áåçûìÿííûé_ãðàäèåíò_122-8" x1="213.48" y1="145.55" x2="149.68" y2="114.93" gradientTransform="matrix(1, 0, 0, 1, 0, 0)" xlink:href="#Áåçûìÿííûé_ãðàäèåíò_122"/><linearGradient id="Áåçûìÿííûé_ãðàäèåíò_3-21" x1="282.12" y1="169.25" x2="145.59" y2="101.53" gradientTransform="matrix(1, 0, 0, 1, 0, 0)" xlink:href="#Áåçûìÿííûé_ãðàäèåíò_3"/><linearGradient id="Áåçûìÿííûé_ãðàäèåíò_3-22" x1="229.11" y1="127.07" x2="149.56" y2="130.27" gradientTransform="matrix(1, 0, 0, 1, 0, 0)" xlink:href="#Áåçûìÿííûé_ãðàäèåíò_3"/><linearGradient id="New_Gradient_Swatch_2" x1="321.07" y1="161.38" x2="344.53" y2="161.38" gradientUnits="userSpaceOnUse"><stop offset="0" stop-color="#42e8e0"/><stop offset="0.5" stop-color="#2d909f"/><stop offset="0.57" stop-color="#31a1ab"/><stop offset="0.76" stop-color="#3ac7c8"/><stop offset="0.91" stop-color="#40dfda"/><stop offset="1" stop-color="#42e8e0"/></linearGradient><linearGradient id="New_Gradient_Swatch_2-2" x1="313.9" y1="150.75" x2="359.46" y2="150.75" xlink:href="#New_Gradient_Swatch_2"/><linearGradient id="New_Gradient_Swatch_2-3" x1="329.26" y1="141.15" x2="350.55" y2="141.15" xlink:href="#New_Gradient_Swatch_2"/><linearGradient id="New_Gradient_Swatch_2-4" x1="-17.1" y1="161.76" x2="6.36" y2="161.76" gradientTransform="matrix(-0.98, 0.02, 0, 1, 61.81, 20.83)" xlink:href="#New_Gradient_Swatch_2"/><linearGradient id="New_Gradient_Swatch_2-5" x1="-24.38" y1="151.35" x2="21.18" y2="151.35" gradientTransform="matrix(-0.98, 0.04, 0.03, 0.99, 57.71, 20.72)" xlink:href="#New_Gradient_Swatch_2"/><linearGradient id="New_Gradient_Swatch_2-6" x1="-8.91" y1="141.53" x2="12.38" y2="141.53" gradientTransform="matrix(-0.98, 0.02, 0, 1, 61.81, 20.83)" xlink:href="#New_Gradient_Swatch_2"/></defs><title>forging</title><g class="cls-2"><g id="Layer_1" data-name="Layer 1"><ellipse class="cls-3" cx="201.49" cy="276.51" rx="99.94" ry="175.03" transform="translate(-103.92 396.52) rotate(-88.67)"/><polygon class="cls-4" points="262.35 156.89 238.03 111.97 289.09 113.37 313.4 158.29 262.35 156.89"/><polygon class="cls-4" points="266.2 150.63 241.88 105.71 292.93 107.11 317.25 152.03 266.2 150.63"/><g class="cls-5"><polygon class="cls-6" points="289.95 111.98 271.17 77.3 310.59 78.38 329.36 113.06 289.95 111.98"/><polygon class="cls-7" points="329.36 113.06 308.66 146.75 269.24 145.67 289.95 111.98 329.36 113.06"/><polygon class="cls-8" points="271.17 77.3 250.47 110.99 269.24 145.67 289.95 111.98 271.17 77.3"/></g><polygon class="cls-9" points="269.24 145.67 250.47 110.99 289.89 112.07 308.66 146.75 269.24 145.67"/><polygon class="cls-10" points="317.25 152.03 313.4 158.29 262.35 156.89 266.2 150.63 317.25 152.03"/><polygon class="cls-4" points="241.88 105.71 238.03 111.97 262.35 156.89 266.2 150.63 241.88 105.71"/><polygon class="cls-11" points="241.88 105.71 238.03 111.97 262.35 156.89 266.2 150.63 241.88 105.71"/><polygon class="cls-4" points="294.5 104.56 270.19 59.65 321.24 61.05 345.56 105.96 294.5 104.56"/><polygon class="cls-4" points="298.35 98.31 274.03 53.39 325.09 54.79 349.4 99.7 298.35 98.31"/><polygon class="cls-12" points="298.35 98.31 274.03 53.39 325.09 54.79 349.4 99.7 298.35 98.31"/><polygon class="cls-13" points="349.4 99.7 345.56 105.96 294.5 104.56 298.35 98.31 349.4 99.7"/><polygon class="cls-4" points="274.03 53.39 270.19 59.65 294.5 104.56 298.35 98.31 274.03 53.39"/><polygon class="cls-14" points="274.03 53.39 270.19 59.65 294.5 104.56 298.35 98.31 274.03 53.39"/><polygon class="cls-15" points="294.5 104.56 266.2 150.63 241.88 105.71 270.19 59.65 294.5 104.56"/><polygon class="cls-15" points="275.73 69.89 250.47 110.99 269.24 145.67 308.66 146.75 333.92 105.64 294.5 104.56 275.73 69.89"/><polygon class="cls-15" points="294.5 104.56 269.24 145.67 250.47 110.99 275.73 69.89 294.5 104.56"/><polygon class="cls-16" points="270.19 59.65 241.88 105.71 266.2 150.63 317.25 152.03 345.56 105.96 294.5 104.56 270.19 59.65"/><polygon class="cls-17" points="274.92 53.94 325.37 55.32 325.09 54.79 274.03 53.39 298.35 98.31 298.95 98.32 274.92 53.94"/><polygon class="cls-18" points="270.19 59.65 241.88 105.71 242.21 106.33 270.52 60.27 270.19 59.65"/><polygon class="cls-18" points="345.56 105.96 317.25 152.03 316.55 152.01 344.85 105.94 345.56 105.96"/><polygon class="cls-18" points="294.5 104.56 294.5 104.56 293.93 103.5 265.62 149.58 266.2 150.63 266.2 150.63 266.2 150.63 266.2 150.63 266.2 150.63 267.4 150.67 295.71 104.6 294.5 104.56"/><polygon class="cls-4" points="87.04 179.4 111.36 134.49 60.31 135.88 35.99 180.79 87.04 179.4"/><polygon class="cls-4" points="83.19 173.14 107.52 128.23 56.47 129.62 32.14 174.53 83.19 173.14"/><g class="cls-5"><polygon class="cls-19" points="59.45 134.48 78.23 99.81 38.82 100.88 20.04 135.55 59.45 134.48"/><polygon class="cls-20" points="20.04 135.55 40.73 169.25 80.15 168.18 59.45 134.48 20.04 135.55"/><polygon class="cls-21" points="78.23 99.81 98.93 133.5 80.15 168.18 59.45 134.48 78.23 99.81"/></g><polygon class="cls-22" points="80.15 168.18 98.93 133.5 59.51 134.58 40.73 169.25 80.15 168.18"/><polygon class="cls-23" points="32.14 174.53 35.99 180.79 87.04 179.4 83.19 173.14 32.14 174.53"/><polygon class="cls-4" points="107.52 128.23 111.36 134.49 87.04 179.4 83.19 173.14 107.52 128.23"/><polygon class="cls-24" points="107.52 128.23 111.36 134.49 87.04 179.4 83.19 173.14 107.52 128.23"/><polygon class="cls-4" points="54.9 127.07 79.22 82.16 28.17 83.55 3.85 128.46 54.9 127.07"/><polygon class="cls-4" points="51.05 120.81 75.38 75.9 24.32 77.29 0 122.2 51.05 120.81"/><polygon class="cls-25" points="51.05 120.81 75.38 75.9 24.32 77.29 0 122.2 51.05 120.81"/><polygon class="cls-26" points="0 122.2 3.85 128.46 54.9 127.07 51.05 120.81 0 122.2"/><polygon class="cls-4" points="75.38 75.9 79.22 82.16 54.9 127.07 51.05 120.81 75.38 75.9"/><polygon class="cls-27" points="75.38 75.9 79.22 82.16 54.9 127.07 51.05 120.81 75.38 75.9"/><polygon class="cls-15" points="54.9 127.07 83.19 173.14 107.52 128.23 79.22 82.16 54.9 127.07"/><polygon class="cls-15" points="73.68 92.39 98.93 133.5 80.15 168.18 40.73 169.25 15.48 128.14 54.9 127.07 73.68 92.39"/><polygon class="cls-15" points="54.9 127.07 80.15 168.18 98.93 133.5 73.68 92.39 54.9 127.07"/><polygon class="cls-16" points="79.22 82.16 107.52 128.23 83.19 173.14 32.14 174.53 3.85 128.46 54.9 127.07 79.22 82.16"/><polygon class="cls-28" points="74.49 76.44 24.04 77.82 24.32 77.29 75.38 75.9 51.05 120.81 50.45 120.82 74.49 76.44"/><polygon class="cls-18" points="79.22 82.16 107.52 128.23 107.19 128.85 78.89 82.78 79.22 82.16"/><polygon class="cls-18" points="3.84 128.46 32.14 174.53 32.84 174.51 4.55 128.44 3.84 128.46"/><polygon class="cls-18" points="54.9 127.07 54.9 127.07 55.47 126.01 83.77 172.08 83.2 173.14 83.2 173.14 83.19 173.14 83.19 173.14 83.19 173.14 81.99 173.18 53.69 127.1 54.9 127.07"/><polygon class="cls-4" points="175.71 250 87.49 199.05 175.72 148.13 263.94 199.07 175.71 250"/><polygon class="cls-4" points="175.71 235.35 87.49 184.4 175.72 133.47 263.94 184.42 175.71 235.35"/><g class="cls-5"><polygon class="cls-29" points="175.72 144.86 107.61 105.53 175.72 66.21 243.84 105.54 175.72 144.86"/><polygon class="cls-30" points="243.84 105.54 243.83 184.42 175.71 223.74 175.72 144.86 243.84 105.54"/><polygon class="cls-31" points="107.61 105.53 107.6 184.4 175.71 223.74 175.72 144.86 107.61 105.53"/></g><polygon class="cls-32" points="175.71 223.74 107.6 184.4 175.72 145.08 243.83 184.42 175.71 223.74"/><polygon class="cls-33" points="263.94 184.42 263.94 199.07 175.71 250 175.71 235.35 263.94 184.42"/><polygon class="cls-4" points="87.49 184.4 87.49 199.05 175.71 250 175.71 235.35 87.49 184.4"/><polygon class="cls-34" points="87.49 184.4 87.49 199.05 175.71 250 175.71 235.35 87.49 184.4"/><polygon class="cls-4" points="175.72 127.5 87.5 76.56 175.73 25.63 263.95 76.58 175.72 127.5"/><polygon class="cls-4" points="175.72 112.85 87.5 61.91 175.73 10.98 263.95 61.92 175.72 112.85"/><polygon class="cls-35" points="175.72 112.85 87.5 61.91 175.73 10.98 263.95 61.92 175.72 112.85"/><polygon class="cls-36" points="263.95 61.92 263.95 76.58 175.72 127.5 175.72 112.85 263.95 61.92"/><polygon class="cls-4" points="87.5 61.91 87.5 76.56 175.72 127.5 175.72 112.85 87.5 61.91"/><polygon class="cls-37" points="87.5 61.91 87.5 76.56 175.72 127.5 175.72 112.85 87.5 61.91"/><polygon class="cls-15" points="175.72 127.5 175.71 235.35 87.49 184.4 87.5 76.56 175.72 127.5"/><polygon class="cls-15" points="107.61 88.17 107.6 184.4 175.71 223.74 243.83 184.42 243.84 88.19 175.72 127.5 107.61 88.17"/><polygon class="cls-15" points="175.72 127.5 175.71 223.74 107.6 184.4 107.61 88.17 175.72 127.5"/><polygon class="cls-16" points="87.5 76.56 87.49 184.4 175.71 235.35 263.94 184.42 263.95 76.58 175.72 127.5 87.5 76.56"/><polygon class="cls-38" points="89.58 61.91 176.77 11.58 175.73 10.98 87.5 61.91 175.72 112.85 176.76 112.25 89.58 61.91"/><polygon class="cls-18" points="87.5 76.56 87.49 184.4 88.7 185.1 88.71 77.26 87.5 76.56"/><polygon class="cls-18" points="263.95 76.58 263.94 184.42 262.73 185.12 262.74 77.28 263.95 76.58"/><polygon class="cls-18" points="175.72 127.5 175.72 127.5 173.64 126.3 173.63 234.16 175.71 235.35 175.71 235.35 175.71 235.35 175.71 235.35 175.71 235.35 177.79 234.16 177.8 126.3 175.72 127.5"/><ellipse class="cls-39" cx="175.23" cy="61.11" rx="46.55" ry="26.88"/><path class="cls-40" d="M246.69,126.57V121l-7.48-8.88-8.61-4.86-13-5L205,100.62H189.8l-14.36,3.07-9.6,4-7.92,5.65L151.33,124v4.48a17.59,17.59,0,0,0-1.76,8.22H153c-.27-7.08,4.26-14.2,13.61-19.6,18.18-10.5,47.66-10.5,65.84,0,9.93,5.73,14.42,13.41,13.5,20.91h3.44A18,18,0,0,0,246.69,126.57Z" transform="translate(-24.3 -75)"/><path class="cls-41" d="M243.62,144.73l-32-3.16a4.18,4.18,0,0,0,.39-1.71v-.51l32.09-4.15a4.76,4.76,0,0,0,.72-3c-.29-2.3-1.4-3.82-4.53-3.19L212,137.09a4.2,4.2,0,0,0-.59-2l26.32-14.26a38.2,38.2,0,0,0-5.32-3.68,49.06,49.06,0,0,0-5.14-2.53,10,10,0,0,0-5.69,2.87l-13.38,14.71a14.69,14.69,0,0,0-2.57-1l12-19.75A76.53,76.53,0,0,0,202,109.3a21.05,21.05,0,0,0-7.34,5.14v1.4l3.67,14.55c-.46,0-.92.11-1.38.18l-4.54-21a71.69,71.69,0,0,0-15.67,3.1,26.53,26.53,0,0,0-4.82,4.67l-2.2-1.89c-1.08.52-2.14,1.06-3.15,1.65a38.76,38.76,0,0,0-4.74,3.2,43.73,43.73,0,0,0-3.91,8.27l-1.85-.54a41.72,41.72,0,0,0-.91,9.15,25.51,25.51,0,0,0,1.57,9.55,27.82,27.82,0,0,0,4.44,4.63l2.5-.72a32,32,0,0,0,3.88,5,57.06,57.06,0,0,0,13.35,5.1l2.52-2.77a24,24,0,0,0,6,4.37,80.49,80.49,0,0,0,15.45.46l-4-16.09a19.81,19.81,0,0,0,2.67-.28l3.68,7.81a10.68,10.68,0,0,0,4.77,5.05,21.1,21.1,0,0,0,5,1.75,60,60,0,0,0,11.19-3.76l-20.5-12.13c.29-.14.6-.26.88-.41a9.41,9.41,0,0,0,1.83-1.38l22.16,5.94a13.66,13.66,0,0,0,7.31.25A23.48,23.48,0,0,0,243.62,144.73Z" transform="translate(-24.3 -75)"/><path class="cls-42" d="M198,135.83l-7-32.14c-8.08.91-19.71,8.42-21.82,15.1Z" transform="translate(-24.3 -75)"/><path class="cls-42" d="M196.6,136.66l-29.49-25.3c-5.62,3.48-11.13,15.93-11.13,21.28Z" transform="translate(-24.3 -75)"/><path class="cls-42" d="M196.28,137.45l-40.76-12.12c-1,4.72-2.54,16,3.81,22.65Z" transform="translate(-24.3 -75)"/><path class="cls-42" d="M197.21,138.45l-36.47,2.37c.59,6.55,9.95,16.35,17.3,18.7Z" transform="translate(-24.3 -75)"/><path class="cls-42" d="M199,138.85l-18.24,12.63c3.81,6.77,15.84,11.51,24.17,10.92Z" transform="translate(-24.3 -75)"/><path class="cls-43" d="M198,134.42l-7-32.14c-8.08.91-19.71,8.43-21.82,15.11Z" transform="translate(-24.3 -75)"/><path class="cls-44" d="M196.93,133.77l1.11.65-7-32.14-.93.15Z" transform="translate(-24.3 -75)"/><path class="cls-45" d="M196.6,135.25,167.11,110c-5.62,3.48-11.13,15.93-11.13,21.28Z" transform="translate(-24.3 -75)"/><path class="cls-44" d="M195.27,135.12l1.33.13L167.11,110c-.22.13-.43.3-.65.46Z" transform="translate(-24.3 -75)"/><path class="cls-46" d="M196.28,136.41l-40.76-12.12c-1,4.72-2.54,16,3.81,22.65Z" transform="translate(-24.3 -75)"/><path class="cls-44" d="M195.2,136.72l1.08-.31-40.76-12.12c0,.18-.08.39-.12.59Z" transform="translate(-24.3 -75)"/><path class="cls-47" d="M200,134.24l18.24-30c-7.46-2-18-.33-24.17,6.47Z" transform="translate(-24.3 -75)"/><path class="cls-44" d="M217.27,104,199.7,132.89l.34,1.35,18.24-30C218,104.13,217.61,104.06,217.27,104Z" transform="translate(-24.3 -75)"/><path class="cls-48" d="M201.85,134.77,238.32,115c-4-4.16-12.06-6.54-17.3-1.3Z" transform="translate(-24.3 -75)"/><path class="cls-49" d="M237.85,114.57l-34.74,18.82-1.26,1.38L238.32,115C238.18,114.86,238,114.72,237.85,114.57Z" transform="translate(-24.3 -75)"/><path class="cls-50" d="M202.78,135.82l40.76-5.27c1.85-3.26.22-6.08-3.81-5.27Z" transform="translate(-24.3 -75)"/><path class="cls-44" d="M206.22,134.83l-3.44,1,40.76-5.27a6.27,6.27,0,0,0,.29-.58Z" transform="translate(-24.3 -75)"/><path class="cls-51" d="M210.5,133.43a8.07,8.07,0,0,0-2.54-2.18c-4.66-2.69-12.2-2.69-16.86,0a8.07,8.07,0,0,0-2.54,2.18h-.95v5.89c0,1.76,1.16,3.53,3.49,4.87,4.66,2.69,12.2,2.69,16.86,0,2.33-1.34,3.49-3.11,3.49-4.87v-5.89Z" transform="translate(-24.3 -75)"/><path class="cls-52" d="M210.5,133.43a8.07,8.07,0,0,0-2.54-2.18c-4.66-2.69-12.2-2.69-16.86,0a8.07,8.07,0,0,0-2.54,2.18h-.95v5.89c0,1.76,1.16,3.53,3.49,4.87,4.66,2.69,12.2,2.69,16.86,0,2.33-1.34,3.49-3.11,3.49-4.87v-5.89Z" transform="translate(-24.3 -75)"/><g class="cls-53"><path class="cls-41" d="M203.3,143.52v2.33s.61-.1,1-.22.49-2.39.49-2.39l-1.52.21Z" transform="translate(-24.3 -75)"/><path class="cls-54" d="M197.21,137.45l-36.47,2.37c.59,6.56,9.95,16.35,17.3,18.7Z" transform="translate(-24.3 -75)"/><path class="cls-44" d="M160.74,139.82a7.81,7.81,0,0,0,.15.93l35.39-2.3L178,158.51h0l19.17-21.07Z" transform="translate(-24.3 -75)"/><path class="cls-55" d="M199,138l-18.24,12.63c3.81,6.77,15.84,11.51,24.17,10.91Z" transform="translate(-24.3 -75)"/><path class="cls-44" d="M199,138.85l5.72,22.69H205L199,138l-18.24,12.63c.11.2.25.39.38.59Z" transform="translate(-24.3 -75)"/><path class="cls-56" d="M201,137.8l5.31,11.26a12.44,12.44,0,0,0,6.29,6.23,20.36,20.36,0,0,0,17.18-.45Z" transform="translate(-24.3 -75)"/><path class="cls-44" d="M213.31,155.29a12.44,12.44,0,0,1-6.29-6.23l-5-10.69-1-.57,5.31,11.26a12.44,12.44,0,0,0,6.29,6.23,21.43,21.43,0,0,0,8.47,1.67A21.2,21.2,0,0,1,213.31,155.29Z" transform="translate(-24.3 -75)"/><path class="cls-41" d="M210.28,139.73v2.57a5.67,5.67,0,0,0,.87-1.42,2,2,0,0,0,.23-1.15Z" transform="translate(-24.3 -75)"/><path class="cls-57" d="M202.46,137,232,144.89c6.37,1.7,10.67-.14,11.13-3.9Z" transform="translate(-24.3 -75)"/><path class="cls-44" d="M232.72,144.47l-26.61-7.13-3.65-.37L232,144.89c3.91,1,7,.75,9-.5C239,145.27,236.15,145.39,232.72,144.47Z" transform="translate(-24.3 -75)"/></g><path class="cls-58" d="M208,138.3c-4.66,2.68-12.2,2.68-16.86,0s-4.65-7.05,0-9.74,12.2-2.68,16.86,0S212.61,135.61,208,138.3Z" transform="translate(-24.3 -75)"/><path class="cls-59" d="M208,138.3c-4.66,2.68-12.2,2.68-16.86,0s-4.65-7.05,0-9.74,12.2-2.68,16.86,0S212.61,135.61,208,138.3Z" transform="translate(-24.3 -75)"/><path class="cls-60" d="M207.35,137.45a17.24,17.24,0,0,1-15.64,0c-4.32-2.49-4.32-6.54,0-9a17.24,17.24,0,0,1,15.64,0C211.67,130.91,211.67,135,207.35,137.45Z" transform="translate(-24.3 -75)"/><path class="cls-61" d="M207.35,137.45a17.24,17.24,0,0,1-15.64,0c-4.32-2.49-4.32-6.54,0-9a17.24,17.24,0,0,1,15.64,0C211.67,130.91,211.67,135,207.35,137.45Z" transform="translate(-24.3 -75)"/><path class="cls-51" d="M249.5,128.05l-3.23,7L241,142.22l-5.13,4.72L224.4,152.3l-15.73,3.61-12.07.41-14.06-1.87-12.65-3.8-8.64-5.12-8.18-8c0-.28-.06-.55-.07-.83h-.3l-3.15-8.43v9l.07.1c.51,7,5.35,13.85,14.57,19.17,19.52,11.27,51.16,11.27,70.68,0,8.92-5.15,13.75-11.76,14.52-18.5h0l.1-1.87c0-.77.06-1.53.06-2.3Z" transform="translate(-24.3 -75)"/><path class="cls-62" d="M249.5,128.05l-3.23,7L241,142.22l-5.13,4.72L224.4,152.3l-15.73,3.61-12.07.41-14.06-1.87-12.65-3.8-8.64-5.12-8.18-8c0-.28-.06-.55-.07-.83h-.3l-3.15-8.43v9l.07.1c.51,7,5.35,13.85,14.57,19.17,19.52,11.27,51.16,11.27,70.68,0,8.92-5.15,13.75-11.76,14.52-18.5h0l.1-1.87c0-.77.06-1.53.06-2.3Z" transform="translate(-24.3 -75)"/><path class="cls-4" d="M234.87,107.88c-19.52-11.27-51.16-11.27-70.68,0-9.65,5.57-14.52,12.84-14.63,20.14-.12,7.47,4.75,15,14.63,20.67,19.52,11.27,51.16,11.27,70.68,0,9.87-5.69,14.74-13.18,14.63-20.64S244.53,113.45,234.87,107.88Zm-2.42,39.41c-18.18,10.5-47.66,10.49-65.84,0C157.41,142,152.87,135,153,128c.11-6.79,4.65-13.56,13.62-18.74,18.18-10.5,47.66-10.5,65.84,0,8.92,5.15,13.45,11.87,13.62,18.62C246.24,134.9,241.71,141.94,232.45,147.29Z" transform="translate(-24.3 -75)"/><path class="cls-63" d="M234.87,107.88c-19.52-11.27-51.16-11.27-70.68,0-9.65,5.57-14.52,12.84-14.63,20.14-.12,7.47,4.75,15,14.63,20.67,19.52,11.27,51.16,11.27,70.68,0,9.87-5.69,14.74-13.18,14.63-20.64S244.53,113.45,234.87,107.88Zm-2.42,39.41c-18.18,10.5-47.66,10.49-65.84,0C157.41,142,152.87,135,153,128c.11-6.79,4.65-13.56,13.62-18.74,18.18-10.5,47.66-10.5,65.84,0,8.92,5.15,13.45,11.87,13.62,18.62C246.24,134.9,241.71,141.94,232.45,147.29Z" transform="translate(-24.3 -75)"/><g class="cls-64"><path class="cls-65" d="M165.24,148.69c-9.88-5.7-14.75-13.2-14.63-20.67.11-7.3,5-14.57,14.63-20.14s22.2-8.37,34.82-8.45c-13-.08-26,2.74-35.87,8.45-9.65,5.57-14.52,12.84-14.63,20.14-.12,7.47,4.75,15,14.63,20.67s22.9,8.52,35.87,8.44C187.44,157.06,174.87,154.25,165.24,148.69Z" transform="translate(-24.3 -75)"/></g><path class="cls-51" d="M199.53,155.46c-12,0-24-2.63-33.08-7.89S152.54,135.42,152.67,128c.12-7.2,5-14,13.78-19,18.24-10.53,47.92-10.53,66.16,0,8.7,5,13.6,11.74,13.78,18.89.18,7.45-4.71,14.44-13.78,19.68S211.51,155.46,199.53,155.46Zm0-53.73c-11.86,0-23.73,2.61-32.76,7.83-8.56,4.94-13.35,11.5-13.46,18.47-.12,7.16,4.66,13.9,13.46,19,18.07,10.43,47.46,10.43,65.52,0h0c8.86-5.11,13.64-11.9,13.46-19.11-.18-6.92-4.95-13.43-13.46-18.34C223.26,104.34,211.39,101.73,199.53,101.73Z" transform="translate(-24.3 -75)"/><path class="cls-66" d="M246.53,193.25a4.73,4.73,0,1,1,5.28,4.11A4.73,4.73,0,0,1,246.53,193.25Z" transform="translate(-24.3 -75)"/><path class="cls-15" d="M312.13,222.86a2.92,2.92,0,1,1,3.26,2.54A2.91,2.91,0,0,1,312.13,222.86Z" transform="translate(-24.3 -75)"/><path class="cls-67" d="M295.93,258.2a3,3,0,1,1,3.33,2.59A3,3,0,0,1,295.93,258.2Z" transform="translate(-24.3 -75)"/><path class="cls-67" d="M211.71,279.63a1.88,1.88,0,1,1,2.1,1.63A1.88,1.88,0,0,1,211.71,279.63Z" transform="translate(-24.3 -75)"/><path class="cls-67" d="M217.76,288.78a3.95,3.95,0,1,1,4.4,3.42A3.94,3.94,0,0,1,217.76,288.78Z" transform="translate(-24.3 -75)"/><path class="cls-67" d="M305.76,263a1.91,1.91,0,1,1,2.14,1.66A1.92,1.92,0,0,1,305.76,263Z" transform="translate(-24.3 -75)"/><path class="cls-15" d="M296.65,171a2.92,2.92,0,1,1,3.25,2.54A2.92,2.92,0,0,1,296.65,171Z" transform="translate(-24.3 -75)"/><path class="cls-67" d="M280.45,206.34a3,3,0,1,1,3.32,2.58A3,3,0,0,1,280.45,206.34Z" transform="translate(-24.3 -75)"/><path class="cls-67" d="M290.28,211.11a1.91,1.91,0,1,1,2.13,1.66A1.91,1.91,0,0,1,290.28,211.11Z" transform="translate(-24.3 -75)"/><path class="cls-66" d="M267.75,238.08a4.2,4.2,0,1,0-2.38,5.44A4.19,4.19,0,0,0,267.75,238.08Z" transform="translate(-24.3 -75)"/><path class="cls-15" d="M229.14,289a2.6,2.6,0,1,0-1.47,3.36A2.6,2.6,0,0,0,229.14,289Z" transform="translate(-24.3 -75)"/><path class="cls-67" d="M256.76,309.7a2.64,2.64,0,1,0-1.49,3.43A2.64,2.64,0,0,0,256.76,309.7Z" transform="translate(-24.3 -75)"/><path class="cls-67" d="M331.56,290.68a1.68,1.68,0,1,0-.95,2.17A1.67,1.67,0,0,0,331.56,290.68Z" transform="translate(-24.3 -75)"/><path class="cls-67" d="M330.72,300.39a3.5,3.5,0,1,0-2,4.54A3.5,3.5,0,0,0,330.72,300.39Z" transform="translate(-24.3 -75)"/><path class="cls-67" d="M251.12,317.6a1.7,1.7,0,1,0-1,2.2A1.7,1.7,0,0,0,251.12,317.6Z" transform="translate(-24.3 -75)"/><path class="cls-67" d="M213.4,179.55a1.88,1.88,0,1,1,.11,2.66A1.89,1.89,0,0,1,213.4,179.55Z" transform="translate(-24.3 -75)"/><path class="cls-67" d="M210.34,190.09a3.94,3.94,0,1,1,.23,5.57A3.94,3.94,0,0,1,210.34,190.09Z" transform="translate(-24.3 -75)"/><path class="cls-15" d="M217.52,198.92A2.6,2.6,0,1,0,214,200,2.6,2.6,0,0,0,217.52,198.92Z" transform="translate(-24.3 -75)"/><path class="cls-67" d="M219.61,233.37a2.64,2.64,0,1,0-3.58,1.08A2.64,2.64,0,0,0,219.61,233.37Z" transform="translate(-24.3 -75)"/><path class="cls-67" d="M209.94,234.17a1.7,1.7,0,1,0-2.3.7A1.7,1.7,0,0,0,209.94,234.17Z" transform="translate(-24.3 -75)"/><g class="cls-5"><circle class="cls-68" cx="263.41" cy="143.91" r="4.2" transform="translate(-28.92 -66.19) rotate(-1.9)"/><path class="cls-68" d="M258.08,166.4a3,3,0,1,0-1.67,3.85A3,3,0,0,0,258.08,166.4Z" transform="translate(-24.3 -75)"/></g><path class="cls-66" d="M115.41,209a4.72,4.72,0,1,1,0-6.68A4.71,4.71,0,0,1,115.41,209Z" transform="translate(-24.3 -75)"/><path class="cls-15" d="M98.5,139a2.92,2.92,0,1,1,0-4.13A2.92,2.92,0,0,1,98.5,139Z" transform="translate(-24.3 -75)"/><path class="cls-67" d="M136.33,130.08a3,3,0,1,1,0-4.21A3,3,0,0,1,136.33,130.08Z" transform="translate(-24.3 -75)"/><path class="cls-67" d="M205,183.39a1.88,1.88,0,1,1,0-2.66A1.88,1.88,0,0,1,205,183.39Z" transform="translate(-24.3 -75)"/><path class="cls-67" d="M208.47,173a3.95,3.95,0,1,1,0-5.58A3.95,3.95,0,0,1,208.47,173Z" transform="translate(-24.3 -75)"/><path class="cls-67" d="M134.06,119.39a1.91,1.91,0,1,1,0-2.7A1.92,1.92,0,0,1,134.06,119.39Z" transform="translate(-24.3 -75)"/><path class="cls-15" d="M67.08,183.06a2.92,2.92,0,1,1,0-4.13A2.92,2.92,0,0,1,67.08,183.06Z" transform="translate(-24.3 -75)"/><path class="cls-67" d="M104.91,174.15a3,3,0,1,1,0-4.21A3,3,0,0,1,104.91,174.15Z" transform="translate(-24.3 -75)"/><path class="cls-67" d="M102.64,163.46a1.91,1.91,0,1,1,0-2.7A1.92,1.92,0,0,1,102.64,163.46Z" transform="translate(-24.3 -75)"/><path class="cls-66" d="M137.76,164.68a4.2,4.2,0,1,0,5.75-1.47A4.2,4.2,0,0,0,137.76,164.68Z" transform="translate(-24.3 -75)"/><path class="cls-15" d="M201.67,163.87a2.59,2.59,0,1,0,3.55-.9A2.6,2.6,0,0,0,201.67,163.87Z" transform="translate(-24.3 -75)"/><path class="cls-67" d="M201,129.36a2.64,2.64,0,1,0,3.62-.92A2.65,2.65,0,0,0,201,129.36Z" transform="translate(-24.3 -75)"/><path class="cls-67" d="M140.09,82a1.67,1.67,0,1,0,2.29-.59A1.67,1.67,0,0,0,140.09,82Z" transform="translate(-24.3 -75)"/><path class="cls-67" d="M148.26,76.72a3.5,3.5,0,1,0,4.81-1.23A3.52,3.52,0,0,0,148.26,76.72Z" transform="translate(-24.3 -75)"/><path class="cls-67" d="M210.73,129a1.7,1.7,0,1,0,2.33-.6A1.71,1.71,0,0,0,210.73,129Z" transform="translate(-24.3 -75)"/><path class="cls-67" d="M125,243.51a1.88,1.88,0,1,1,2-1.72A1.87,1.87,0,0,1,125,243.51Z" transform="translate(-24.3 -75)"/><path class="cls-67" d="M135.14,239.46a3.94,3.94,0,1,1,4.26-3.61A4,4,0,0,1,135.14,239.46Z" transform="translate(-24.3 -75)"/><path class="cls-15" d="M137.7,228.37a2.6,2.6,0,1,0,3,2.13A2.59,2.59,0,0,0,137.7,228.37Z" transform="translate(-24.3 -75)"/><path class="cls-67" d="M163.61,205.56a2.65,2.65,0,1,0,3,2.17A2.64,2.64,0,0,0,163.61,205.56Z" transform="translate(-24.3 -75)"/><path class="cls-67" d="M170.18,212.7a1.7,1.7,0,1,0,2,1.39A1.69,1.69,0,0,0,170.18,212.7Z" transform="translate(-24.3 -75)"/><g class="cls-5"><path class="cls-68" d="M62.49,223.79a4.2,4.2,0,1,0,5.75-1.47A4.2,4.2,0,0,0,62.49,223.79Z" transform="translate(-24.3 -75)"/><path class="cls-68" d="M87.13,216.32a3,3,0,1,0,4.07-1A3,3,0,0,0,87.13,216.32Z" transform="translate(-24.3 -75)"/></g></g><g id="Layer_2" data-name="Layer 2"><path id="nd" class="cls-69" d="M321.07,155.83c.66,1.29,1.25,2.36,1.69,3.14a18,18,0,0,0,1.46,2.36c.19.26.4.51.62.76a8.47,8.47,0,0,0,5.39,2.67l14.3,2.18c-1.12-2-2.08-3.55-2.76-4.59a10,10,0,0,0-1.16-1.52,10.15,10.15,0,0,0-2.74-2l-.62-.29a6.92,6.92,0,0,0-1.78-.49Z" transform="translate(-24.3 -75)"/><path id="nx" class="cls-70" d="M313.9,143a42.87,42.87,0,0,0,3,5.59,9.24,9.24,0,0,0,1.9,2.29,9.81,9.81,0,0,0,2.94,1.72h0a10.8,10.8,0,0,0,1.56.48c.62.15,15.88,2.45,36.21,5.46-2.07-3.16-3.64-5.39-4.08-5.94-.27-.33-.56-.66-.86-1,0,0-.22-.22-.44-.42a12.37,12.37,0,0,0-2.59-1.77,14.14,14.14,0,0,0-2.8-1C346.45,147.93,332.86,145.78,313.9,143Z" transform="translate(-24.3 -75)"/><path id="nu" class="cls-71" d="M329.26,136.35c.64,1.08,1.2,2,1.62,2.61a13.49,13.49,0,0,0,1.5,2.1,8.55,8.55,0,0,0,2.37,1.89,8,8,0,0,0,3,.9l12.83,2.09c-.95-1.49-1.78-2.69-2.4-3.55a9.5,9.5,0,0,0-1.26-1.53,10.42,10.42,0,0,0-2.5-1.73,5.79,5.79,0,0,0-.57-.25,6.86,6.86,0,0,0-1.61-.44Z" transform="translate(-24.3 -75)"/></g><g id="Layer_3" data-name="Layer 3"><path id="nd-2" data-name="nd" class="cls-72" d="M78.7,176c-.65,1.29-1.23,2.37-1.66,3.15a20.14,20.14,0,0,1-1.43,2.37,7.73,7.73,0,0,1-.62.77,8.49,8.49,0,0,1-5.3,2.75l-14.07,2.43c1.1-2,2-3.56,2.71-4.61a10.72,10.72,0,0,1,1.14-1.54,10.07,10.07,0,0,1,2.7-2.07,5,5,0,0,1,.61-.31,7.19,7.19,0,0,1,1.75-.52Z" transform="translate(-24.3 -75)"/><path id="nx-2" data-name="nx" class="cls-73" d="M85.53,162.47a44.83,44.83,0,0,1-2.75,5.68A9.31,9.31,0,0,1,81,170.51a9.79,9.79,0,0,1-2.85,1.85h0a11.29,11.29,0,0,1-1.51.54c-.61.18-15.56,3.14-35.47,7,2-3.23,3.43-5.53,3.85-6.09.26-.35.53-.68.83-1,0,0,.2-.22.42-.43a12.4,12.4,0,0,1,2.5-1.88,13.11,13.11,0,0,1,2.73-1.1C53.65,168.82,67,166.08,85.53,162.47Z" transform="translate(-24.3 -75)"/><path id="nu-2" data-name="nu" class="cls-74" d="M70.63,156.73c-.62,1.08-1.18,2-1.59,2.63a13.63,13.63,0,0,1-1.47,2.11,8.59,8.59,0,0,1-2.34,1.92,7.8,7.8,0,0,1-2.92,1l-12.63,2.31c.94-1.51,1.75-2.72,2.37-3.59a10.7,10.7,0,0,1,1.23-1.54,10.36,10.36,0,0,1,2.47-1.76,5.6,5.6,0,0,1,.55-.27,7.33,7.33,0,0,1,1.58-.46Z" transform="translate(-24.3 -75)"/></g></g></svg>