<?xml version="1.0" encoding="utf-8"?>
<!-- Generator: Adobe Illustrator 24.0.1, SVG Export Plug-In . SVG Version: 6.00 Build 0)  -->
<svg version="1.1" xmlns="http://www.w3.org/2000/svg" xmlns:xlink="http://www.w3.org/1999/xlink" x="0px" y="0px" width="642px"
	 height="200px" viewBox="0 0 642 200" style="enable-background:new 0 0 642 200;" xml:space="preserve">
<style type="text/css">
	.st0{fill:#1852B7;}
</style>
<g id="dex">
	<path id="x" class="st0" d="M530.4,19.5l27.1,50.4L585,19.5h40l-48.8,80.7l47.5,80.3h-39.8l-26.4-49.3l-26.6,49.3H491l47.7-80.3
		l-48.4-80.7H530.4z"/>
	<path id="e" class="st0" d="M359,54.2c0-30.4,22.2-35.4,37.6-35.2c0,0,52.1,0.9,71.3,3.5v30.1h-61.4c-11.4,0-11.4,6.4-11.4,12.3
		v18.3l62.5,2.2v29.9l-62.5,2v18.3c0,11.7,7.3,11.4,13.6,11.4h59.2v29.9c-16.9,2.2-69.1,3.7-69.1,3.7c-14.3,0.7-39.8-2.4-39.8-34.1
		V54.2z"/>
	<path id="d" class="st0" d="M207.2,19.5h71.5c45.1,0,55.4,38.7,55.4,81.2c0,51.3-17.4,79.9-55.4,79.9h-71.5V19.5z M275.4,149.3
		c16.7,0,22.7-17.2,22.7-48.8c0-41.6-8.6-49.7-22.7-49.7h-32.1v98.6H275.4z"/>
</g>
<g id="logo">
	<path id="nd_2_" class="st0" d="M18,89.2c-0.3,7.4-0.3,13.5-0.3,18c0,3.1-0.3,7.7,0.5,13.6c0.2,1.6,0.4,3.1,0.8,4.7
		c1,4.1,2.6,8,4.8,11.7c3.9,6.5,9.2,10.2,11.1,11.6L88.7,190c0.6-10.8,0.7-19.3,0.5-25.3c-0.1-3.2-0.2-5.8-0.9-9.2
		c-1.2-5.4-3.3-10.5-6.3-15.1c-0.6-0.9-1.2-1.9-1.9-2.7c-1.8-2.4-4-4.5-6.4-6.2L18,89.2z"/>
	<path id="nx_2_" class="st0" d="M18.4,10.3c-1.1,11.6-1.4,23.3-0.9,34.9c0.2,4.7,0.6,9.6,2.6,15.4C22,66,24.8,71,28.5,75.4l0,0
		c1.7,2,3.5,4,5.5,5.8c2.3,2.1,62.6,47.5,144.5,108.8c0.7-18.7,0.8-32.5,0.6-36.1c-0.2-2.2-0.4-4.4-0.8-6.6c0,0-0.3-1.5-0.7-3
		c-1.3-5.1-3.5-10.1-6.3-14.5c-2.8-4.2-6.1-8.1-9.9-11.5C152.5,110.5,96.2,67.8,18.4,10.3z"/>
	<path id="nu_2_" class="st0" d="M107.6,10c-0.3,7.4-0.3,13.5-0.3,18c0,10.1,0.3,12.7,0.7,14.6c0.6,3.3,1.7,9.2,5.4,15.4
		c2.8,4.7,6.6,8.6,11.1,11.6l53.9,41.2c0.5-9.7,0.6-17.7,0.5-23.6c0-5-0.2-7.6-0.9-10.9c-1.2-5.4-3.3-10.5-6.3-15.1
		c-0.6-0.9-1.2-1.9-1.9-2.7c-1.8-2.4-4-4.5-6.4-6.2L107.6,10z"/>
</g>
</svg>
