<svg xmlns="http://www.w3.org/2000/svg" xmlns:xlink="http://www.w3.org/1999/xlink" viewBox="0 0 322.15 266.98"><defs><style>.cls-1{fill:none;}.cls-2{isolation:isolate;}.cls-14,.cls-25,.cls-28,.cls-3,.cls-32,.cls-33{fill:#42e8e0;}.cls-4{opacity:0.25;}.cls-5{fill:#217470;}.cls-6{clip-path:url(#clip-path);}.cls-7{fill:#227974;}.cls-8{fill:#3acdc6;}.cls-9{clip-path:url(#clip-path-2);}.cls-10{clip-path:url(#clip-path-3);}.cls-11{clip-path:url(#clip-path-4);}.cls-12{clip-path:url(#clip-path-5);}.cls-13,.cls-33{opacity:0.2;}.cls-14,.cls-34{mix-blend-mode:lighten;}.cls-15{fill:url(#Áåçûìÿííûé_ãðàäèåíò_18);}.cls-16{fill:#bcbeff;}.cls-17{fill:#fff;}.cls-18{fill:url(#New_Gradient_Swatch_4);}.cls-19{fill:#99c7ff;}.cls-20{fill:#053449;}.cls-21,.cls-22,.cls-23,.cls-24,.cls-25,.cls-26,.cls-27{opacity:0.5;}.cls-21{fill:url(#New_Gradient_Swatch_1);}.cls-22{fill:url(#New_Gradient_Swatch_1-2);}.cls-23{fill:url(#New_Gradient_Swatch_1-3);}.cls-24{fill:url(#New_Gradient_Swatch_1-4);}.cls-26{fill:url(#New_Gradient_Swatch_1-5);}.cls-27{fill:url(#New_Gradient_Swatch_1-6);}.cls-28{opacity:0.8;}.cls-29{opacity:0.1;}.cls-30{fill:#2fd3c7;}.cls-31{fill:#03002d;}.cls-31,.cls-32{opacity:0.4;}.cls-34{fill:url(#linear-gradient);}.cls-35{clip-path:url(#clip-path-6);}.cls-36{clip-path:url(#clip-path-7);}.cls-37{clip-path:url(#clip-path-8);}.cls-38{clip-path:url(#clip-path-9);}.cls-39{clip-path:url(#clip-path-10);}.cls-40{fill:#45e5d9;}</style><clipPath id="clip-path" transform="translate(-64.5 -53.02)"><path class="cls-1" d="M228.69,250.84l-5.59,2.92a17.16,17.16,0,0,0-5.25,5.73,21.05,21.05,0,0,0-2.38,7.53l5.59-2.92a21.25,21.25,0,0,1,2.38-7.53A17.35,17.35,0,0,1,228.69,250.84Z"/></clipPath><clipPath id="clip-path-2" transform="translate(-64.5 -53.02)"><path class="cls-1" d="M221.06,264.1,215.47,267c-.16.93-.27,2.2-.09,7.11.07,2.19.18,5.16.46,8.75l5.59-2.91c-.28-3.6-.38-6.57-.46-8.76C220.8,266.3,220.86,265,221.06,264.1Z"/></clipPath><clipPath id="clip-path-3" transform="translate(-64.5 -53.02)"><path class="cls-1" d="M183.41,213l-5.6,2.91a18.79,18.79,0,0,0-5.24,5.74,20.24,20.24,0,0,0-2.15,5.73l5.6-2.92a20.22,20.22,0,0,1,2.14-5.73A18.68,18.68,0,0,1,183.41,213Z"/></clipPath><clipPath id="clip-path-4" transform="translate(-64.5 -53.02)"><path class="cls-1" d="M176,224.47l-5.6,2.92a17.74,17.74,0,0,0-.31,2.29,40.65,40.65,0,0,0,0,6.62c.07,2.19.18,5.16.45,8.75l5.6-2.92c-.28-3.59-.38-6.56-.46-8.75a43,43,0,0,1,0-6.62A16,16,0,0,1,176,224.47Z"/></clipPath><clipPath id="clip-path-5" transform="translate(-64.5 -53.02)"><path class="cls-1" d="M253.09,191.84l-5.6,2.92c-39.09,30.46-67.86,53-69,54.06a29.4,29.4,0,0,0-2.6,2.87,22.1,22.1,0,0,0-3.86,7.26,24.54,24.54,0,0,0-1,7.52,124,124,0,0,0,1,17l5.59-2.92a122.36,122.36,0,0,1-1-17,24.54,24.54,0,0,1,1-7.52,22.48,22.48,0,0,1,3.86-7.26,28.18,28.18,0,0,1,2.6-2.86C185.22,244.86,214,222.3,253.09,191.84Z"/></clipPath><linearGradient id="Áåçûìÿííûé_ãðàäèåíò_18" x1="27.1" y1="169.41" x2="234.09" y2="169.41" gradientUnits="userSpaceOnUse"><stop offset="0" stop-color="#5761d7"/><stop offset="0.16" stop-color="#5e67da"/><stop offset="0.41" stop-color="#727ae2"/><stop offset="0.69" stop-color="#9297ee"/><stop offset="1" stop-color="#bcbeff"/></linearGradient><linearGradient id="New_Gradient_Swatch_4" x1="27.1" y1="149.69" x2="234.09" y2="149.69" gradientUnits="userSpaceOnUse"><stop offset="0" stop-color="#1579ff"/><stop offset="0.16" stop-color="#1980ff"/><stop offset="0.39" stop-color="#2594ff"/><stop offset="0.67" stop-color="#38b4ff"/><stop offset="0.97" stop-color="#53e0ff"/><stop offset="1" stop-color="#55e4ff"/></linearGradient><linearGradient id="New_Gradient_Swatch_1" x1="85.68" y1="121.72" x2="209.92" y2="121.72" gradientUnits="userSpaceOnUse"><stop offset="0" stop-color="#42e8e0"/><stop offset="0.15" stop-color="#40e3e1"/><stop offset="0.33" stop-color="#3cd5e4"/><stop offset="0.52" stop-color="#34bdea"/><stop offset="0.71" stop-color="#299cf1"/><stop offset="0.92" stop-color="#1b72fb"/><stop offset="1" stop-color="#155fff"/></linearGradient><linearGradient id="New_Gradient_Swatch_1-2" x1="147.8" y1="99.27" x2="209.92" y2="99.27" xlink:href="#New_Gradient_Swatch_1"/><linearGradient id="New_Gradient_Swatch_1-3" x1="85.68" y1="99.27" x2="147.8" y2="99.27" xlink:href="#New_Gradient_Swatch_1"/><linearGradient id="New_Gradient_Swatch_1-4" x1="85.68" y1="112.68" x2="209.92" y2="112.68" xlink:href="#New_Gradient_Swatch_1"/><linearGradient id="New_Gradient_Swatch_1-5" x1="147.8" y1="135.13" x2="209.92" y2="135.13" xlink:href="#New_Gradient_Swatch_1"/><linearGradient id="New_Gradient_Swatch_1-6" x1="85.68" y1="135.13" x2="147.8" y2="135.13" xlink:href="#New_Gradient_Swatch_1"/><linearGradient id="linear-gradient" x1="147.76" y1="148.54" x2="147.76" gradientUnits="userSpaceOnUse"><stop offset="0" stop-color="#42e8e0"/><stop offset="0" stop-color="#42e8e0" stop-opacity="0.99"/><stop offset="0.11" stop-color="#42e8e0" stop-opacity="0.76"/><stop offset="0.23" stop-color="#42e8e0" stop-opacity="0.56"/><stop offset="0.34" stop-color="#42e8e0" stop-opacity="0.39"/><stop offset="0.46" stop-color="#42e8e0" stop-opacity="0.25"/><stop offset="0.59" stop-color="#42e8e0" stop-opacity="0.14"/><stop offset="0.71" stop-color="#42e8e0" stop-opacity="0.06"/><stop offset="0.85" stop-color="#42e8e0" stop-opacity="0.01"/><stop offset="1" stop-color="#42e8e0" stop-opacity="0"/></linearGradient><clipPath id="clip-path-6" transform="translate(-64.5 -53.02)"><path class="cls-1" d="M228.48,108.88l-5.6-3a17.39,17.39,0,0,1-5.25-5.87,21.68,21.68,0,0,1-2.39-7.69l5.6,3a21.79,21.79,0,0,0,2.39,7.7A17.47,17.47,0,0,0,228.48,108.88Z"/></clipPath><clipPath id="clip-path-7" transform="translate(-64.5 -53.02)"><path class="cls-1" d="M220.89,95.32l-5.6-3c-.16-1-.27-2.25-.09-7.27.07-2.24.18-5.28.46-9l5.6,3c-.28,3.68-.38,6.71-.46,9C220.58,93.08,220.68,94.37,220.89,95.32Z"/></clipPath><clipPath id="clip-path-8" transform="translate(-64.5 -53.02)"><path class="cls-1" d="M183.13,147.6l-5.6-3a18.89,18.89,0,0,1-5.25-5.86,20.44,20.44,0,0,1-2.15-5.86l5.6,3a20.52,20.52,0,0,0,2.16,5.82A19,19,0,0,0,183.13,147.6Z"/></clipPath><clipPath id="clip-path-9" transform="translate(-64.5 -53.02)"><path class="cls-1" d="M175.73,135.84l-5.6-3a16.67,16.67,0,0,1-.32-2.34,42.51,42.51,0,0,1,0-6.77c.07-2.24.18-5.27.46-9l5.6,3c-.28,3.68-.38,6.72-.46,9a45,45,0,0,0,0,6.77A17.58,17.58,0,0,0,175.73,135.84Z"/></clipPath><clipPath id="clip-path-10" transform="translate(-64.5 -53.02)"><path class="cls-1" d="M252.89,169.21l-5.61-3c-39.15-31.16-68-54.22-69.06-55.29a28.84,28.84,0,0,1-2.6-2.92,23.23,23.23,0,0,1-3.87-7.43,25.64,25.64,0,0,1-1-7.69,127.42,127.42,0,0,1,1-17.35l5.6,3a127.57,127.57,0,0,0-1,17.36,25.53,25.53,0,0,0,1,7.68,23.23,23.23,0,0,0,3.87,7.43,30.08,30.08,0,0,0,2.6,2.93C185,115,213.77,138.06,252.89,169.21Z"/></clipPath></defs><title>ndx-eco</title><g class="cls-2"><g id="Layer_3" data-name="Layer 3"><polygon class="cls-3" points="183.79 84.96 183.64 84.69 218.48 64.42 218.56 64.46 254.57 84.22 254.41 84.5 218.49 64.78 183.79 84.96"/><g id="logo" class="cls-4"><polygon class="cls-5" points="189.89 177.35 184.3 180.27 158.59 200.74 164.19 197.82 189.89 177.35"/><g class="cls-6"><path class="cls-7" d="M228.69,250.84l-5.59,2.92a17.16,17.16,0,0,0-5.25,5.73,21.05,21.05,0,0,0-2.38,7.53l5.59-2.92a21.25,21.25,0,0,1,2.38-7.53,17.35,17.35,0,0,1,5.25-5.73" transform="translate(-64.5 -53.02)"/></g><path class="cls-8" d="M221.43,280l26.62-21a13.4,13.4,0,0,0,3-3.06,14.67,14.67,0,0,0,.89-1.33,21.62,21.62,0,0,0,2.82-7.4,23,23,0,0,0,.26-5.31c-.06-2.87-.24-6.76-.65-11.48l-25.71,20.47a17.35,17.35,0,0,0-5.25,5.73,21.25,21.25,0,0,0-2.38,7.53c-.16.93-.26,2.2-.09,7.11C221.05,273.4,221.15,276.37,221.43,280Z" transform="translate(-64.5 -53.02)"/><g class="cls-9"><path class="cls-7" d="M221.06,264.1,215.47,267c-.16.93-.27,2.2-.09,7.11.07,2.19.18,5.16.46,8.75l5.59-2.91c-.28-3.6-.38-6.57-.46-8.76-.17-4.91-.07-6.18.09-7.11" transform="translate(-64.5 -53.02)"/></g><polygon class="cls-5" points="144.57 139.52 138.98 142.44 113.31 162.91 118.91 159.99 144.57 139.52"/><g class="cls-10"><path class="cls-7" d="M183.41,213l-5.6,2.91a18.79,18.79,0,0,0-5.24,5.74,20.24,20.24,0,0,0-2.15,5.73l5.6-2.92a20.22,20.22,0,0,1,2.14-5.73,18.68,18.68,0,0,1,5.25-5.73" transform="translate(-64.5 -53.02)"/></g><path class="cls-8" d="M176.15,242.13l26.58-21a13.82,13.82,0,0,0,3-3.06,14.67,14.67,0,0,0,.89-1.33,21.85,21.85,0,0,0,2.83-7.4,24.86,24.86,0,0,0,.28-4.48c0-2.93-.2-7.06-.68-12.31L183.39,213a18.68,18.68,0,0,0-5.25,5.73,20.22,20.22,0,0,0-2.14,5.73,16,16,0,0,0-.32,2.29,43,43,0,0,0,0,6.62C175.77,235.57,175.86,238.54,176.15,242.13Z" transform="translate(-64.5 -53.02)"/><g class="cls-11"><path class="cls-7" d="M176,224.47l-5.6,2.92a17.74,17.74,0,0,0-.31,2.29,40.65,40.65,0,0,0,0,6.62c.07,2.19.18,5.16.45,8.75l5.6-2.92c-.28-3.59-.38-6.56-.46-8.75a43,43,0,0,1,0-6.62,16,16,0,0,1,.32-2.29" transform="translate(-64.5 -53.02)"/></g><g class="cls-12"><path class="cls-7" d="M253.09,191.84l-5.6,2.92c-39.09,30.46-67.86,53-69,54.06a29.4,29.4,0,0,0-2.6,2.87,22.1,22.1,0,0,0-3.86,7.26,24.54,24.54,0,0,0-1,7.52,124,124,0,0,0,1,17l5.59-2.92a122.36,122.36,0,0,1-1-17,24.54,24.54,0,0,1,1-7.52,22.48,22.48,0,0,1,3.86-7.26,28.18,28.18,0,0,1,2.6-2.86c1.09-1,29.87-23.6,69-54.07" transform="translate(-64.5 -53.02)"/></g><path class="cls-8" d="M177.7,280.52c37.15-28.58,64-49.8,68.24-53.66a28.46,28.46,0,0,0,4.65-5.67,24.73,24.73,0,0,0,2.84-7.11c.17-.73.29-1.43.29-1.47.16-1.07.22-2.14.28-3.21,0-1.75-.25-8.47-.91-17.56-39.09,30.47-67.87,53-69,54.07a28.18,28.18,0,0,0-2.6,2.86,22.48,22.48,0,0,0-3.86,7.26,24.54,24.54,0,0,0-1,7.52A122,122,0,0,0,177.7,280.52Z" transform="translate(-64.5 -53.02)"/></g><g class="cls-13"><path class="cls-14" d="M232.5,256.4,222,250.33a7.26,7.26,0,0,1-3.27-5.67v-2.53a6.89,6.89,0,0,0-3.12-5.4l-2.19-1.27.16-.27,2.19,1.27a7.22,7.22,0,0,1,3.27,5.67v2.53a6.89,6.89,0,0,0,3.12,5.39l10.51,6.07Z" transform="translate(-64.5 -53.02)"/><path class="cls-14" d="M236.59,254,226.08,248a7.22,7.22,0,0,1-3.27-5.67v-2.53a6.89,6.89,0,0,0-3.12-5.39l-2.19-1.27.15-.27,2.2,1.26a7.26,7.26,0,0,1,3.27,5.67v2.53a6.89,6.89,0,0,0,3.12,5.4l10.51,6.07Z" transform="translate(-64.5 -53.02)"/><path class="cls-14" d="M240.68,251.68l-10.51-6.06a7.26,7.26,0,0,1-3.28-5.67v-2.54a6.88,6.88,0,0,0-3.11-5.39l-2.2-1.27.16-.27,2.2,1.27a7.24,7.24,0,0,1,3.27,5.66V240a6.9,6.9,0,0,0,3.11,5.39l10.51,6.07Z" transform="translate(-64.5 -53.02)"/><path class="cls-14" d="M244.76,249.33l-10.51-6.07a7.24,7.24,0,0,1-3.27-5.67v-2.53a6.94,6.94,0,0,0-3.11-5.4l-2.2-1.26.16-.28,2.2,1.27a7.26,7.26,0,0,1,3.27,5.67v2.53a6.91,6.91,0,0,0,3.11,5.4l10.51,6.06Z" transform="translate(-64.5 -53.02)"/><path class="cls-14" d="M248.85,247l-10.51-6.07a7.24,7.24,0,0,1-3.27-5.66V232.7a6.9,6.9,0,0,0-3.11-5.39l-2.2-1.27.16-.27,2.19,1.27a7.22,7.22,0,0,1,3.28,5.66v2.54a6.88,6.88,0,0,0,3.11,5.39L249,246.7Z" transform="translate(-64.5 -53.02)"/><path class="cls-14" d="M252.94,244.62l-10.51-6.07a7.26,7.26,0,0,1-3.27-5.67v-2.53A6.89,6.89,0,0,0,236,225l-2.19-1.26.16-.28,2.19,1.27a7.22,7.22,0,0,1,3.27,5.67v2.53a6.92,6.92,0,0,0,3.12,5.4l10.51,6.06Z" transform="translate(-64.5 -53.02)"/><path class="cls-14" d="M257,242.26l-10.51-6.07a7.21,7.21,0,0,1-3.27-5.66V228a6.89,6.89,0,0,0-3.12-5.39l-2.19-1.27.16-.27,2.19,1.26a7.27,7.27,0,0,1,3.27,5.67v2.54a6.89,6.89,0,0,0,3.12,5.39L257.19,242Z" transform="translate(-64.5 -53.02)"/><path class="cls-14" d="M261.12,239.91l-10.51-6.07a7.24,7.24,0,0,1-3.28-5.67v-2.54a6.88,6.88,0,0,0-3.11-5.39L242,219l.16-.27,2.2,1.27a7.24,7.24,0,0,1,3.27,5.66v2.54a6.9,6.9,0,0,0,3.11,5.39l10.52,6.07Z" transform="translate(-64.5 -53.02)"/><path class="cls-14" d="M265.21,237.55l-10.52-6.07a7.24,7.24,0,0,1-3.27-5.67v-2.53a6.88,6.88,0,0,0-3.11-5.39l-2.2-1.27.16-.28,2.2,1.27a7.26,7.26,0,0,1,3.27,5.67v2.53a6.91,6.91,0,0,0,3.11,5.4l10.51,6.07Z" transform="translate(-64.5 -53.02)"/><path class="cls-14" d="M269.29,235.19l-10.51-6.06a7.27,7.27,0,0,1-3.27-5.67v-2.54a6.9,6.9,0,0,0-3.11-5.39l-2.2-1.27.16-.27,2.19,1.27a7.22,7.22,0,0,1,3.28,5.66v2.54a6.88,6.88,0,0,0,3.11,5.39l10.51,6.07Z" transform="translate(-64.5 -53.02)"/><path class="cls-14" d="M273.38,232.84l-10.51-6.07a7.24,7.24,0,0,1-3.27-5.67v-2.53a6.92,6.92,0,0,0-3.12-5.4l-2.19-1.26.16-.28,2.19,1.27a7.23,7.23,0,0,1,3.28,5.67v2.53a6.89,6.89,0,0,0,3.11,5.4l10.51,6.06Z" transform="translate(-64.5 -53.02)"/><path class="cls-14" d="M277.47,230.48,267,224.41a7.21,7.21,0,0,1-3.27-5.66v-2.54a6.89,6.89,0,0,0-3.12-5.39l-2.19-1.27.16-.27,2.19,1.27a7.21,7.21,0,0,1,3.27,5.66v2.54a6.89,6.89,0,0,0,3.12,5.39l10.51,6.07Z" transform="translate(-64.5 -53.02)"/><path class="cls-14" d="M281.56,228.13l-10.51-6.07a7.24,7.24,0,0,1-3.28-5.67v-2.53a6.88,6.88,0,0,0-3.11-5.4l-2.19-1.27.15-.27,2.2,1.27a7.24,7.24,0,0,1,3.27,5.67v2.53a6.89,6.89,0,0,0,3.12,5.39l10.51,6.07Z" transform="translate(-64.5 -53.02)"/><path class="cls-14" d="M285.65,225.77l-10.51-6.07a7.22,7.22,0,0,1-3.28-5.66V211.5a6.88,6.88,0,0,0-3.11-5.39l-2.2-1.27.16-.27,2.2,1.26a7.27,7.27,0,0,1,3.27,5.67V214a6.9,6.9,0,0,0,3.11,5.39l10.51,6.07Z" transform="translate(-64.5 -53.02)"/><path class="cls-14" d="M289.73,223.42l-10.51-6.07a7.27,7.27,0,0,1-3.27-5.67v-2.54a6.9,6.9,0,0,0-3.11-5.39l-2.2-1.27.16-.27,2.2,1.27a7.24,7.24,0,0,1,3.27,5.66v2.54a6.88,6.88,0,0,0,3.11,5.39l10.51,6.07Z" transform="translate(-64.5 -53.02)"/><path class="cls-14" d="M293.82,221.06,283.31,215a7.24,7.24,0,0,1-3.27-5.67v-2.53a6.94,6.94,0,0,0-3.11-5.4l-2.2-1.26.16-.28,2.19,1.27a7.24,7.24,0,0,1,3.28,5.67v2.53a6.88,6.88,0,0,0,3.11,5.4L294,220.79Z" transform="translate(-64.5 -53.02)"/><path class="cls-14" d="M297.91,218.7l-10.51-6.07a7.24,7.24,0,0,1-3.27-5.66v-2.54A6.89,6.89,0,0,0,281,199l-2.19-1.27.16-.27,2.19,1.27a7.21,7.21,0,0,1,3.27,5.66V207a6.89,6.89,0,0,0,3.12,5.39l10.51,6.07Z" transform="translate(-64.5 -53.02)"/><path class="cls-14" d="M302,216.35l-10.51-6.07a7.22,7.22,0,0,1-3.27-5.67v-2.53a6.89,6.89,0,0,0-3.12-5.4l-2.19-1.26.15-.28,2.2,1.27a7.24,7.24,0,0,1,3.27,5.67v2.53a6.92,6.92,0,0,0,3.12,5.4l10.51,6.06Z" transform="translate(-64.5 -53.02)"/><path class="cls-14" d="M306.09,214l-10.51-6.07a7.22,7.22,0,0,1-3.28-5.66v-2.54a6.88,6.88,0,0,0-3.11-5.39l-2.2-1.27.16-.27,2.2,1.26a7.27,7.27,0,0,1,3.27,5.67v2.54a6.9,6.9,0,0,0,3.11,5.39l10.51,6.07Z" transform="translate(-64.5 -53.02)"/><path class="cls-14" d="M310.17,211.64l-10.51-6.07a7.26,7.26,0,0,1-3.27-5.67v-2.53a6.88,6.88,0,0,0-3.11-5.4l-2.2-1.27.16-.27,2.2,1.27a7.24,7.24,0,0,1,3.27,5.67v2.53a6.9,6.9,0,0,0,3.11,5.39l10.51,6.07Z" transform="translate(-64.5 -53.02)"/><path class="cls-14" d="M191.81,256.4l-.15-.28,10.51-6.07a6.9,6.9,0,0,0,3.11-5.39v-2.53a7.24,7.24,0,0,1,3.27-5.67l2.2-1.27.16.27-2.2,1.27a6.88,6.88,0,0,0-3.11,5.4v2.53a7.24,7.24,0,0,1-3.28,5.67Z" transform="translate(-64.5 -53.02)"/><path class="cls-14" d="M187.73,254l-.16-.27,10.51-6.07a6.91,6.91,0,0,0,3.11-5.4v-2.53a7.26,7.26,0,0,1,3.27-5.67l2.2-1.26.16.27-2.2,1.27a6.9,6.9,0,0,0-3.11,5.39v2.53a7.24,7.24,0,0,1-3.27,5.67Z" transform="translate(-64.5 -53.02)"/><path class="cls-14" d="M183.64,251.68l-.16-.27L194,245.34A6.88,6.88,0,0,0,197.1,240v-2.54a7.22,7.22,0,0,1,3.28-5.66l2.19-1.27.16.27-2.2,1.27a6.9,6.9,0,0,0-3.11,5.39V240a7.27,7.27,0,0,1-3.27,5.67Z" transform="translate(-64.5 -53.02)"/><path class="cls-14" d="M179.55,249.33l-.16-.28L189.9,243a6.89,6.89,0,0,0,3.12-5.4v-2.53a7.23,7.23,0,0,1,3.27-5.67l2.19-1.27.16.28-2.19,1.26a6.92,6.92,0,0,0-3.12,5.4v2.53a7.24,7.24,0,0,1-3.27,5.67Z" transform="translate(-64.5 -53.02)"/><path class="cls-14" d="M175.46,247l-.16-.27,10.51-6.07a6.89,6.89,0,0,0,3.12-5.39V232.7A7.24,7.24,0,0,1,192.2,227l2.2-1.27.15.27-2.19,1.27a6.89,6.89,0,0,0-3.12,5.39v2.54A7.21,7.21,0,0,1,186,240.9Z" transform="translate(-64.5 -53.02)"/><path class="cls-14" d="M171.37,244.62l-.16-.28,10.52-6.06a6.94,6.94,0,0,0,3.11-5.4v-2.53a7.24,7.24,0,0,1,3.27-5.67l2.2-1.27.16.28-2.2,1.26a6.88,6.88,0,0,0-3.11,5.4v2.53a7.24,7.24,0,0,1-3.28,5.67Z" transform="translate(-64.5 -53.02)"/><path class="cls-14" d="M167.28,242.26l-.15-.27,10.51-6.07a6.9,6.9,0,0,0,3.11-5.39V228a7.27,7.27,0,0,1,3.27-5.67l2.2-1.26.16.27-2.2,1.27a6.88,6.88,0,0,0-3.11,5.39v2.54a7.24,7.24,0,0,1-3.27,5.66Z" transform="translate(-64.5 -53.02)"/><path class="cls-14" d="M163.2,239.91l-.16-.28,10.51-6.07a6.88,6.88,0,0,0,3.11-5.39v-2.54a7.22,7.22,0,0,1,3.28-5.66l2.19-1.27.16.27-2.2,1.27a6.9,6.9,0,0,0-3.11,5.39v2.54a7.26,7.26,0,0,1-3.27,5.67Z" transform="translate(-64.5 -53.02)"/><path class="cls-14" d="M159.11,237.55l-.16-.27,10.51-6.07a6.89,6.89,0,0,0,3.12-5.4v-2.53a7.23,7.23,0,0,1,3.27-5.67l2.19-1.27.16.28L176,217.89a6.89,6.89,0,0,0-3.12,5.39v2.53a7.24,7.24,0,0,1-3.27,5.67Z" transform="translate(-64.5 -53.02)"/><path class="cls-14" d="M155,235.19l-.16-.27,10.51-6.07a6.89,6.89,0,0,0,3.12-5.39v-2.54a7.21,7.21,0,0,1,3.27-5.66L174,214l.16.27-2.19,1.27a6.89,6.89,0,0,0-3.12,5.39v2.54a7.25,7.25,0,0,1-3.27,5.67Z" transform="translate(-64.5 -53.02)"/><path class="cls-14" d="M150.93,232.84l-.16-.28,10.51-6.06a6.9,6.9,0,0,0,3.12-5.4v-2.53a7.24,7.24,0,0,1,3.27-5.67l2.2-1.27.15.28-2.19,1.26a6.91,6.91,0,0,0-3.11,5.4v2.53a7.23,7.23,0,0,1-3.28,5.67Z" transform="translate(-64.5 -53.02)"/><path class="cls-14" d="M146.84,230.48l-.15-.27,10.51-6.07a6.9,6.9,0,0,0,3.11-5.39v-2.54a7.24,7.24,0,0,1,3.27-5.66l2.2-1.27.16.27-2.2,1.27a6.88,6.88,0,0,0-3.11,5.39v2.54a7.24,7.24,0,0,1-3.27,5.66Z" transform="translate(-64.5 -53.02)"/><path class="cls-14" d="M142.76,228.13l-.16-.28,10.51-6.07a6.88,6.88,0,0,0,3.11-5.39v-2.53a7.24,7.24,0,0,1,3.27-5.67l2.2-1.27.16.27-2.2,1.27a6.91,6.91,0,0,0-3.11,5.4v2.53a7.26,7.26,0,0,1-3.27,5.67Z" transform="translate(-64.5 -53.02)"/><path class="cls-14" d="M138.67,225.77l-.16-.27L149,219.43a6.88,6.88,0,0,0,3.11-5.39V211.5a7.26,7.26,0,0,1,3.28-5.67l2.19-1.26.16.27-2.2,1.27a6.9,6.9,0,0,0-3.11,5.39V214a7.24,7.24,0,0,1-3.27,5.66Z" transform="translate(-64.5 -53.02)"/><path class="cls-14" d="M134.58,223.42l-.16-.28,10.51-6.07a6.89,6.89,0,0,0,3.12-5.39v-2.54a7.21,7.21,0,0,1,3.27-5.66l2.19-1.27.16.27-2.19,1.27a6.89,6.89,0,0,0-3.12,5.39v2.54a7.25,7.25,0,0,1-3.27,5.67Z" transform="translate(-64.5 -53.02)"/><path class="cls-14" d="M130.49,221.06l-.16-.27,10.51-6.07a6.89,6.89,0,0,0,3.12-5.4v-2.53a7.26,7.26,0,0,1,3.27-5.67l2.2-1.27.15.28-2.19,1.26a6.92,6.92,0,0,0-3.12,5.4v2.53A7.22,7.22,0,0,1,141,215Z" transform="translate(-64.5 -53.02)"/><path class="cls-14" d="M126.4,218.7l-.15-.27,10.51-6.07a6.9,6.9,0,0,0,3.11-5.39v-2.54a7.24,7.24,0,0,1,3.27-5.66l2.2-1.27.16.27L143.3,199a6.88,6.88,0,0,0-3.11,5.39V207a7.22,7.22,0,0,1-3.28,5.66Z" transform="translate(-64.5 -53.02)"/><path class="cls-14" d="M122.32,216.35l-.16-.28L132.67,210a6.94,6.94,0,0,0,3.11-5.4v-2.53a7.24,7.24,0,0,1,3.27-5.67l2.2-1.27.16.28-2.2,1.26a6.91,6.91,0,0,0-3.11,5.4v2.53a7.26,7.26,0,0,1-3.27,5.67Z" transform="translate(-64.5 -53.02)"/><path class="cls-14" d="M118.23,214l-.16-.27,10.51-6.07a6.88,6.88,0,0,0,3.11-5.39v-2.54a7.26,7.26,0,0,1,3.28-5.67l2.19-1.26.16.27-2.2,1.27a6.9,6.9,0,0,0-3.11,5.39v2.54a7.24,7.24,0,0,1-3.27,5.66Z" transform="translate(-64.5 -53.02)"/><path class="cls-14" d="M114.14,211.64l-.16-.28,10.51-6.07a6.89,6.89,0,0,0,3.12-5.39v-2.53a7.22,7.22,0,0,1,3.27-5.67l2.19-1.27.16.27L131,192a6.89,6.89,0,0,0-3.12,5.4v2.53a7.26,7.26,0,0,1-3.27,5.67Z" transform="translate(-64.5 -53.02)"/><polygon class="cls-15" points="228.57 141.43 228.57 150.77 147.8 197.4 67.03 150.76 67.03 141.43 228.57 141.43"/><polygon class="cls-16" points="147.8 188.06 67.03 141.43 147.8 94.8 228.57 141.43 147.8 188.06"/><polygon class="cls-17" points="147.8 186.97 67.98 140.89 67.03 141.43 147.8 188.06 228.57 141.43 227.62 140.89 147.8 186.97"/></g><path class="cls-14" d="M203.89,134.5a3.12,3.12,0,0,1-1.51-.46L191.87,128l.16-.27,10.51,6.06a2.08,2.08,0,0,0,2.1.23,2.11,2.11,0,0,0,.86-1.93v-2.54a2.1,2.1,0,0,1,3.43-2l2.19,1.27-.15.27-2.2-1.26a1.79,1.79,0,0,0-3,1.7v2.54a2.38,2.38,0,0,1-1,2.2A1.77,1.77,0,0,1,203.89,134.5Z" transform="translate(-64.5 -53.02)"/><path class="cls-14" d="M199.8,136.85a3,3,0,0,1-1.5-.46l-10.51-6.07.15-.27,10.52,6.07a1.79,1.79,0,0,0,2.95-1.71v-2.53a2.1,2.1,0,0,1,3.43-2l2.2,1.27-.16.28-2.2-1.27a1.79,1.79,0,0,0-3,1.71v2.53a2.37,2.37,0,0,1-1,2.2A1.77,1.77,0,0,1,199.8,136.85Z" transform="translate(-64.5 -53.02)"/><path class="cls-14" d="M195.71,139.2a3,3,0,0,1-1.5-.46l-10.51-6.07.16-.27,10.51,6.07a1.79,1.79,0,0,0,2.95-1.71v-2.53a2.39,2.39,0,0,1,1-2.21,2.36,2.36,0,0,1,2.41.23l2.2,1.26-.16.28-2.2-1.27a1.79,1.79,0,0,0-3,1.71v2.53a2.4,2.4,0,0,1-1,2.21A1.9,1.9,0,0,1,195.71,139.2Z" transform="translate(-64.5 -53.02)"/><path class="cls-14" d="M191.63,141.55a3,3,0,0,1-1.51-.46L179.61,135l.16-.27,10.51,6.07a1.79,1.79,0,0,0,2.95-1.71v-2.53a2.39,2.39,0,0,1,1-2.21,2.43,2.43,0,0,1,2.42.23l2.19,1.27-.16.27-2.19-1.27a1.8,1.8,0,0,0-3,1.71v2.53a2.4,2.4,0,0,1-1,2.21A1.89,1.89,0,0,1,191.63,141.55Z" transform="translate(-64.5 -53.02)"/><path class="cls-14" d="M187.54,143.9a3,3,0,0,1-1.51-.46l-10.51-6.06.16-.28,10.51,6.07a1.8,1.8,0,0,0,3-1.71v-2.53a2.1,2.1,0,0,1,3.43-2l2.19,1.27-.16.27-2.19-1.27a1.8,1.8,0,0,0-3,1.71v2.53a2.4,2.4,0,0,1-1,2.21A1.76,1.76,0,0,1,187.54,143.9Z" transform="translate(-64.5 -53.02)"/><path class="cls-14" d="M183.45,146.26a3.12,3.12,0,0,1-1.51-.46l-10.51-6.07.16-.27,10.51,6.06a2.08,2.08,0,0,0,2.1.23,2.11,2.11,0,0,0,.86-1.93v-2.54a2.1,2.1,0,0,1,3.43-2l2.19,1.27-.15.27-2.2-1.26a2.08,2.08,0,0,0-2.1-.23,2.11,2.11,0,0,0-.86,1.93v2.54a2.4,2.4,0,0,1-1,2.2A1.77,1.77,0,0,1,183.45,146.26Z" transform="translate(-64.5 -53.02)"/><path class="cls-14" d="M179.36,148.61a3.08,3.08,0,0,1-1.5-.46l-10.51-6.07.15-.27L178,147.88a1.8,1.8,0,0,0,3-1.71v-2.54a2.1,2.1,0,0,1,3.43-2l2.2,1.27-.16.27-2.2-1.26a2.08,2.08,0,0,0-2.1-.23,2.11,2.11,0,0,0-.85,1.93v2.54a2.38,2.38,0,0,1-1,2.2A1.77,1.77,0,0,1,179.36,148.61Z" transform="translate(-64.5 -53.02)"/><path class="cls-14" d="M175.27,151a3.11,3.11,0,0,1-1.5-.46l-10.51-6.07.16-.27,10.51,6.07a1.79,1.79,0,0,0,2.95-1.71V146a2.39,2.39,0,0,1,1-2.21,2.36,2.36,0,0,1,2.41.23l2.2,1.26-.16.28-2.2-1.27a1.79,1.79,0,0,0-3,1.71v2.53a2.37,2.37,0,0,1-1,2.2A1.77,1.77,0,0,1,175.27,151Z" transform="translate(-64.5 -53.02)"/><path class="cls-14" d="M171.19,153.31a3,3,0,0,1-1.51-.46l-10.51-6.07.16-.27,10.51,6.07a1.79,1.79,0,0,0,2.95-1.71v-2.53a2.1,2.1,0,0,1,3.43-2l2.2,1.26-.16.28-2.19-1.27a2.1,2.1,0,0,0-2.1-.22,2.08,2.08,0,0,0-.86,1.93v2.53a2.4,2.4,0,0,1-1,2.21A1.89,1.89,0,0,1,171.19,153.31Z" transform="translate(-64.5 -53.02)"/><path class="cls-14" d="M167.1,155.66a3,3,0,0,1-1.51-.46l-10.51-6.07.16-.27,10.51,6.07a1.8,1.8,0,0,0,3-1.71v-2.53a2.1,2.1,0,0,1,3.43-2l2.19,1.27-.16.27L172,149a1.8,1.8,0,0,0-3,1.71v2.53a2.4,2.4,0,0,1-1,2.21A1.76,1.76,0,0,1,167.1,155.66Z" transform="translate(-64.5 -53.02)"/><path class="cls-14" d="M163,158a3,3,0,0,1-1.51-.46L151,151.49l.16-.28,10.51,6.07a2.08,2.08,0,0,0,2.1.23,2.11,2.11,0,0,0,.86-1.93V153a2.1,2.1,0,0,1,3.43-2l2.19,1.27-.16.27-2.19-1.27a1.8,1.8,0,0,0-3,1.71v2.54a2.4,2.4,0,0,1-1,2.2A1.76,1.76,0,0,1,163,158Z" transform="translate(-64.5 -53.02)"/><path class="cls-14" d="M158.92,160.37a3.08,3.08,0,0,1-1.5-.46l-10.52-6.07.16-.28,10.51,6.07a1.79,1.79,0,0,0,3-1.7v-2.54a2.1,2.1,0,0,1,3.43-2l2.2,1.27L166,155l-2.2-1.27a1.79,1.79,0,0,0-3,1.71v2.54a2.38,2.38,0,0,1-1,2.2A1.77,1.77,0,0,1,158.92,160.37Z" transform="translate(-64.5 -53.02)"/><path class="cls-14" d="M154.83,162.72a3.11,3.11,0,0,1-1.5-.46l-10.51-6.07.16-.27L153.49,162a1.79,1.79,0,0,0,2.95-1.71v-2.54a2.1,2.1,0,0,1,3.43-2l2.2,1.27-.16.27-2.2-1.26a1.79,1.79,0,0,0-3,1.7v2.54a2.38,2.38,0,0,1-1,2.2A1.77,1.77,0,0,1,154.83,162.72Z" transform="translate(-64.5 -53.02)"/><path class="cls-14" d="M150.74,165.07a3,3,0,0,1-1.5-.46l-10.51-6.07.16-.27,10.51,6.07a1.79,1.79,0,0,0,2.95-1.71v-2.54a2.1,2.1,0,0,1,3.43-2l2.2,1.26-.16.28-2.19-1.27a1.8,1.8,0,0,0-3,1.7v2.54a2.39,2.39,0,0,1-1,2.2A1.8,1.8,0,0,1,150.74,165.07Z" transform="translate(-64.5 -53.02)"/><path class="cls-14" d="M146.66,167.42a3,3,0,0,1-1.51-.46l-10.51-6.07.16-.27,10.51,6.07a1.8,1.8,0,0,0,3-1.71v-2.53a2.4,2.4,0,0,1,1-2.21,2.38,2.38,0,0,1,2.42.23l2.19,1.26-.16.28-2.19-1.27a1.8,1.8,0,0,0-3,1.71V165a2.4,2.4,0,0,1-1,2.21A1.86,1.86,0,0,1,146.66,167.42Z" transform="translate(-64.5 -53.02)"/><path class="cls-14" d="M142.57,169.77a3,3,0,0,1-1.51-.46l-10.51-6.06.16-.28L141.22,169a1.8,1.8,0,0,0,3-1.71V164.8a2.1,2.1,0,0,1,3.43-2l2.19,1.27-.16.27-2.19-1.27a1.8,1.8,0,0,0-3,1.71v2.53a2.4,2.4,0,0,1-1,2.21A1.86,1.86,0,0,1,142.57,169.77Z" transform="translate(-64.5 -53.02)"/><path class="cls-14" d="M138.48,172.12a3.1,3.1,0,0,1-1.51-.45l-10.51-6.07.16-.28,10.51,6.07a1.79,1.79,0,0,0,3-1.71v-2.53a2.1,2.1,0,0,1,3.43-2l2.19,1.27-.15.27-2.2-1.27a1.79,1.79,0,0,0-3,1.71v2.53a2.41,2.41,0,0,1-1,2.21A1.76,1.76,0,0,1,138.48,172.12Z" transform="translate(-64.5 -53.02)"/><path class="cls-14" d="M134.39,174.48a3.11,3.11,0,0,1-1.5-.46L122.38,168l.15-.28L133,173.74a1.79,1.79,0,0,0,3-1.7V169.5a2.1,2.1,0,0,1,3.43-2l2.2,1.27-.16.27-2.2-1.26a2.08,2.08,0,0,0-2.1-.23,2.11,2.11,0,0,0-.85,1.93V172a2.38,2.38,0,0,1-1,2.2A1.77,1.77,0,0,1,134.39,174.48Z" transform="translate(-64.5 -53.02)"/><path class="cls-14" d="M130.3,176.83a3.11,3.11,0,0,1-1.5-.46l-10.51-6.07.16-.27L129,176.09a2.08,2.08,0,0,0,2.1.23,2.11,2.11,0,0,0,.85-1.93v-2.54a2.1,2.1,0,0,1,3.43-2l2.2,1.27-.16.27-2.2-1.26a2.13,2.13,0,0,0-2.1-.23,2.11,2.11,0,0,0-.85,1.93v2.54a2.38,2.38,0,0,1-1,2.2A1.74,1.74,0,0,1,130.3,176.83Z" transform="translate(-64.5 -53.02)"/><path class="cls-14" d="M126.22,179.18a3,3,0,0,1-1.51-.46l-10.51-6.07.16-.27,10.51,6.07a1.79,1.79,0,0,0,2.95-1.71v-2.53a2.1,2.1,0,0,1,3.43-2l2.2,1.27-.16.28-2.19-1.27a2.1,2.1,0,0,0-2.1-.22,2.07,2.07,0,0,0-.86,1.93v2.53a2.39,2.39,0,0,1-1,2.2A1.79,1.79,0,0,1,126.22,179.18Z" transform="translate(-64.5 -53.02)"/><path class="cls-14" d="M220.64,134.69a1.77,1.77,0,0,1-.91-.24,2.39,2.39,0,0,1-1-2.2v-2.54a1.8,1.8,0,0,0-3-1.7l-2.19,1.27-.16-.28,2.19-1.26a2.09,2.09,0,0,1,3.43,2v2.54a1.8,1.8,0,0,0,3,1.71l10.51-6.07.16.27-10.51,6.07A3,3,0,0,1,220.64,134.69Z" transform="translate(-64.5 -53.02)"/><path class="cls-14" d="M224.73,137a1.86,1.86,0,0,1-.91-.23,2.4,2.4,0,0,1-1-2.21v-2.53a1.8,1.8,0,0,0-3-1.71l-2.2,1.27-.15-.28,2.19-1.26a2.1,2.1,0,0,1,3.43,2v2.53a1.8,1.8,0,0,0,3,1.71l10.51-6.07.16.27-10.51,6.07A3,3,0,0,1,224.73,137Z" transform="translate(-64.5 -53.02)"/><path class="cls-14" d="M228.82,139.39a1.86,1.86,0,0,1-.91-.23,2.39,2.39,0,0,1-1-2.21v-2.53a1.79,1.79,0,0,0-2.95-1.71l-2.2,1.27-.16-.27,2.2-1.27a2.1,2.1,0,0,1,3.43,2V137a2.08,2.08,0,0,0,.86,1.93,2.1,2.1,0,0,0,2.1-.22l10.51-6.07.15.28-10.51,6.06A3,3,0,0,1,228.82,139.39Z" transform="translate(-64.5 -53.02)"/><path class="cls-14" d="M232.91,141.74a1.76,1.76,0,0,1-.91-.23,2.39,2.39,0,0,1-1-2.21v-2.53a1.79,1.79,0,0,0-2.95-1.71l-2.2,1.27-.16-.27,2.2-1.27a2.1,2.1,0,0,1,3.43,2v2.53a1.79,1.79,0,0,0,2.95,1.71l10.51-6.07.16.28-10.51,6.07A3.09,3.09,0,0,1,232.91,141.74Z" transform="translate(-64.5 -53.02)"/><path class="cls-14" d="M237,144.1a1.79,1.79,0,0,1-.91-.24,2.4,2.4,0,0,1-1-2.2v-2.54a1.79,1.79,0,0,0-3-1.7l-2.19,1.26-.16-.27,2.2-1.27a2.1,2.1,0,0,1,3.43,2v2.54a2.11,2.11,0,0,0,.85,1.93,2.08,2.08,0,0,0,2.1-.23l10.51-6.06.16.27-10.51,6.07A3.12,3.12,0,0,1,237,144.1Z" transform="translate(-64.5 -53.02)"/><path class="cls-14" d="M241.08,146.45a1.77,1.77,0,0,1-.91-.24,2.39,2.39,0,0,1-1-2.2v-2.54a1.79,1.79,0,0,0-3-1.7L234,141l-.16-.27,2.19-1.27a2.1,2.1,0,0,1,3.43,2V144a2.11,2.11,0,0,0,.86,1.93,2.08,2.08,0,0,0,2.1-.23l10.51-6.06.16.27L242.59,146A3.12,3.12,0,0,1,241.08,146.45Z" transform="translate(-64.5 -53.02)"/><path class="cls-14" d="M245.17,148.8a1.77,1.77,0,0,1-.91-.24,2.39,2.39,0,0,1-1-2.2v-2.53a1.8,1.8,0,0,0-3-1.71l-2.19,1.27-.16-.28,2.19-1.27a2.1,2.1,0,0,1,3.43,2v2.53a1.8,1.8,0,0,0,3,1.71L257,142l.16.27-10.51,6.07A3,3,0,0,1,245.17,148.8Z" transform="translate(-64.5 -53.02)"/><path class="cls-14" d="M249.26,151.15a1.86,1.86,0,0,1-.91-.23,2.39,2.39,0,0,1-1-2.21v-2.53a1.79,1.79,0,0,0-3-1.71l-2.2,1.27-.16-.28,2.2-1.26a2.38,2.38,0,0,1,2.42-.23,2.4,2.4,0,0,1,1,2.21v2.53a1.8,1.8,0,0,0,3,1.71l10.51-6.07.16.27-10.52,6.07A3,3,0,0,1,249.26,151.15Z" transform="translate(-64.5 -53.02)"/><path class="cls-14" d="M253.35,153.5a1.86,1.86,0,0,1-.91-.23,2.39,2.39,0,0,1-1-2.21v-2.53a1.79,1.79,0,0,0-2.95-1.71l-2.2,1.27-.16-.27,2.2-1.27a2.1,2.1,0,0,1,3.43,2v2.53a1.79,1.79,0,0,0,2.95,1.71l10.52-6.07.15.28L254.85,153A3,3,0,0,1,253.35,153.5Z" transform="translate(-64.5 -53.02)"/><path class="cls-14" d="M257.44,155.85a1.8,1.8,0,0,1-.92-.23,2.4,2.4,0,0,1-1-2.2v-2.54a2.08,2.08,0,0,0-.86-1.93,2.1,2.1,0,0,0-2.1.22l-2.19,1.27-.16-.27,2.2-1.27a2.1,2.1,0,0,1,3.43,2v2.54a2.08,2.08,0,0,0,.85,1.92,2.1,2.1,0,0,0,2.1-.22l10.51-6.07.16.28-10.51,6.07A3.09,3.09,0,0,1,257.44,155.85Z" transform="translate(-64.5 -53.02)"/><path class="cls-14" d="M261.52,158.21a1.77,1.77,0,0,1-.91-.24,2.4,2.4,0,0,1-1-2.2v-2.54a2.11,2.11,0,0,0-.86-1.93,2.08,2.08,0,0,0-2.1.23l-2.19,1.26-.16-.27,2.19-1.27a2.11,2.11,0,0,1,3.44,2v2.54a2.11,2.11,0,0,0,.85,1.93,2.08,2.08,0,0,0,2.1-.23l10.51-6.06.16.27L263,157.75A3.12,3.12,0,0,1,261.52,158.21Z" transform="translate(-64.5 -53.02)"/><path class="cls-14" d="M265.61,160.56a1.77,1.77,0,0,1-.91-.24,2.39,2.39,0,0,1-1-2.2v-2.54a1.79,1.79,0,0,0-3-1.7l-2.19,1.26-.16-.27,2.19-1.27a2.1,2.1,0,0,1,3.43,2v2.54a1.8,1.8,0,0,0,3,1.71l10.51-6.07.16.27-10.51,6.07A3.12,3.12,0,0,1,265.61,160.56Z" transform="translate(-64.5 -53.02)"/><path class="cls-14" d="M269.7,162.91a1.77,1.77,0,0,1-.91-.24,2.39,2.39,0,0,1-1-2.2v-2.53a1.79,1.79,0,0,0-2.95-1.71l-2.2,1.27-.15-.28,2.19-1.26a2.38,2.38,0,0,1,2.42-.23,2.4,2.4,0,0,1,1,2.21v2.53a1.8,1.8,0,0,0,3,1.71l10.51-6.07.16.27-10.51,6.07A3,3,0,0,1,269.7,162.91Z" transform="translate(-64.5 -53.02)"/><path class="cls-14" d="M273.79,165.26a1.86,1.86,0,0,1-.91-.23,2.39,2.39,0,0,1-1-2.21v-2.53a1.79,1.79,0,0,0-2.95-1.71l-2.2,1.27-.16-.28,2.2-1.26a2.1,2.1,0,0,1,3.43,2v2.53a2.08,2.08,0,0,0,.86,1.93,2.1,2.1,0,0,0,2.1-.22l10.51-6.07.15.27-10.51,6.07A3,3,0,0,1,273.79,165.26Z" transform="translate(-64.5 -53.02)"/><path class="cls-14" d="M277.88,167.61a1.74,1.74,0,0,1-.91-.23,2.39,2.39,0,0,1-1-2.21v-2.53a1.79,1.79,0,0,0-2.95-1.71l-2.2,1.27-.16-.27,2.2-1.27a2.1,2.1,0,0,1,3.43,2v2.53a1.79,1.79,0,0,0,3,1.71l10.51-6.07.16.28-10.51,6.06A3,3,0,0,1,277.88,167.61Z" transform="translate(-64.5 -53.02)"/><path class="cls-14" d="M282,170a1.79,1.79,0,0,1-.91-.23,2.4,2.4,0,0,1-1-2.2V165a2.08,2.08,0,0,0-.86-1.93,2.1,2.1,0,0,0-2.1.22l-2.19,1.27-.16-.27,2.2-1.27a2.1,2.1,0,0,1,3.43,2v2.54a2.11,2.11,0,0,0,.85,1.93,2.13,2.13,0,0,0,2.1-.23l10.51-6.07.16.28-10.51,6.07A3.1,3.1,0,0,1,282,170Z" transform="translate(-64.5 -53.02)"/><path class="cls-14" d="M286.05,172.32a1.77,1.77,0,0,1-.91-.24,2.4,2.4,0,0,1-1-2.2v-2.54a2.11,2.11,0,0,0-.86-1.93,2.08,2.08,0,0,0-2.1.23L279,166.9l-.16-.27,2.19-1.27a2.1,2.1,0,0,1,3.43,2v2.54a2.11,2.11,0,0,0,.86,1.93,2.08,2.08,0,0,0,2.1-.23l10.51-6.06.16.27-10.51,6.07A3.12,3.12,0,0,1,286.05,172.32Z" transform="translate(-64.5 -53.02)"/><path class="cls-14" d="M290.14,174.67a1.77,1.77,0,0,1-.91-.24,2.4,2.4,0,0,1-1-2.2v-2.54a2.11,2.11,0,0,0-.86-1.93,2.08,2.08,0,0,0-2.1.23l-2.2,1.27-.15-.28,2.19-1.27a2.1,2.1,0,0,1,3.43,2v2.54a1.8,1.8,0,0,0,3,1.71L302,167.87l.16.27-10.51,6.07A3.12,3.12,0,0,1,290.14,174.67Z" transform="translate(-64.5 -53.02)"/><path class="cls-14" d="M294.23,177a1.86,1.86,0,0,1-.91-.23,2.4,2.4,0,0,1-1-2.21v-2.53a1.79,1.79,0,0,0-2.95-1.71l-2.2,1.27-.16-.28,2.2-1.26a2.1,2.1,0,0,1,3.43,2v2.53a2.08,2.08,0,0,0,.86,1.93,2.1,2.1,0,0,0,2.1-.22l10.51-6.07.15.27-10.51,6.07A3,3,0,0,1,294.23,177Z" transform="translate(-64.5 -53.02)"/><path class="cls-14" d="M298.32,179.37a1.86,1.86,0,0,1-.91-.23,2.39,2.39,0,0,1-1-2.21V174.4a1.79,1.79,0,0,0-2.95-1.71l-2.2,1.27-.16-.28,2.2-1.26a2.1,2.1,0,0,1,3.43,2v2.53a1.79,1.79,0,0,0,3,1.71l10.51-6.07.16.27-10.51,6.07A3,3,0,0,1,298.32,179.37Z" transform="translate(-64.5 -53.02)"/><polygon class="cls-18" points="228.57 121.71 228.57 131.04 147.8 177.68 67.03 131.04 67.03 121.71 228.57 121.71"/><polygon class="cls-19" points="147.8 168.34 67.03 121.71 147.8 75.08 228.57 121.71 147.8 168.34"/><polygon class="cls-17" points="147.8 167.25 67.98 121.17 67.03 121.71 147.8 168.34 228.57 121.71 227.62 121.17 147.8 167.25"/><polygon class="cls-20" points="147.8 157.59 85.68 121.72 147.8 85.86 209.92 121.72 147.8 157.59"/><polygon class="cls-21" points="147.8 157.59 85.68 121.72 147.8 85.86 209.92 121.72 147.8 157.59"/><polygon class="cls-22" points="147.8 76.81 209.92 112.68 209.92 121.72 147.8 85.85 147.8 76.81"/><polygon class="cls-23" points="147.8 85.85 85.68 121.72 85.68 112.68 147.8 76.81 147.8 85.85"/><polygon class="cls-24" points="147.8 148.54 85.68 112.68 147.8 76.81 209.92 112.68 147.8 148.54"/><polygon class="cls-25" points="147.8 127.01 122.98 112.68 147.8 98.35 172.62 112.68 147.8 127.01"/><polygon class="cls-25" points="147.8 99.66 171.48 113.34 172.62 112.68 147.8 98.35 122.98 112.68 124.12 113.34 147.8 99.66"/><polygon class="cls-26" points="147.8 148.54 147.8 157.59 209.92 121.72 209.92 112.68 147.8 148.54"/><polygon class="cls-27" points="85.68 112.68 85.68 121.72 147.8 157.59 147.8 148.54 85.68 112.68"/><polygon class="cls-28" points="147.8 147.56 86.53 112.18 85.68 112.68 147.8 148.54 209.92 112.68 209.07 112.18 147.8 147.56"/><path class="cls-14" d="M232.5,241.66,222,235.59a7.24,7.24,0,0,1-3.27-5.67v-2.53A6.89,6.89,0,0,0,215.6,222l-2.19-1.27.16-.27,2.19,1.26a7.23,7.23,0,0,1,3.27,5.67v2.53a6.89,6.89,0,0,0,3.12,5.4l10.51,6.07Z" transform="translate(-64.5 -53.02)"/><path class="cls-14" d="M236.59,239.3l-10.51-6.06a7.25,7.25,0,0,1-3.27-5.67V225a6.89,6.89,0,0,0-3.12-5.39l-2.19-1.27.15-.27,2.2,1.27a7.24,7.24,0,0,1,3.27,5.66v2.54a6.89,6.89,0,0,0,3.12,5.39L236.75,239Z" transform="translate(-64.5 -53.02)"/><path class="cls-14" d="M240.68,237l-10.51-6.07a7.23,7.23,0,0,1-3.28-5.67v-2.53a6.91,6.91,0,0,0-3.11-5.4l-2.2-1.26.16-.28,2.2,1.27a7.26,7.26,0,0,1,3.27,5.67v2.53a6.91,6.91,0,0,0,3.11,5.4l10.51,6.07Z" transform="translate(-64.5 -53.02)"/><path class="cls-14" d="M244.76,234.59l-10.51-6.07a7.24,7.24,0,0,1-3.27-5.66v-2.54a6.9,6.9,0,0,0-3.11-5.39l-2.2-1.27.16-.27,2.2,1.27a7.24,7.24,0,0,1,3.27,5.66v2.54a6.9,6.9,0,0,0,3.11,5.39l10.51,6.07Z" transform="translate(-64.5 -53.02)"/><path class="cls-14" d="M248.85,232.24l-10.51-6.07a7.24,7.24,0,0,1-3.27-5.67V218a6.91,6.91,0,0,0-3.11-5.4l-2.2-1.26.16-.28,2.19,1.27a7.23,7.23,0,0,1,3.28,5.67v2.53a6.91,6.91,0,0,0,3.11,5.4L249,232Z" transform="translate(-64.5 -53.02)"/><path class="cls-14" d="M252.94,229.88l-10.51-6.07a7.24,7.24,0,0,1-3.27-5.66v-2.54a6.89,6.89,0,0,0-3.12-5.39L233.85,209l.16-.27,2.19,1.26a7.25,7.25,0,0,1,3.27,5.67v2.54a6.89,6.89,0,0,0,3.12,5.39l10.51,6.07Z" transform="translate(-64.5 -53.02)"/><path class="cls-14" d="M257,227.53l-10.51-6.07a7.23,7.23,0,0,1-3.27-5.67v-2.53a6.89,6.89,0,0,0-3.12-5.4l-2.19-1.27.16-.27,2.19,1.27a7.24,7.24,0,0,1,3.27,5.67v2.53a6.89,6.89,0,0,0,3.12,5.39l10.51,6.07Z" transform="translate(-64.5 -53.02)"/><path class="cls-14" d="M261.12,225.17l-10.51-6.07a7.23,7.23,0,0,1-3.28-5.67V210.9a6.88,6.88,0,0,0-3.11-5.39l-2.2-1.27.16-.28,2.2,1.27a7.26,7.26,0,0,1,3.27,5.67v2.53a6.91,6.91,0,0,0,3.11,5.4l10.52,6.07Z" transform="translate(-64.5 -53.02)"/><path class="cls-14" d="M265.21,222.81l-10.52-6.06a7.27,7.27,0,0,1-3.27-5.67v-2.54a6.88,6.88,0,0,0-3.11-5.39l-2.2-1.27.16-.27,2.2,1.27a7.24,7.24,0,0,1,3.27,5.66v2.54a6.9,6.9,0,0,0,3.11,5.39l10.51,6.07Z" transform="translate(-64.5 -53.02)"/><path class="cls-14" d="M269.29,220.46l-10.51-6.07a7.24,7.24,0,0,1-3.27-5.67v-2.53a6.94,6.94,0,0,0-3.11-5.4l-2.2-1.26.16-.28,2.19,1.27a7.23,7.23,0,0,1,3.28,5.67v2.53a6.88,6.88,0,0,0,3.11,5.4l10.51,6.06Z" transform="translate(-64.5 -53.02)"/><path class="cls-14" d="M273.38,218.1,262.87,212a7.24,7.24,0,0,1-3.27-5.66v-2.54a6.89,6.89,0,0,0-3.12-5.39l-2.19-1.27.16-.27,2.19,1.27a7.22,7.22,0,0,1,3.28,5.66v2.54a6.88,6.88,0,0,0,3.11,5.39l10.51,6.07Z" transform="translate(-64.5 -53.02)"/><path class="cls-14" d="M277.47,215.75,267,209.68a7.23,7.23,0,0,1-3.27-5.67v-2.53a6.89,6.89,0,0,0-3.12-5.4l-2.19-1.26.16-.28,2.19,1.27a7.22,7.22,0,0,1,3.27,5.67V204a6.89,6.89,0,0,0,3.12,5.39l10.51,6.07Z" transform="translate(-64.5 -53.02)"/><path class="cls-14" d="M281.56,213.39l-10.51-6.07a7.22,7.22,0,0,1-3.28-5.66v-2.54a6.88,6.88,0,0,0-3.11-5.39l-2.19-1.27.15-.27,2.2,1.26a7.27,7.27,0,0,1,3.27,5.67v2.54a6.89,6.89,0,0,0,3.12,5.39l10.51,6.07Z" transform="translate(-64.5 -53.02)"/><path class="cls-14" d="M285.65,211,275.14,205a7.26,7.26,0,0,1-3.28-5.67v-2.54a6.88,6.88,0,0,0-3.11-5.39l-2.2-1.27.16-.27,2.2,1.27a7.24,7.24,0,0,1,3.27,5.66v2.54a6.9,6.9,0,0,0,3.11,5.39l10.51,6.07Z" transform="translate(-64.5 -53.02)"/><path class="cls-14" d="M289.73,208.68l-10.51-6.07a7.24,7.24,0,0,1-3.27-5.67v-2.53a6.94,6.94,0,0,0-3.11-5.4l-2.2-1.26.16-.28,2.2,1.27a7.26,7.26,0,0,1,3.27,5.67v2.53a6.88,6.88,0,0,0,3.11,5.4l10.51,6.07Z" transform="translate(-64.5 -53.02)"/><path class="cls-14" d="M293.82,206.32l-10.51-6.06a7.27,7.27,0,0,1-3.27-5.67v-2.54a6.9,6.9,0,0,0-3.11-5.39l-2.2-1.27.16-.27,2.19,1.27a7.22,7.22,0,0,1,3.28,5.66v2.54a6.88,6.88,0,0,0,3.11,5.39L294,206.05Z" transform="translate(-64.5 -53.02)"/><path class="cls-14" d="M297.91,204,287.4,197.9a7.24,7.24,0,0,1-3.27-5.67V189.7a6.9,6.9,0,0,0-3.12-5.4L278.82,183l.16-.28,2.19,1.27a7.22,7.22,0,0,1,3.27,5.67v2.53a6.92,6.92,0,0,0,3.12,5.4l10.51,6.06Z" transform="translate(-64.5 -53.02)"/><path class="cls-14" d="M302,201.61l-10.51-6.07a7.21,7.21,0,0,1-3.27-5.66v-2.54A6.89,6.89,0,0,0,285.1,182l-2.19-1.27.15-.27,2.2,1.26a7.27,7.27,0,0,1,3.27,5.67v2.54a6.89,6.89,0,0,0,3.12,5.39l10.51,6.07Z" transform="translate(-64.5 -53.02)"/><path class="cls-14" d="M306.09,199.26l-10.51-6.07a7.24,7.24,0,0,1-3.28-5.67V185a6.88,6.88,0,0,0-3.11-5.4l-2.2-1.27.16-.27,2.2,1.27a7.24,7.24,0,0,1,3.27,5.67v2.53a6.9,6.9,0,0,0,3.11,5.39L306.24,199Z" transform="translate(-64.5 -53.02)"/><path class="cls-14" d="M310.17,196.9l-10.51-6.07a7.24,7.24,0,0,1-3.27-5.66v-2.54a6.88,6.88,0,0,0-3.11-5.39l-2.2-1.27.16-.27,2.2,1.26a7.26,7.26,0,0,1,3.27,5.67v2.54a6.9,6.9,0,0,0,3.11,5.39l10.51,6.07Z" transform="translate(-64.5 -53.02)"/><path class="cls-14" d="M191.81,241.66l-.15-.27,10.51-6.07a6.91,6.91,0,0,0,3.11-5.4v-2.53a7.26,7.26,0,0,1,3.27-5.67l2.2-1.26.16.27-2.2,1.27a6.88,6.88,0,0,0-3.11,5.39v2.53a7.23,7.23,0,0,1-3.28,5.67Z" transform="translate(-64.5 -53.02)"/><path class="cls-14" d="M187.73,239.3l-.16-.27L198.08,233a6.9,6.9,0,0,0,3.11-5.39V225a7.24,7.24,0,0,1,3.27-5.66l2.2-1.27.16.27-2.2,1.27a6.9,6.9,0,0,0-3.11,5.39v2.54a7.27,7.27,0,0,1-3.27,5.67Z" transform="translate(-64.5 -53.02)"/><path class="cls-14" d="M183.64,237l-.16-.27L194,230.61a6.88,6.88,0,0,0,3.11-5.4v-2.53a7.23,7.23,0,0,1,3.28-5.67l2.19-1.27.16.28-2.2,1.26a6.94,6.94,0,0,0-3.11,5.4v2.53a7.24,7.24,0,0,1-3.27,5.67Z" transform="translate(-64.5 -53.02)"/><path class="cls-14" d="M179.55,234.59l-.16-.27,10.51-6.07a6.89,6.89,0,0,0,3.12-5.39v-2.54a7.21,7.21,0,0,1,3.27-5.66l2.19-1.27.16.27-2.19,1.27a6.89,6.89,0,0,0-3.12,5.39v2.54a7.24,7.24,0,0,1-3.27,5.66Z" transform="translate(-64.5 -53.02)"/><path class="cls-14" d="M175.46,232.24l-.16-.28,10.51-6.06a6.92,6.92,0,0,0,3.12-5.4V218a7.24,7.24,0,0,1,3.27-5.67l2.2-1.27.15.28-2.19,1.26a6.89,6.89,0,0,0-3.12,5.4v2.53a7.22,7.22,0,0,1-3.27,5.67Z" transform="translate(-64.5 -53.02)"/><path class="cls-14" d="M171.37,229.88l-.16-.27,10.52-6.07a6.9,6.9,0,0,0,3.11-5.39v-2.54a7.27,7.27,0,0,1,3.27-5.67l2.2-1.26.16.27-2.2,1.27a6.88,6.88,0,0,0-3.11,5.39v2.54a7.22,7.22,0,0,1-3.28,5.66Z" transform="translate(-64.5 -53.02)"/><path class="cls-14" d="M167.28,227.53l-.15-.28,10.51-6.07a6.9,6.9,0,0,0,3.11-5.39v-2.53a7.24,7.24,0,0,1,3.27-5.67l2.2-1.27.16.27-2.2,1.27a6.88,6.88,0,0,0-3.11,5.4v2.53a7.26,7.26,0,0,1-3.27,5.67Z" transform="translate(-64.5 -53.02)"/><path class="cls-14" d="M163.2,225.17l-.16-.27,10.51-6.07a6.88,6.88,0,0,0,3.11-5.4V210.9a7.24,7.24,0,0,1,3.28-5.67l2.19-1.27.16.28-2.2,1.27A6.9,6.9,0,0,0,177,210.9v2.53a7.24,7.24,0,0,1-3.27,5.67Z" transform="translate(-64.5 -53.02)"/><path class="cls-14" d="M142.15,232.37l-.08,0L97.36,206.66l.16-.27L142.15,232l16.8-9.47,10.51-6.07a6.89,6.89,0,0,0,3.12-5.39v-2.54a7.21,7.21,0,0,1,3.27-5.66l2.19-1.27.16.27L176,203.15a6.89,6.89,0,0,0-3.12,5.39v2.54a7.27,7.27,0,0,1-3.27,5.67l-10.51,6.06Z" transform="translate(-64.5 -53.02)"/><path class="cls-14" d="M155,220.46l-.16-.28,10.51-6.06a6.89,6.89,0,0,0,3.12-5.4v-2.53a7.22,7.22,0,0,1,3.27-5.67l2.19-1.27.16.28-2.19,1.26a6.92,6.92,0,0,0-3.12,5.4v2.53a7.22,7.22,0,0,1-3.27,5.67Z" transform="translate(-64.5 -53.02)"/><path class="cls-14" d="M150.93,218.1l-.16-.27,10.51-6.07a6.89,6.89,0,0,0,3.12-5.39v-2.54a7.24,7.24,0,0,1,3.27-5.66l2.2-1.27.15.27-2.19,1.27a6.88,6.88,0,0,0-3.11,5.39v2.54a7.22,7.22,0,0,1-3.28,5.66Z" transform="translate(-64.5 -53.02)"/><path class="cls-14" d="M146.84,215.75l-.15-.28,10.51-6.07a6.9,6.9,0,0,0,3.11-5.39v-2.53a7.24,7.24,0,0,1,3.27-5.67l2.2-1.27.16.28-2.2,1.26a6.88,6.88,0,0,0-3.11,5.4V204a7.26,7.26,0,0,1-3.27,5.67Z" transform="translate(-64.5 -53.02)"/><path class="cls-14" d="M142.76,213.39l-.16-.27,10.51-6.07a6.88,6.88,0,0,0,3.11-5.39v-2.54a7.27,7.27,0,0,1,3.27-5.67l2.2-1.26.16.27-2.2,1.27a6.9,6.9,0,0,0-3.11,5.39v2.54a7.24,7.24,0,0,1-3.27,5.66Z" transform="translate(-64.5 -53.02)"/><path class="cls-14" d="M138.67,211l-.16-.28L149,204.69a6.88,6.88,0,0,0,3.11-5.39v-2.54a7.22,7.22,0,0,1,3.28-5.66l2.19-1.27.16.27-2.2,1.27a6.9,6.9,0,0,0-3.11,5.39v2.54a7.27,7.27,0,0,1-3.27,5.67Z" transform="translate(-64.5 -53.02)"/><path class="cls-14" d="M134.58,208.68l-.16-.27,10.51-6.07a6.89,6.89,0,0,0,3.12-5.4v-2.53a7.23,7.23,0,0,1,3.27-5.67l2.19-1.27.16.28L151.48,189a6.92,6.92,0,0,0-3.12,5.4v2.53a7.22,7.22,0,0,1-3.27,5.67Z" transform="translate(-64.5 -53.02)"/><path class="cls-14" d="M130.49,206.32l-.16-.27L140.84,200a6.89,6.89,0,0,0,3.12-5.39v-2.54a7.24,7.24,0,0,1,3.27-5.66l2.2-1.27.15.27-2.19,1.27a6.89,6.89,0,0,0-3.12,5.39v2.54a7.25,7.25,0,0,1-3.27,5.67Z" transform="translate(-64.5 -53.02)"/><path class="cls-14" d="M126.4,204l-.15-.28,10.51-6.06a6.94,6.94,0,0,0,3.11-5.4V189.7a7.24,7.24,0,0,1,3.27-5.67l2.2-1.27.16.28-2.2,1.26a6.89,6.89,0,0,0-3.11,5.4v2.53a7.23,7.23,0,0,1-3.28,5.67Z" transform="translate(-64.5 -53.02)"/><path class="cls-14" d="M122.32,201.61l-.16-.27,10.51-6.07a6.9,6.9,0,0,0,3.11-5.39v-2.54a7.27,7.27,0,0,1,3.27-5.67l2.2-1.26.16.27-2.2,1.27a6.9,6.9,0,0,0-3.11,5.39v2.54a7.24,7.24,0,0,1-3.27,5.66Z" transform="translate(-64.5 -53.02)"/><path class="cls-14" d="M118.23,199.26l-.16-.28,10.51-6.07a6.88,6.88,0,0,0,3.11-5.39V185a7.23,7.23,0,0,1,3.28-5.67l2.19-1.27.16.27-2.2,1.27A6.91,6.91,0,0,0,132,185v2.53a7.26,7.26,0,0,1-3.27,5.67Z" transform="translate(-64.5 -53.02)"/><path class="cls-14" d="M114.14,196.9l-.16-.27,10.51-6.07a6.89,6.89,0,0,0,3.12-5.39v-2.54a7.23,7.23,0,0,1,3.27-5.67l2.19-1.26.16.27L131,177.24a6.89,6.89,0,0,0-3.12,5.39v2.54a7.24,7.24,0,0,1-3.27,5.66Z" transform="translate(-64.5 -53.02)"/><g class="cls-29"><polygon class="cls-3" points="67.03 99.68 51.97 90.98 51.97 108.38 67.03 117.08 82.1 108.38 82.1 90.98 67.03 99.68"/><polygon class="cls-3" points="67.03 117.08 51.97 108.38 51.97 90.98 67.03 99.68 67.03 117.08"/><polygon class="cls-30" points="82.1 108.38 67.03 117.08 67.03 99.68 82.1 90.98 82.1 108.38"/><polygon class="cls-3" points="67.03 99.68 51.97 90.98 67.03 82.28 82.1 90.98 67.03 99.68"/><polygon class="cls-17" points="67.03 99.68 51.97 90.98 51.97 91.73 67.03 100.43 82.1 91.73 82.1 90.98 67.03 99.68"/></g><polygon class="cls-31" points="67.03 89.13 51.97 80.43 67.03 71.73 82.1 80.43 67.03 89.13"/><polygon class="cls-3" points="67.03 58.56 51.97 49.86 51.97 67.26 67.03 75.96 82.1 67.26 82.1 49.86 67.03 58.56"/><polygon class="cls-3" points="67.03 75.96 51.97 67.26 51.97 49.86 67.03 58.56 67.03 75.96"/><polygon class="cls-30" points="82.1 67.26 67.03 75.96 67.03 58.56 82.1 49.86 82.1 67.26"/><polygon class="cls-3" points="67.03 58.56 51.97 49.86 67.03 41.16 82.1 49.86 67.03 58.56"/><polygon class="cls-30" points="67.03 56.42 55.67 49.86 67.03 43.3 78.4 49.86 67.03 56.42"/><polygon class="cls-17" points="67.03 58.56 51.97 49.86 51.97 50.61 67.03 59.31 82.1 50.61 82.1 49.86 67.03 58.56"/><polygon class="cls-3" points="67.03 32.46 51.97 23.76 51.97 41.16 67.03 49.86 82.1 41.16 82.1 23.76 67.03 32.46"/><polygon class="cls-3" points="67.03 49.86 51.97 41.16 51.97 23.76 67.03 32.46 67.03 49.86"/><polygon class="cls-30" points="82.1 41.16 67.03 49.86 67.03 32.46 82.1 23.76 82.1 41.16"/><polygon class="cls-3" points="67.03 32.46 51.97 23.76 67.03 15.06 82.1 23.76 67.03 32.46"/><polygon class="cls-17" points="67.03 32.46 51.97 23.76 51.97 24.52 67.03 33.22 82.1 24.52 82.1 23.76 67.03 32.46"/><g class="cls-29"><polygon class="cls-3" points="265.36 109.69 250.29 101 250.29 118.39 265.36 127.09 280.43 118.39 280.43 101 265.36 109.69"/><polygon class="cls-3" points="265.36 127.09 250.29 118.39 250.29 101 265.36 109.69 265.36 127.09"/><polygon class="cls-30" points="280.43 118.39 265.36 127.09 265.36 109.69 280.43 101 280.43 118.39"/><polygon class="cls-3" points="265.36 109.69 250.29 101 265.36 92.3 280.43 101 265.36 109.69"/><polygon class="cls-17" points="265.36 109.69 250.29 101 250.29 101.75 265.36 110.45 280.43 101.75 280.43 101 265.36 109.69"/></g><path class="cls-14" d="M330.26,156.25l-.08-.05-22.06-12.73.24-.14,21.9-12.64.08.05,22.05,12.73-.23.14Zm-21.51-12.78,21.51,12.41,21.5-12.41-21.5-12.42Z" transform="translate(-64.5 -53.02)"/><polygon class="cls-31" points="265.36 99.15 250.29 90.45 265.36 81.75 280.43 90.45 265.36 99.15"/><polygon class="cls-3" points="265.36 68.57 250.29 59.87 250.29 77.27 265.36 85.97 280.43 77.27 280.43 59.87 265.36 68.57"/><polygon class="cls-3" points="265.36 85.97 250.29 77.27 250.29 59.87 265.36 68.57 265.36 85.97"/><polygon class="cls-30" points="280.43 77.27 265.36 85.97 265.36 68.57 280.43 59.87 280.43 77.27"/><polygon class="cls-3" points="265.36 68.57 250.29 59.87 265.36 51.17 280.43 59.87 265.36 68.57"/><polygon class="cls-17" points="265.36 68.57 250.29 59.87 250.29 60.63 265.36 69.33 280.43 60.63 280.43 59.87 265.36 68.57"/><path class="cls-14" d="M86.64,212.94l-.08,0L64.5,200.16l.24-.14,21.9-12.64.07.05,22.06,12.73-.23.14ZM65.13,200.16l21.51,12.42,21.5-12.42-21.5-12.41Z" transform="translate(-64.5 -53.02)"/><g class="cls-29"><polygon class="cls-3" points="22.14 166.66 7.07 157.96 7.07 175.36 22.14 184.06 37.2 175.36 37.2 157.96 22.14 166.66"/><polygon class="cls-3" points="22.14 184.06 7.07 175.36 7.07 157.96 22.14 166.66 22.14 184.06"/><polygon class="cls-30" points="37.2 175.36 22.14 184.06 22.14 166.66 37.2 157.96 37.2 175.36"/><polygon class="cls-3" points="22.14 166.66 7.07 157.96 22.14 149.26 37.2 157.96 22.14 166.66"/><polygon class="cls-17" points="22.14 166.66 7.07 157.96 7.07 158.72 22.14 167.41 37.2 158.72 37.2 157.96 22.14 166.66"/></g><polygon class="cls-31" points="22.14 156.11 7.07 147.41 22.14 138.72 37.2 147.41 22.14 156.11"/><polygon class="cls-3" points="22.14 125.54 7.07 116.84 7.07 134.24 22.14 142.94 37.2 134.24 37.2 116.84 22.14 125.54"/><polygon class="cls-3" points="22.14 142.94 7.07 134.24 7.07 116.84 22.14 125.54 22.14 142.94"/><polygon class="cls-30" points="37.2 134.24 22.14 142.94 22.14 125.54 37.2 116.84 37.2 134.24"/><polygon class="cls-3" points="22.14 125.54 7.07 116.84 22.14 108.14 37.2 116.84 22.14 125.54"/><polygon class="cls-17" points="22.14 125.54 7.07 116.84 7.07 117.59 22.14 126.29 37.2 117.59 37.2 116.84 22.14 125.54"/><g class="cls-29"><polygon class="cls-3" points="146.33 249.58 131.26 240.88 131.26 258.28 146.33 266.98 161.4 258.28 161.4 240.88 146.33 249.58"/><polygon class="cls-3" points="146.33 266.98 131.26 258.28 131.26 240.88 146.33 249.58 146.33 266.98"/><polygon class="cls-30" points="161.4 258.28 146.33 266.98 146.33 249.58 161.4 240.88 161.4 258.28"/><polygon class="cls-3" points="146.33 249.58 131.26 240.88 146.33 232.18 161.39 240.88 146.33 249.58"/><polygon class="cls-17" points="146.33 249.58 131.26 240.88 131.26 241.64 146.33 250.34 161.39 241.64 161.4 240.88 146.33 249.58"/></g><polygon class="cls-31" points="146.33 239.03 131.26 230.34 146.33 221.64 161.39 230.34 146.33 239.03"/><polygon class="cls-3" points="146.33 208.46 131.26 199.76 131.26 217.16 146.33 225.86 161.4 217.16 161.4 199.76 146.33 208.46"/><polygon class="cls-3" points="146.33 225.86 131.26 217.16 131.26 199.76 146.33 208.46 146.33 225.86"/><polygon class="cls-30" points="161.4 217.16 146.33 225.86 146.33 208.46 161.4 199.76 161.4 217.16"/><polygon class="cls-3" points="146.33 208.46 131.26 199.76 146.33 191.06 161.39 199.76 146.33 208.46"/><polygon class="cls-17" points="146.33 208.46 131.26 199.76 131.26 200.51 146.33 209.21 161.39 200.51 161.4 199.76 146.33 208.46"/><g class="cls-29"><polygon class="cls-3" points="270.23 208.84 283.26 220.36 286.72 203.31 273.69 191.79 257.19 197.32 253.73 214.37 270.23 208.84"/><polygon class="cls-3" points="273.69 191.79 286.72 203.31 283.26 220.36 270.23 208.84 273.69 191.79"/><polygon class="cls-30" points="257.19 197.32 273.69 191.79 270.23 208.84 253.73 214.37 257.19 197.32"/><polygon class="cls-3" points="270.23 208.84 283.26 220.36 266.76 225.89 253.73 214.37 270.23 208.84"/><polygon class="cls-17" points="270.23 208.84 283.26 220.36 283.41 219.62 270.38 208.1 253.88 213.63 253.73 214.37 270.23 208.84"/></g><polygon class="cls-31" points="272.89 202.21 257.83 193.51 272.89 184.81 287.96 193.51 272.89 202.21"/><path class="cls-32" d="M337.39,270.34c-9.93,0-19.86-2.18-27.42-6.55-7.35-4.24-11.41-9.9-11.41-15.92s4.06-11.68,11.41-15.93c15.12-8.72,39.72-8.73,54.85,0,7.35,4.24,11.4,9.9,11.4,15.92s-4.05,11.68-11.4,15.92C357.26,268.16,347.33,270.34,337.39,270.34Zm0-44.63c-9.87,0-19.74,2.17-27.26,6.51-7.25,4.19-11.25,9.74-11.25,15.65s4,11.46,11.25,15.65c15,8.68,39.5,8.68,54.53,0,7.25-4.19,11.24-9.75,11.24-15.65s-4-11.46-11.24-15.65C357.14,227.88,347.26,225.71,337.39,225.71Z" transform="translate(-64.5 -53.02)"/><path class="cls-33" d="M337.39,276.36c-12.6,0-25.2-2.77-34.79-8.31-9.33-5.38-14.46-12.55-14.46-20.18s5.13-14.8,14.46-20.18c19.18-11.08,50.4-11.08,69.59,0,9.33,5.38,14.46,12.55,14.46,20.18s-5.13,14.8-14.46,20.18l-.08-.14.08.14C362.6,273.59,350,276.36,337.39,276.36Zm0-56.67c-12.54,0-25.09,2.76-34.64,8.27-9.22,5.33-14.3,12.39-14.3,19.91s5.08,14.58,14.3,19.91c19.11,11,50.18,11,69.28,0h0c9.22-5.33,14.3-12.4,14.3-19.91S381.25,233.29,372,228C362.48,222.45,349.94,219.69,337.39,219.69Z" transform="translate(-64.5 -53.02)"/><path class="cls-3" d="M337.4,265.6c-7.83,0-15.66-1.72-21.62-5.16-5.8-3.35-9-7.82-9-12.57s3.2-9.22,9-12.57c11.92-6.88,31.31-6.88,43.23,0,5.8,3.35,9,7.81,9,12.57s-3.2,9.22-9,12.57C353.05,263.88,345.22,265.6,337.4,265.6Zm0-35.15c-7.77,0-15.54,1.71-21.45,5.12-5.7,3.29-8.84,7.66-8.84,12.3s3.14,9,8.84,12.29c11.83,6.83,31.08,6.83,42.91,0l.08.13-.08-.13c5.7-3.3,8.84-7.66,8.84-12.3s-3.14-9-8.84-12.3C352.93,232.16,345.16,230.45,337.39,230.45Z" transform="translate(-64.5 -53.02)"/><polygon class="cls-3" points="271.16 178.21 269.43 160.9 255.3 171.04 257.03 188.36 272.88 195.52 287.01 185.37 271.16 178.21"/><polygon class="cls-3" points="257.03 188.36 255.3 171.04 269.43 160.9 271.16 178.21 257.03 188.36"/><polygon class="cls-30" points="272.88 195.52 257.03 188.36 271.16 178.21 287.01 185.37 272.88 195.52"/><polygon class="cls-3" points="271.16 178.21 269.43 160.9 285.29 168.06 287.01 185.37 271.16 178.21"/><polygon class="cls-17" points="271.16 178.21 269.43 160.9 268.82 161.34 270.55 178.65 286.4 185.81 287.01 185.37 271.16 178.21"/><polygon class="cls-31" points="263.99 191.5 278.48 191.5 272.88 195.52 263.99 191.5"/><polygon class="cls-34" points="209.92 112.68 209.92 0 85.59 0 85.68 112.68 147.8 148.54 209.92 112.68"/><path class="cls-32" d="M122.65,222.06a2,2,0,1,0,2-2A2,2,0,0,0,122.65,222.06Z" transform="translate(-64.5 -53.02)"/><circle class="cls-14" cx="60.18" cy="169.04" r="0.88"/><path class="cls-32" d="M302.52,129.35a2,2,0,1,0,2-2A2,2,0,0,0,302.52,129.35Z" transform="translate(-64.5 -53.02)"/><path class="cls-14" d="M303.67,129.35a.88.88,0,1,0,.88-.89A.88.88,0,0,0,303.67,129.35Z" transform="translate(-64.5 -53.02)"/><path class="cls-32" d="M361.75,256.68a2,2,0,1,0,2-2A2,2,0,0,0,361.75,256.68Z" transform="translate(-64.5 -53.02)"/><circle class="cls-14" cx="299.28" cy="203.66" r="0.88"/><circle class="cls-32" cx="260.53" cy="210.87" r="3.17"/><path class="cls-14" d="M323.66,263.89a1.38,1.38,0,1,0,1.37-1.37A1.37,1.37,0,0,0,323.66,263.89Z" transform="translate(-64.5 -53.02)"/><path class="cls-32" d="M312.32,236.21a2.15,2.15,0,1,0,2.15-2.15A2.15,2.15,0,0,0,312.32,236.21Z" transform="translate(-64.5 -53.02)"/><path class="cls-14" d="M313.54,236.21a.93.93,0,1,0,.93-.94A.93.93,0,0,0,313.54,236.21Z" transform="translate(-64.5 -53.02)"/><path class="cls-32" d="M280.86,117.62a2,2,0,1,0,2-2A2,2,0,0,0,280.86,117.62Z" transform="translate(-64.5 -53.02)"/><path class="cls-14" d="M282,117.62a.89.89,0,1,0,.88-.88A.88.88,0,0,0,282,117.62Z" transform="translate(-64.5 -53.02)"/><path class="cls-32" d="M99.67,209.13a2,2,0,1,0,2-2A2,2,0,0,0,99.67,209.13Z" transform="translate(-64.5 -53.02)"/><path class="cls-14" d="M100.82,209.13a.89.89,0,1,0,.88-.88A.89.89,0,0,0,100.82,209.13Z" transform="translate(-64.5 -53.02)"/><g id="Layer_2" data-name="Layer 2"><g id="logo-2"><polygon class="cls-5" points="189.73 76.79 184.12 73.81 158.38 52.88 163.98 55.86 189.73 76.79"/><g class="cls-35"><path class="cls-7" d="M228.48,108.88l-5.6-3a17.39,17.39,0,0,1-5.25-5.87,21.68,21.68,0,0,1-2.39-7.69l5.6,3a21.79,21.79,0,0,0,2.39,7.7,17.47,17.47,0,0,0,5.25,5.86" transform="translate(-64.5 -53.02)"/></g><path class="cls-3" d="M221.21,79.1l26.68,21.5a13.72,13.72,0,0,1,3,3.13,12.23,12.23,0,0,1,.89,1.36,22.35,22.35,0,0,1,2.84,7.56,24.1,24.1,0,0,1,.25,5.43c-.06,2.93-.24,6.92-.65,11.74l-25.75-20.93a17.47,17.47,0,0,1-5.25-5.86,21.79,21.79,0,0,1-2.39-7.7c-.16-1-.26-2.24-.09-7.27C220.83,85.81,220.89,82.78,221.21,79.1Z" transform="translate(-64.5 -53.02)"/><g class="cls-36"><path class="cls-7" d="M220.89,95.32l-5.6-3c-.16-1-.27-2.25-.09-7.27.07-2.24.18-5.28.46-9l5.6,3c-.28,3.68-.38,6.71-.46,9-.17,5-.07,6.32.09,7.27" transform="translate(-64.5 -53.02)"/></g><polygon class="cls-5" points="144.33 115.47 138.73 112.49 113.03 91.56 118.63 94.55 144.33 115.47"/><g class="cls-37"><path class="cls-7" d="M183.13,147.6l-5.6-3a18.89,18.89,0,0,1-5.25-5.86,20.44,20.44,0,0,1-2.15-5.86l5.6,3a20.52,20.52,0,0,0,2.16,5.82,19,19,0,0,0,5.25,5.87" transform="translate(-64.5 -53.02)"/></g><path class="cls-3" d="M175.89,117.78l26.62,21.49a13.92,13.92,0,0,1,3,3.13,15.12,15.12,0,0,1,.89,1.36,22.54,22.54,0,0,1,2.83,7.56,26.16,26.16,0,0,1,.29,4.59c0,3-.21,7.21-.69,12.58l-25.7-20.89a19,19,0,0,1-5.24-5.9,20.44,20.44,0,0,1-2.15-5.86,16.67,16.67,0,0,1-.32-2.34,45,45,0,0,1,0-6.77C175.48,124.5,175.58,121.46,175.89,117.78Z" transform="translate(-64.5 -53.02)"/><g class="cls-38"><path class="cls-7" d="M175.73,135.84l-5.6-3a16.67,16.67,0,0,1-.32-2.34,42.51,42.51,0,0,1,0-6.77c.07-2.24.18-5.27.46-9l5.6,3c-.28,3.68-.38,6.72-.46,9a45,45,0,0,0,0,6.77,16.67,16.67,0,0,0,.32,2.34" transform="translate(-64.5 -53.02)"/></g><g class="cls-39"><path class="cls-7" d="M252.89,169.21l-5.61-3c-39.15-31.16-68-54.22-69.06-55.29a28.84,28.84,0,0,1-2.6-2.92,23.23,23.23,0,0,1-3.87-7.43,25.64,25.64,0,0,1-1-7.69,127.42,127.42,0,0,1,1-17.35l5.6,3a127.57,127.57,0,0,0-1,17.36,25.53,25.53,0,0,0,1,7.68,23.23,23.23,0,0,0,3.87,7.43,30.08,30.08,0,0,0,2.6,2.93c1.1,1.06,29.92,24.13,69.07,55.28" transform="translate(-64.5 -53.02)"/></g><path class="cls-40" d="M177.41,78.53c37.21,29.23,64.11,50.92,68.35,54.87a29.58,29.58,0,0,1,4.66,5.8,25.7,25.7,0,0,1,2.84,7.27c.17.74.29,1.46.29,1.5.16,1.09.22,2.19.28,3.28,0,1.79-.25,8.66-.91,18-39.15-31.15-68-54.22-69.07-55.28a30.08,30.08,0,0,1-2.6-2.93,23.23,23.23,0,0,1-3.87-7.43,25.53,25.53,0,0,1-1-7.68A128.09,128.09,0,0,1,177.41,78.53Z" transform="translate(-64.5 -53.02)"/></g></g></g></g></svg>