<svg id="Layer_1" data-name="Layer 1" xmlns="http://www.w3.org/2000/svg" xmlns:xlink="http://www.w3.org/1999/xlink" viewBox="0 0 224.29 399.62"><defs><style>.cls-1{fill:none;}.cls-2{fill:#071033;}.cls-3{fill:#0d143a;}.cls-4{clip-path:url(#clip-path);}.cls-5{fill:url(#linear-gradient);}.cls-6{fill:url(#linear-gradient-2);}.cls-7{fill:#d4088c;}.cls-8{fill:#6ee8fc;}.cls-9{fill:url(#linear-gradient-3);}.cls-10{fill:url(#linear-gradient-4);}.cls-11,.cls-21,.cls-29{fill:#6de0f6;}.cls-12{clip-path:url(#clip-path-2);}.cls-13{fill:#267fe5;}.cls-14{fill:#25bfec;}.cls-15{fill:#18d0f7;}.cls-16{fill:url(#linear-gradient-5);}.cls-17{fill:url(#linear-gradient-6);}.cls-18{fill:url(#linear-gradient-7);}.cls-19{fill:url(#linear-gradient-8);}.cls-20{clip-path:url(#clip-path-3);}.cls-21{opacity:0.5;}.cls-21,.cls-26,.cls-27,.cls-29{isolation:isolate;}.cls-22{fill:url(#linear-gradient-9);}.cls-23{fill:url(#linear-gradient-10);}.cls-24{fill:url(#linear-gradient-11);}.cls-25{fill:url(#linear-gradient-12);}.cls-26{opacity:0.2;fill:url(#linear-gradient-13);}.cls-27{opacity:0.25;fill:url(#linear-gradient-14);}.cls-28{clip-path:url(#clip-path-4);}.cls-29{opacity:0.15;}</style><clipPath id="clip-path" transform="translate(-88 -11.4)"><path class="cls-1" d="M194.7,398.83,90,338.42c-3-1.74-3.24-335.58.24-337.6l102,.84c3.49-2,8.72-2.22,11.72-.49L306.35.82c3,1.74,6.4,336.12,2.93,338.09L206.34,398.34C203,400.34,197.71,400.56,194.7,398.83Z"/></clipPath><linearGradient id="linear-gradient" x1="151.84" y1="16.98" x2="353.28" y2="16.98" gradientTransform="matrix(1, 0, 0, -1, -50, 380.27)" gradientUnits="userSpaceOnUse"><stop offset="0" stop-color="#a31fa9"/><stop offset="0.07" stop-color="#8b17a0"/><stop offset="0.15" stop-color="#740f98"/><stop offset="0.24" stop-color="#640a92"/><stop offset="0.34" stop-color="#5b078f"/><stop offset="0.48" stop-color="#58068e"/><stop offset="0.63" stop-color="#4d22a3"/><stop offset="0.94" stop-color="#3168da"/><stop offset="1" stop-color="#2c75e4"/></linearGradient><linearGradient id="linear-gradient-2" x1="151.84" y1="-6.07" x2="353.28" y2="-6.07" gradientTransform="matrix(1, 0, 0, -1, -50, 380.27)" gradientUnits="userSpaceOnUse"><stop offset="0" stop-color="#d4088c"/><stop offset="0.23" stop-color="#d4088c"/><stop offset="0.51" stop-color="#6ee1f8"/><stop offset="0.78" stop-color="#6ee8fc"/><stop offset="1" stop-color="#6ee8fc"/></linearGradient><linearGradient id="linear-gradient-3" x1="653.23" y1="-484.64" x2="748.25" y2="-402.35" gradientTransform="matrix(0.87, 0.5, 1, -0.58, 35.73, -267.71)" gradientUnits="userSpaceOnUse"><stop offset="0" stop-color="#8d139b"/><stop offset="0.17" stop-color="#851ba1"/><stop offset="0.43" stop-color="#6e33b2"/><stop offset="0.76" stop-color="#4958cd"/><stop offset="1" stop-color="#2979e4"/></linearGradient><linearGradient id="linear-gradient-4" x1="665.62" y1="-473.89" x2="736.36" y2="-412.64" gradientTransform="matrix(0.87, 0.5, 1, -0.58, 35.73, -267.71)" gradientUnits="userSpaceOnUse"><stop offset="0" stop-color="#630692"/><stop offset="0.23" stop-color="#5b0e94"/><stop offset="0.59" stop-color="#432399"/><stop offset="1" stop-color="#2142a1"/></linearGradient><clipPath id="clip-path-2" transform="translate(-88 -11.4)"><path class="cls-1" d="M195.27,364.59l-37.89-21.88c-2.7-1.56-2.33-4.27.75-6.07l36.38-21c3.11-1.79,7.82-2,10.47-.43l37.89,21.87c2.7,1.56,2.33,4.27-.76,6.07l-36.33,21C202.66,366,198,366.15,195.27,364.59Z"/></clipPath><linearGradient id="linear-gradient-5" x1="151.84" y1="68.05" x2="353.28" y2="68.05" xlink:href="#linear-gradient"/><linearGradient id="linear-gradient-6" x1="151.84" y1="44.98" x2="353.28" y2="44.98" xlink:href="#linear-gradient-2"/><linearGradient id="linear-gradient-7" x1="602.3" y1="-440.56" x2="697.31" y2="-358.28" xlink:href="#linear-gradient-3"/><linearGradient id="linear-gradient-8" x1="614.67" y1="-429.81" x2="685.42" y2="-368.54" xlink:href="#linear-gradient-4"/><clipPath id="clip-path-3" transform="translate(-88 -11.4)"><path class="cls-1" d="M195.27,313.55l-37.89-21.88c-2.7-1.55-2.33-4.27.75-6.06l36.38-21c3.11-1.8,7.82-2,10.47-.44L242.87,286c2.7,1.56,2.33,4.28-.76,6.07l-36.38,21C202.66,314.92,198,315.1,195.27,313.55Z"/></clipPath><linearGradient id="linear-gradient-9" x1="151.84" y1="155.57" x2="353.28" y2="155.57" xlink:href="#linear-gradient"/><linearGradient id="linear-gradient-10" x1="151.84" y1="132.44" x2="353.28" y2="132.44" gradientTransform="matrix(1, 0, 0, -1, -50, 380.27)" gradientUnits="userSpaceOnUse"><stop offset="0" stop-color="#d4088c"/><stop offset="0.23" stop-color="#d4088c"/><stop offset="0.51" stop-color="#231f20"/><stop offset="0.78" stop-color="#6ee8fc"/><stop offset="1" stop-color="#6ee8fc"/></linearGradient><linearGradient id="linear-gradient-11" x1="514.94" y1="-364.96" x2="609.96" y2="-282.67" xlink:href="#linear-gradient-3"/><linearGradient id="linear-gradient-12" x1="527.33" y1="-354.22" x2="598.07" y2="-292.96" xlink:href="#linear-gradient-4"/><linearGradient id="linear-gradient-13" x1="250.14" y1="153.21" x2="250.14" y2="368.87" gradientTransform="matrix(1, 0, 0, -1, -50, 380.27)" gradientUnits="userSpaceOnUse"><stop offset="0.01" stop-color="#25bfec"/><stop offset="0.04" stop-color="#24b6e3" stop-opacity="0.95"/><stop offset="0.19" stop-color="#208bb7" stop-opacity="0.7"/><stop offset="0.34" stop-color="#1c6692" stop-opacity="0.49"/><stop offset="0.48" stop-color="#194773" stop-opacity="0.31"/><stop offset="0.62" stop-color="#16305c" stop-opacity="0.18"/><stop offset="0.76" stop-color="#141f4b" stop-opacity="0.08"/><stop offset="0.89" stop-color="#131440" stop-opacity="0.02"/><stop offset="1" stop-color="#13113d" stop-opacity="0"/></linearGradient><linearGradient id="linear-gradient-14" x1="250.14" y1="155.63" x2="250.14" y2="350.74" gradientTransform="matrix(1, 0, 0, -1, -50, 380.27)" gradientUnits="userSpaceOnUse"><stop offset="0.01" stop-color="#70e8fc"/><stop offset="0.07" stop-color="#66d0e7" stop-opacity="0.89"/><stop offset="0.22" stop-color="#509eba" stop-opacity="0.66"/><stop offset="0.36" stop-color="#3d7394" stop-opacity="0.46"/><stop offset="0.5" stop-color="#2e5075" stop-opacity="0.29"/><stop offset="0.64" stop-color="#22345c" stop-opacity="0.16"/><stop offset="0.77" stop-color="#1a214b" stop-opacity="0.07"/><stop offset="0.89" stop-color="#151541" stop-opacity="0.02"/><stop offset="1" stop-color="#13113d" stop-opacity="0"/></linearGradient><clipPath id="clip-path-4" transform="translate(-88 -11.4)"><path class="cls-1" d="M195.27,226l-37.89-21.87c-2.7-1.56-2.33-4.27.75-6.07l36.38-21c3.11-1.79,7.82-2,10.47-.43l37.89,21.88c2.7,1.54,2.33,4.27-.76,6.07l-36.33,21C202.66,227.38,198,227.58,195.27,226Z"/></clipPath></defs><title>secure</title><g id="Layer_1-2" data-name="Layer 1"><path class="cls-2" d="M194.7,398.83,90,338.42c-3-1.74-2.63-4.77.85-6.77l103-59.42c3.49-2,8.72-2.22,11.72-.47l104.68,60.39c3,1.75,2.63,4.77-.84,6.78L206.48,398.36C203,400.34,197.71,400.56,194.7,398.83Z" transform="translate(-88 -11.4)"/><path class="cls-3" d="M90.07,338.42l5.09,2.93,98.7-57c3.49-2,8.72-2.22,11.72-.49l99.55,57.47,4.24-2.44c3.49-2,3.85-5,.84-6.78l-104.67-60.4c-3-1.74-8.26-1.52-11.73.48L90.91,331.65C87.42,333.65,87.07,336.68,90.07,338.42Z" transform="translate(-88 -11.4)"/><g class="cls-4"><path class="cls-5" d="M282.81,339.9H248l-38.79-22.39c-5-2.89-13.73-2.52-19.49.8L152.32,339.9h-34.9v23.39h0c-.13,1.95,1,3.83,3.35,5.22L191,409.08c5,2.88,13.72,2.51,19.48-.82L278,369.32c3-1.73,4.65-3.92,4.75-6h0Z" transform="translate(-88 -11.4)"/><path class="cls-6" d="M278,367.71l-67.46,38.94c-5.81,3.33-14.49,3.69-19.48.81l-70.26-40.57c-2.39-1.38-3.49-3.27-3.35-5.22h0v1.62h0c-.14,1.95,1,3.83,3.35,5.22l70.26,40.57c5,2.88,13.72,2.51,19.48-.82L278,369.32c3-1.73,4.65-3.92,4.75-6h0v-1.62h0C282.64,363.79,281,366,278,367.71Z" transform="translate(-88 -11.4)"/><path class="cls-7" d="M119.69,364.9h0V341.51h34.89l37.31-21.59c5.82-3.34,14.5-3.7,19.5-.82l38.78,22.4h32.64v-1.61H248l-38.79-22.38c-5-2.89-13.73-2.52-19.49.8L152.32,339.9h-34.9v23.39h0c-.13,1.95,1,3.83,3.35,5.22l.4.23A4.92,4.92,0,0,1,119.69,364.9Z" transform="translate(-88 -11.4)"/><path class="cls-8" d="M280.83,341.77V365h0a6.09,6.09,0,0,1-1.66,3.57c2.33-1.6,3.49-3.49,3.64-5.32h0V340.13A10.34,10.34,0,0,0,280.83,341.77Z" transform="translate(-88 -11.4)"/><path class="cls-9" d="M191.1,385.68l-70.26-40.56c-5-2.88-4.37-7.92,1.4-11.26l67.46-38.94c5.81-3.32,14.49-3.7,19.49-.81l70.25,40.57c5,2.88,4.37,7.92-1.4,11.24l-67.46,38.95C204.82,388.2,196.09,388.54,191.1,385.68Z" transform="translate(-88 -11.4)"/><path class="cls-8" d="M279.44,334.68l-70.25-40.57a18.23,18.23,0,0,0-9.84-1.9,16.4,16.4,0,0,1,7.08,1.9l70.26,40.57c5,2.88,4.38,7.92-1.39,11.24l-67.46,38.95a22.09,22.09,0,0,1-9.65,2.71,22.75,22.75,0,0,0,12.39-2.71L278,345.92C283.81,342.6,284.44,337.56,279.44,334.68Z" transform="translate(-88 -11.4)"/><path class="cls-10" d="M193.41,374l-52.34-30.24c-3.72-2.14-3.26-5.9,1.05-8.38l50.22-29c4.29-2.48,10.78-2.75,14.5-.61L259.18,336c3.72,2.14,3.25,5.9-1,8.38l-50.22,29C203.63,375.86,197.13,376.13,193.41,374Z" transform="translate(-88 -11.4)"/><path class="cls-11" d="M195.27,364.59l-37.89-21.88c-2.7-1.56-2.33-4.27.75-6.07l36.38-21c3.11-1.79,7.82-2,10.47-.43l37.89,21.87c2.7,1.56,2.33,4.27-.76,6.07l-36.33,21C202.66,366,198,366.15,195.27,364.59Z" transform="translate(-88 -11.4)"/><path class="cls-7" d="M194.26,385.68,124,345.12c-5-2.88-4.38-7.92,1.39-11.26l67.46-38.94a22.28,22.28,0,0,1,9.5-2.7,23.08,23.08,0,0,0-12.65,2.7l-67.46,38.94c-5.82,3.34-6.39,8.38-1.4,11.26l70.26,40.56a18.2,18.2,0,0,0,10,1.89A16.17,16.17,0,0,1,194.26,385.68Z" transform="translate(-88 -11.4)"/><g class="cls-12"><path class="cls-13" d="M158.11,339.61l36.4-21c3.11-1.8,7.82-2,10.47-.44L242.88,340a3.91,3.91,0,0,1,1.33,1.16c.91-1.49.52-3.09-1.33-4.15L205,315.16c-2.7-1.56-7.41-1.36-10.47.43l-36.4,21C155.69,338,155,340,156,341.49A5.78,5.78,0,0,1,158.11,339.61Z" transform="translate(-88 -11.4)"/><path class="cls-14" d="M158.11,343.18l36.4-21c3.11-1.8,7.82-2,10.47-.44l37.9,21.89a4.37,4.37,0,0,1,1.17.93c1.16-1.57.87-3.35-1.17-4.5L205,318.15c-2.7-1.55-7.41-1.36-10.47.44l-36.4,21c-2.56,1.47-3.21,3.57-1.86,5.14A6.11,6.11,0,0,1,158.11,343.18Z" transform="translate(-88 -11.4)"/><path class="cls-15" d="M156.61,348.7a7.34,7.34,0,0,1,1.5-1.16l36.4-21c3.11-1.8,7.82-2,10.47-.44L242.88,348a4,4,0,0,1,.75.54c1.59-1.67,1.42-3.66-.75-4.9L205,321.73c-2.7-1.55-7.41-1.36-10.47.44l-36.4,21C155.33,344.78,154.78,347.11,156.61,348.7Z" transform="translate(-88 -11.4)"/></g><path class="cls-16" d="M282.81,288.85H248l-38.79-22.43c-5-2.89-13.73-2.53-19.49.8l-37.38,21.63h-34.9v23.39h0c-.13,1.95,1,3.84,3.35,5.22L191,358c5,2.88,13.72,2.52,19.48-.81L278,318.28c3-1.74,4.65-3.92,4.75-6h0Z" transform="translate(-88 -11.4)"/><path class="cls-17" d="M278,316.66l-67.46,38.95c-5.81,3.33-14.49,3.69-19.48.8l-70.26-40.55c-2.39-1.39-3.49-3.27-3.35-5.22h0v1.6h0c-.14,1.95,1,3.84,3.35,5.22L191.1,358c5,2.88,13.72,2.52,19.48-.81L278,318.28c3-1.74,4.65-3.92,4.75-6h0v-1.63h0C282.64,312.74,281,314.94,278,316.66Z" transform="translate(-88 -11.4)"/><path class="cls-7" d="M119.69,313.86h0V290.47h34.89L192,268.88c5.82-3.32,14.5-3.68,19.5-.8l38.78,22.39h32.57v-1.62H248l-38.79-22.43c-5-2.89-13.73-2.53-19.49.8l-37.38,21.63h-34.9v23.39h0c-.13,1.95,1,3.84,3.35,5.22l.4.24A4.94,4.94,0,0,1,119.69,313.86Z" transform="translate(-88 -11.4)"/><path class="cls-8" d="M280.83,290.74V314h0a6.09,6.09,0,0,1-1.66,3.56c2.33-1.6,3.49-3.49,3.64-5.33h0V289.1A10.34,10.34,0,0,0,280.83,290.74Z" transform="translate(-88 -11.4)"/><path class="cls-18" d="M191.1,334.64l-70.26-40.57c-5-2.88-4.37-7.92,1.4-11.24l67.46-38.95c5.81-3.33,14.49-3.69,19.49-.81l70.25,40.56c5,2.88,4.37,7.93-1.4,11.26l-67.46,39C204.82,337.16,196.09,337.53,191.1,334.64Z" transform="translate(-88 -11.4)"/><path class="cls-8" d="M279.44,283.63l-70.25-40.56a18,18,0,0,0-9.84-1.9,16.37,16.37,0,0,1,7.08,1.9l70.26,40.56c5,2.88,4.38,7.93-1.39,11.26l-67.46,38.94a22.37,22.37,0,0,1-9.65,2.71,22.81,22.81,0,0,0,12.39-2.67L278,294.93C283.81,291.56,284.44,286.51,279.44,283.63Z" transform="translate(-88 -11.4)"/><path class="cls-19" d="M193.41,322.94,141.07,292.7c-3.72-2.15-3.26-5.91,1.05-8.38l50.22-29c4.29-2.48,10.78-2.74,14.5-.59L259.18,285c3.72,2.15,3.25,5.89-1,8.37l-50.22,29C203.63,324.82,197.13,325.09,193.41,322.94Z" transform="translate(-88 -11.4)"/><path class="cls-11" d="M195.27,313.55l-37.89-21.88c-2.7-1.55-2.33-4.27.75-6.06l36.38-21c3.11-1.8,7.82-2,10.47-.44L242.87,286c2.7,1.56,2.33,4.28-.76,6.07l-36.38,21C202.66,314.92,198,315.1,195.27,313.55Z" transform="translate(-88 -11.4)"/><path class="cls-7" d="M194.26,334.64,124,294.07c-5-2.88-4.38-7.92,1.39-11.24l67.46-38.95a22.28,22.28,0,0,1,9.5-2.7,23,23,0,0,0-12.65,2.7l-67.46,38.95c-5.82,3.32-6.39,8.36-1.4,11.24l70.26,40.57a18.2,18.2,0,0,0,10,1.89A16,16,0,0,1,194.26,334.64Z" transform="translate(-88 -11.4)"/><g class="cls-20"><path class="cls-13" d="M158.11,288.51l36.4-20.93c3.11-1.79,7.82-2,10.47-.43L242.88,289a3.81,3.81,0,0,1,1.33,1.16c.91-1.49.52-3.08-1.33-4.15L205,264.16c-2.7-1.56-7.41-1.36-10.47.44l-36.4,21C155.69,287,155,289,156,290.49A5.81,5.81,0,0,1,158.11,288.51Z" transform="translate(-88 -11.4)"/><path class="cls-14" d="M158.11,292.13l36.4-21.06c3.11-1.79,7.82-2,10.47-.43l37.9,21.89a4.14,4.14,0,0,1,1.17.92c1.16-1.57.87-3.35-1.17-4.49L205,267.11c-2.7-1.55-7.41-1.36-10.47.43l-36.45,21c-2.56,1.48-3.21,3.59-1.86,5.15A6.37,6.37,0,0,1,158.11,292.13Z" transform="translate(-88 -11.4)"/><path class="cls-15" d="M156.61,297.67a6.81,6.81,0,0,1,1.5-1.17l36.4-21c3.11-1.8,7.82-2,10.47-.44l37.9,21.88a5.17,5.17,0,0,1,.75.55c1.59-1.67,1.42-3.65-.75-4.89L205,270.7c-2.7-1.56-7.41-1.36-10.47.43l-36.4,21C155.33,293.74,154.78,296.07,156.61,297.67Z" transform="translate(-88 -11.4)"/></g><path class="cls-21" d="M244.73,236.86l-89.18,4.27v47.69h0a3,3,0,0,0,1.8,2.81l37.89,21.89c2.7,1.55,7.4,1.36,10.47-.44l36.38-21c1.75-1,2.58-2.32,2.54-3.49h0Z" transform="translate(-88 -11.4)"/><path class="cls-21" d="M282.81,223.1l-165.34,1.62v65.13h0c-.14,2,.93,3.84,3.33,5.22l70.26,40.56c5,2.88,13.71,2.52,19.48-.8L278,295.88c3.25-1.86,4.8-4.27,4.72-6.53h.1Z" transform="translate(-88 -11.4)"/><path class="cls-22" d="M282.81,201.29H248l-38.79-22.36c-5-2.87-13.73-2.51-19.49.82l-37.38,21.54h-34.9v23.38h0c-.13,2,1,3.84,3.35,5.23L191,270.45c5,2.89,13.72,2.53,19.48-.8L278,230.71c3-1.73,4.65-3.93,4.75-6h0Z" transform="translate(-88 -11.4)"/><path class="cls-23" d="M278,229.2l-67.46,38.94c-5.81,3.34-14.49,3.7-19.48.81l-70.26-40.57c-2.39-1.38-3.49-3.26-3.35-5.22h0v1.62h0c-.14,1.95,1,3.84,3.35,5.22l70.26,40.56c5,2.88,13.72,2.52,19.48-.81L278,230.82c3-1.74,4.65-3.94,4.75-6h0v-1.62h0C282.64,225.22,281,227.41,278,229.2Z" transform="translate(-88 -11.4)"/><path class="cls-7" d="M119.69,226.34h0V203h34.89L192,181.36c5.82-3.33,14.5-3.7,19.5-.81L250.24,203h32.57v-1.66H248l-38.79-22.36c-5-2.87-13.73-2.51-19.49.82l-37.38,21.54h-34.9v23.38h0c-.13,2,1,3.84,3.35,5.23l.4.23A4.93,4.93,0,0,1,119.69,226.34Z" transform="translate(-88 -11.4)"/><path class="cls-8" d="M280.83,203.21v23.26h0a6.11,6.11,0,0,1-1.66,3.57c2.33-1.61,3.49-3.49,3.64-5.33h0V201.57A10.66,10.66,0,0,0,280.83,203.21Z" transform="translate(-88 -11.4)"/><path class="cls-24" d="M191.1,247.11l-70.26-40.56c-5-2.88-4.37-7.92,1.4-11.25l67.46-38.94c5.81-3.34,14.49-3.7,19.49-.82l70.25,40.57c5,2.88,4.37,7.92-1.4,11.25l-67.46,38.95C204.82,249.63,196.09,250,191.1,247.11Z" transform="translate(-88 -11.4)"/><path class="cls-8" d="M279.44,196.11l-70.25-40.57a18.22,18.22,0,0,0-9.84-1.89,16.22,16.22,0,0,1,7.08,1.89l70.26,40.57c5,2.88,4.38,7.92-1.39,11.25l-67.46,38.95a22.37,22.37,0,0,1-9.65,2.71,22.93,22.93,0,0,0,12.39-2.71L278,207.36C283.81,204,284.44,199,279.44,196.11Z" transform="translate(-88 -11.4)"/><path class="cls-25" d="M193.41,235.42l-52.34-30.24c-3.72-2.15-3.26-5.89,1.05-8.37l50.22-29c4.29-2.47,10.78-2.74,14.5-.6l52.34,30.24c3.72,2.14,3.25,5.89-1,8.37l-50.22,29C203.63,237.34,197.13,237.56,193.41,235.42Z" transform="translate(-88 -11.4)"/><path class="cls-11" d="M195.27,226l-37.89-21.87c-2.7-1.56-2.33-4.27.75-6.07l36.38-21c3.11-1.79,7.82-2,10.47-.43l37.89,21.88c2.7,1.54,2.33,4.27-.76,6.07l-36.33,21C202.66,227.38,198,227.58,195.27,226Z" transform="translate(-88 -11.4)"/><path class="cls-7" d="M194.26,247.11,124,206.55c-5-2.88-4.38-7.92,1.39-11.25l67.46-38.94a22,22,0,0,1,9.5-2.7,23,23,0,0,0-12.65,2.7L122.24,195.3c-5.82,3.33-6.39,8.37-1.4,11.25l70.26,40.56a18.2,18.2,0,0,0,10,1.9A16.18,16.18,0,0,1,194.26,247.11Z" transform="translate(-88 -11.4)"/><path class="cls-26" d="M244.73,11.4H155.55V201.52h0a3.09,3.09,0,0,0,1.81,2.62L195.26,226c2.69,1.56,7.39,1.36,10.46-.43l36.38-21a4.47,4.47,0,0,0,2.56-3.26h0Z" transform="translate(-88 -11.4)"/><path class="cls-27" d="M240.5,29.53H159.78V201.59h0a2.83,2.83,0,0,0,1.64,2.32l34.3,19.78c2.43,1.4,6.7,1.23,9.51-.4l32.93-19a4.08,4.08,0,0,0,2.33-2.95h0Z" transform="translate(-88 -11.4)"/><g class="cls-28"><path class="cls-13" d="M158.11,201l36.4-21c3.11-1.81,7.82-2,10.47-.45l37.9,21.89a3.94,3.94,0,0,1,1.33,1.17c.91-1.49.52-3.1-1.33-4.16L205,176.63c-2.7-1.56-7.41-1.36-10.47.43l-36.41,21c-2.41,1.39-3.14,3.35-2.08,4.88A5.87,5.87,0,0,1,158.11,201Z" transform="translate(-88 -11.4)"/><path class="cls-14" d="M158.11,204.61l36.4-21c3.11-1.81,7.82-2,10.47-.45L242.88,205a4.57,4.57,0,0,1,1.17.93c1.16-1.58.87-3.35-1.17-4.5L205,179.58c-2.7-1.54-7.41-1.36-10.47.45l-36.4,21c-2.56,1.48-3.21,3.57-1.86,5.14A6.25,6.25,0,0,1,158.11,204.61Z" transform="translate(-88 -11.4)"/><path class="cls-15" d="M156.61,210.14a6.81,6.81,0,0,1,1.5-1.17l36.4-21c3.11-1.79,7.82-2,10.47-.43l38,21.9a4.76,4.76,0,0,1,.74.53c1.6-1.66,1.42-3.65-.74-4.89L205,183.18c-2.7-1.56-7.41-1.36-10.47.44l-36.41,21C155.33,206.22,154.78,208.54,156.61,210.14Z" transform="translate(-88 -11.4)"/></g><path class="cls-11" d="M182.31,185.58a3.33,3.33,0,1,1-3.34-3.31h0A3.32,3.32,0,0,1,182.31,185.58Z" transform="translate(-88 -11.4)"/><circle class="cls-11" cx="116.03" cy="151.93" r="5.68"/><circle class="cls-11" cx="109.04" cy="148.31" r="1.45"/><path class="cls-11" d="M224.66,131.22a2.84,2.84,0,1,1-2.84-2.83,2.84,2.84,0,0,1,2.84,2.83Z" transform="translate(-88 -11.4)"/><path class="cls-11" d="M208.86,107.16a2,2,0,1,1-2-2h0a2,2,0,0,1,2,2Z" transform="translate(-88 -11.4)"/><path class="cls-11" d="M185.94,91.81a3.64,3.64,0,1,1-3.64-3.64h0a3.62,3.62,0,0,1,3.63,3.63Z" transform="translate(-88 -11.4)"/><circle class="cls-11" cx="114.35" cy="54.69" r="7.35"/><circle class="cls-11" cx="104.97" cy="50.01" r="2.02"/><circle class="cls-11" cx="120.27" cy="63.5" r="2.38"/><path class="cls-11" d="M212.42,69.92a1.16,1.16,0,1,1-1.16-1.16A1.16,1.16,0,0,1,212.42,69.92Z" transform="translate(-88 -11.4)"/><path class="cls-11" d="M227.4,45.12a3.34,3.34,0,1,1-3.34-3.33h0a3.32,3.32,0,0,1,3.32,3.32Z" transform="translate(-88 -11.4)"/><circle class="cls-11" cx="52.7" cy="246.41" r="6.27"/><path class="cls-21" d="M161.06,272.76a7.43,7.43,0,1,1-7.43-7.44h0A7.44,7.44,0,0,1,161.06,272.76Z" transform="translate(-88 -11.4)"/><circle class="cls-29" cx="51.29" cy="265.35" r="2.49"/><circle class="cls-29" cx="63.14" cy="254.57" r="2.49"/><circle class="cls-11" cx="87.94" cy="292.92" r="3.22"/><circle class="cls-21" cx="64.9" cy="281.45" r="4.93"/><path class="cls-21" d="M178.46,284.15a4.91,4.91,0,1,1,0-.06Z" transform="translate(-88 -11.4)"/><circle class="cls-21" cx="173.85" cy="244.46" r="4.93"/><path class="cls-11" d="M269.62,272.23a7,7,0,1,1-7-7A7,7,0,0,1,269.62,272.23Z" transform="translate(-88 -11.4)"/><path class="cls-29" d="M252.13,266.72A3.12,3.12,0,1,1,249,263.6h0A3.12,3.12,0,0,1,252.13,266.72Z" transform="translate(-88 -11.4)"/><path class="cls-29" d="M248.87,260.18a5.14,5.14,0,1,1-4.59-5.64,5.14,5.14,0,0,1,4.59,5.64Z" transform="translate(-88 -11.4)"/><path class="cls-21" d="M257.9,287.54a4.94,4.94,0,1,1-4.95-4.92h0A4.92,4.92,0,0,1,257.9,287.54Z" transform="translate(-88 -11.4)"/><path class="cls-29" d="M228.15,309.1a3.66,3.66,0,1,1-3.67-3.64h0A3.66,3.66,0,0,1,228.15,309.1Z" transform="translate(-88 -11.4)"/><circle class="cls-11" cx="146.94" cy="284.73" r="6.2"/><circle class="cls-21" cx="138.91" cy="266.29" r="4.93"/><path class="cls-21" d="M206.05,318.43a7.38,7.38,0,1,1-7.39-7.36h0A7.36,7.36,0,0,1,206.05,318.43Z" transform="translate(-88 -11.4)"/><path class="cls-11" d="M175.33,267.84a4.93,4.93,0,1,1-4.93-4.94,4.93,4.93,0,0,1,4.93,4.94Z" transform="translate(-88 -11.4)"/></g></g></svg>