<svg xmlns="http://www.w3.org/2000/svg" xmlns:xlink="http://www.w3.org/1999/xlink" viewBox="0 0 265.48 400"><defs><style>.cls-1{fill:none;}.cls-2{isolation:isolate;}.cls-3{fill:url(#Áåçûìÿííûé_ãðàäèåíò_377);}.cls-4{fill:url(#Áåçûìÿííûé_ãðàäèåíò_388);}.cls-5{fill:#d4088c;}.cls-6{fill:url(#Áåçûìÿííûé_ãðàäèåíò_300);}.cls-7{fill:#6ee8fc;}.cls-8{opacity:0.5;}.cls-9{fill:url(#Áåçûìÿííûé_ãðàäèåíò_377-2);}.cls-10{fill:url(#Áåçûìÿííûé_ãðàäèåíò_388-2);}.cls-11{fill:url(#Áåçûìÿííûé_ãðàäèåíò_300-2);}.cls-12{fill:url(#Áåçûìÿííûé_ãðàäèåíò_377-3);}.cls-13{fill:url(#Áåçûìÿííûé_ãðàäèåíò_300-3);}.cls-14{fill:url(#Áåçûìÿííûé_ãðàäèåíò_377-4);}.cls-15{fill:url(#Áåçûìÿííûé_ãðàäèåíò_300-4);}.cls-16{fill:url(#Áåçûìÿííûé_ãðàäèåíò_377-5);}.cls-17{fill:url(#Áåçûìÿííûé_ãðàäèåíò_300-5);}.cls-18{fill:url(#Áåçûìÿííûé_ãðàäèåíò_377-6);}.cls-19{fill:url(#Áåçûìÿííûé_ãðàäèåíò_300-6);}.cls-20{fill:#0c0f38;opacity:0.6;}.cls-21{fill:url(#Áåçûìÿííûé_ãðàäèåíò_422);}.cls-22{fill:url(#Áåçûìÿííûé_ãðàäèåíò_377-7);}.cls-23{fill:url(#Áåçûìÿííûé_ãðàäèåíò_388-3);}.cls-24{fill:url(#Áåçûìÿííûé_ãðàäèåíò_300-7);}.cls-25{fill:url(#Áåçûìÿííûé_ãðàäèåíò_302);}.cls-26{fill:#6de0f6;}.cls-27{clip-path:url(#clip-path);}.cls-28{fill:#267fe5;}.cls-29{fill:#25bfec;}.cls-30{fill:#18d0f7;}.cls-31{opacity:0.2;mix-blend-mode:lighten;fill:url(#linear-gradient);}.cls-32{fill:url(#Áåçûìÿííûé_ãðàäèåíò_377-8);}.cls-33{fill:url(#Áåçûìÿííûé_ãðàäèåíò_388-4);}.cls-34{fill:url(#Áåçûìÿííûé_ãðàäèåíò_300-8);}</style><linearGradient id="Áåçûìÿííûé_ãðàäèåíò_377" x1="57.41" y1="162.04" x2="184.35" y2="162.04" gradientUnits="userSpaceOnUse"><stop offset="0" stop-color="#a31fa9"/><stop offset="0.07" stop-color="#8b17a0"/><stop offset="0.15" stop-color="#740f98"/><stop offset="0.24" stop-color="#640a92"/><stop offset="0.34" stop-color="#5b078f"/><stop offset="0.48" stop-color="#58068e"/><stop offset="0.63" stop-color="#4d22a3"/><stop offset="0.94" stop-color="#3168da"/><stop offset="1" stop-color="#2c75e4"/></linearGradient><linearGradient id="Áåçûìÿííûé_ãðàäèåíò_388" x1="57.41" y1="176.11" x2="184.35" y2="176.11" gradientUnits="userSpaceOnUse"><stop offset="0" stop-color="#d4088c"/><stop offset="0.23" stop-color="#d4088c"/><stop offset="0.51" stop-color="#6ee1f8"/><stop offset="0.78" stop-color="#6ee8fc"/><stop offset="1" stop-color="#6ee8fc"/></linearGradient><linearGradient id="Áåçûìÿííûé_ãðàäèåíò_300" x1="376.04" y1="745.76" x2="435.83" y2="693.98" gradientTransform="matrix(0.87, 0.5, -1, 0.58, 486.6, -479.06)" gradientUnits="userSpaceOnUse"><stop offset="0" stop-color="#8d139b"/><stop offset="0.17" stop-color="#851ba1"/><stop offset="0.43" stop-color="#6e33b2"/><stop offset="0.76" stop-color="#4958cd"/><stop offset="1" stop-color="#2979e4"/></linearGradient><linearGradient id="Áåçûìÿííûé_ãðàäèåíò_377-2" x1="210.5" y1="136.88" x2="337.44" y2="136.88" xlink:href="#Áåçûìÿííûé_ãðàäèåíò_377"/><linearGradient id="Áåçûìÿííûé_ãðàäèåíò_388-2" x1="210.5" y1="150.95" x2="337.44" y2="150.95" xlink:href="#Áåçûìÿííûé_ãðàäèåíò_388"/><linearGradient id="Áåçûìÿííûé_ãðàäèåíò_300-2" x1="439.26" y1="647.43" x2="499.06" y2="595.65" xlink:href="#Áåçûìÿííûé_ãðàäèåíò_300"/><linearGradient id="Áåçûìÿííûé_ãðàäèåíò_377-3" x1="110.22" y1="354.13" x2="303.83" y2="354.13" xlink:href="#Áåçûìÿííûé_ãðàäèåíò_377"/><linearGradient id="Áåçûìÿííûé_ãðàäèåíò_300-3" x1="601.29" y1="883.37" x2="692.62" y2="804.28" xlink:href="#Áåçûìÿííûé_ãðàäèåíò_300"/><linearGradient id="Áåçûìÿííûé_ãðàäèåíò_377-4" x1="110.22" y1="331.23" x2="303.83" y2="331.23" xlink:href="#Áåçûìÿííûé_ãðàäèåíò_377"/><linearGradient id="Áåçûìÿííûé_ãðàäèåíò_300-4" x1="578.4" y1="863.54" x2="669.72" y2="784.45" xlink:href="#Áåçûìÿííûé_ãðàäèåíò_300"/><linearGradient id="Áåçûìÿííûé_ãðàäèåíò_377-5" x1="110.22" y1="308.33" x2="303.83" y2="308.33" xlink:href="#Áåçûìÿííûé_ãðàäèåíò_377"/><linearGradient id="Áåçûìÿííûé_ãðàäèåíò_300-5" x1="555.5" y1="843.72" x2="646.83" y2="764.63" xlink:href="#Áåçûìÿííûé_ãðàäèåíò_300"/><linearGradient id="Áåçûìÿííûé_ãðàäèåíò_377-6" x1="110.22" y1="285.44" x2="303.83" y2="285.44" xlink:href="#Áåçûìÿííûé_ãðàäèåíò_377"/><linearGradient id="Áåçûìÿííûé_ãðàäèåíò_300-6" x1="532.61" y1="823.89" x2="623.93" y2="744.8" xlink:href="#Áåçûìÿííûé_ãðàäèåíò_300"/><linearGradient id="Áåçûìÿííûé_ãðàäèåíò_422" x1="196.2" y1="208.94" x2="213.21" y2="316.39" gradientUnits="userSpaceOnUse"><stop offset="0" stop-color="#6ee8fc"/><stop offset="0.22" stop-color="#6ee8fc"/><stop offset="0.49" stop-color="#6ee1f8"/><stop offset="0.77" stop-color="#d4088c"/><stop offset="1" stop-color="#d4088c"/></linearGradient><linearGradient id="Áåçûìÿííûé_ãðàäèåíò_377-7" x1="110.22" y1="245.6" x2="303.83" y2="245.6" xlink:href="#Áåçûìÿííûé_ãðàäèåíò_377"/><linearGradient id="Áåçûìÿííûé_ãðàäèåíò_388-3" x1="110.22" y1="267.76" x2="303.83" y2="267.76" xlink:href="#Áåçûìÿííûé_ãðàäèåíò_388"/><linearGradient id="Áåçûìÿííûé_ãðàäèåíò_300-7" x1="492.77" y1="789.39" x2="584.1" y2="710.3" xlink:href="#Áåçûìÿííûé_ãðàäèåíò_300"/><linearGradient id="Áåçûìÿííûé_ãðàäèåíò_302" x1="504.68" y1="779.07" x2="572.68" y2="720.19" gradientTransform="matrix(0.87, 0.5, -1, 0.58, 486.6, -479.06)" gradientUnits="userSpaceOnUse"><stop offset="0" stop-color="#630692"/><stop offset="0.23" stop-color="#5b0e94"/><stop offset="0.59" stop-color="#432399"/><stop offset="1" stop-color="#2142a1"/></linearGradient><clipPath id="clip-path" transform="translate(-67.26 0)"><path class="cls-1" d="M200,246.85l-36.42-21c-2.59-1.5-2.27-4.11.72-5.84l35-20.19c3-1.72,7.51-1.91,10.1-.42l36.43,21c2.59,1.5,2.26,4.11-.73,5.83l-35,20.19C207.13,248.16,202.61,248.35,200,246.85Z"/></clipPath><linearGradient id="linear-gradient" x1="204.71" y1="247.86" x2="204.71" gradientUnits="userSpaceOnUse"><stop offset="0.01" stop-color="#25bfec"/><stop offset="0.04" stop-color="#24b6e3" stop-opacity="0.95"/><stop offset="0.19" stop-color="#208bb7" stop-opacity="0.7"/><stop offset="0.34" stop-color="#1c6692" stop-opacity="0.49"/><stop offset="0.48" stop-color="#194773" stop-opacity="0.31"/><stop offset="0.62" stop-color="#16305c" stop-opacity="0.18"/><stop offset="0.76" stop-color="#141f4b" stop-opacity="0.08"/><stop offset="0.89" stop-color="#131440" stop-opacity="0.02"/><stop offset="1" stop-color="#13113d" stop-opacity="0"/></linearGradient><linearGradient id="Áåçûìÿííûé_ãðàäèåíò_377-8" x1="218.69" y1="363.9" x2="345.63" y2="363.9" xlink:href="#Áåçûìÿííûé_ãðàäèåíò_377"/><linearGradient id="Áåçûìÿííûé_ãðàäèåíò_388-4" x1="218.69" y1="377.97" x2="345.63" y2="377.97" xlink:href="#Áåçûìÿííûé_ãðàäèåíò_388"/><linearGradient id="Áåçûìÿííûé_ãðàäèåíò_300-8" x1="671.01" y1="839.93" x2="730.8" y2="788.15" xlink:href="#Áåçûìÿííûé_ãðàäèåíò_300"/></defs><title>user-friendlysvg</title><g class="cls-2"><g id="Layer_1" data-name="Layer 1"><path class="cls-3" d="M171.46,139.17H138l-9.29-5.35c-4.8-2.77-13.19-2.42-18.73.78l-9.2,5.35H67.27v22.48h0c-.13,1.88.91,3.69,3.22,5L110,190.25c4.8,2.78,13.19,2.43,18.73-.77l38.1-22c2.88-1.66,4.42-3.77,4.57-5.79h0Z" transform="translate(-67.26 0)"/><path class="cls-4" d="M166.87,165.89l-38.1,22c-5.54,3.2-13.93,3.55-18.73.77L70.5,165.9c-2.31-1.33-3.35-3.14-3.22-5h0v1.55h0c-.13,1.88.91,3.69,3.22,5L110,190.25c4.8,2.78,13.19,2.43,18.73-.77l38.1-22c2.88-1.66,4.42-3.77,4.57-5.79h0V160.1h0C171.29,162.13,169.75,164.23,166.87,165.89Z" transform="translate(-67.26 0)"/><path class="cls-5" d="M69.4,164h0V141.5h33.47l9.2-5.35c5.54-3.2,13.93-3.55,18.73-.78l9.3,5.35h31.37v-1.55H138l-9.29-5.35c-4.8-2.77-13.19-2.42-18.73.78l-9.2,5.35H67.27v22.48h0c-.13,1.88.91,3.69,3.22,5l.38.22A4.71,4.71,0,0,1,69.4,164Z" transform="translate(-67.26 0)"/><path class="cls-6" d="M110,167.77,70.5,145c-4.8-2.77-4.2-7.61,1.35-10.82l38.1-22c5.54-3.2,13.93-3.55,18.73-.78l39.54,22.81c4.8,2.77,4.2,7.61-1.35,10.81l-38.1,22C123.23,170.2,114.84,170.55,110,167.77Z" transform="translate(-67.26 0)"/><path class="cls-7" d="M168.22,134.15l-39.54-22.81a17.5,17.5,0,0,0-9.45-1.82,15.69,15.69,0,0,1,6.81,1.82l39.54,22.81c4.8,2.77,4.2,7.61-1.35,10.81l-38.1,22a21.41,21.41,0,0,1-9.28,2.6,22.09,22.09,0,0,0,11.92-2.6l38.1-22C172.42,141.76,173,136.92,168.22,134.15Z" transform="translate(-67.26 0)"/><path class="cls-5" d="M113.07,167.77,73.53,145c-4.8-2.77-4.2-7.61,1.34-10.82l38.11-22a21.2,21.2,0,0,1,9.13-2.59A22,22,0,0,0,110,112.12l-38.1,22c-5.55,3.21-6.15,8-1.35,10.82L110,167.77a17.46,17.46,0,0,0,9.6,1.82A15.53,15.53,0,0,1,113.07,167.77Z" transform="translate(-67.26 0)"/><g class="cls-8"><path class="cls-9" d="M324.55,114H291.06l-9.29-5.34c-4.81-2.77-13.19-2.42-18.74.78l-9.2,5.35H220.36v22.48h0c-.13,1.88.91,3.69,3.22,5l39.54,22.8c4.8,2.77,13.19,2.43,18.73-.77l38.1-22c2.88-1.66,4.42-3.77,4.56-5.8h0Z" transform="translate(-67.26 0)"/><path class="cls-10" d="M320,140.73l-38.1,22c-5.54,3.2-13.93,3.54-18.73.77l-39.54-22.8c-2.31-1.33-3.35-3.14-3.22-5h0v1.55h0c-.13,1.88.91,3.69,3.22,5l39.54,22.8c4.8,2.77,13.19,2.43,18.73-.77l38.1-22c2.88-1.66,4.42-3.77,4.56-5.8h0v-1.55h0C324.38,137,322.84,139.07,320,140.73Z" transform="translate(-67.26 0)"/><path class="cls-5" d="M222.49,138.82h0V116.34H256l9.2-5.35c5.54-3.2,13.93-3.55,18.73-.78l9.29,5.34h31.38V114H291.06l-9.29-5.34c-4.81-2.77-13.19-2.42-18.74.78l-9.2,5.35H220.36v22.48h0c-.13,1.88.91,3.69,3.22,5l.38.22A4.68,4.68,0,0,1,222.49,138.82Z" transform="translate(-67.26 0)"/><path class="cls-11" d="M263.13,142.61l-39.54-22.8c-4.8-2.77-4.2-7.62,1.34-10.82L263,87c5.55-3.2,13.93-3.55,18.74-.78L321.31,109c4.8,2.77,4.2,7.61-1.35,10.81l-38.1,22C276.32,145,267.93,145.38,263.13,142.61Z" transform="translate(-67.26 0)"/><path class="cls-7" d="M321.31,109,281.77,86.18a17.43,17.43,0,0,0-9.46-1.82,15.62,15.62,0,0,1,6.81,1.82L318.66,109c4.81,2.77,4.2,7.61-1.34,10.81l-38.1,22a21.32,21.32,0,0,1-9.28,2.61,22,22,0,0,0,11.92-2.61l38.1-22C325.51,116.6,326.11,111.76,321.31,109Z" transform="translate(-67.26 0)"/><path class="cls-5" d="M266.16,142.61l-39.54-22.8c-4.8-2.77-4.2-7.62,1.34-10.82l38.1-22a21.28,21.28,0,0,1,9.13-2.59A22.07,22.07,0,0,0,263,87l-38.1,22c-5.54,3.2-6.14,8.05-1.34,10.82l39.54,22.8a17.53,17.53,0,0,0,9.6,1.82A15.53,15.53,0,0,1,266.16,142.61Z" transform="translate(-67.26 0)"/></g><g class="cls-8"><path class="cls-12" d="M284.16,331.64H250.68L213.4,310.12c-4.8-2.77-13.19-2.42-18.73.78l-35.94,20.74H125.26v22.49h0c-.13,1.87.91,3.68,3.22,5l67.52,39c4.81,2.77,13.19,2.42,18.74-.78l64.83-37.43c2.88-1.66,4.41-3.77,4.56-5.79h0Z" transform="translate(-67.26 0)"/><path class="cls-13" d="M196,375.65l-67.52-39c-4.8-2.77-4.2-7.61,1.34-10.81l64.84-37.43c5.54-3.2,13.93-3.55,18.73-.78l67.52,39c4.8,2.77,4.2,7.61-1.34,10.81l-64.83,37.43C209.2,378.07,200.82,378.42,196,375.65Z" transform="translate(-67.26 0)"/></g><g class="cls-8"><path class="cls-14" d="M284.16,308.75H250.68L213.4,287.23c-4.8-2.78-13.19-2.43-18.73.77l-35.94,20.75H125.26v22.48h0c-.13,1.88.91,3.69,3.22,5l67.52,39c4.81,2.77,13.19,2.43,18.74-.77L279.58,337c2.88-1.67,4.41-3.77,4.56-5.8h0Z" transform="translate(-67.26 0)"/><path class="cls-15" d="M196,352.75l-67.52-39c-4.8-2.78-4.2-7.62,1.34-10.82l64.84-37.43c5.54-3.2,13.93-3.55,18.73-.78l67.52,39c4.8,2.77,4.2,7.61-1.34,10.81L214.75,352C209.2,355.18,200.82,355.52,196,352.75Z" transform="translate(-67.26 0)"/></g><g class="cls-8"><path class="cls-16" d="M284.16,285.85H250.68L213.4,264.33c-4.8-2.77-13.19-2.42-18.73.78l-35.94,20.74H125.26v22.48h0c-.13,1.88.91,3.69,3.22,5l67.52,39c4.81,2.77,13.19,2.42,18.74-.78l64.83-37.43c2.88-1.66,4.41-3.77,4.56-5.8h0Z" transform="translate(-67.26 0)"/><path class="cls-17" d="M196,329.86l-67.52-39c-4.8-2.77-4.2-7.61,1.34-10.81l64.84-37.43c5.54-3.21,13.93-3.55,18.73-.78l67.52,39c4.8,2.78,4.2,7.62-1.34,10.82l-64.83,37.43C209.2,332.28,200.82,332.63,196,329.86Z" transform="translate(-67.26 0)"/></g><g class="cls-8"><path class="cls-18" d="M284.16,263H250.68L213.4,241.43c-4.8-2.77-13.19-2.42-18.73.78L158.73,263H125.26v22.48h0c-.13,1.87.91,3.68,3.22,5l67.52,39c4.81,2.77,13.19,2.43,18.74-.78l64.83-37.43c2.88-1.66,4.41-3.76,4.56-5.79h0Z" transform="translate(-67.26 0)"/><path class="cls-19" d="M196,307l-67.52-39c-4.8-2.77-4.2-7.61,1.34-10.81l64.84-37.43c5.54-3.2,13.93-3.55,18.73-.78l67.52,39c4.8,2.77,4.2,7.61-1.34,10.81l-64.83,37.43C209.2,309.38,200.82,309.73,196,307Z" transform="translate(-67.26 0)"/></g><path class="cls-20" d="M196,306.67l-67.52-39c-4.8-2.77-4.2-7.61,1.34-10.81l64.84-37.43c5.54-3.2,13.93-3.55,18.73-.78l67.52,39c4.8,2.77,4.2,7.61-1.34,10.81l-64.83,37.43C209.2,309.09,200.82,309.44,196,306.67Z" transform="translate(-67.26 0)"/><path class="cls-21" d="M204.05,317.49a20.36,20.36,0,0,1-10-2.3l-79.55-45.92c-2.71-1.57-4.21-3.78-4.21-6.22,0-2.9,2.11-5.77,5.8-7.9l76.37-44.1c6.74-3.89,17-4.3,22.87-.91l79.54,45.92c2.72,1.57,4.21,3.78,4.21,6.23,0,2.89-2.11,5.77-5.8,7.89l-76.37,44.1A26.49,26.49,0,0,1,204.05,317.49Zm1.31-108.07a24.8,24.8,0,0,0-12.08,3l-76.37,44.09c-3.18,1.83-5,4.21-5,6.52,0,1.84,1.22,3.56,3.42,4.84l79.55,45.92c5.42,3.13,15,2.72,21.26-.91l76.38-44.1c3.18-1.83,5-4.21,5-6.51,0-1.85-1.22-3.57-3.42-4.84l-79.54-45.93A18.79,18.79,0,0,0,205.36,209.42Z" transform="translate(-67.26 0)"/><path class="cls-22" d="M284.16,223.12H250.68L213.4,201.6c-4.8-2.78-13.19-2.43-18.73.77l-35.94,20.75H125.26V245.6h0c-.13,1.88.91,3.69,3.22,5l67.52,39c4.81,2.78,13.19,2.43,18.74-.77l64.83-37.43c2.88-1.67,4.41-3.77,4.56-5.8h0Z" transform="translate(-67.26 0)"/><path class="cls-23" d="M279.58,249.85l-64.83,37.43c-5.55,3.2-13.93,3.55-18.74.77l-67.52-39c-2.31-1.33-3.35-3.14-3.22-5h0v1.55h0c-.13,1.88.91,3.69,3.22,5l67.52,39c4.81,2.78,13.19,2.43,18.74-.77l64.83-37.43c2.88-1.67,4.41-3.77,4.56-5.8h0v-1.55h0C284,246.08,282.46,248.18,279.58,249.85Z" transform="translate(-67.26 0)"/><path class="cls-5" d="M127.39,247.15h0V224.67h33.47l35.93-20.75c5.54-3.2,13.93-3.55,18.73-.77l37.28,21.52h31.37v-1.55H250.68L213.4,201.6c-4.8-2.78-13.19-2.43-18.73.77l-35.94,20.75H125.26V245.6h0c-.13,1.88.91,3.69,3.22,5l.38.22A4.71,4.71,0,0,1,127.39,247.15Z" transform="translate(-67.26 0)"/><path class="cls-7" d="M282.26,224.92v22.37h0a6,6,0,0,1-1.6,3.43c2.19-1.54,3.37-3.36,3.5-5.12h0V223.35A10.51,10.51,0,0,0,282.26,224.92Z" transform="translate(-67.26 0)"/><path class="cls-24" d="M196,267.12l-67.52-39c-4.8-2.77-4.2-7.62,1.34-10.82l64.84-37.43c5.54-3.2,13.93-3.55,18.73-.77l67.52,39c4.8,2.77,4.2,7.61-1.34,10.81l-64.83,37.44C209.2,269.55,200.82,269.89,196,267.12Z" transform="translate(-67.26 0)"/><path class="cls-7" d="M280.92,218.1l-67.52-39a17.41,17.41,0,0,0-9.45-1.83,15.56,15.56,0,0,1,6.81,1.83l67.52,39c4.8,2.77,4.2,7.61-1.34,10.81L212.1,266.35a21.41,21.41,0,0,1-9.28,2.6,22.13,22.13,0,0,0,11.93-2.6l64.83-37.44C285.12,225.71,285.72,220.87,280.92,218.1Z" transform="translate(-67.26 0)"/><path class="cls-25" d="M198.24,255.88l-50.28-29c-3.57-2.06-3.12-5.66,1-8l48.27-27.86c4.13-2.39,10.37-2.65,14-.58l50.27,29c3.57,2.07,3.13,5.67-1,8.05L212.18,255.3C208.05,257.68,201.81,257.94,198.24,255.88Z" transform="translate(-67.26 0)"/><path class="cls-26" d="M200,246.85l-36.42-21c-2.59-1.5-2.27-4.11.72-5.84l35-20.19c3-1.72,7.51-1.91,10.1-.42l36.43,21c2.59,1.5,2.26,4.11-.73,5.83l-35,20.19C207.13,248.16,202.61,248.35,200,246.85Z" transform="translate(-67.26 0)"/><path class="cls-5" d="M199,267.12l-67.52-39c-4.8-2.77-4.2-7.62,1.34-10.82l64.84-37.43a21.2,21.2,0,0,1,9.13-2.59,22,22,0,0,0-12.16,2.59l-64.84,37.43c-5.54,3.2-6.14,8.05-1.34,10.82l67.52,39a17.5,17.5,0,0,0,9.61,1.82A15.58,15.58,0,0,1,199,267.12Z" transform="translate(-67.26 0)"/><g class="cls-27"><path class="cls-28" d="M164.31,222.84l35-20.2c3-1.73,7.52-1.92,10.11-.42l36.43,21a3.76,3.76,0,0,1,1.27,1.14c.88-1.43.5-3-1.27-4l-36.43-21c-2.59-1.49-7.12-1.3-10.11.42l-35,20.2c-2.33,1.34-3,3.22-2,4.69A5.39,5.39,0,0,1,164.31,222.84Z" transform="translate(-67.26 0)"/><path class="cls-29" d="M164.31,226.27l35-20.2c3-1.73,7.52-1.91,10.11-.42l36.43,21a4,4,0,0,1,1.07.89c1.15-1.51.84-3.22-1.07-4.32l-36.43-21c-2.59-1.5-7.12-1.31-10.11.42l-35,20.2c-2.47,1.42-3.09,3.44-1.8,4.94A6,6,0,0,1,164.31,226.27Z" transform="translate(-67.26 0)"/><path class="cls-30" d="M162.87,231.58a6.37,6.37,0,0,1,1.44-1.12l35-20.2c3-1.73,7.52-1.92,10.11-.42l36.43,21a3.52,3.52,0,0,1,.71.52c1.54-1.61,1.37-3.51-.71-4.71l-36.43-21c-2.59-1.49-7.12-1.31-10.11.42l-35,20.2C161.63,227.81,161.11,230.06,162.87,231.58Z" transform="translate(-67.26 0)"/></g><path class="cls-31" d="M247.56,0H161.85V223.3h0a3,3,0,0,0,1.75,2.52l36.42,21c2.59,1.5,7.11,1.31,10.1-.42l35-20.19a4.27,4.27,0,0,0,2.46-3.12h0Z" transform="translate(-67.26 0)"/><path class="cls-26" d="M212.91,153.09a2.29,2.29,0,1,1-2.29-2.29A2.29,2.29,0,0,1,212.91,153.09Z" transform="translate(-67.26 0)"/><path class="cls-26" d="M200.21,137.47a1.63,1.63,0,1,1-1.62-1.62A1.63,1.63,0,0,1,200.21,137.47Z" transform="translate(-67.26 0)"/><path class="cls-26" d="M212.06,120.05a3.74,3.74,0,1,1-3.73-3.73A3.74,3.74,0,0,1,212.06,120.05Z" transform="translate(-67.26 0)"/><circle class="cls-26" cx="130.56" cy="92.08" r="1.66"/><path class="cls-26" d="M213.72,169.27a1.67,1.67,0,1,1-1.66-1.66A1.66,1.66,0,0,1,213.72,169.27Z" transform="translate(-67.26 0)"/><circle class="cls-26" cx="143.13" cy="69.96" r="1.2"/><path class="cls-26" d="M199.06,54.31a.57.57,0,1,1-.57-.57A.57.57,0,0,1,199.06,54.31Z" transform="translate(-67.26 0)"/><circle class="cls-26" cx="132.37" cy="145.14" r="3.47"/><circle class="cls-26" cx="130.56" cy="102.94" r="1.66"/><path class="cls-26" d="M202.29,97.09a.68.68,0,0,1-.68.67.67.67,0,0,1-.67-.67.68.68,0,0,1,.67-.68A.69.69,0,0,1,202.29,97.09Z" transform="translate(-67.26 0)"/><circle class="cls-26" cx="140.61" cy="127.1" r="1.46"/><path class="cls-32" d="M332.74,341H299.25L290,335.68c-4.8-2.77-13.19-2.42-18.73.78L262,341.81H228.55v22.48h0c-.13,1.88.91,3.69,3.22,5l39.54,22.8c4.8,2.78,13.19,2.43,18.73-.77l38.1-22c2.88-1.66,4.42-3.77,4.57-5.79h0Z" transform="translate(-67.26 0)"/><path class="cls-33" d="M328.15,367.75l-38.1,22c-5.54,3.2-13.93,3.55-18.73.77l-39.54-22.8c-2.31-1.33-3.35-3.14-3.22-5h0v1.55h0c-.13,1.88.91,3.69,3.22,5l39.54,22.8c4.8,2.78,13.19,2.43,18.73-.77l38.1-22c2.88-1.66,4.42-3.77,4.57-5.79h0V362h0C332.57,364,331,366.09,328.15,367.75Z" transform="translate(-67.26 0)"/><path class="cls-5" d="M230.68,365.84h0V343.36h33.47l9.2-5.35c5.54-3.2,13.93-3.55,18.73-.78l9.3,5.35h31.37V341H299.25L290,335.68c-4.8-2.77-13.19-2.42-18.73.78L262,341.81H228.55v22.48h0c-.13,1.88.91,3.69,3.22,5l.38.22A4.71,4.71,0,0,1,230.68,365.84Z" transform="translate(-67.26 0)"/><path class="cls-34" d="M271.32,369.63l-39.54-22.8c-4.8-2.77-4.2-7.61,1.35-10.82l38.1-22c5.54-3.2,13.93-3.55,18.73-.78L329.5,336c4.8,2.77,4.2,7.61-1.35,10.81l-38.1,22C284.51,372.06,276.12,372.4,271.32,369.63Z" transform="translate(-67.26 0)"/><path class="cls-7" d="M329.5,336,290,313.2a17.5,17.5,0,0,0-9.45-1.82,15.61,15.61,0,0,1,6.8,1.82L326.86,336c4.8,2.77,4.2,7.61-1.35,10.81l-38.1,22a21.41,21.41,0,0,1-9.28,2.6,22.09,22.09,0,0,0,11.92-2.6l38.1-22C333.7,343.62,334.3,338.78,329.5,336Z" transform="translate(-67.26 0)"/><path class="cls-5" d="M274.35,369.63l-39.54-22.8c-4.8-2.77-4.2-7.61,1.34-10.82l38.11-22a21.2,21.2,0,0,1,9.13-2.59A22,22,0,0,0,271.23,314l-38.1,22c-5.55,3.21-6.15,8.05-1.35,10.82l39.54,22.8a17.46,17.46,0,0,0,9.6,1.82A15.53,15.53,0,0,1,274.35,369.63Z" transform="translate(-67.26 0)"/></g></g></svg>