<svg xmlns="http://www.w3.org/2000/svg" xmlns:xlink="http://www.w3.org/1999/xlink" viewBox="0 0 472.45 400.85"><defs><style>.cls-1,.cls-4{fill:#42e8e0;}.cls-1{opacity:0.5;}.cls-2{fill:#1852b7;opacity:0.75;}.cls-3{fill:#fff;}.cls-4{opacity:0.4;}.cls-5{fill:url(#New_Gradient_Swatch_11);}.cls-6{fill:#0f054c;}.cls-6,.cls-8{opacity:0.3;}.cls-7{fill:url(#linear-gradient);}.cls-8{fill:#052149;}.cls-9{fill:url(#New_Gradient_Swatch_12);}.cls-10{fill:#7ae5ed;}.cls-11{fill:url(#linear-gradient-2);}.cls-12{fill:#4caf50;}.cls-13{fill:#f44336;}.cls-14{fill:#2196f3;}.cls-15{fill:#ffc107;}.cls-16{fill:url(#New_Gradient_Swatch_11-2);}.cls-17{fill:url(#linear-gradient-3);}.cls-18{fill:url(#New_Gradient_Swatch_12-2);}.cls-19{fill:url(#linear-gradient-4);}.cls-20{fill:#e69629;}.cls-21{fill:url(#New_Gradient_Swatch_11-3);}.cls-22{fill:url(#linear-gradient-5);}.cls-23{fill:url(#New_Gradient_Swatch_12-3);}.cls-24{fill:url(#linear-gradient-6);}.cls-25{fill:#fafafa;}.cls-26{fill:url(#New_Gradient_Swatch_11-4);}.cls-27{fill:url(#linear-gradient-7);}.cls-28{fill:url(#New_Gradient_Swatch_12-4);}.cls-29{fill:url(#linear-gradient-8);}.cls-30{fill:#dee0e0;}.cls-31{fill:url(#New_Gradient_Swatch_11-5);}.cls-32{fill:url(#linear-gradient-9);}.cls-33{fill:url(#New_Gradient_Swatch_12-5);}.cls-34{fill:url(#linear-gradient-10);}.cls-35{fill:#80e0dc;}.cls-36{fill:#00a8b0;}.cls-37{fill:#e7e7e7;}.cls-38{fill:#5a5a5a;}.cls-39{fill:#c9f0ff;}.cls-40{fill:#9ae7fd;}</style><linearGradient id="New_Gradient_Swatch_11" x1="76.78" y1="352.1" x2="195.79" y2="420.81" gradientUnits="userSpaceOnUse"><stop offset="0" stop-color="#6ac2ff"/><stop offset="0.22" stop-color="#58b5ff"/><stop offset="0.65" stop-color="#2a93ff"/><stop offset="1" stop-color="#0074ff"/></linearGradient><linearGradient id="linear-gradient" x1="83.92" y1="347.47" x2="190.06" y2="408.75" gradientUnits="userSpaceOnUse"><stop offset="0.24" stop-color="#156cff"/><stop offset="0.43" stop-color="#2787ff"/><stop offset="0.62" stop-color="#349cff"/><stop offset="0.81" stop-color="#3ca8ff"/><stop offset="1" stop-color="#3facff"/></linearGradient><linearGradient id="New_Gradient_Swatch_12" x1="61.86" y1="378.07" x2="211.86" y2="378.07" gradientUnits="userSpaceOnUse"><stop offset="0" stop-color="#7fd9ff"/><stop offset="0.17" stop-color="#61c7ff"/><stop offset="0.4" stop-color="#40b3ff"/><stop offset="0.62" stop-color="#28a5ff"/><stop offset="0.83" stop-color="#1a9cff"/><stop offset="1" stop-color="#1599ff"/></linearGradient><linearGradient id="linear-gradient-2" x1="64.16" y1="378.07" x2="209.55" y2="378.07" gradientUnits="userSpaceOnUse"><stop offset="0" stop-color="#94dcff"/><stop offset="0.06" stop-color="#8bd7ff"/><stop offset="0.32" stop-color="#6ac4ff"/><stop offset="0.57" stop-color="#52b7ff"/><stop offset="0.8" stop-color="#44afff"/><stop offset="1" stop-color="#3facff"/></linearGradient><linearGradient id="New_Gradient_Swatch_11-2" x1="76.88" y1="166.38" x2="195.89" y2="235.1" xlink:href="#New_Gradient_Swatch_11"/><linearGradient id="linear-gradient-3" x1="84.02" y1="161.76" x2="190.16" y2="223.03" xlink:href="#linear-gradient"/><linearGradient id="New_Gradient_Swatch_12-2" x1="61.95" y1="192.36" x2="211.95" y2="192.36" xlink:href="#New_Gradient_Swatch_12"/><linearGradient id="linear-gradient-4" x1="64.26" y1="192.36" x2="209.65" y2="192.36" xlink:href="#linear-gradient-2"/><linearGradient id="New_Gradient_Swatch_11-3" x1="239.55" y1="69.68" x2="358.56" y2="138.39" xlink:href="#New_Gradient_Swatch_11"/><linearGradient id="linear-gradient-5" x1="246.69" y1="65.05" x2="352.83" y2="126.33" xlink:href="#linear-gradient"/><linearGradient id="New_Gradient_Swatch_12-3" x1="224.63" y1="95.65" x2="374.63" y2="95.65" xlink:href="#New_Gradient_Swatch_12"/><linearGradient id="linear-gradient-6" x1="226.93" y1="95.65" x2="372.33" y2="95.65" xlink:href="#linear-gradient-2"/><linearGradient id="New_Gradient_Swatch_11-4" x1="399.23" y1="165.74" x2="518.24" y2="234.45" xlink:href="#New_Gradient_Swatch_11"/><linearGradient id="linear-gradient-7" x1="406.37" y1="161.12" x2="512.5" y2="222.39" xlink:href="#linear-gradient"/><linearGradient id="New_Gradient_Swatch_12-4" x1="384.3" y1="191.72" x2="534.3" y2="191.72" xlink:href="#New_Gradient_Swatch_12"/><linearGradient id="linear-gradient-8" x1="386.61" y1="191.72" x2="532" y2="191.72" xlink:href="#linear-gradient-2"/><linearGradient id="New_Gradient_Swatch_11-5" x1="398.83" y1="353.08" x2="517.84" y2="421.8" xlink:href="#New_Gradient_Swatch_11"/><linearGradient id="linear-gradient-9" x1="405.97" y1="348.46" x2="512.1" y2="409.73" xlink:href="#linear-gradient"/><linearGradient id="New_Gradient_Swatch_12-5" x1="383.9" y1="379.06" x2="533.9" y2="379.06" xlink:href="#New_Gradient_Swatch_12"/><linearGradient id="linear-gradient-10" x1="386.21" y1="379.06" x2="531.6" y2="379.06" xlink:href="#linear-gradient-2"/></defs><title>wallet-icon</title><g id="Layer_2" data-name="Layer 2"><path class="cls-1" d="M463.7,248.3l.1,88.12a17,17,0,0,0-3.68-.5,17.36,17.36,0,0,0-3.32.21V248.42a19.69,19.69,0,0,0,3.5.26A19.42,19.42,0,0,0,463.7,248.3Z" transform="translate(-61.86 -52.35)"/><path class="cls-1" d="M139.72,248.6v87a17.68,17.68,0,0,0-3.16-.31,18.91,18.91,0,0,0-3.84.35q0-43.56.05-87.12a17.33,17.33,0,0,0,6.95.13Z" transform="translate(-61.86 -52.35)"/><path class="cls-1" d="M411.92,172.64l-78.76-35.93,7.06-4.07,78.95,35.77Z" transform="translate(-61.86 -52.35)"/><path class="cls-1" d="M173.26,356.43l64.63-37.33,3.42,6.1-60.66,35Z" transform="translate(-61.86 -52.35)"/><path class="cls-1" d="M363.9,318.68l62.54,36.11-7.56,3.73L360.53,325Z" transform="translate(-61.86 -52.35)"/><path class="cls-1" d="M182,170.44l73.75-39.71,7.16,4.13L188.77,175Z" transform="translate(-61.86 -52.35)"/></g><g id="Layer_1" data-name="Layer 1"><g id="Layer_2-2" data-name="Layer 2"><circle id="bg" class="cls-2" cx="238.92" cy="235.66" r="70"/><circle id="bg-2" data-name="bg" class="cls-2" cx="238.91" cy="235.66" r="65.63"/><path id="nd" class="cls-3" d="M266.44,283.31c-.11,3.15-.14,5.78-.14,7.69a39.07,39.07,0,0,0,.22,5.82,19.39,19.39,0,0,0,.33,2,18.15,18.15,0,0,0,2,5,17.44,17.44,0,0,0,4.75,5l23.06,17.67c.27-4.63.28-8.28.22-10.82a19.17,19.17,0,0,0-.37-3.93,19.57,19.57,0,0,0-2.69-6.47c-.25-.4-.52-.79-.8-1.16a13.28,13.28,0,0,0-2.73-2.67Z" transform="translate(-61.86 -52.35)"/><path id="nx" class="cls-3" d="M266.61,249.55a111.24,111.24,0,0,0-.38,14.94,22,22,0,0,0,1.1,6.59,20.48,20.48,0,0,0,3.61,6.34h0a23.64,23.64,0,0,0,2.34,2.46c1,.87,26.77,20.32,61.84,46.57.31-8,.34-13.92.23-15.44a24.23,24.23,0,0,0-.35-2.81s-.14-.65-.29-1.29a21.79,21.79,0,0,0-2.7-6.22,25.46,25.46,0,0,0-4.24-4.91C324,292.46,299.89,274.18,266.61,249.55Z" transform="translate(-61.86 -52.35)"/><path id="nu" class="cls-3" d="M304.78,249.46c-.11,3.15-.14,5.78-.14,7.69a35.29,35.29,0,0,0,.29,6.25,18.41,18.41,0,0,0,2.31,6.58,15.38,15.38,0,0,0,4.76,5l23.07,17.64c.21-4.15.26-7.57.23-10.09a21.41,21.41,0,0,0-.37-4.66,19.8,19.8,0,0,0-2.7-6.47c-.25-.4-.52-.79-.8-1.16a13.28,13.28,0,0,0-2.73-2.67Z" transform="translate(-61.86 -52.35)"/></g><g id="Layer_3" data-name="Layer 3"><path class="cls-4" d="M211.86,408.7V389l-3.62-2c-1,6.17-8.28,10.23-14.35,11.08l-41.33,24.17-18,6.51L76.94,399l1.33-.77c-4.92-2.3-7.57-7.56-10.24-12.35l-3.87,2.31-2.3.64v20.09h0c0,2.56,1.68,5.12,5.06,7.07l57.69,33.31c6.75,3.9,17.74,3.9,24.5,0L206.79,416c3.32-1.91,5-4.42,5.06-6.94,0-.12,0-.23,0-.34Z" transform="translate(-61.86 -52.35)"/><path class="cls-5" d="M211.86,391.14V378.07l-3.62-2c-1,6.17-8.28,10.24-14.35,11.08l-41.33,24.17-18,6.52L76.94,388.11l1.33-.77C73.35,385.05,70.7,379.79,68,375l-3.87,2.31-2.3.65v13.4h0c0,2.56,1.68,5.13,5.06,7.08l57.69,33.3c6.75,3.9,17.74,3.9,24.5,0l57.68-33.3c3.32-1.92,5-4.43,5.06-6.95,0-.11,0-.23,0-.34Z" transform="translate(-61.86 -52.35)"/><path class="cls-6" d="M193.89,387.14l-41.33,24.17L136.86,417v17.67a25.07,25.07,0,0,0,12.25-2.92l57.68-33.3c3.32-1.92,5-4.43,5.06-6.95,0-.11,0-.23,0-.34h0V378.07l-3.31-1.83h-.34C207.08,382.31,199.9,386.3,193.89,387.14Z" transform="translate(-61.86 -52.35)"/><path class="cls-7" d="M78.27,387.34l54.66-31.56a8.75,8.75,0,0,1,7.85,0l53.71,31-.6.35c6.07-.84,13.33-4.91,14.35-11.08L148,342.54l-17.54-4.64-14.28,8.4L68,375C70.7,379.79,73.35,385.05,78.27,387.34Z" transform="translate(-61.86 -52.35)"/><path class="cls-8" d="M136.86,339.6l-6.44-1.7-14.28,8.4L68,375c2.67,4.8,5.32,10.06,10.24,12.35l54.66-31.56a8.07,8.07,0,0,1,3.93-.93Z" transform="translate(-61.86 -52.35)"/><path class="cls-9" d="M124.61,418.45l-57.69-33.3c-6.75-3.9-6.75-10.25,0-14.15l57.69-33.3c6.75-3.9,17.74-3.9,24.49,0L206.79,371c6.75,3.9,6.75,10.25,0,14.15l-57.68,33.3C142.35,422.35,131.36,422.35,124.61,418.45Zm16.17-75.94a8.69,8.69,0,0,0-7.85,0l-57.68,33.3c-2.16,1.25-2.16,3.28,0,4.53l57.68,33.3a8.69,8.69,0,0,0,7.85,0l57.68-33.3c2.17-1.25,2.17-3.28,0-4.53Z" transform="translate(-61.86 -52.35)"/><path class="cls-3" d="M198.46,375.81l-57.68-33.3a8.69,8.69,0,0,0-7.85,0l-57.68,33.3c-1.44.83-1.92,2-1.44,3.08a3.33,3.33,0,0,1,1.44-1.45l57.68-33.31a8.75,8.75,0,0,1,7.85,0l57.68,33.31a3.38,3.38,0,0,1,1.44,1.45C200.38,377.82,199.91,376.64,198.46,375.81Z" transform="translate(-61.86 -52.35)"/><path class="cls-10" d="M206.79,385.15l-57.68,33.3c-6.76,3.9-17.75,3.9-24.5,0l-57.69-33.3c-3-1.75-4.68-4-5-6.26-.4,2.82,1.27,5.73,5,7.88l57.69,33.31c6.75,3.9,17.74,3.9,24.5,0l57.68-33.3c3.74-2.16,5.4-5.06,5-7.89C211.47,381.17,209.81,383.4,206.79,385.15Z" transform="translate(-61.86 -52.35)"/><path class="cls-11" d="M126.24,417.51l-57.69-33.3c-5.86-3.39-5.86-8.89,0-12.27l57.68-33.3c5.86-3.38,15.39-3.38,21.24,0l57.69,33.3c5.86,3.38,5.86,8.89,0,12.27l-57.68,33.3C141.62,420.89,132.09,420.89,126.24,417.51Zm16.17-75.94a12.32,12.32,0,0,0-11.11,0L73.62,374.87c-3.06,1.77-3.06,4.64,0,6.41l57.69,33.3a12.27,12.27,0,0,0,11.1,0l57.68-33.3c3.06-1.77,3.06-4.64,0-6.41Z" transform="translate(-61.86 -52.35)"/><path class="cls-4" d="M140.78,342.51a8.69,8.69,0,0,0-7.85,0l-57.68,33.3c-2.16,1.25-2.16,3.28,0,4.53l57.68,33.3a8.69,8.69,0,0,0,7.85,0l57.68-33.3c2.17-1.25,2.17-3.28,0-4.53Z" transform="translate(-61.86 -52.35)"/><path class="cls-12" d="M139.6,378.43h20.66V359.18a1.37,1.37,0,0,0-1.36-1.37H139.6Z" transform="translate(-61.86 -52.35)"/><path class="cls-13" d="M136.86,378.43V357.81H117.6a1.36,1.36,0,0,0-1.33,1.37v19.25Z" transform="translate(-61.86 -52.35)"/><path class="cls-14" d="M136.86,381.18H116.27v19.25a1.37,1.37,0,0,0,1.37,1.37h19.22Z" transform="translate(-61.86 -52.35)"/><path class="cls-15" d="M139.6,381.18V401.8h19.26a1.36,1.36,0,0,0,1.4-1.32v-19.3Z" transform="translate(-61.86 -52.35)"/></g><g id="Layer_4" data-name="Layer 4"><path class="cls-4" d="M212,223V203.23l-3.61-2c-1,6.17-8.28,10.23-14.35,11.08l-41.33,24.17-18,6.51L77,213.27l1.33-.77c-4.92-2.3-7.57-7.56-10.24-12.35l-3.87,2.31-2.31.65v20.08h0c0,2.56,1.69,5.13,5.07,7.08l57.69,33.3c6.75,3.9,17.74,3.9,24.5,0l57.68-33.3c3.32-1.92,5-4.43,5.06-7,0-.11,0-.23,0-.34Z" transform="translate(-61.86 -52.35)"/><path class="cls-16" d="M212,205.43V192.36l-3.61-2c-1,6.16-8.28,10.23-14.35,11.07l-41.33,24.17-18,6.52L77,202.39l1.33-.76c-4.92-2.3-7.57-7.56-10.24-12.36l-3.87,2.31-2.31.65v13.41h0c0,2.56,1.69,5.12,5.07,7.07L124.71,246c6.75,3.9,17.74,3.9,24.5,0l57.68-33.3c3.32-1.92,5-4.43,5.06-7,0-.11,0-.22,0-.34Z" transform="translate(-61.86 -52.35)"/><path class="cls-6" d="M194,201.42l-41.33,24.17L137,231.26v17.68A25.09,25.09,0,0,0,149.21,246l57.68-33.3c3.32-1.92,5-4.43,5.06-7,0-.11,0-.22,0-.34h0V192.36l-3.3-1.84h-.34C207.18,196.59,200,200.59,194,201.42Z" transform="translate(-61.86 -52.35)"/><path class="cls-17" d="M78.37,201.63,133,170.07a8.69,8.69,0,0,1,7.85,0l53.71,31-.6.35c6.07-.84,13.33-4.91,14.35-11.07l-60.28-33.53-17.54-4.63-14.28,8.39L68.13,189.27C70.8,194.07,73.45,199.33,78.37,201.63Z" transform="translate(-61.86 -52.35)"/><path class="cls-8" d="M137,153.89l-6.43-1.7-14.28,8.39L68.13,189.27c2.67,4.8,5.32,10.06,10.24,12.36L133,170.07a8,8,0,0,1,3.92-.94Z" transform="translate(-61.86 -52.35)"/><path class="cls-18" d="M124.71,232.73,67,199.43c-6.75-3.9-6.75-10.25,0-14.15L124.7,152c6.76-3.9,17.75-3.9,24.5,0l57.69,33.3c6.75,3.9,6.75,10.25,0,14.15l-57.68,33.3C142.45,236.63,131.46,236.63,124.71,232.73Zm16.17-75.94a8.69,8.69,0,0,0-7.85,0l-57.68,33.3c-2.17,1.25-2.17,3.28,0,4.53L133,227.93a8.75,8.75,0,0,0,7.85,0l57.68-33.31c2.17-1.25,2.17-3.28,0-4.53Z" transform="translate(-61.86 -52.35)"/><path class="cls-3" d="M198.56,190.09l-57.68-33.3a8.69,8.69,0,0,0-7.85,0l-57.68,33.3c-1.45.83-1.92,2-1.44,3.08a3.38,3.38,0,0,1,1.44-1.45L133,158.42a8.69,8.69,0,0,1,7.85,0l57.68,33.3a3.38,3.38,0,0,1,1.44,1.45C200.48,192.11,200,190.93,198.56,190.09Z" transform="translate(-61.86 -52.35)"/><path class="cls-10" d="M206.89,199.43l-57.68,33.3c-6.76,3.9-17.75,3.9-24.5,0L67,199.43c-3-1.75-4.68-4-5-6.26-.4,2.83,1.27,5.73,5,7.89l57.69,33.3c6.75,3.9,17.74,3.9,24.5,0l57.68-33.3c3.73-2.16,5.4-5.06,5-7.89C211.57,195.45,209.91,197.69,206.89,199.43Z" transform="translate(-61.86 -52.35)"/><path class="cls-19" d="M126.34,231.79l-57.69-33.3c-5.86-3.38-5.86-8.88,0-12.27l57.68-33.3c5.86-3.38,15.39-3.38,21.24,0l57.69,33.31c5.86,3.38,5.86,8.88,0,12.26l-57.68,33.3C141.72,235.17,132.19,235.17,126.34,231.79Zm16.17-75.94a12.29,12.29,0,0,0-11.11,0l-57.68,33.3c-3.06,1.77-3.06,4.64,0,6.41l57.68,33.31a12.35,12.35,0,0,0,11.11,0l57.68-33.31c3.06-1.77,3.06-4.64,0-6.41Z" transform="translate(-61.86 -52.35)"/><path class="cls-4" d="M140.88,156.79a8.69,8.69,0,0,0-7.85,0l-57.68,33.3c-2.17,1.25-2.17,3.28,0,4.53L133,227.93a8.75,8.75,0,0,0,7.85,0l57.68-33.31c2.17-1.25,2.17-3.28,0-4.53Z" transform="translate(-61.86 -52.35)"/><path class="cls-3" d="M136.13,181.57a1.7,1.7,0,0,1,0-.22,1.81,1.81,0,0,1,1.59-2,1.79,1.79,0,0,1,1.59,2,2.35,2.35,0,0,1-.11.71,2.85,2.85,0,0,0,.42-1.49,1.94,1.94,0,1,0-3.77,0,3.1,3.1,0,0,0,.16,1Z" transform="translate(-61.86 -52.35)"/><path class="cls-3" d="M131.45,179.48h.16a1.74,1.74,0,0,1,1.48,1.62,1.63,1.63,0,0,1,0,.31l.14-.07a3.71,3.71,0,0,0,0-.47c0-1.21-.64-2.24-1.4-2.24s-1.2.71-1.36,1.68A1.26,1.26,0,0,1,131.45,179.48Z" transform="translate(-61.86 -52.35)"/><path class="cls-3" d="M144.54,204a13.53,13.53,0,0,0,.2-4.93c-.42-2.89-4.49-11.9-5.19-12.91a12.52,12.52,0,0,0-2.38,1.19,15.18,15.18,0,0,1-2.79,1.41,1.49,1.49,0,0,1-.47.07,4.94,4.94,0,0,1-2.92-1.59,7.94,7.94,0,0,1-1.63,4,11.2,11.2,0,0,0-1.37,3.12,16.17,16.17,0,0,1-1.3,3.15c-1,1.57-1.6,4.64-.86,6.39a9.78,9.78,0,0,0,2.79,2.72c1.4,1.08,2.61,2,2.74,2.95a1.81,1.81,0,0,1-1,2l1.49,1.71a10.43,10.43,0,0,0,1.66.11,23.18,23.18,0,0,0,3.37-.27,9.37,9.37,0,0,0,5.46-3.42,39.84,39.84,0,0,1,.23-4.72c.08-.37.38-1,1.51-1A3.32,3.32,0,0,1,144.54,204Z" transform="translate(-61.86 -52.35)"/><path class="cls-20" d="M131.55,185a3.92,3.92,0,0,0,1.38,1.33l.32.22c.45.3.65.42,1,.38a17,17,0,0,0,2.95-1.57l.18-.11c.28-.17.5-.28.68-.37.35-.19.38-.22.4-.28a1.93,1.93,0,0,0-1-.6l-.81-.32a17.67,17.67,0,0,0-2.08-.74h0a3.6,3.6,0,0,0-1.7,1.05C132.46,184.32,131.81,184.82,131.55,185Z" transform="translate(-61.86 -52.35)"/><path class="cls-20" d="M125.61,208.32c-.29-.49-.54-.91-.68-1.12-.54-.84-1.47-1.78-1.92-1.78l-.07,0a2.34,2.34,0,0,0-.63.95,3.38,3.38,0,0,1-1.13,1.51,5.72,5.72,0,0,1-1.65.52c-.44.09-1.46.31-1.5.52a2,2,0,0,0,.07.93,4.28,4.28,0,0,1,.11,1.62,8.89,8.89,0,0,1-.32,1.18c-.16.53-.35,1.13-.19,1.32a10.6,10.6,0,0,0,2.32.52,15.86,15.86,0,0,1,3,.66l.19.08a17.47,17.47,0,0,0,4.84,1.53,1.19,1.19,0,0,0,.28,0,3,3,0,0,0,1.24-1.54c.23-1-.69-2.16-1.25-2.76A36.16,36.16,0,0,1,125.61,208.32Z" transform="translate(-61.86 -52.35)"/><path class="cls-20" d="M152.67,210.7l-.15-.07a3.42,3.42,0,0,1-1.46-3,1.14,1.14,0,0,0-.05-.48,5.45,5.45,0,0,1-.76,1,4.87,4.87,0,0,1-3,1.11,3,3,0,0,1-1.19-.23c-1.17-.51-1.33-2-1.33-2.71h-.05a8.36,8.36,0,0,0,.05,1.68c0,.31.05.63.06.92a22.77,22.77,0,0,1-.7,5.07c-.33,1.57.29,2.67,1.06,2.9a.53.53,0,0,0,.23,0,5.2,5.2,0,0,0,2.89-1.81,16.17,16.17,0,0,1,3.79-2.33,13,13,0,0,0,1.88-1.06l.06-.07C154,211.39,153,210.89,152.67,210.7Z" transform="translate(-61.86 -52.35)"/><path d="M155,209.78c-1.4-.58-2-1.34-1.95-2.49A3.81,3.81,0,0,0,152,204.6a11.74,11.74,0,0,0,0-6.18c-.92-2.67-3.71-6.74-6.58-10.74-1.18-1.64-1.24-3.42-1.3-5.49a16.65,16.65,0,0,0-1.23-6.69,6.93,6.93,0,0,0-6.59-4.26,9,9,0,0,0-5,1.52c-2.88,2-2.5,6.31-2.25,9.18,0,.39.07.76.09,1.07.17,2.81,0,4.29-.18,4.73a19.9,19.9,0,0,1-1.44,2c-.69.91-1.48,2-2.13,2.92a22.86,22.86,0,0,0-2,4.65,21.68,21.68,0,0,1-1.26,3.16,4.32,4.32,0,0,0-.41,3.23,3.23,3.23,0,0,0-1.07,1.34c-.43.92-1.29,1.41-3.1,1.75a2.39,2.39,0,0,0-1.7,1,3,3,0,0,0,0,2.35,3.67,3.67,0,0,1-.24,2.65c-.09.25-.18.53-.28.85a1.56,1.56,0,0,0,.16,1.34c.69,1.05,2.68,1.41,4.72,1.66a18,18,0,0,1,3.86,1.1,17.45,17.45,0,0,0,3.77,1.09l.53,0a3.14,3.14,0,0,0,2.87-1.68,32.7,32.7,0,0,1,5.18-.61,22.24,22.24,0,0,1,5.14.53,4.18,4.18,0,0,0,1.55,1.69,3.85,3.85,0,0,0,1.74.39h0A4.21,4.21,0,0,0,148,218a27.73,27.73,0,0,1,5.56-3.55l1.17-.64a2.62,2.62,0,0,0,1.6-2.32A2,2,0,0,0,155,209.78Zm-17.32-31.61a2.2,2.2,0,0,1,1.89,2.4,2.85,2.85,0,0,1-.42,1.49,2.35,2.35,0,0,0,.11-.71,1.79,1.79,0,0,0-1.6-2,1.81,1.81,0,0,0-1.58,2,1.7,1.7,0,0,0,0,.22l-.13,0a2.83,2.83,0,0,1-.16-1A2.2,2.2,0,0,1,137.72,178.17Zm-3.18,4.8a18.33,18.33,0,0,1,2.08.74l.81.32a1.93,1.93,0,0,1,1,.6c0,.06-.05.09-.4.28-.18.09-.4.2-.68.37l-.18.11a17,17,0,0,1-2.95,1.57c-.32,0-.52-.08-1-.38l-.32-.22a3.92,3.92,0,0,1-1.38-1.33c.26-.21.91-.71,1.24-1a3.63,3.63,0,0,1,1.69-1.05Zm-2.65-4.35c.76,0,1.4,1,1.4,2.24a3.71,3.71,0,0,1,0,.47l-.14.07a1.63,1.63,0,0,0,0-.31,1.74,1.74,0,0,0-1.48-1.62h-.16a1.26,1.26,0,0,0-.92.82C130.69,179.33,131.24,178.62,131.89,178.62Zm-2.33,36.6a3,3,0,0,1-1.24,1.54,1.19,1.19,0,0,1-.28,0,17.47,17.47,0,0,1-4.84-1.53l-.19-.08a15.86,15.86,0,0,0-3-.66,10.45,10.45,0,0,1-2.32-.52c-.16-.19,0-.79.19-1.32a8.89,8.89,0,0,0,.32-1.18,4.28,4.28,0,0,0-.11-1.62,2,2,0,0,1-.07-.93c0-.2,1.06-.43,1.5-.52a5.72,5.72,0,0,0,1.65-.52,3.38,3.38,0,0,0,1.13-1.51,2.34,2.34,0,0,1,.63-.95l.07,0c.45,0,1.38.94,1.92,1.78.14.21.39.63.68,1.12a36.16,36.16,0,0,0,2.7,4.14C128.87,213.06,129.79,214.22,129.56,215.22Zm13-10.23a39.84,39.84,0,0,0-.23,4.72,9.37,9.37,0,0,1-5.46,3.42,23,23,0,0,1-3.37.26,10.92,10.92,0,0,1-1.66-.1l-1.49-1.71a1.81,1.81,0,0,0,1-2c-.13-.94-1.34-1.87-2.74-2.95a9.78,9.78,0,0,1-2.79-2.72c-.74-1.75-.16-4.82.86-6.39a16.17,16.17,0,0,0,1.3-3.15,11.2,11.2,0,0,1,1.37-3.12,7.94,7.94,0,0,0,1.63-4,4.94,4.94,0,0,0,2.92,1.59,1.49,1.49,0,0,0,.47-.07,15.18,15.18,0,0,0,2.79-1.41,12.52,12.52,0,0,1,2.38-1.19c.7,1,4.77,10,5.19,12.91a13.53,13.53,0,0,1-.2,4.93,3.32,3.32,0,0,0-.48,0C142.93,204,142.63,204.62,142.55,205Zm11.38,6.71a13,13,0,0,1-1.88,1.06,16.17,16.17,0,0,0-3.79,2.33,5.2,5.2,0,0,1-2.89,1.81.56.56,0,0,1-.23,0c-.77-.23-1.39-1.33-1.06-2.9a22.77,22.77,0,0,0,.7-5.07c0-.29,0-.61-.06-.92a8.36,8.36,0,0,1-.05-1.68h.05c0,.73.16,2.2,1.33,2.71a3,3,0,0,0,1.19.23,4.87,4.87,0,0,0,3-1.11,5.45,5.45,0,0,0,.76-1,1.3,1.3,0,0,1,.06.48,3.39,3.39,0,0,0,1.45,3l.15.07c.36.19,1.31.69,1.32.93Z" transform="translate(-61.86 -52.35)"/></g><g id="Layer_5" data-name="Layer 5"><path class="cls-4" d="M374.63,126.28V106.52l-3.62-2c-1,6.17-8.28,10.24-14.35,11.08l-41.33,24.17-18,6.52-57.58-29.72,1.33-.77c-4.92-2.29-7.57-7.55-10.23-12.35l-3.88,2.31-2.3.65v20.09h0c0,2.56,1.69,5.12,5.07,7.07l57.68,33.3c6.76,3.9,17.75,3.9,24.5,0l57.68-33.3c3.33-1.92,5-4.43,5.07-7,0-.11,0-.22,0-.33Z" transform="translate(-61.86 -52.35)"/><path class="cls-21" d="M374.63,108.72V95.65l-3.62-2c-1,6.17-8.28,10.23-14.35,11.08l-41.33,24.17-18,6.51-57.58-29.71,1.33-.77c-4.92-2.3-7.57-7.56-10.23-12.35l-3.88,2.31-2.3.64v13.41h0c0,2.56,1.69,5.12,5.07,7.07l57.68,33.31c6.76,3.89,17.75,3.89,24.5,0L369.56,116c3.33-1.92,5-4.43,5.07-7,0-.11,0-.22,0-.33Z" transform="translate(-61.86 -52.35)"/><path class="cls-6" d="M356.66,104.72l-41.33,24.17-15.7,5.67v17.67a25,25,0,0,0,12.25-2.92L369.56,116c3.33-1.92,5-4.43,5.07-7,0-.11,0-.22,0-.33h0V95.65l-3.3-1.84H371C369.85,99.88,362.68,103.88,356.66,104.72Z" transform="translate(-61.86 -52.35)"/><path class="cls-22" d="M241,104.92l54.67-31.56a8.66,8.66,0,0,1,7.84,0l53.71,31-.6.35c6.07-.85,13.33-4.91,14.35-11.08L310.74,60.11,293.2,55.48l-14.28,8.39-48.11,28.7C233.47,97.36,236.12,102.62,241,104.92Z" transform="translate(-61.86 -52.35)"/><path class="cls-8" d="M299.63,57.18l-6.43-1.7-14.28,8.39-48.11,28.7c2.66,4.79,5.31,10.05,10.23,12.35l54.67-31.56a8.06,8.06,0,0,1,3.92-.94Z" transform="translate(-61.86 -52.35)"/><path class="cls-23" d="M287.38,136,229.7,102.72c-6.76-3.9-6.76-10.24,0-14.14l57.68-33.31c6.75-3.9,17.74-3.9,24.5,0l57.68,33.31c6.76,3.9,6.76,10.24,0,14.14L311.88,136C305.13,139.93,294.14,139.93,287.38,136Zm16.17-75.95a8.66,8.66,0,0,0-7.84,0L238,93.38c-2.16,1.25-2.16,3.29,0,4.53l57.69,33.31a8.66,8.66,0,0,0,7.84,0l57.69-33.31c2.16-1.24,2.16-3.28,0-4.52Z" transform="translate(-61.86 -52.35)"/><path class="cls-3" d="M361.24,93.39,303.55,60.08a8.66,8.66,0,0,0-7.84,0L238,93.38c-1.44.84-1.92,2-1.43,3.08A3.35,3.35,0,0,1,238,95l57.69-33.3a8.66,8.66,0,0,1,7.84,0L361.24,95a3.35,3.35,0,0,1,1.43,1.45C363.15,95.4,362.68,94.22,361.24,93.39Z" transform="translate(-61.86 -52.35)"/><path class="cls-10" d="M369.56,102.72,311.88,136c-6.75,3.9-17.74,3.9-24.5,0L229.7,102.72c-3-1.74-4.69-4-5-6.26-.4,2.83,1.27,5.73,5,7.89l57.68,33.31c6.76,3.89,17.75,3.89,24.5,0l57.68-33.31c3.74-2.16,5.4-5.06,5-7.89C374.25,98.75,372.58,101,369.56,102.72Z" transform="translate(-61.86 -52.35)"/><path class="cls-24" d="M289,135.09l-57.69-33.31c-5.85-3.38-5.85-8.88,0-12.26L289,56.21c5.85-3.38,15.38-3.38,21.24,0l57.68,33.31c5.86,3.38,5.86,8.88,0,12.26l-57.68,33.31C304.39,138.47,294.87,138.47,289,135.09Zm16.17-75.95a12.27,12.27,0,0,0-11.1,0l-57.69,33.3c-3.06,1.77-3.06,4.65,0,6.41l57.69,33.31a12.27,12.27,0,0,0,11.1,0l57.69-33.3c3.06-1.77,3.06-4.65,0-6.41Z" transform="translate(-61.86 -52.35)"/><path class="cls-4" d="M303.55,60.08a8.66,8.66,0,0,0-7.84,0L238,93.38c-2.16,1.25-2.16,3.29,0,4.53l57.69,33.31a8.66,8.66,0,0,0,7.84,0l57.69-33.31c2.16-1.24,2.16-3.28,0-4.52Z" transform="translate(-61.86 -52.35)"/><path class="cls-12" d="M282.28,93.62a3,3,0,0,0-3,3v14a3,3,0,1,0,6,0v-14A3,3,0,0,0,282.28,93.62Z" transform="translate(-61.86 -52.35)"/><path class="cls-12" d="M316.24,93.62a3,3,0,0,0-3,3v14a3,3,0,1,0,6,0v-14A3,3,0,0,0,316.24,93.62Z" transform="translate(-61.86 -52.35)"/><path class="cls-12" d="M310.25,93.62h-22a1,1,0,0,0-1,1v16a5,5,0,0,0,4,4.89v7.1a3,3,0,1,0,6,0v-7h4v7a3,3,0,1,0,6,0v-7.1a5,5,0,0,0,4-4.89v-16A1,1,0,0,0,310.25,93.62Z" transform="translate(-61.86 -52.35)"/><path class="cls-12" d="M306.53,81.79,309,79.38a1,1,0,1,0-1.39-1.49h0l-2.84,2.84a13.66,13.66,0,0,0-10.89,0L291,77.89a1,1,0,0,0-1.47,0,1,1,0,0,0,0,1.46L292,81.82a10.5,10.5,0,0,0-4.72,8.8,1,1,0,0,0,1,1h22a1,1,0,0,0,1-1A10.53,10.53,0,0,0,306.53,81.79Z" transform="translate(-61.86 -52.35)"/><circle class="cls-25" cx="232.41" cy="34.29" r="1"/><circle class="cls-25" cx="242.4" cy="34.29" r="1"/></g><g id="Layer_6" data-name="Layer 6"><path class="cls-4" d="M534.3,222.34V202.59l-3.61-2c-1,6.17-8.28,10.23-14.35,11.08L475,235.83l-18,6.51-57.58-29.71,1.33-.77c-4.92-2.3-7.58-7.56-10.24-12.35l-3.87,2.31-2.31.65v20.08h0c0,2.56,1.69,5.13,5.07,7.07l57.69,33.31c6.75,3.9,17.74,3.9,24.49,0l57.69-33.3c3.32-1.92,5-4.43,5.06-6.95v-.34Z" transform="translate(-61.86 -52.35)"/><path class="cls-26" d="M534.3,204.79V191.72l-3.61-2c-1,6.16-8.28,10.23-14.35,11.07L475,225l-18,6.52-57.58-29.72,1.33-.76c-4.92-2.3-7.58-7.56-10.24-12.36l-3.87,2.31-2.31.65V205h0c0,2.57,1.69,5.13,5.07,7.08l57.69,33.3c6.75,3.9,17.74,3.9,24.49,0l57.69-33.3c3.32-1.92,5-4.43,5.06-6.95v-.34Z" transform="translate(-61.86 -52.35)"/><path class="cls-6" d="M516.34,200.78,475,225l-15.7,5.67V248.3a25,25,0,0,0,12.25-2.93l57.69-33.3c3.32-1.92,5-4.43,5.06-6.95v-.34h0V191.72l-3.3-1.84h-.35C529.53,196,522.35,200,516.34,200.78Z" transform="translate(-61.86 -52.35)"/><path class="cls-27" d="M400.72,201l54.66-31.56a8.69,8.69,0,0,1,7.85,0l53.7,31-.59.35c6.07-.84,13.33-4.91,14.35-11.07l-60.28-33.53-17.54-4.63-14.28,8.39-48.11,28.69C393.14,193.43,395.8,198.69,400.72,201Z" transform="translate(-61.86 -52.35)"/><path class="cls-8" d="M459.3,153.25l-6.43-1.7-14.28,8.39-48.11,28.69c2.66,4.8,5.32,10.06,10.24,12.36l54.66-31.56a8,8,0,0,1,3.92-.94Z" transform="translate(-61.86 -52.35)"/><path class="cls-28" d="M447.06,232.09l-57.69-33.3c-6.75-3.9-6.75-10.25,0-14.15l57.68-33.3c6.76-3.9,17.75-3.9,24.5,0l57.69,33.3c6.75,3.9,6.75,10.25,0,14.15l-57.69,33.3C464.8,236,453.81,236,447.06,232.09Zm16.17-75.94a8.69,8.69,0,0,0-7.85,0l-57.68,33.3c-2.17,1.25-2.17,3.28,0,4.53l57.68,33.31a8.72,8.72,0,0,0,7.85,0L520.91,194c2.16-1.25,2.16-3.28,0-4.53Z" transform="translate(-61.86 -52.35)"/><path class="cls-3" d="M520.91,189.45l-57.68-33.3a8.69,8.69,0,0,0-7.85,0l-57.68,33.3c-1.45.83-1.92,2-1.44,3.08a3.33,3.33,0,0,1,1.44-1.45l57.68-33.3a8.69,8.69,0,0,1,7.85,0l57.68,33.3a3.38,3.38,0,0,1,1.44,1.45C522.83,191.47,522.35,190.29,520.91,189.45Z" transform="translate(-61.86 -52.35)"/><path class="cls-10" d="M529.24,198.79l-57.69,33.3c-6.75,3.9-17.74,3.9-24.49,0l-57.69-33.3c-3-1.75-4.68-4-5-6.26-.4,2.82,1.26,5.73,5,7.89l57.69,33.3c6.75,3.9,17.74,3.9,24.49,0l57.69-33.3c3.73-2.16,5.4-5.06,5-7.89C533.92,194.81,532.26,197.05,529.24,198.79Z" transform="translate(-61.86 -52.35)"/><path class="cls-29" d="M448.68,231.15,391,197.85c-5.86-3.38-5.86-8.89,0-12.27l57.68-33.3c5.86-3.38,15.39-3.38,21.24,0l57.69,33.31c5.85,3.38,5.85,8.88,0,12.26l-57.69,33.3C464.07,234.53,454.54,234.53,448.68,231.15Zm16.17-75.94a12.27,12.27,0,0,0-11.1,0l-57.68,33.3c-3.06,1.77-3.06,4.64,0,6.41l57.68,33.31a12.35,12.35,0,0,0,11.11,0l57.68-33.31c3.06-1.77,3.06-4.64,0-6.41Z" transform="translate(-61.86 -52.35)"/><path class="cls-4" d="M463.23,156.15a8.69,8.69,0,0,0-7.85,0l-57.68,33.3c-2.17,1.25-2.17,3.28,0,4.53l57.68,33.31a8.72,8.72,0,0,0,7.85,0L520.91,194c2.16-1.25,2.16-3.28,0-4.53Z" transform="translate(-61.86 -52.35)"/><path class="cls-30" d="M466,178.14a10.54,10.54,0,0,0,2.33-7.8,11.26,11.26,0,0,0-7.3,4c-1.59,1.93-2.89,4.81-2.38,7.6A9.54,9.54,0,0,0,466,178.14Z" transform="translate(-61.86 -52.35)"/><path class="cls-30" d="M478.4,186.45a12.14,12.14,0,0,0-9.17-4.87c-4.31,0-6.12,2.06-9.12,2.06s-5.43-2-9.15-2-7.55,2.25-10,6.06c-3.47,5.37-2.88,15.49,2.75,24.12,2,3.08,4.7,6.54,8.25,6.57,3.13,0,4-2,8.25-2s5,2.06,8.17,2c3.51,0,6.35-3.87,8.36-7a34.45,34.45,0,0,0,3.1-5.81C471.65,202.47,470.34,190.89,478.4,186.45Z" transform="translate(-61.86 -52.35)"/></g><g id="Layer_7" data-name="Layer 7"><path class="cls-4" d="M533.9,409.69V389.93l-3.61-2c-1,6.17-8.28,10.23-14.35,11.08L474.6,423.17l-18,6.51L399,400l1.34-.77c-4.93-2.3-7.58-7.56-10.24-12.35l-3.87,2.31-2.31.65v20.08h0c0,2.57,1.69,5.13,5.07,7.08l57.68,33.3c6.76,3.9,17.75,3.9,24.5,0L528.84,417c3.32-1.92,5-4.43,5.06-7,0-.11,0-.22,0-.34Z" transform="translate(-61.86 -52.35)"/><path class="cls-31" d="M533.9,392.13V379.06l-3.61-2c-1,6.17-8.28,10.23-14.35,11.07L474.6,412.3l-18,6.51L399,389.1l1.34-.77c-4.93-2.3-7.58-7.56-10.24-12.36l-3.87,2.31-2.31.65v13.41h0c0,2.56,1.69,5.12,5.07,7.07l57.68,33.3c6.76,3.9,17.75,3.9,24.5,0l57.69-33.3c3.32-1.92,5-4.43,5.06-7,0-.11,0-.22,0-.34Z" transform="translate(-61.86 -52.35)"/><path class="cls-6" d="M515.94,388.12,474.6,412.3,458.9,418v17.67a25,25,0,0,0,12.25-2.93l57.69-33.3c3.32-1.92,5-4.43,5.06-7,0-.11,0-.22,0-.34h0V379.06l-3.3-1.84h-.35C529.13,383.29,522,387.29,515.94,388.12Z" transform="translate(-61.86 -52.35)"/><path class="cls-32" d="M400.32,388.33,455,356.77a8.66,8.66,0,0,1,7.84,0l53.71,31-.59.34c6.07-.84,13.33-4.9,14.35-11.07L470,343.52l-17.54-4.63-14.28,8.39L390.08,376C392.74,380.77,395.39,386,400.32,388.33Z" transform="translate(-61.86 -52.35)"/><path class="cls-8" d="M458.9,340.59l-6.43-1.7-14.28,8.39L390.08,376c2.66,4.8,5.31,10.06,10.24,12.36L455,356.77a8,8,0,0,1,3.92-.94Z" transform="translate(-61.86 -52.35)"/><path class="cls-33" d="M446.65,419.43,389,386.13c-6.76-3.9-6.76-10.25,0-14.15l57.68-33.3c6.76-3.9,17.75-3.9,24.5,0L528.84,372c6.75,3.9,6.75,10.24,0,14.14l-57.69,33.3C464.4,423.33,453.41,423.33,446.65,419.43Zm16.17-75.94a8.66,8.66,0,0,0-7.84,0l-57.68,33.3c-2.17,1.25-2.17,3.28,0,4.53L455,414.63a8.69,8.69,0,0,0,7.85,0l57.68-33.31c2.16-1.25,2.16-3.28,0-4.53Z" transform="translate(-61.86 -52.35)"/><path class="cls-3" d="M520.51,376.79l-57.69-33.3a8.66,8.66,0,0,0-7.84,0l-57.68,33.3c-1.45.84-1.92,2-1.44,3.08a3.38,3.38,0,0,1,1.44-1.45L455,345.12a8.66,8.66,0,0,1,7.84,0l57.69,33.3a3.44,3.44,0,0,1,1.44,1.45C522.43,378.81,522,377.63,520.51,376.79Z" transform="translate(-61.86 -52.35)"/><path class="cls-10" d="M528.84,386.13l-57.69,33.3c-6.75,3.9-17.74,3.9-24.5,0L389,386.13c-3-1.74-4.69-4-5-6.26-.39,2.83,1.27,5.73,5,7.89l57.68,33.3c6.76,3.9,17.75,3.9,24.5,0l57.69-33.3c3.73-2.16,5.4-5.06,5-7.89C533.52,382.16,531.86,384.39,528.84,386.13Z" transform="translate(-61.86 -52.35)"/><path class="cls-34" d="M448.28,418.49l-57.68-33.3c-5.86-3.38-5.86-8.88,0-12.26l57.68-33.31c5.86-3.38,15.39-3.38,21.24,0l57.69,33.31c5.85,3.38,5.85,8.88,0,12.26l-57.69,33.3C463.67,421.87,454.14,421.87,448.28,418.49Zm16.17-75.94a12.27,12.27,0,0,0-11.1,0l-57.68,33.3c-3.06,1.77-3.06,4.64,0,6.41l57.68,33.31a12.33,12.33,0,0,0,11.1,0l57.69-33.31c3.06-1.76,3.06-4.64,0-6.41Z" transform="translate(-61.86 -52.35)"/><path class="cls-4" d="M462.82,343.49a8.66,8.66,0,0,0-7.84,0l-57.68,33.3c-2.17,1.25-2.17,3.28,0,4.53L455,414.63a8.69,8.69,0,0,0,7.85,0l57.68-33.31c2.16-1.25,2.16-3.28,0-4.53Z" transform="translate(-61.86 -52.35)"/><path class="cls-35" d="M482,384.32a21.69,21.69,0,1,1-21.7-21.67A21.68,21.68,0,0,1,482,384.32Z" transform="translate(-61.86 -52.35)"/><path class="cls-36" d="M482,384.32a21.7,21.7,0,0,1-28.05,20.73,22.3,22.3,0,0,0,2.83.19,21.68,21.68,0,0,0,6.38-42.41A21.7,21.7,0,0,1,482,384.32Z" transform="translate(-61.86 -52.35)"/><path class="cls-36" d="M471.59,394.83a27.38,27.38,0,0,0,1.5-16.12,28.78,28.78,0,0,0-1.5-4.89c1-.2,1.9-.43,2.82-.68a25.75,25.75,0,0,0,3.65-1.25c-.29-.4-.59-.8-.9-1.19a28.69,28.69,0,0,1-3.13,1c-1,.27-2,.51-3,.75a26.6,26.6,0,0,0-2.12-3.66,25.45,25.45,0,0,0-5.76-6h0c-.36-.06-.75-.09-1.1-.12-.54,0-1.08-.06-1.63-.06h-.15a14.62,14.62,0,0,0-1.62.06,6.61,6.61,0,0,0-1.1.12h0a25.45,25.45,0,0,0-5.76,6,26.25,26.25,0,0,0-2.16,3.75,30.79,30.79,0,0,1-6.14-1.85c-.32.39-.62.79-.9,1.19a31.64,31.64,0,0,0,6.44,2,27.75,27.75,0,0,0,0,20.85,32.16,32.16,0,0,0-6.43,2,14.85,14.85,0,0,0,.9,1.19,31.23,31.23,0,0,1,6.14-1.84,25.58,25.58,0,0,0,2.36,3.93,28.35,28.35,0,0,0,5.62,5.8c.34.05.7.08,1.05.11q.81.06,1.62.06h.15q.81,0,1.62-.06a7.48,7.48,0,0,0,1.05-.11,28.35,28.35,0,0,0,5.62-5.8,25.06,25.06,0,0,0,2.32-3.85c1,.21,2.06.46,3.05.75a28,28,0,0,1,3.13,1c.32-.39.62-.79.9-1.19a26.94,26.94,0,0,0-3.64-1.25A29.06,29.06,0,0,0,471.59,394.83Zm.07-15.82a25.84,25.84,0,0,1-1.5,15.53c-1.36-.24-2.75-.42-4.17-.55a61.33,61.33,0,0,0,.54-14.89c-.13-1.5-.31-3-.55-4.44,1.42-.13,2.81-.32,4.17-.56A27.07,27.07,0,0,1,471.66,379Zm-11.39,26.9a26.21,26.21,0,0,1-2.92-6.53,40.67,40.67,0,0,1-1.05-4.08c1.16-.07,2.25-.1,3.32-.11q2.36,0,4.62.12a41.19,41.19,0,0,1-1.05,4.07A26.21,26.21,0,0,1,460.27,405.91Zm-.67-12.17c-1.11,0-2.32.05-3.56.12a59.22,59.22,0,0,1-.55-14.63c.13-1.54.32-3,.56-4.44,1.24.07,2.43.1,3.55.12h.88c1.36,0,2.7-.05,4-.13.24,1.43.43,2.91.56,4.45a59.32,59.32,0,0,1-.55,14.64c-1.59-.11-3.22-.15-4.88-.13Zm.67-31a29.31,29.31,0,0,1,4,10.6c-1.5.1-3,.13-4.61.11-1.05,0-2.16,0-3.31-.1a30.16,30.16,0,0,1,4-10.61Zm7.37,6.89a24.92,24.92,0,0,1,1.84,3.11c-1.24.21-2.5.37-3.79.49a37.39,37.39,0,0,0-2.71-8.64,23.84,23.84,0,0,1,4.68,5Zm-14.74,0a23.73,23.73,0,0,1,4.66-5,36.45,36.45,0,0,0-2.71,8.66c-1.24-.1-2.52-.24-3.82-.44a25.3,25.3,0,0,1,1.88-3.18Zm-4,9.38a27.65,27.65,0,0,1,1.5-4.84c1.42.24,2.84.41,4.19.51-.23,1.43-.41,2.91-.55,4.42a61.59,61.59,0,0,0,.54,14.86c-1.35.11-2.76.28-4.19.52A25.87,25.87,0,0,1,448.91,379Zm4.18,20.17a24.31,24.31,0,0,1-2.05-3.34c1.3-.21,2.57-.34,3.82-.44a42,42,0,0,0,1.11,4.42,37.46,37.46,0,0,0,1.61,4.2,28.16,28.16,0,0,1-4.48-4.84Zm14.38,0A27.88,27.88,0,0,1,463,404a37.46,37.46,0,0,0,1.61-4.2,43.6,43.6,0,0,0,1.12-4.4c1.29.12,2.55.28,3.75.49a24.6,24.6,0,0,1-2,3.27Z" transform="translate(-61.86 -52.35)"/><path class="cls-37" d="M483.21,389.8H437.36a1.07,1.07,0,0,1-1.07-1.07v-6.52a1.07,1.07,0,0,1,1.07-1.08h45.85a1.08,1.08,0,0,1,1.08,1.08v6.52a1.08,1.08,0,0,1-1.08,1.07Z" transform="translate(-61.86 -52.35)"/><path class="cls-38" d="M441.63,386.8c0,.09-.15.21-.34.21s-.33-.12-.33-.21v-3.5c0-.13.13-.21.33-.21s.34.08.34.21v1.59a.69.69,0,0,1,.65-.39,1,1,0,0,1,.9,1.05v1.23c0,.14-.18.22-.34.22s-.33-.08-.33-.22v-1.23a.48.48,0,0,0-.46-.46.44.44,0,0,0-.42.46h0Z" transform="translate(-61.86 -52.35)"/><path class="cls-38" d="M444.66,386.17c0,.2.07.27.29.27h.2a.28.28,0,0,1,.29.28.29.29,0,0,1-.29.29H445c-.63,0-1-.26-1-.84v-2.52c0-.13.18-.21.34-.21s.34.08.34.21v.89h.61c.11,0,.17.13.17.24s-.06.25-.17.25h-.61Z" transform="translate(-61.86 -52.35)"/><path class="cls-38" d="M446.77,386.17c0,.2.07.27.29.27h.21a.28.28,0,0,1,.28.28.29.29,0,0,1-.28.29h-.21c-.63,0-1-.26-1-.84v-2.52c0-.13.18-.21.33-.21s.34.08.34.21v.89h.62c.1,0,.16.13.16.24s-.06.25-.16.25h-.62Z" transform="translate(-61.86 -52.35)"/><path class="cls-38" d="M448.86,384.75v.15a.81.81,0,0,1,.69-.39,1,1,0,0,1,1,1V386a1,1,0,0,1-.91,1.06.73.73,0,0,1-.68-.41v1.31c0,.1-.16.21-.34.21s-.33-.11-.33-.21v-3.2c0-.13.14-.21.32-.21S448.86,384.62,448.86,384.75Zm1,.81a.5.5,0,0,0-.48-.47.47.47,0,0,0-.45.47h0v.52a.52.52,0,0,0,.46.39.49.49,0,0,0,.46-.48Z" transform="translate(-61.86 -52.35)"/><path class="cls-38" d="M452.39,386.3c0-.45-1.23-.16-1.23-1,0-.37.23-.75.93-.75.42,0,.82.14.82.33s-.08.33-.24.33-.28-.15-.57-.15-.37.12-.37.23c0,.37,1.25.12,1.25,1,0,.47-.34.75-1,.75s-.94-.22-.94-.44.09-.3.22-.3.27.23.7.23S452.39,386.42,452.39,386.3Z" transform="translate(-61.86 -52.35)"/><path class="cls-38" d="M454.36,385.17a.35.35,0,0,1-.35.35.35.35,0,1,1,0-.7h0A.35.35,0,0,1,454.36,385.17Zm0,1.5a.35.35,0,0,1-.35.35.35.35,0,1,1,0-.7h0a.35.35,0,0,1,.34.36h0Z" transform="translate(-61.86 -52.35)"/><path class="cls-38" d="M457.33,383.23a.14.14,0,0,1,0,.09l-1.87,3.75a.2.2,0,0,1-.2.12A.24.24,0,0,1,455,387h0v-.09l1.87-3.79a.23.23,0,0,1,.19-.1.25.25,0,0,1,.26.23Z" transform="translate(-61.86 -52.35)"/><path class="cls-38" d="M458.9,383.23v.09L457,387.07a.2.2,0,0,1-.2.12.24.24,0,0,1-.25-.23h0a.14.14,0,0,1,0-.09l1.86-3.79a.23.23,0,0,1,.19-.1.26.26,0,0,1,.27.22Z" transform="translate(-61.86 -52.35)"/><path class="cls-38" d="M461.9,387a.3.3,0,0,1-.26.12.31.31,0,0,1-.28-.12l-.4-1.14-.4,1.13c0,.08-.15.13-.28.13a.26.26,0,0,1-.26-.13l-.8-2.06a.14.14,0,0,1,0-.09c0-.16.26-.28.44-.28a.19.19,0,0,1,.19.11l.52,1.5.39-1.28c0-.12.13-.14.23-.14s.19,0,.22.14l.39,1.28.53-1.5a.19.19,0,0,1,.19-.11c.16,0,.43.12.43.28a.14.14,0,0,1,0,.09Z" transform="translate(-61.86 -52.35)"/><path class="cls-38" d="M465.81,387a.3.3,0,0,1-.26.12.31.31,0,0,1-.28-.12l-.39-1.14-.4,1.13c0,.08-.16.13-.29.13a.28.28,0,0,1-.26-.13l-.8-2.06a.14.14,0,0,1,0-.09c0-.16.26-.28.43-.28a.21.21,0,0,1,.2.11l.52,1.5.38-1.28c0-.12.13-.14.24-.14s.18,0,.22.14l.38,1.28.53-1.5a.2.2,0,0,1,.2-.11c.16,0,.42.12.42.28a.14.14,0,0,1,0,.09Z" transform="translate(-61.86 -52.35)"/><path class="cls-38" d="M469.73,387a.36.36,0,0,1-.51,0l0,0-.41-1.14-.39,1.13a.32.32,0,0,1-.29.13.28.28,0,0,1-.26-.13l-.82-2.06a.14.14,0,0,1,0-.09c0-.16.26-.28.43-.28a.19.19,0,0,1,.2.11l.52,1.5.39-1.28c0-.12.12-.14.22-.14s.2,0,.23.14l.39,1.28.52-1.5a.21.21,0,0,1,.2-.11c.16,0,.43.12.43.28v.09Z" transform="translate(-61.86 -52.35)"/><path class="cls-39" d="M483.21,389.83h-8.42v-8.78h8.42a1.07,1.07,0,0,1,1.07,1.07v6.66A1.06,1.06,0,0,1,483.21,389.83Z" transform="translate(-61.86 -52.35)"/><path class="cls-40" d="M483.21,389.8h-1.3v-8.67h1.3a1.07,1.07,0,0,1,1.07,1.08v6.52a1.07,1.07,0,0,1-1.07,1.07Z" transform="translate(-61.86 -52.35)"/><path id="nd-2" class="cls-2" d="M475.32,385v.67a4.17,4.17,0,0,0,0,.5v.18a1.63,1.63,0,0,0,.18.43,1.72,1.72,0,0,0,.41.44l2,1.5v-.94a1.93,1.93,0,0,0,0-.34,1.62,1.62,0,0,0-.23-.56l-.07-.1a1,1,0,0,0-.24-.23Z" transform="translate(-61.86 -52.35)"/><path id="nx-2" class="cls-2" d="M475.34,382.05a9.4,9.4,0,0,0,0,1.3,1.63,1.63,0,0,0,.1.57,1.59,1.59,0,0,0,.3.54h0l.21.22,5.36,4V387a1.86,1.86,0,0,0-.24-.54,2.42,2.42,0,0,0-.36-.43C480.31,385.77,478.23,384.19,475.34,382.05Z" transform="translate(-61.86 -52.35)"/><path id="nu-2" class="cls-2" d="M478.65,382v.67a2.44,2.44,0,0,0,0,.54,1.35,1.35,0,0,0,.2.57,1.3,1.3,0,0,0,.41.43l2,1.5v-.87a1.34,1.34,0,0,0,0-.4,1.62,1.62,0,0,0-.23-.56l-.07-.1a.76.76,0,0,0-.24-.23Z" transform="translate(-61.86 -52.35)"/></g></g></svg>