<svg xmlns="http://www.w3.org/2000/svg" xmlns:xlink="http://www.w3.org/1999/xlink" viewBox="0 0 437.62 305.57"><defs><style>.cls-1,.cls-62{isolation:isolate;}.cls-2{opacity:0.15;}.cls-3{fill:#2c75e4;}.cls-16,.cls-17,.cls-18,.cls-19,.cls-20,.cls-4,.cls-5{fill:#6ee8fc;}.cls-4{opacity:0.3;}.cls-6{fill:#59d5e2;}.cls-7{fill:url(#Áåçûìÿííûé_ãðàäèåíò_388);}.cls-8{fill:#0c0f38;}.cls-17,.cls-8{opacity:0.6;}.cls-9{fill:url(#New_Gradient_Swatch_1);}.cls-10{fill:#d4088c;}.cls-11{fill:url(#Áåçûìÿííûé_ãðàäèåíò_300);}.cls-12{fill:#6de0f6;}.cls-13{fill:#18d0f7;}.cls-14{fill:#25bfec;}.cls-15{fill:#267fe5;}.cls-16{opacity:0.8;}.cls-18{opacity:0.4;}.cls-19{opacity:0.2;}.cls-20{opacity:0.1;}.cls-21,.cls-30,.cls-34,.cls-38,.cls-42,.cls-46{opacity:0.25;mix-blend-mode:lighten;}.cls-21{fill:url(#linear-gradient);}.cls-22{fill:url(#Áåçûìÿííûé_ãðàäèåíò_388-2);}.cls-23{fill:url(#New_Gradient_Swatch_1-2);}.cls-24{fill:url(#Áåçûìÿííûé_ãðàäèåíò_300-2);}.cls-25{fill:url(#Áåçûìÿííûé_ãðàäèåíò_300-3);}.cls-26{fill:url(#New_Gradient_Swatch_1-3);}.cls-27{fill:url(#Áåçûìÿííûé_ãðàäèåíò_300-4);}.cls-28{fill:url(#New_Gradient_Swatch_1-4);}.cls-29{fill:url(#Áåçûìÿííûé_ãðàäèåíò_300-5);}.cls-30{fill:url(#linear-gradient-2);}.cls-31{fill:url(#Áåçûìÿííûé_ãðàäèåíò_388-3);}.cls-32{fill:url(#New_Gradient_Swatch_1-5);}.cls-33{fill:url(#Áåçûìÿííûé_ãðàäèåíò_300-6);}.cls-34{fill:url(#linear-gradient-3);}.cls-35{fill:url(#Áåçûìÿííûé_ãðàäèåíò_388-4);}.cls-36{fill:url(#New_Gradient_Swatch_1-6);}.cls-37{fill:url(#Áåçûìÿííûé_ãðàäèåíò_300-7);}.cls-38{fill:url(#linear-gradient-4);}.cls-39{fill:url(#Áåçûìÿííûé_ãðàäèåíò_388-5);}.cls-40{fill:url(#New_Gradient_Swatch_1-7);}.cls-41{fill:url(#Áåçûìÿííûé_ãðàäèåíò_300-8);}.cls-42{fill:url(#linear-gradient-5);}.cls-43{fill:url(#Áåçûìÿííûé_ãðàäèåíò_388-6);}.cls-44{fill:url(#New_Gradient_Swatch_1-8);}.cls-45{fill:url(#Áåçûìÿííûé_ãðàäèåíò_300-9);}.cls-46{fill:url(#linear-gradient-6);}.cls-47{fill:#4caf50;}.cls-48{fill:#f44336;}.cls-49{fill:#2196f3;}.cls-50{fill:#ffc107;}.cls-51{fill:#fff;}.cls-52{fill:#e69629;}.cls-53{fill:#3ca566;}.cls-54{fill:#fafafa;}.cls-55{fill:#a2a8aa;}.cls-56{fill:#80e0dc;}.cls-57{fill:#00a8b0;}.cls-58{fill:#e7e7e7;}.cls-59{fill:#5a5a5a;}.cls-60{fill:#c9f0ff;}.cls-61{fill:#9ae7fd;}.cls-62{fill:#1852b7;opacity:0.75;}</style><linearGradient id="Áåçûìÿííûé_ãðàäèåíò_388" x1="157.72" y1="148.63" x2="240.43" y2="148.63" gradientUnits="userSpaceOnUse"><stop offset="0" stop-color="#d4088c"/><stop offset="0.23" stop-color="#d4088c"/><stop offset="0.51" stop-color="#6ee1f8"/><stop offset="0.78" stop-color="#6ee8fc"/><stop offset="1" stop-color="#6ee8fc"/></linearGradient><linearGradient id="New_Gradient_Swatch_1" x1="-95.38" y1="138.35" x2="-13.12" y2="138.35" gradientTransform="translate(253.32)" gradientUnits="userSpaceOnUse"><stop offset="0" stop-color="#a31fa9"/><stop offset="0.07" stop-color="#8b17a0"/><stop offset="0.15" stop-color="#740f98"/><stop offset="0.24" stop-color="#640a92"/><stop offset="0.34" stop-color="#5b078f"/><stop offset="0.48" stop-color="#58068e"/><stop offset="0.63" stop-color="#4d22a3"/><stop offset="0.94" stop-color="#3168da"/><stop offset="1" stop-color="#2c75e4"/></linearGradient><linearGradient id="Áåçûìÿííûé_ãðàäèåíò_300" x1="149.11" y1="934.15" x2="216.28" y2="934.15" gradientTransform="matrix(0.87, 0.5, -0.87, 0.5, 831.36, -480)" gradientUnits="userSpaceOnUse"><stop offset="0" stop-color="#8d139b"/><stop offset="0.17" stop-color="#851ba1"/><stop offset="0.43" stop-color="#6e33b2"/><stop offset="0.76" stop-color="#4958cd"/><stop offset="1" stop-color="#2979e4"/></linearGradient><linearGradient id="linear-gradient" x1="199.05" y1="140.06" x2="199.05" y2="46.47" gradientUnits="userSpaceOnUse"><stop offset="0.01" stop-color="#267fe5"/><stop offset="0.22" stop-color="#267fe5" stop-opacity="0.7"/><stop offset="0.42" stop-color="#267fe5" stop-opacity="0.45"/><stop offset="0.61" stop-color="#267fe5" stop-opacity="0.26"/><stop offset="0.77" stop-color="#267fe5" stop-opacity="0.12"/><stop offset="0.91" stop-color="#267fe5" stop-opacity="0.03"/><stop offset="1" stop-color="#267fe5" stop-opacity="0"/></linearGradient><linearGradient id="Áåçûìÿííûé_ãðàäèåíò_388-2" x1="213.63" y1="210.79" x2="293.32" y2="210.79" xlink:href="#Áåçûìÿííûé_ãðàäèåíò_388"/><linearGradient id="New_Gradient_Swatch_1-2" x1="214.65" y1="187.18" x2="292.31" y2="187.18" gradientTransform="matrix(1, 0, 0, 1, 0, 0)" xlink:href="#New_Gradient_Swatch_1"/><linearGradient id="Áåçûìÿííûé_ãðàäèåíò_300-2" x1="338.29" y1="807.13" x2="381.26" y2="807.13" gradientTransform="matrix(0.87, 0.5, -0.87, 0.5, 622.43, -461.93)" xlink:href="#Áåçûìÿííûé_ãðàäèåíò_300"/><linearGradient id="Áåçûìÿííûé_ãðàäèåíò_300-3" x1="346.24" y1="807.13" x2="373.31" y2="807.13" gradientTransform="matrix(0.87, 0.5, -0.87, 0.5, 622.43, -461.93)" xlink:href="#Áåçûìÿííûé_ãðàäèåíò_300"/><linearGradient id="New_Gradient_Swatch_1-3" x1="227.67" y1="151.95" x2="279.54" y2="151.95" gradientTransform="matrix(1, 0, 0, 1, 0, 0)" xlink:href="#New_Gradient_Swatch_1"/><linearGradient id="Áåçûìÿííûé_ãðàäèåíò_300-4" x1="357.85" y1="774.98" x2="400.2" y2="774.98" gradientTransform="matrix(0.87, 0.5, -0.87, 0.5, 578.04, -480)" xlink:href="#Áåçûìÿííûé_ãðàäèåíò_300"/><linearGradient id="New_Gradient_Swatch_1-4" x1="227.67" y1="133.01" x2="279.54" y2="133.01" gradientTransform="matrix(1, 0, 0, 1, 0, 0)" xlink:href="#New_Gradient_Swatch_1"/><linearGradient id="Áåçûìÿííûé_ãðàäèåíò_300-5" x1="338.91" y1="756.04" x2="381.25" y2="756.04" gradientTransform="matrix(0.87, 0.5, -0.87, 0.5, 578.04, -480)" xlink:href="#Áåçûìÿííûé_ãðàäèåíò_300"/><linearGradient id="linear-gradient-2" x1="253.59" y1="139.27" x2="253.59" y2="52.37" xlink:href="#linear-gradient"/><linearGradient id="Áåçûìÿííûé_ãðàäèåíò_388-3" x1="93.39" y1="220.99" x2="176.09" y2="220.99" xlink:href="#Áåçûìÿííûé_ãðàäèåíò_388"/><linearGradient id="New_Gradient_Swatch_1-5" x1="-159.71" y1="210.71" x2="-77.46" y2="210.71" xlink:href="#New_Gradient_Swatch_1"/><linearGradient id="Áåçûìÿííûé_ãðàäèåíò_300-6" x1="184.33" y1="1043.65" x2="251.49" y2="1043.65" xlink:href="#Áåçûìÿííûé_ãðàäèåíò_300"/><linearGradient id="linear-gradient-3" x1="134.72" y1="212.42" x2="134.72" y2="118.82" xlink:href="#linear-gradient"/><linearGradient id="Áåçûìÿííûé_ãðàäèåíò_388-4" x1="193.59" y1="278.74" x2="276.3" y2="278.74" xlink:href="#Áåçûìÿííûé_ãðàäèåíò_388"/><linearGradient id="New_Gradient_Swatch_1-6" x1="-59.5" y1="268.46" x2="22.75" y2="268.46" xlink:href="#New_Gradient_Swatch_1"/><linearGradient id="Áåçûìÿííûé_ãðàäèåíò_300-7" x1="299.93" y1="1043.54" x2="367.1" y2="1043.54" xlink:href="#Áåçûìÿííûé_ãðàäèåíò_300"/><linearGradient id="linear-gradient-4" x1="234.93" y1="270.17" x2="234.93" y2="176.58" xlink:href="#linear-gradient"/><linearGradient id="Áåçûìÿííûé_ãðàäèåíò_388-5" x1="297.43" y1="161.33" x2="380.14" y2="161.33" xlink:href="#Áåçûìÿííûé_ãðàäèåíò_388"/><linearGradient id="New_Gradient_Swatch_1-7" x1="44.33" y1="151.05" x2="126.59" y2="151.05" xlink:href="#New_Gradient_Swatch_1"/><linearGradient id="Áåçûìÿííûé_ãðàäèåíò_300-8" x1="242.48" y1="866.18" x2="309.64" y2="866.18" xlink:href="#Áåçûìÿííûé_ãðàäèåíò_300"/><linearGradient id="linear-gradient-5" x1="338.76" y1="152.76" x2="338.76" y2="59.16" xlink:href="#linear-gradient"/><linearGradient id="Áåçûìÿííûé_ãðàäèåíò_388-6" x1="319.86" y1="241.68" x2="402.56" y2="241.68" xlink:href="#Áåçûìÿííûé_ãðàäèåíò_388"/><linearGradient id="New_Gradient_Swatch_1-8" x1="66.76" y1="231.39" x2="149.01" y2="231.39" xlink:href="#New_Gradient_Swatch_1"/><linearGradient id="Áåçûìÿííûé_ãðàäèåíò_300-9" x1="335.77" y1="933.58" x2="402.94" y2="933.58" xlink:href="#Áåçûìÿííûé_ãðàäèåíò_300"/><linearGradient id="linear-gradient-6" x1="361.19" y1="233.11" x2="361.19" y2="139.51" xlink:href="#linear-gradient"/></defs><title>wallet</title><g class="cls-1"><g id="Layer_1" data-name="Layer 1"><g class="cls-2"><path class="cls-3" d="M256.53,215.48a6.39,6.39,0,0,1-3.16-.74l-10.08-5.82a2.46,2.46,0,0,1-1.41-2.11,3.23,3.23,0,0,1,1.89-2.61l43.15-24.92a7.9,7.9,0,0,1,7.19-.28l10.08,5.82a2.49,2.49,0,0,1,1.41,2.11,3.24,3.24,0,0,1-1.89,2.62l-43.15,24.92A8.28,8.28,0,0,1,256.53,215.48ZM291,179.27a7.3,7.3,0,0,0-3.55.88l-43.15,24.91c-.88.51-1.39,1.15-1.39,1.75a1.57,1.57,0,0,0,.91,1.25l10.08,5.82a7,7,0,0,0,6.19-.28l43.15-24.91c.88-.51,1.39-1.15,1.39-1.76a1.55,1.55,0,0,0-.91-1.24l-10.08-5.82A5.39,5.39,0,0,0,291,179.27Z" transform="translate(-18.47 -46.47)"/><path class="cls-3" d="M143,206a6.36,6.36,0,0,1-3.16-.74l-6.62-3.82a2.47,2.47,0,0,1-1.4-2.11,3.24,3.24,0,0,1,1.88-2.62l21.45-12.38a7.87,7.87,0,0,1,7.19-.27l6.61,3.81a2.49,2.49,0,0,1,1.41,2.11,3.24,3.24,0,0,1-1.89,2.62L147,205A8.18,8.18,0,0,1,143,206Zm16.19-21.67a7.28,7.28,0,0,0-3.54.87l-21.45,12.38c-.88.51-1.38,1.15-1.38,1.75a1.56,1.56,0,0,0,.9,1.25l6.62,3.81a7,7,0,0,0,6.19-.27L168,191.74c.88-.51,1.39-1.15,1.39-1.76a1.57,1.57,0,0,0-.91-1.24l-6.61-3.82A5.46,5.46,0,0,0,159.2,184.33Z" transform="translate(-18.47 -46.47)"/><path class="cls-3" d="M332.33,297a7.27,7.27,0,0,1-3.58-.87L299.18,279l.5-.87,29.57,17.07a6.84,6.84,0,0,0,6.17,0L454,226.79a1.55,1.55,0,0,0,0-3L242.41,101.67a6.84,6.84,0,0,0-6.17,0l-47.88,27.64a1.87,1.87,0,0,0-1.13,1.49,1.9,1.9,0,0,0,1.13,1.5L231,156.94a6.84,6.84,0,0,0,6.17,0l21.84-12.61a7.82,7.82,0,0,1,7.17,0l71.71,41.4a2.52,2.52,0,0,1,0,4.72l-115.35,66.6a7.82,7.82,0,0,1-7.17,0L94.35,187.15a2.52,2.52,0,0,1,0-4.72l60.19-34.75a7.82,7.82,0,0,1,7.17,0L231.49,188a2.52,2.52,0,0,1,0,4.71L201,210.31l-.5-.86L231,191.82a1.55,1.55,0,0,0,0-3l-69.78-40.28a6.81,6.81,0,0,0-6.17,0L94.85,183.3a1.87,1.87,0,0,0-1.13,1.49,1.9,1.9,0,0,0,1.13,1.5l121.06,69.89a6.84,6.84,0,0,0,6.17,0l115.35-66.6a1.55,1.55,0,0,0,0-3l-71.71-41.4a6.78,6.78,0,0,0-6.17,0l-21.84,12.6a7.82,7.82,0,0,1-7.17,0l-42.68-24.64a2.52,2.52,0,0,1,0-4.72l47.88-27.64a7.82,7.82,0,0,1,7.17,0L454.45,222.94a2.52,2.52,0,0,1,0,4.71L335.92,296.09A7.34,7.34,0,0,1,332.33,297Z" transform="translate(-18.47 -46.47)"/><path class="cls-3" d="M315.13,261.72,301.77,254a2.52,2.52,0,0,1,0-4.72l69.05-39.86a7.79,7.79,0,0,1,7.17,0l9.78,5.64a2.52,2.52,0,0,1,0,4.72Zm56.19-51.44-69.05,39.87a1.55,1.55,0,0,0,0,3l12.86,7.43,72.14-41.64a1.9,1.9,0,0,0,1.13-1.5,1.87,1.87,0,0,0-1.13-1.49l-9.78-5.65a6.84,6.84,0,0,0-6.17,0Z" transform="translate(-18.47 -46.47)"/><path class="cls-3" d="M186.84,325.09a7.34,7.34,0,0,1-3.59-.87L20.1,230a2.52,2.52,0,0,1,0-4.72l19.13-11a7.82,7.82,0,0,1,7.17,0L72,229a2.52,2.52,0,0,1,0,4.72L62.85,239a1.87,1.87,0,0,0-1.13,1.49,1.9,1.9,0,0,0,1.13,1.5l115.58,66.72a6.9,6.9,0,0,0,6.17,0l7.85-4.52a1.55,1.55,0,0,0,0-3l-103-59.47a2.52,2.52,0,0,1,0-4.71l20.42-11.8a1.55,1.55,0,0,0,0-3l-41.5-24,.5-.87,41.5,24a2.52,2.52,0,0,1,0,4.72L90,237.9a1.55,1.55,0,0,0,0,3l103,59.46a2.52,2.52,0,0,1,0,4.72l-7.85,4.53a7.82,7.82,0,0,1-7.17,0L62.35,242.87a2.52,2.52,0,0,1,0-4.72l9.14-5.27a1.87,1.87,0,0,0,1.13-1.49,1.9,1.9,0,0,0-1.13-1.5L45.9,215.12a6.84,6.84,0,0,0-6.17,0l-19.13,11a1.55,1.55,0,0,0,0,3l163.15,94.2a6.86,6.86,0,0,0,6.18,0l93.77-54.14.5.87-93.77,54.14A7.34,7.34,0,0,1,186.84,325.09Z" transform="translate(-18.47 -46.47)"/><path class="cls-3" d="M199,291.31a6.4,6.4,0,0,1-3.17-.74l-81.2-46.88a2.46,2.46,0,0,1-1.41-2.11,3.24,3.24,0,0,1,1.89-2.62l18-10.4a7.84,7.84,0,0,1,7.19-.28l81.2,46.88a2.46,2.46,0,0,1,1.41,2.11,3.24,3.24,0,0,1-1.89,2.62l-18,10.41A8.24,8.24,0,0,1,199,291.31Zm-2.67-1.6a7,7,0,0,0,6.19-.28l18-10.41c.88-.51,1.39-1.14,1.39-1.75a1.57,1.57,0,0,0-.91-1.24l-81.2-46.89a7,7,0,0,0-6.19.28l-18,10.41c-.88.51-1.39,1.15-1.39,1.75a1.54,1.54,0,0,0,.91,1.24Z" transform="translate(-18.47 -46.47)"/><path class="cls-3" d="M236.94,352a7.34,7.34,0,0,1-3.59-.87l-31.87-18.4a2.52,2.52,0,0,1,0-4.72L275,285.58a7.82,7.82,0,0,1,7.17,0l12.6,7.28a2.52,2.52,0,0,1,0,4.72L243.3,327.31l-.5-.87,51.49-29.73a1.87,1.87,0,0,0,1.13-1.49,1.9,1.9,0,0,0-1.13-1.5l-12.6-7.27a6.9,6.9,0,0,0-6.17,0L202,328.91a1.87,1.87,0,0,0-1.13,1.49,1.9,1.9,0,0,0,1.13,1.5l31.87,18.4a6.84,6.84,0,0,0,6.17,0l79.14-45.69.5.86-79.14,45.69A7.27,7.27,0,0,1,236.94,352Z" transform="translate(-18.47 -46.47)"/><path class="cls-3" d="M158.9,172.94a6.39,6.39,0,0,1-3.16-.74l-6.61-3.81a2.49,2.49,0,0,1-1.41-2.11,3.23,3.23,0,0,1,1.89-2.62l5.65-3.26a7.84,7.84,0,0,1,7.19-.28l6.61,3.82a2.46,2.46,0,0,1,1.41,2.1,3.23,3.23,0,0,1-1.89,2.62l-5.65,3.27A8.28,8.28,0,0,1,158.9,172.94Zm.4-12.55a7.39,7.39,0,0,0-3.54.87l-5.65,3.26c-.88.51-1.39,1.15-1.39,1.76a1.55,1.55,0,0,0,.91,1.24l6.61,3.82a7,7,0,0,0,6.19-.28l5.65-3.26c.88-.51,1.39-1.15,1.39-1.75a1.55,1.55,0,0,0-.91-1.25L162,161A5.41,5.41,0,0,0,159.3,160.39Z" transform="translate(-18.47 -46.47)"/><path class="cls-3" d="M179.58,184.88a6.39,6.39,0,0,1-3.16-.74l-6.61-3.81a2.49,2.49,0,0,1-1.41-2.11,3.23,3.23,0,0,1,1.89-2.62l5.65-3.26a7.84,7.84,0,0,1,7.19-.28l6.61,3.82a2.46,2.46,0,0,1,1.41,2.11,3.23,3.23,0,0,1-1.89,2.61l-5.65,3.27A8.28,8.28,0,0,1,179.58,184.88Zm.4-12.55a7.28,7.28,0,0,0-3.54.87l-5.65,3.26c-.88.51-1.39,1.15-1.39,1.76a1.55,1.55,0,0,0,.91,1.24l6.61,3.82a7,7,0,0,0,6.19-.28l5.65-3.26c.88-.51,1.39-1.15,1.39-1.75a1.55,1.55,0,0,0-.91-1.25l-6.61-3.82A5.41,5.41,0,0,0,180,172.33Z" transform="translate(-18.47 -46.47)"/><path class="cls-3" d="M200.27,196.82a6.4,6.4,0,0,1-3.17-.74l-6.61-3.81a2.49,2.49,0,0,1-1.41-2.11,3.24,3.24,0,0,1,1.89-2.62l5.65-3.26a7.84,7.84,0,0,1,7.19-.28l6.61,3.82a2.46,2.46,0,0,1,1.41,2.11,3.23,3.23,0,0,1-1.89,2.61l-5.65,3.27A8.27,8.27,0,0,1,200.27,196.82Zm.4-12.55a7.29,7.29,0,0,0-3.55.87l-5.65,3.26c-.88.51-1.39,1.15-1.39,1.76a1.57,1.57,0,0,0,.91,1.24l6.61,3.82a7,7,0,0,0,6.19-.28l5.65-3.26c.88-.51,1.39-1.15,1.39-1.75a1.55,1.55,0,0,0-.91-1.25l-6.61-3.82A5.39,5.39,0,0,0,200.67,184.27Z" transform="translate(-18.47 -46.47)"/><path class="cls-3" d="M138.12,184.94a6.39,6.39,0,0,1-3.16-.74l-6.61-3.81a2.49,2.49,0,0,1-1.41-2.11,3.23,3.23,0,0,1,1.89-2.62l5.65-3.27a7.87,7.87,0,0,1,7.19-.27l6.61,3.82a2.46,2.46,0,0,1,1.41,2.1,3.23,3.23,0,0,1-1.89,2.62l-5.65,3.27A8.28,8.28,0,0,1,138.12,184.94Zm-2.66-1.6a7,7,0,0,0,6.19-.28l5.65-3.26c.88-.51,1.39-1.15,1.39-1.76a1.57,1.57,0,0,0-.91-1.24L141.17,173a7,7,0,0,0-6.19.28l-5.65,3.26c-.89.51-1.39,1.15-1.39,1.76a1.55,1.55,0,0,0,.91,1.24Z" transform="translate(-18.47 -46.47)"/><path class="cls-3" d="M179.48,208.82a6.39,6.39,0,0,1-3.16-.74l-6.61-3.82a2.46,2.46,0,0,1-1.41-2.11,3.23,3.23,0,0,1,1.89-2.61l5.65-3.27A7.87,7.87,0,0,1,183,196l6.61,3.81a2.49,2.49,0,0,1,1.41,2.11,3.23,3.23,0,0,1-1.89,2.62l-5.65,3.26A8.18,8.18,0,0,1,179.48,208.82Zm.4-12.55a7.28,7.28,0,0,0-3.54.87l-5.65,3.26c-.89.51-1.39,1.15-1.39,1.75a1.55,1.55,0,0,0,.91,1.25l6.61,3.82a7,7,0,0,0,6.19-.28l5.65-3.26c.88-.51,1.39-1.15,1.39-1.76a1.57,1.57,0,0,0-.91-1.24l-6.61-3.82A5.43,5.43,0,0,0,179.88,196.27Z" transform="translate(-18.47 -46.47)"/></g><path class="cls-4" d="M163.48,327.9a16.46,16.46,0,0,1-8.08-2L69.08,276.18c-2.57-1.48-4-3.67-4-6s1.47-4.53,4-6l37.15-21.45a2.33,2.33,0,1,1,2.33,4L71.41,268.2c-1.07.61-1.7,1.35-1.7,2s.63,1.36,1.7,2l86.32,49.76a12.92,12.92,0,0,0,11.5,0l37.15-21.45a2.34,2.34,0,0,1,2.33,4.05l-37.15,21.44A16.41,16.41,0,0,1,163.48,327.9Z" transform="translate(-18.47 -46.47)"/><path class="cls-5" d="M163.48,326a14.56,14.56,0,0,1-7.14-1.71L70,274.57c-2-1.16-3.1-2.72-3.1-4.4s1.1-3.24,3.1-4.39l37.14-21.45.47.81L70.47,266.58c-1.69,1-2.63,2.26-2.63,3.59s.94,2.61,2.63,3.59l86.33,49.76a14.77,14.77,0,0,0,13.36,0l37.15-21.45.47.81-37.15,21.44A14.6,14.6,0,0,1,163.48,326Z" transform="translate(-18.47 -46.47)"/><path class="cls-6" d="M96.47,251a2.1,2.1,0,1,1,2.87.76A2.1,2.1,0,0,1,96.47,251Z" transform="translate(-18.47 -46.47)"/><path class="cls-6" d="M85.55,257.34a2.1,2.1,0,1,1,2.87.76A2.1,2.1,0,0,1,85.55,257.34Z" transform="translate(-18.47 -46.47)"/><path class="cls-6" d="M74.64,263.64a2.1,2.1,0,1,1,2.86.76A2.09,2.09,0,0,1,74.64,263.64Z" transform="translate(-18.47 -46.47)"/><path class="cls-6" d="M68.16,272.38a1.54,1.54,0,0,1-1.63.19,2.18,2.18,0,0,1-.8-.7,2.69,2.69,0,0,1-.42-1.24,2.65,2.65,0,0,1,.21-1.3,2.1,2.1,0,0,1,.69-.84,1.49,1.49,0,0,1,1.64-.05A4.22,4.22,0,0,1,69,269.51a2.18,2.18,0,0,1,.5.77.86.86,0,0,1-.1.36,4.16,4.16,0,0,1-.26.52A3.73,3.73,0,0,1,68.16,272.38Z" transform="translate(-18.47 -46.47)"/><path class="cls-6" d="M78.77,279.08a2.1,2.1,0,1,1-.77-2.86A2.1,2.1,0,0,1,78.77,279.08Z" transform="translate(-18.47 -46.47)"/><path class="cls-6" d="M89.69,285.38a2.1,2.1,0,1,1-.77-2.87A2.09,2.09,0,0,1,89.69,285.38Z" transform="translate(-18.47 -46.47)"/><path class="cls-6" d="M100.61,291.67a2.1,2.1,0,1,1-.77-2.86A2.1,2.1,0,0,1,100.61,291.67Z" transform="translate(-18.47 -46.47)"/><path class="cls-6" d="M111.54,298a2.11,2.11,0,1,1-.78-2.87A2.1,2.1,0,0,1,111.54,298Z" transform="translate(-18.47 -46.47)"/><path class="cls-6" d="M122.46,304.26a2.1,2.1,0,1,1-.78-2.86A2.1,2.1,0,0,1,122.46,304.26Z" transform="translate(-18.47 -46.47)"/><path class="cls-6" d="M133.38,310.55a2.1,2.1,0,1,1-.78-2.86A2.1,2.1,0,0,1,133.38,310.55Z" transform="translate(-18.47 -46.47)"/><path class="cls-6" d="M144.3,316.85a2.1,2.1,0,1,1-.78-2.86A2.1,2.1,0,0,1,144.3,316.85Z" transform="translate(-18.47 -46.47)"/><path class="cls-6" d="M155.22,323.14a2.1,2.1,0,1,1-.78-2.86A2.1,2.1,0,0,1,155.22,323.14Z" transform="translate(-18.47 -46.47)"/><path class="cls-6" d="M167.31,325.12a2.1,2.1,0,1,1-4.17.45,2.1,2.1,0,0,1,4.17-.45Z" transform="translate(-18.47 -46.47)"/><path class="cls-6" d="M178.43,319.28a2.1,2.1,0,1,1-2.86-.76A2.1,2.1,0,0,1,178.43,319.28Z" transform="translate(-18.47 -46.47)"/><path class="cls-6" d="M189.35,313a2.1,2.1,0,1,1-2.87-.76A2.1,2.1,0,0,1,189.35,313Z" transform="translate(-18.47 -46.47)"/><path class="cls-6" d="M200.27,306.68a2.1,2.1,0,1,1-2.87-.77A2.1,2.1,0,0,1,200.27,306.68Z" transform="translate(-18.47 -46.47)"/><path class="cls-4" d="M252.41,241.82c-10.25,0-20-2.07-27.36-6.3h0l-9.53-5.5c-7.48-4.32-11.6-10.41-11.6-17.15,0-8,5.8-15.87,15.93-21.72,18.48-10.66,46.59-11.79,62.66-2.5l9.54,5.5c7.48,4.32,11.6,10.41,11.6,17.15,0,8-5.81,15.87-15.94,21.72S264.7,241.82,252.41,241.82ZM255.15,187c-11.44,0-23.53,2.79-33,8.24-8.65,5-13.61,11.44-13.61,17.68,0,5,3.29,9.66,9.27,13.11l9.53,5.5c14.8,8.55,40.82,7.42,58-2.5C294,224,299,217.54,299,211.3c0-5-3.3-9.66-9.28-13.11l-9.53-5.5C273.51,188.84,264.55,187,255.15,187Z" transform="translate(-18.47 -46.47)"/><path class="cls-5" d="M252.41,240c-9.91,0-19.37-2-26.42-6.07l-9.53-5.51c-6.89-4-10.68-9.49-10.68-15.53,0-7.27,5.47-14.6,15-20.1,18-10.37,45.23-11.49,60.79-2.5l9.53,5.5c6.88,4,10.68,9.49,10.68,15.53,0,7.27-5.47,14.6-15,20.11C277,237.07,264.36,240,252.41,240Zm2.74-54.87c-11.78,0-24.21,2.87-33.9,8.46-9.24,5.34-14.54,12.37-14.54,19.3,0,5.7,3.63,10.93,10.21,14.73l9.53,5.5c15.31,8.84,42.17,7.72,59.87-2.5,9.23-5.33,14.53-12.37,14.53-19.3,0-5.7-3.62-10.93-10.2-14.73l-9.53-5.5C274.19,187.07,264.89,185.11,255.15,185.11Z" transform="translate(-18.47 -46.47)"/><path class="cls-6" d="M215.41,227.22a2.12,2.12,0,0,1,2.83-.74,2.09,2.09,0,0,1-2.09,3.63A2.06,2.06,0,0,1,215.41,227.22Z" transform="translate(-18.47 -46.47)"/><path class="cls-6" d="M207.24,218a2.38,2.38,0,0,1,1.6,0,2,2,0,0,1,1.13.88,2.23,2.23,0,0,1-.69,2.78,2,2,0,0,1-3-.72,2.12,2.12,0,0,1-.19-1.74A1.85,1.85,0,0,1,207.24,218Z" transform="translate(-18.47 -46.47)"/><path class="cls-6" d="M208,205.92a2.08,2.08,0,0,1-1.38,3.92,2.08,2.08,0,1,1,1.38-3.92Z" transform="translate(-18.47 -46.47)"/><path class="cls-6" d="M216,196.51a2.09,2.09,0,0,1-3.15,2.74,2.09,2.09,0,1,1,3.15-2.74Z" transform="translate(-18.47 -46.47)"/><path class="cls-6" d="M226.82,190.3a2.09,2.09,0,0,1-1,2.74,2.12,2.12,0,0,1-2.76-.95,2.08,2.08,0,1,1,3.76-1.79Z" transform="translate(-18.47 -46.47)"/><path class="cls-6" d="M238.71,186.48a2.08,2.08,0,0,1-4,1,2,2,0,0,1,1.49-2.57A2.08,2.08,0,0,1,238.71,186.48Z" transform="translate(-18.47 -46.47)"/><path class="cls-6" d="M251.07,184.77a2.09,2.09,0,0,1-1.9,2.23,2.12,2.12,0,0,1-2.25-1.88,2.08,2.08,0,1,1,4.15-.35Z" transform="translate(-18.47 -46.47)"/><path class="cls-6" d="M263.55,185.16a2.12,2.12,0,0,1-2.26,1.88,2.17,2.17,0,0,1-1.89-2.25,2.08,2.08,0,1,1,4.15.37Z" transform="translate(-18.47 -46.47)"/><path class="cls-6" d="M275.68,188.05a2.09,2.09,0,0,1-1.06,1.16,2,2,0,0,1-1.55.15,2.15,2.15,0,0,1-1.35-2.61,2,2,0,0,1,2.64-1.37,2,2,0,0,1,1.32,2.67Z" transform="translate(-18.47 -46.47)"/><path class="cls-6" d="M286.76,193.79a2.08,2.08,0,1,1-.76-2.85A2.09,2.09,0,0,1,286.76,193.79Z" transform="translate(-18.47 -46.47)"/><path class="cls-6" d="M297,200.92a2.08,2.08,0,0,1-3.1-2.78,2.08,2.08,0,1,1,3.1,2.78Z" transform="translate(-18.47 -46.47)"/><path class="cls-6" d="M301.28,212.27a2.08,2.08,0,0,1-.34-4.14,1.84,1.84,0,0,1,1.58.33,2.11,2.11,0,0,1,.83,1.56A2,2,0,0,1,301.28,212.27Z" transform="translate(-18.47 -46.47)"/><path class="cls-6" d="M296.13,223.41a2.17,2.17,0,0,1-.37-2.87,2.2,2.2,0,0,1,2.86-.46,2.08,2.08,0,1,1-2.49,3.33Z" transform="translate(-18.47 -46.47)"/><path class="cls-6" d="M286.35,231.11a2.08,2.08,0,0,1,3.52-2.22,2.08,2.08,0,1,1-3.52,2.22Z" transform="translate(-18.47 -46.47)"/><path class="cls-6" d="M274.89,236.06a2.15,2.15,0,0,1,1.28-2.64,2.11,2.11,0,0,1,2.65,1.25,2.05,2.05,0,0,1-1.25,2.69A2,2,0,0,1,274.89,236.06Z" transform="translate(-18.47 -46.47)"/><path class="cls-6" d="M262.71,238.8a2.15,2.15,0,0,1,1.72-2.38,2.09,2.09,0,0,1,2.39,1.7,2.08,2.08,0,1,1-4.11.68Z" transform="translate(-18.47 -46.47)"/><path class="cls-6" d="M250.25,239.47a2.12,2.12,0,0,1,2.08-2.05,2.09,2.09,0,0,1,2.08,2.06,2.08,2.08,0,1,1-4.16,0Z" transform="translate(-18.47 -46.47)"/><path class="cls-6" d="M237.87,237.91a2.08,2.08,0,1,1,1.63,2.51A2.09,2.09,0,0,1,237.87,237.91Z" transform="translate(-18.47 -46.47)"/><path class="cls-6" d="M226.22,233.5a2.18,2.18,0,0,1,2.79-.92,2.15,2.15,0,0,1,1,1.19,2.09,2.09,0,0,1-.05,1.57,2.06,2.06,0,0,1-1.17,1.13,2.09,2.09,0,0,1-1.65-.14A2,2,0,0,1,226.22,233.5Z" transform="translate(-18.47 -46.47)"/><path class="cls-4" d="M337.65,192.6c-10.25,0-20-2.07-27.36-6.29h0l-9.53-5.5c-7.48-4.32-11.61-10.41-11.61-17.15,0-8,5.81-15.88,15.94-21.72,18.47-10.67,46.58-11.79,62.66-2.5l9.53,5.5c7.49,4.32,11.61,10.41,11.61,17.15,0,7.95-5.81,15.87-15.94,21.72S349.94,192.6,337.65,192.6Zm-25-10.33c14.8,8.54,40.82,7.42,58-2.5,8.65-5,13.61-11.44,13.61-17.68,0-5-3.3-9.66-9.28-13.11l-9.53-5.5c-14.79-8.55-40.81-7.42-58,2.5-8.64,5-13.6,11.43-13.6,17.68,0,5,3.29,9.66,9.27,13.11l9.53,5.5Z" transform="translate(-18.47 -46.47)"/><path class="cls-5" d="M337.65,190.76c-9.91,0-19.37-2-26.43-6.07l-9.53-5.5c-6.88-4-10.67-9.49-10.67-15.53,0-7.27,5.47-14.6,15-20.11,18-10.36,45.22-11.48,60.79-2.5l9.53,5.51c6.88,4,10.67,9.48,10.67,15.53,0,7.27-5.47,14.6-15,20.1C362.2,187.86,349.6,190.76,337.65,190.76Zm-26-6.87c15.31,8.84,42.17,7.72,59.86-2.5,9.24-5.34,14.54-12.37,14.54-19.3,0-5.7-3.62-10.93-10.2-14.73l-9.53-5.5c-15.31-8.84-42.17-7.72-59.87,2.5-9.24,5.33-14.54,12.37-14.54,19.3,0,5.7,3.63,10.92,10.21,14.72Z" transform="translate(-18.47 -46.47)"/><path class="cls-4" d="M198.71,178.78c-17.32,0-34.11-5.54-42.57-15.13-4.92-5.57-6.63-12.08-4.83-18.33,2.62-9.09,12-16.63,25.83-20.69l1.09-.32C201.42,117.49,230,123,242,136.49c4.92,5.57,6.63,12.09,4.83,18.34-2.62,9.09-12,16.63-25.83,20.69h0l-1.09.32A75.69,75.69,0,0,1,198.71,178.78Zm.94-53.12a72.4,72.4,0,0,0-20.2,2.81l-1.09.32c-12.15,3.58-20.71,10.21-22.88,17.73-1.39,4.84,0,9.78,3.92,14.26,10.94,12.4,37.52,17.28,59.26,10.89l1.09-.32h0c12.15-3.57,20.71-10.2,22.88-17.72,1.39-4.85,0-9.78-3.92-14.27C231,130.66,215.65,125.66,199.65,125.66Z" transform="translate(-18.47 -46.47)"/><path class="cls-5" d="M198.61,177.06c-16.79,0-33-5.32-41.16-14.56-4.58-5.18-6.12-11-4.47-16.7,2.46-8.51,11.44-15.62,24.65-19.5l1.09-.32c22.61-6.66,50.4-1.42,61.94,11.66,4.58,5.19,6.12,11,4.47,16.71-2.46,8.51-11.44,15.61-24.65,19.5l-1.09.32A74.12,74.12,0,0,1,198.61,177.06Zm.94-53.12A73.24,73.24,0,0,0,179,126.81l-1.09.32c-12.73,3.74-21.72,10.81-24.06,18.91-1.57,5.44-.09,10.94,4.28,15.89,11.35,12.86,38.73,18,61.06,11.41l1.09-.32C233,169.27,242,162.2,244.3,154.11c1.57-5.45.09-10.94-4.28-15.9C232,129.16,216.08,123.94,199.55,123.94Z" transform="translate(-18.47 -46.47)"/><path class="cls-4" d="M134.57,251.9c-23.22,0-43.14-9.79-47-23.87l-.19-.7a18.43,18.43,0,0,1,3-15.73c6.41-9.25,20.2-15.69,36.9-17.21,26.35-2.4,50.33,7.93,54.61,23.53h0l.19.7a18.4,18.4,0,0,1-3,15.72c-6.41,9.25-20.21,15.69-36.91,17.22C139.61,251.79,137.07,251.9,134.57,251.9Zm.18-53.51c-2.33,0-4.7.1-7.08.32-15.21,1.39-28.13,7.28-33.74,15.36a14.06,14.06,0,0,0-2.37,12.11l.19.7c3.68,13.41,26.12,22.54,50,20.35,15.21-1.39,28.14-7.28,33.74-15.36a14,14,0,0,0,2.37-12.1l-.19-.7C174.38,207,155.86,198.39,134.75,198.39Z" transform="translate(-18.47 -46.47)"/><path class="cls-5" d="M134.81,250.15c-22.28,0-42-9.42-45.57-22.58l-.19-.7a16.72,16.72,0,0,1,2.74-14.28c6.13-8.83,19.45-15,35.64-16.47,25.11-2.29,48.78,7.69,52.77,22.26l.19.7a16.71,16.71,0,0,1-2.74,14.27c-6.12,8.84-19.45,15-35.64,16.48C139.59,250.05,137.19,250.15,134.81,250.15Zm-.14-53.5q-3.54,0-7.16.33c-15.7,1.44-29.12,7.61-35,16.11a15.86,15.86,0,0,0-2.63,13.55l.19.7c3.9,14.18,27.16,23.89,51.86,21.62,15.7-1.43,29.12-7.6,35-16.1a15.91,15.91,0,0,0,2.62-13.55l-.19-.7C175.85,205.81,156.56,196.65,134.67,196.65Z" transform="translate(-18.47 -46.47)"/><path class="cls-6" d="M179.14,229.82a1.93,1.93,0,0,1,1.14-3.68,1.93,1.93,0,1,1-1.14,3.68Z" transform="translate(-18.47 -46.47)"/><path class="cls-6" d="M171.9,238.76a1.94,1.94,0,0,1,2.86-2.61,1.94,1.94,0,1,1-2.86,2.61Z" transform="translate(-18.47 -46.47)"/><path class="cls-6" d="M161.91,244.58a2,2,0,0,1,.93-2.55,2,2,0,0,1,2.57.91,1.93,1.93,0,1,1-3.5,1.64Z" transform="translate(-18.47 -46.47)"/><path class="cls-6" d="M150.85,248.05a1.93,1.93,0,0,1,3.75-.93,1.93,1.93,0,1,1-3.75.93Z" transform="translate(-18.47 -46.47)"/><path class="cls-6" d="M139.36,249.59a1.93,1.93,0,0,1,3.85-.33,1.93,1.93,0,1,1-3.85.33Z" transform="translate(-18.47 -46.47)"/><path class="cls-6" d="M127.76,249.41a1.93,1.93,0,0,1,3.86.24,1.93,1.93,0,1,1-3.86-.24Z" transform="translate(-18.47 -46.47)"/><path class="cls-6" d="M116.33,247.46a1.94,1.94,0,0,1,3.78.86,1.94,1.94,0,1,1-3.78-.86Z" transform="translate(-18.47 -46.47)"/><path class="cls-6" d="M105.43,243.54a1.94,1.94,0,0,1,3.55,1.55,1.94,1.94,0,1,1-3.55-1.55Z" transform="translate(-18.47 -46.47)"/><path class="cls-6" d="M95.82,237.11a1.94,1.94,0,0,1,3,2.47,1.94,1.94,0,1,1-3-2.47Z" transform="translate(-18.47 -46.47)"/><path class="cls-6" d="M89.66,227.45A1.93,1.93,0,0,1,91.09,231a1.93,1.93,0,1,1-1.43-3.58Z" transform="translate(-18.47 -46.47)"/><path class="cls-6" d="M90.3,216.12a1.93,1.93,0,0,1-1.14,3.69,1.93,1.93,0,1,1,1.14-3.69Z" transform="translate(-18.47 -46.47)"/><path class="cls-6" d="M97.54,207.19a1.93,1.93,0,0,1-2.86,2.6,1.93,1.93,0,1,1,2.86-2.6Z" transform="translate(-18.47 -46.47)"/><path class="cls-6" d="M107.53,201.36A1.93,1.93,0,0,1,104,203a1.93,1.93,0,1,1,3.49-1.65Z" transform="translate(-18.47 -46.47)"/><path class="cls-6" d="M118.59,197.9a1.93,1.93,0,0,1-3.75.92,1.93,1.93,0,1,1,3.75-.92Z" transform="translate(-18.47 -46.47)"/><path class="cls-6" d="M130.08,196.36a1.93,1.93,0,0,1-3.85.32,1.93,1.93,0,1,1,3.85-.32Z" transform="translate(-18.47 -46.47)"/><path class="cls-6" d="M141.68,196.54a1.93,1.93,0,0,1-3.86-.25,1.93,1.93,0,1,1,3.86.25Z" transform="translate(-18.47 -46.47)"/><path class="cls-6" d="M153.11,198.48a1.94,1.94,0,0,1-3.78-.85,1.94,1.94,0,1,1,3.78.85Z" transform="translate(-18.47 -46.47)"/><path class="cls-6" d="M164,202.41a2,2,0,0,1-2.54,1,2,2,0,0,1-1-2.53,1.93,1.93,0,1,1,3.54,1.56Z" transform="translate(-18.47 -46.47)"/><path class="cls-6" d="M173.62,208.83a1.94,1.94,0,0,1-3-2.47,1.94,1.94,0,1,1,3,2.47Z" transform="translate(-18.47 -46.47)"/><path class="cls-6" d="M179.79,218.49a1.93,1.93,0,0,1-1.44-3.58,1.93,1.93,0,1,1,1.44,3.58Z" transform="translate(-18.47 -46.47)"/><path class="cls-4" d="M235.79,309.47c-2.51,0-5-.12-7.61-.35L227,309c-16.7-1.53-30.49-8-36.91-17.22a18.4,18.4,0,0,1-3-15.72c4.28-15.61,28.26-25.94,54.6-23.53h0l1.21.11c16.7,1.52,30.5,8,36.91,17.21a18.43,18.43,0,0,1,3,15.73C278.92,299.67,259,309.47,235.79,309.47Zm-1.6-52.93c-21.1,0-39.62,8.6-42.93,20.68a14,14,0,0,0,2.37,12.1c5.61,8.09,18.53,14,33.74,15.36l1.21.11c23.9,2.19,46.34-6.94,50-20.35a14,14,0,0,0-2.38-12.11c-5.6-8.08-18.53-14-33.73-15.36l-1.21-.11C238.9,256.64,236.53,256.54,234.19,256.54Z" transform="translate(-18.47 -46.47)"/><path class="cls-5" d="M235.54,307.72q-3.57,0-7.2-.33l-1.21-.11c-16.19-1.48-29.51-7.64-35.64-16.48a16.74,16.74,0,0,1-2.75-14.27c4-14.57,27.67-24.55,52.77-22.26h0l1.21.11c16.2,1.48,29.52,7.64,35.64,16.47a16.69,16.69,0,0,1,2.75,14.28C277.5,298.29,257.82,307.72,235.54,307.72Zm-1.26-52.92c-21.9,0-41.19,9.15-44.7,22a15.87,15.87,0,0,0,2.62,13.55c5.89,8.5,19.31,14.67,35,16.1l1.21.11c24.7,2.27,48-7.44,51.85-21.62a15.86,15.86,0,0,0-2.62-13.55c-5.89-8.5-19.3-14.67-35-16.11l-1.21-.11Q237.83,254.8,234.28,254.8Z" transform="translate(-18.47 -46.47)"/><path class="cls-6" d="M253,256.48a1.94,1.94,0,0,1-3.8-.79,1.94,1.94,0,1,1,3.8.79Z" transform="translate(-18.47 -46.47)"/><path class="cls-6" d="M264,260.23a2,2,0,0,1-2.53,1,2,2,0,0,1-1.06-2.51,1.94,1.94,0,1,1,3.59,1.49Z" transform="translate(-18.47 -46.47)"/><path class="cls-6" d="M273.81,266.44a1.94,1.94,0,0,1-3.06-2.39,1.94,1.94,0,1,1,3.06,2.39Z" transform="translate(-18.47 -46.47)"/><path class="cls-6" d="M280.43,275.87a1.94,1.94,0,0,1-1.63-3.52,1.94,1.94,0,1,1,1.63,3.52Z" transform="translate(-18.47 -46.47)"/><path class="cls-6" d="M279.9,287.25a1.94,1.94,0,0,1,1.12-3.71,1.94,1.94,0,1,1-1.12,3.71Z" transform="translate(-18.47 -46.47)"/><path class="cls-6" d="M272.7,296.26a1.94,1.94,0,0,1,2.87-2.61,1.94,1.94,0,1,1-2.87,2.61Z" transform="translate(-18.47 -46.47)"/><path class="cls-6" d="M262.67,302.12a2,2,0,0,1,.94-2.55,2,2,0,0,1,2.57.9,1.94,1.94,0,1,1-3.51,1.65Z" transform="translate(-18.47 -46.47)"/><path class="cls-6" d="M251.56,305.6a1.94,1.94,0,0,1,3.77-.93,1.94,1.94,0,1,1-3.77.93Z" transform="translate(-18.47 -46.47)"/><path class="cls-6" d="M240,307.16a1.94,1.94,0,0,1,3.87-.32,1.94,1.94,0,1,1-3.87.32Z" transform="translate(-18.47 -46.47)"/><path class="cls-6" d="M228.38,307a1.94,1.94,0,0,1,3.88.25,1.94,1.94,0,1,1-3.88-.25Z" transform="translate(-18.47 -46.47)"/><path class="cls-6" d="M216.87,305.17a1.95,1.95,0,0,1,3.81.8,1.95,1.95,0,1,1-3.81-.8Z" transform="translate(-18.47 -46.47)"/><path class="cls-6" d="M205.86,301.43a1.94,1.94,0,0,1,3.58,1.49,1.94,1.94,0,1,1-3.58-1.49Z" transform="translate(-18.47 -46.47)"/><path class="cls-6" d="M196.05,295.21a1.94,1.94,0,0,1,3.06,2.39,1.94,1.94,0,1,1-3.06-2.39Z" transform="translate(-18.47 -46.47)"/><path class="cls-6" d="M189.42,285.78a2.08,2.08,0,0,1,2.5,1,2,2,0,0,1-.87,2.54,1.94,1.94,0,1,1-1.63-3.52Z" transform="translate(-18.47 -46.47)"/><path class="cls-6" d="M190,274.41a1.94,1.94,0,0,1-1.12,3.71,1.94,1.94,0,1,1,1.12-3.71Z" transform="translate(-18.47 -46.47)"/><path class="cls-6" d="M197.16,265.39a1.94,1.94,0,0,1-2.87,2.62,1.94,1.94,0,1,1,2.87-2.62Z" transform="translate(-18.47 -46.47)"/><path class="cls-6" d="M207.19,259.53a1.94,1.94,0,0,1-3.51,1.66,1.94,1.94,0,1,1,3.51-1.66Z" transform="translate(-18.47 -46.47)"/><path class="cls-6" d="M218.29,256.05a1.94,1.94,0,0,1-3.77.93,1.94,1.94,0,1,1,3.77-.93Z" transform="translate(-18.47 -46.47)"/><path class="cls-6" d="M229.83,254.5a1.94,1.94,0,1,1-2.09-1.81A1.92,1.92,0,0,1,229.83,254.5Z" transform="translate(-18.47 -46.47)"/><path class="cls-6" d="M241.47,254.7a1.94,1.94,0,0,1-3.87-.25,1.94,1.94,0,1,1,3.87.25Z" transform="translate(-18.47 -46.47)"/><path class="cls-4" d="M360.72,272.54a75.32,75.32,0,0,1-21.17-2.94c-13.8-4.06-23.21-11.6-25.83-20.69-1.8-6.25-.09-12.76,4.83-18.33h0l.55-.63c11.95-13.54,40.55-19,63.74-12.18,13.79,4,23.21,11.59,25.83,20.68,1.8,6.25.09,12.77-4.83,18.34l-.56.63C394.83,267,378,272.54,360.72,272.54ZM321.8,233.45c-4,4.49-5.31,9.42-3.91,14.26,2.17,7.52,10.72,14.15,22.88,17.73,21.73,6.39,48.32,1.5,59.26-10.89l.55-.63c4-4.49,5.31-9.42,3.92-14.27-2.17-7.52-10.73-14.14-22.88-17.72-21.74-6.39-48.32-1.51-59.26,10.89Z" transform="translate(-18.47 -46.47)"/><path class="cls-5" d="M360.82,270.82A74.07,74.07,0,0,1,340,267.93c-13.21-3.88-22.2-11-24.65-19.5-1.66-5.74-.12-11.52,4.46-16.7h0l.56-.63C332,218,359.74,212.78,382.35,219.43c13.21,3.89,22.19,11,24.65,19.5,1.66,5.75.11,11.52-4.46,16.71l-.56.63C393.84,265.5,377.61,270.82,360.82,270.82ZM320.5,232.3c-4.37,4.95-5.85,10.45-4.28,15.89,2.34,8.1,11.33,15.17,24.06,18.91,22.32,6.57,49.71,1.45,61.05-11.4l.56-.63c4.37-5,5.85-10.45,4.28-15.9-2.34-8.09-11.33-15.16-24.06-18.91-22.32-6.56-49.71-1.45-61.05,11.41l-.56.63Z" transform="translate(-18.47 -46.47)"/><path class="cls-7" d="M199.07,172.59c-10.57,0-21.14-2.33-29.19-7-7.84-4.53-12.16-10.56-12.16-17s4.32-12.46,12.16-17c16.1-9.29,42.29-9.29,58.39,0,7.84,4.52,12.16,10.55,12.16,17s-4.32,12.46-12.16,17h0C220.22,170.26,209.65,172.59,199.07,172.59Zm0-47.47c-10.49,0-21,2.3-29,6.91-7.69,4.45-11.93,10.34-11.93,16.6s4.24,12.15,11.94,16.6c16,9.22,42,9.22,57.93,0h0c7.7-4.45,11.93-10.34,11.93-16.6S235.74,136.48,228,132C220.05,127.42,209.56,125.12,199.07,125.12Z" transform="translate(-18.47 -46.47)"/><ellipse class="cls-8" cx="180.61" cy="102.16" rx="34.73" ry="20.05"/><path class="cls-9" d="M240.2,138.33V124.88h-7.28a34.45,34.45,0,0,0-4.77-3.32c-16.06-9.28-42.1-9.28-58.16,0a33.74,33.74,0,0,0-4.76,3.32H158v13.47h0c0,6.07,4,12.15,12,16.79,16.06,9.27,42.1,9.27,58.17,0C236.2,150.5,240.21,144.41,240.2,138.33Z" transform="translate(-18.47 -46.47)"/><path class="cls-10" d="M158.32,138V124.88H158v13.47c0,5.44,3.24,10.87,9.67,15.27C161.43,149,158.32,143.52,158.32,138Z" transform="translate(-18.47 -46.47)"/><path class="cls-5" d="M239.55,124.88v13c0,6.09-4,12.17-12,16.81-16.06,9.28-42.11,9.28-58.17,0-.81-.47-1.56-1-2.29-1.46.91.65,1.89,1.29,2.94,1.9,16.06,9.27,42.1,9.27,58.17,0,8-4.64,12.05-10.73,12-16.81V124.88Z" transform="translate(-18.47 -46.47)"/><ellipse class="cls-11" cx="180.61" cy="78.42" rx="41.13" ry="23.75"/><path class="cls-10" d="M171.1,108.34c8.16-4.71,18.82-7.09,29.51-7.16-11-.23-22.2,2-30.62,6.91-12.51,7.23-15.39,18.08-8.24,26.71C155.6,126,158.71,115.49,171.1,108.34Z" transform="translate(-18.47 -46.47)"/><path class="cls-5" d="M228.15,108.09a50.7,50.7,0,0,0-14.54-5.4,49.88,49.88,0,0,1,13.1,5.08c16.06,9.27,16.06,24.31,0,33.58-11.79,6.81-29,8.6-43.61,5.41,15,3.63,32.87,2,45.06-5.08C244.22,132.4,244.22,117.37,228.15,108.09Z" transform="translate(-18.47 -46.47)"/><ellipse class="cls-12" cx="180.41" cy="78.42" rx="26.28" ry="15.17"/><path class="cls-13" d="M180.29,122.29c10.26-5.93,26.9-5.93,37.17,0a16.07,16.07,0,0,1,6.72,6.66c2.45-5.1.22-10.79-6.72-14.79-10.27-5.93-26.91-5.93-37.17,0-6.94,4-9.17,9.7-6.72,14.8A16.07,16.07,0,0,1,180.29,122.29Z" transform="translate(-18.47 -46.47)"/><path class="cls-14" d="M180.29,119.42c10.26-5.93,26.9-5.93,37.17,0,4,2.29,6.38,5.13,7.28,8.1,1.43-4.71-1-9.73-7.28-13.36-10.27-5.93-26.91-5.93-37.17,0-6.3,3.64-8.71,8.66-7.28,13.36C173.91,124.55,176.32,121.71,180.29,119.42Z" transform="translate(-18.47 -46.47)"/><path class="cls-15" d="M180.29,116.86c10.26-5.93,26.9-5.93,37.17,0,4.54,2.62,7.06,6,7.59,9.38.66-4.32-1.86-8.78-7.59-12.08-10.27-5.93-26.91-5.93-37.17,0-5.73,3.31-8.25,7.76-7.59,12.09C173.23,122.81,175.75,119.48,180.29,116.86Z" transform="translate(-18.47 -46.47)"/><path class="cls-5" d="M220.36,106.55a2.6,2.6,0,0,0-2.43.33c-.51.48-.25,1.11.58,1.4a2.58,2.58,0,0,0,2.42-.33C221.44,107.47,221.18,106.84,220.36,106.55Z" transform="translate(-18.47 -46.47)"/><path class="cls-16" d="M226.16,109.36a2.71,2.71,0,0,0-2.45.06c-.65.4-.61,1,.09,1.41a2.71,2.71,0,0,0,2.45,0C226.9,110.37,226.86,109.74,226.16,109.36Z" transform="translate(-18.47 -46.47)"/><path class="cls-17" d="M230.92,112.77a2.64,2.64,0,0,0-2.42-.23c-.77.33-.95.95-.39,1.4a2.65,2.65,0,0,0,2.42.23C231.31,113.84,231.48,113.22,230.92,112.77Z" transform="translate(-18.47 -46.47)"/><path class="cls-18" d="M234.44,116.64a2.38,2.38,0,0,0-2.29-.49c-.87.23-1.26.83-.86,1.33a2.4,2.4,0,0,0,2.3.49C234.46,117.74,234.84,117.15,234.44,116.64Z" transform="translate(-18.47 -46.47)"/><path class="cls-19" d="M236.59,120.84c-.22-.54-1.16-.87-2.09-.74s-1.51.67-1.29,1.2a2,2,0,0,0,2.09.75C236.23,121.92,236.81,121.38,236.59,120.84Z" transform="translate(-18.47 -46.47)"/><path class="cls-20" d="M237.1,125.68c.42-.5.06-1.1-.8-1.34a2.41,2.41,0,0,0-2.32.46c-.42.49-.06,1.09.8,1.34A2.46,2.46,0,0,0,237.1,125.68Z" transform="translate(-18.47 -46.47)"/><path class="cls-21" d="M225.34,46.47H172.78v77.76h0c-.31,4.1,2.25,8.26,7.67,11.38,10.26,5.93,26.9,5.93,37.17,0,5.42-3.13,8-7.29,7.67-11.39h0Z" transform="translate(-18.47 -46.47)"/><ellipse class="cls-8" cx="235.01" cy="164.32" rx="31.52" ry="18.2"/><path class="cls-22" d="M253.48,233.88c-10.19,0-20.37-2.24-28.13-6.72-7.55-4.36-11.72-10.18-11.72-16.37s4.17-12,11.72-16.37c15.51-8.95,40.75-8.95,56.26,0,7.55,4.36,11.71,10.18,11.71,16.37s-4.16,12-11.71,16.37h0C273.85,231.64,263.67,233.88,253.48,233.88Zm0-45.73c-10.11,0-20.21,2.22-27.9,6.66-7.41,4.28-11.49,9.95-11.49,16s4.08,11.7,11.49,16c15.38,8.88,40.42,8.88,55.8,0h0c7.41-4.28,11.49-10,11.49-16s-4.08-11.7-11.49-16C273.69,190.37,263.58,188.15,253.48,188.15Z" transform="translate(-18.47 -46.47)"/><path class="cls-23" d="M288.88,179.16h0l-10.24-15.61L275.71,170c-13.35-5.4-31.25-5.39-44.58,0l-2.82-6.52L217,180.68h0c-5,7.94-2,17.18,9,23.55,15.17,8.76,39.75,8.76,54.92,0C292.68,197.45,295.32,187.41,288.88,179.16Z" transform="translate(-18.47 -46.47)"/><path class="cls-10" d="M231.68,170.06A60,60,0,0,1,253.6,166a60.55,60.55,0,0,0-22,3.91Z" transform="translate(-18.47 -46.47)"/><path class="cls-10" d="M276.26,170l2.71-6-.32-.49-2.86,6.29Z" transform="translate(-18.47 -46.47)"/><path class="cls-10" d="M226.57,204.23c-11-6.37-14-15.62-9-23.56h0l11-16.63-.22-.5L217,180.68h0c-5,7.94-2,17.18,9,23.55,7.67,4.43,17.75,6.61,27.81,6.56C244,210.76,234.1,208.58,226.57,204.23Z" transform="translate(-18.47 -46.47)"/><path class="cls-5" d="M275.07,170l.1-.2A60.38,60.38,0,0,0,253.11,166,60.07,60.07,0,0,1,275.07,170Z" transform="translate(-18.47 -46.47)"/><path class="cls-5" d="M230.5,170.07c.18-.08.37-.14.55-.21l-2.58-6-.37.61Z" transform="translate(-18.47 -46.47)"/><path class="cls-5" d="M288.88,179.16h0l-10.24-15.61-.26.58,9.86,15h0c6.45,8.25,3.81,18.29-7.94,25.07-7.5,4.33-17.31,6.51-27.14,6.56,10,.05,20.12-2.13,27.78-6.56C292.68,197.45,295.32,187.41,288.88,179.16Z" transform="translate(-18.47 -46.47)"/><ellipse class="cls-24" cx="235.01" cy="121.53" rx="26.31" ry="15.19"/><ellipse class="cls-25" cx="235.01" cy="121.53" rx="16.57" ry="9.57"/><ellipse class="cls-12" cx="235.01" cy="121.53" rx="16.57" ry="9.57"/><path class="cls-13" d="M241.76,166.36c6.47-3.74,17-3.74,23.44,0a10.17,10.17,0,0,1,4.24,4.2c1.54-3.22.13-6.8-4.24-9.33-6.47-3.74-17-3.74-23.44,0-4.38,2.53-5.78,6.11-4.24,9.33A10.17,10.17,0,0,1,241.76,166.36Z" transform="translate(-18.47 -46.47)"/><path class="cls-14" d="M241.76,164.55c6.47-3.74,17-3.74,23.44,0a9.34,9.34,0,0,1,4.59,5.1c.9-3-.62-6.13-4.59-8.42-6.47-3.74-17-3.74-23.44,0-4,2.29-5.49,5.45-4.59,8.42A9.34,9.34,0,0,1,241.76,164.55Z" transform="translate(-18.47 -46.47)"/><path class="cls-15" d="M241.76,162.93c6.47-3.73,17-3.73,23.44,0,2.86,1.65,4.45,3.76,4.78,5.92.42-2.73-1.17-5.54-4.78-7.62-6.47-3.74-17-3.74-23.44,0-3.61,2.08-5.2,4.89-4.78,7.62C237.31,166.69,238.9,164.58,241.76,162.93Z" transform="translate(-18.47 -46.47)"/><path class="cls-10" d="M235.32,157.8c10.27-5.93,26.93-5.93,37.21,0a19.51,19.51,0,0,1,4.67,3.66,18.58,18.58,0,0,0-5.12-4.21c-10.27-5.93-26.93-5.93-37.21,0-8.35,4.83-9.91,12.09-4.67,17.83C225.53,169.43,227.22,162.47,235.32,157.8Z" transform="translate(-18.47 -46.47)"/><path class="cls-5" d="M272.08,157.25c-.15-.09-.32-.16-.47-.25,10,5.95,9.93,15.45-.25,21.33s-26.43,5.91-36.74.24l.25.17c10.28,5.93,26.94,5.93,37.21,0S282.36,163.18,272.08,157.25Z" transform="translate(-18.47 -46.47)"/><path class="cls-26" d="M279.54,151.94v-8.47H275a20.73,20.73,0,0,0-3-2.1c-10.13-5.85-26.55-5.85-36.67,0a20.19,20.19,0,0,0-3,2.1h-4.59V152h0c0,3.84,2.53,7.67,7.6,10.59,10.13,5.85,26.54,5.85,36.67,0C277,159.61,279.54,155.78,279.54,151.94Z" transform="translate(-18.47 -46.47)"/><path class="cls-10" d="M227.91,151.73v-8.26h-.24V152c0,3.43,2.05,6.86,6.11,9.64C229.87,158.7,227.91,155.22,227.91,151.73Z" transform="translate(-18.47 -46.47)"/><path class="cls-5" d="M279.13,143.47v8.2c0,3.83-2.53,7.67-7.6,10.6-10.12,5.85-26.54,5.85-36.67,0-.52-.3-1-.61-1.45-.93a19.83,19.83,0,0,0,1.86,1.2c10.13,5.85,26.54,5.85,36.67,0,5.07-2.93,7.6-6.76,7.6-10.6v-8.47Z" transform="translate(-18.47 -46.47)"/><ellipse class="cls-27" cx="235.14" cy="97" rx="25.93" ry="14.97"/><path class="cls-10" d="M236,133c5.14-3,11.86-4.46,18.6-4.51-6.95-.15-14,1.29-19.3,4.36-7.89,4.55-9.7,11.4-5.2,16.84C226.19,144.15,228.16,137.55,236,133Z" transform="translate(-18.47 -46.47)"/><path class="cls-5" d="M271.94,132.88a32.23,32.23,0,0,0-9.17-3.41,31.09,31.09,0,0,1,8.26,3.21c10.13,5.84,10.13,15.32,0,21.17-7.43,4.29-18.26,5.42-27.5,3.41,9.43,2.29,20.73,1.23,28.41-3.21C282.07,148.21,282.07,138.73,271.94,132.88Z" transform="translate(-18.47 -46.47)"/><ellipse class="cls-12" cx="235.01" cy="97" rx="16.57" ry="9.57"/><path class="cls-13" d="M241.76,141.83c6.47-3.74,17-3.74,23.44,0a10.17,10.17,0,0,1,4.24,4.2c1.54-3.21.13-6.8-4.24-9.33-6.47-3.74-17-3.74-23.44,0-4.38,2.53-5.78,6.12-4.24,9.33A10.17,10.17,0,0,1,241.76,141.83Z" transform="translate(-18.47 -46.47)"/><path class="cls-14" d="M241.76,140c6.47-3.74,17-3.74,23.44,0a9.35,9.35,0,0,1,4.59,5.11c.9-3-.62-6.14-4.59-8.43-6.47-3.74-17-3.74-23.44,0-4,2.29-5.49,5.46-4.59,8.42A9.34,9.34,0,0,1,241.76,140Z" transform="translate(-18.47 -46.47)"/><path class="cls-15" d="M241.76,138.4c6.47-3.73,17-3.73,23.44,0,2.86,1.65,4.45,3.75,4.78,5.91.42-2.73-1.17-5.53-4.78-7.62-6.47-3.74-17-3.74-23.44,0-3.61,2.09-5.2,4.89-4.78,7.62C237.31,142.16,238.9,140.06,241.76,138.4Z" transform="translate(-18.47 -46.47)"/><path class="cls-28" d="M279.54,133v-8.48H275a21.5,21.5,0,0,0-3-2.09c-10.13-5.85-26.55-5.85-36.67,0a20.93,20.93,0,0,0-3,2.09h-4.59V133h0c0,3.83,2.53,7.67,7.6,10.59,10.13,5.85,26.54,5.85,36.67,0C277,140.67,279.54,136.84,279.54,133Z" transform="translate(-18.47 -46.47)"/><path class="cls-10" d="M227.91,132.79v-8.27h-.24V133c0,3.43,2.05,6.86,6.11,9.64C229.87,139.76,227.91,136.28,227.91,132.79Z" transform="translate(-18.47 -46.47)"/><path class="cls-5" d="M279.13,124.52v8.21c0,3.83-2.53,7.67-7.6,10.6-10.12,5.84-26.54,5.84-36.67,0-.52-.3-1-.61-1.45-.93a22.08,22.08,0,0,0,1.86,1.2c10.13,5.85,26.54,5.85,36.67,0,5.07-2.93,7.6-6.76,7.6-10.6v-8.48Z" transform="translate(-18.47 -46.47)"/><ellipse class="cls-29" cx="235.14" cy="78.06" rx="25.93" ry="14.97"/><path class="cls-10" d="M236,114.09c5.14-3,11.86-4.47,18.6-4.51-6.95-.15-14,1.29-19.3,4.36-7.89,4.55-9.7,11.4-5.2,16.84C226.19,125.21,228.16,118.6,236,114.09Z" transform="translate(-18.47 -46.47)"/><path class="cls-5" d="M271.94,113.94a32.23,32.23,0,0,0-9.17-3.41,31.41,31.41,0,0,1,8.26,3.2c10.13,5.85,10.13,15.33,0,21.18-7.43,4.29-18.26,5.42-27.5,3.41,9.43,2.29,20.73,1.23,28.41-3.21C282.07,129.27,282.07,119.79,271.94,113.94Z" transform="translate(-18.47 -46.47)"/><ellipse class="cls-12" cx="235.01" cy="78.06" rx="16.57" ry="9.57"/><path class="cls-13" d="M241.76,122.89c6.47-3.74,17-3.74,23.44,0a10.17,10.17,0,0,1,4.24,4.2c1.54-3.22.13-6.8-4.24-9.33-6.47-3.74-17-3.74-23.44,0-4.38,2.53-5.78,6.11-4.24,9.33A10.17,10.17,0,0,1,241.76,122.89Z" transform="translate(-18.47 -46.47)"/><path class="cls-14" d="M241.76,121.08c6.47-3.74,17-3.74,23.44,0a9.34,9.34,0,0,1,4.59,5.1c.9-3-.62-6.13-4.59-8.42-6.47-3.74-17-3.74-23.44,0-4,2.29-5.49,5.46-4.59,8.42A9.34,9.34,0,0,1,241.76,121.08Z" transform="translate(-18.47 -46.47)"/><path class="cls-15" d="M241.76,119.46c6.47-3.73,17-3.73,23.44,0,2.86,1.65,4.45,3.76,4.78,5.92.42-2.73-1.17-5.54-4.78-7.62-6.47-3.74-17-3.74-23.44,0-3.61,2.08-5.2,4.89-4.78,7.62C237.31,123.22,238.9,121.11,241.76,119.46Z" transform="translate(-18.47 -46.47)"/><path class="cls-30" d="M279.54,52.37H227.66v71.39h0c-.3,4,2.23,8.09,7.58,11.16,10.13,5.81,26.55,5.81,36.69,0,5.35-3.07,7.87-7.14,7.57-11.16h0Z" transform="translate(-18.47 -46.47)"/><path class="cls-31" d="M134.74,244.94c-10.57,0-21.15-2.32-29.19-7-7.85-4.52-12.16-10.56-12.16-17s4.31-12.46,12.15-17c16.1-9.29,42.3-9.29,58.39,0,7.84,4.53,12.16,10.56,12.16,17s-4.32,12.46-12.16,17C155.88,242.62,145.31,244.94,134.74,244.94Zm0-47.46c-10.49,0-21,2.3-29,6.91-7.7,4.45-11.93,10.34-11.93,16.6s4.24,12.15,11.93,16.59c16,9.22,42,9.22,57.94,0,7.69-4.44,11.93-10.33,11.93-16.59s-4.24-12.15-11.93-16.6C155.72,199.78,145.23,197.48,134.74,197.48Z" transform="translate(-18.47 -46.47)"/><ellipse class="cls-8" cx="116.27" cy="174.52" rx="34.73" ry="20.05"/><path class="cls-32" d="M175.86,210.68V197.24h-7.27a33.61,33.61,0,0,0-4.77-3.32c-16.06-9.28-42.1-9.28-58.16,0a34.48,34.48,0,0,0-4.77,3.33H93.61v13.47h0c0,6.07,4,12.15,12,16.79,16.06,9.27,42.1,9.27,58.16,0C171.86,222.85,175.87,216.77,175.86,210.68Z" transform="translate(-18.47 -46.47)"/><path class="cls-10" d="M94,210.36V197.24h-.38v13.47c0,5.44,3.25,10.87,9.68,15.27C97.1,221.4,94,215.88,94,210.36Z" transform="translate(-18.47 -46.47)"/><path class="cls-5" d="M175.22,197.24v13c0,6.09-4,12.17-12.05,16.81-16.06,9.28-42.1,9.28-58.16,0-.82-.47-1.56-1-2.3-1.47a34.88,34.88,0,0,0,3,1.91c16.06,9.27,42.1,9.27,58.16,0,8-4.65,12.05-10.73,12-16.82V197.24Z" transform="translate(-18.47 -46.47)"/><ellipse class="cls-33" cx="116.27" cy="150.78" rx="41.13" ry="23.74"/><path class="cls-10" d="M106.77,180.7c8.16-4.71,18.81-7.09,29.51-7.16-11-.24-22.2,2.05-30.62,6.91-12.52,7.23-15.39,18.08-8.25,26.71C91.26,198.33,94.38,187.85,106.77,180.7Z" transform="translate(-18.47 -46.47)"/><path class="cls-5" d="M163.82,180.45a50.87,50.87,0,0,0-14.55-5.4,49.61,49.61,0,0,1,13.11,5.08c16.06,9.27,16.06,24.31,0,33.58-11.8,6.81-29,8.6-43.62,5.41,15,3.63,32.88,1.95,45.06-5.09C179.88,204.76,179.88,189.73,163.82,180.45Z" transform="translate(-18.47 -46.47)"/><ellipse class="cls-12" cx="116.07" cy="150.78" rx="26.28" ry="15.17"/><path class="cls-13" d="M116,194.65c10.27-5.93,26.91-5.93,37.17,0a16,16,0,0,1,6.73,6.66c2.45-5.1.22-10.79-6.73-14.8-10.26-5.92-26.9-5.92-37.17,0-6.94,4-9.17,9.7-6.72,14.8A16,16,0,0,1,116,194.65Z" transform="translate(-18.47 -46.47)"/><path class="cls-14" d="M116,191.77c10.27-5.92,26.91-5.92,37.17,0,4,2.3,6.39,5.14,7.29,8.1,1.43-4.7-1-9.72-7.29-13.36-10.26-5.92-26.9-5.92-37.17,0-6.29,3.64-8.71,8.66-7.28,13.36C109.57,196.91,112,194.06,116,191.77Z" transform="translate(-18.47 -46.47)"/><path class="cls-15" d="M116,189.22c10.27-5.93,26.91-5.93,37.17,0,4.54,2.62,7.06,5.95,7.59,9.38.67-4.33-1.86-8.78-7.59-12.09-10.26-5.92-26.9-5.92-37.17,0-5.72,3.31-8.25,7.76-7.58,12.08C108.9,195.17,111.42,191.83,116,189.22Z" transform="translate(-18.47 -46.47)"/><path class="cls-5" d="M156,178.91a2.58,2.58,0,0,0-2.42.33c-.52.48-.26,1.1.57,1.4a2.63,2.63,0,0,0,2.43-.33C157.11,179.83,156.85,179.2,156,178.91Z" transform="translate(-18.47 -46.47)"/><path class="cls-16" d="M161.83,181.72a2.71,2.71,0,0,0-2.45.06c-.65.4-.61,1,.09,1.41a2.71,2.71,0,0,0,2.45-.05C162.57,182.73,162.53,182.1,161.83,181.72Z" transform="translate(-18.47 -46.47)"/><path class="cls-17" d="M166.59,185.13a2.65,2.65,0,0,0-2.42-.23c-.78.33-.95.95-.39,1.4a2.62,2.62,0,0,0,2.42.22C167,186.2,167.15,185.57,166.59,185.13Z" transform="translate(-18.47 -46.47)"/><path class="cls-18" d="M170.11,189a2.4,2.4,0,0,0-2.3-.49c-.87.23-1.25.82-.85,1.33a2.4,2.4,0,0,0,2.3.49C170.13,190.1,170.51,189.5,170.11,189Z" transform="translate(-18.47 -46.47)"/><path class="cls-19" d="M172.25,193.2a2,2,0,0,0-2.08-.74c-.94.12-1.51.66-1.29,1.2s1.16.87,2.09.74S172.48,193.74,172.25,193.2Z" transform="translate(-18.47 -46.47)"/><path class="cls-20" d="M172.76,198c.42-.49.07-1.09-.79-1.33a2.41,2.41,0,0,0-2.32.46c-.42.49-.07,1.09.79,1.33A2.4,2.4,0,0,0,172.76,198Z" transform="translate(-18.47 -46.47)"/><path class="cls-34" d="M161,118.82H108.45v77.77h0c-.3,4.1,2.26,8.25,7.67,11.38,10.27,5.93,26.91,5.93,37.17,0,5.42-3.12,8-7.28,7.68-11.38h0Z" transform="translate(-18.47 -46.47)"/><path class="cls-35" d="M235,302.7c-10.58,0-21.15-2.33-29.2-7-7.84-4.53-12.16-10.56-12.16-17s4.32-12.46,12.16-17c16.1-9.29,42.29-9.29,58.39,0,7.84,4.53,12.16,10.56,12.16,17s-4.32,12.46-12.16,17h0C256.09,300.37,245.52,302.7,235,302.7Zm0-47.47c-10.5,0-21,2.3-29,6.92-7.7,4.44-11.94,10.33-11.94,16.59s4.24,12.15,11.94,16.59c16,9.23,42,9.22,57.94,0h0c7.69-4.45,11.93-10.34,11.93-16.6s-4.24-12.15-11.94-16.59C255.93,257.53,245.44,255.23,235,255.23Z" transform="translate(-18.47 -46.47)"/><ellipse class="cls-8" cx="216.48" cy="232.27" rx="34.73" ry="20.05"/><path class="cls-36" d="M276.07,268.44V255h-7.28a33.74,33.74,0,0,0-4.76-3.32c-16.06-9.28-42.1-9.28-58.17,0A34.33,34.33,0,0,0,201.1,255h-7.28v13.47h0c0,6.07,4,12.15,12.05,16.79,16.06,9.27,42.1,9.27,58.16,0C272.07,280.61,276.08,274.52,276.07,268.44Z" transform="translate(-18.47 -46.47)"/><path class="cls-10" d="M194.2,268.11V255h-.38v13.47c0,5.44,3.24,10.87,9.68,15.27C197.31,279.15,194.2,273.63,194.2,268.11Z" transform="translate(-18.47 -46.47)"/><path class="cls-5" d="M275.42,255v13c0,6.09-4,12.17-12,16.81-16.06,9.28-42.1,9.28-58.16,0-.82-.47-1.57-1-2.3-1.46.91.65,1.89,1.29,3,1.9,16.06,9.27,42.1,9.27,58.16,0,8-4.64,12.05-10.73,12-16.81V255Z" transform="translate(-18.47 -46.47)"/><ellipse class="cls-37" cx="216.48" cy="208.53" rx="41.13" ry="23.75"/><path class="cls-10" d="M207,238.45c8.15-4.71,18.81-7.09,29.5-7.16-11-.23-22.19,2.05-30.62,6.91-12.51,7.23-15.38,18.08-8.24,26.71C191.47,256.08,194.58,245.6,207,238.45Z" transform="translate(-18.47 -46.47)"/><path class="cls-5" d="M264,238.2a50.87,50.87,0,0,0-14.55-5.4,49.75,49.75,0,0,1,13.1,5.08c16.07,9.27,16.07,24.31,0,33.58-11.8,6.81-29,8.6-43.62,5.41,15,3.63,32.88,1.95,45.06-5.08C280.09,262.51,280.09,247.48,264,238.2Z" transform="translate(-18.47 -46.47)"/><ellipse class="cls-12" cx="216.28" cy="208.53" rx="26.28" ry="15.17"/><path class="cls-13" d="M216.16,252.4c10.27-5.93,26.91-5.93,37.17,0a16.16,16.16,0,0,1,6.73,6.66c2.44-5.1.21-10.79-6.73-14.79-10.26-5.93-26.9-5.93-37.17,0-6.94,4-9.17,9.7-6.72,14.8A16.07,16.07,0,0,1,216.16,252.4Z" transform="translate(-18.47 -46.47)"/><path class="cls-14" d="M216.16,249.53c10.27-5.93,26.91-5.93,37.17,0,4,2.29,6.39,5.13,7.29,8.1,1.42-4.71-1-9.73-7.29-13.36-10.26-5.93-26.9-5.93-37.17,0-6.29,3.64-8.71,8.66-7.28,13.36C209.78,254.66,212.19,251.82,216.16,249.53Z" transform="translate(-18.47 -46.47)"/><path class="cls-15" d="M216.16,247c10.27-5.93,26.91-5.93,37.17,0,4.54,2.62,7.06,6,7.59,9.38.66-4.32-1.86-8.78-7.59-12.08-10.26-5.93-26.9-5.93-37.17,0-5.73,3.31-8.25,7.76-7.58,12.09C209.1,252.92,211.63,249.59,216.16,247Z" transform="translate(-18.47 -46.47)"/><path class="cls-5" d="M256.23,236.66a2.6,2.6,0,0,0-2.43.33c-.51.48-.25,1.11.58,1.4a2.61,2.61,0,0,0,2.43-.33C257.32,237.58,257.06,237,256.23,236.66Z" transform="translate(-18.47 -46.47)"/><path class="cls-16" d="M262,239.47a2.71,2.71,0,0,0-2.45.06c-.65.4-.61,1,.09,1.41a2.71,2.71,0,0,0,2.45-.05C262.78,240.48,262.74,239.85,262,239.47Z" transform="translate(-18.47 -46.47)"/><path class="cls-17" d="M266.8,242.88a2.65,2.65,0,0,0-2.42-.23c-.78.33-.95.95-.39,1.4a2.64,2.64,0,0,0,2.42.23C267.18,244,267.36,243.33,266.8,242.88Z" transform="translate(-18.47 -46.47)"/><path class="cls-18" d="M270.32,246.75a2.4,2.4,0,0,0-2.3-.49c-.87.23-1.25.83-.85,1.33a2.38,2.38,0,0,0,2.29.49C270.33,247.85,270.72,247.26,270.32,246.75Z" transform="translate(-18.47 -46.47)"/><path class="cls-19" d="M272.46,251c-.22-.54-1.16-.87-2.09-.74s-1.5.67-1.28,1.2,1.15.87,2.09.75S272.68,251.49,272.46,251Z" transform="translate(-18.47 -46.47)"/><path class="cls-20" d="M273,255.79c.42-.5.06-1.1-.8-1.34a2.41,2.41,0,0,0-2.32.46c-.42.49-.06,1.09.8,1.34A2.46,2.46,0,0,0,273,255.79Z" transform="translate(-18.47 -46.47)"/><path class="cls-38" d="M261.21,176.58H208.66v77.76h0c-.3,4.1,2.25,8.26,7.67,11.38,10.27,5.93,26.91,5.93,37.17,0,5.42-3.13,8-7.29,7.67-11.39h0Z" transform="translate(-18.47 -46.47)"/><path class="cls-39" d="M338.78,185.29c-10.57,0-21.14-2.33-29.19-7-7.84-4.52-12.16-10.55-12.16-17s4.32-12.46,12.16-17c16.09-9.29,42.29-9.29,58.39,0,7.84,4.53,12.16,10.56,12.16,17s-4.32,12.46-12.16,17C359.93,183,349.36,185.29,338.78,185.29Zm0-47.47c-10.49,0-21,2.3-29,6.91-7.69,4.45-11.93,10.34-11.93,16.6s4.24,12.15,11.93,16.59c16,9.23,42,9.23,57.94,0l.11.2-.11-.2c7.7-4.44,11.93-10.33,11.93-16.59s-4.23-12.15-11.93-16.6C359.76,140.12,349.27,137.82,338.78,137.82Z" transform="translate(-18.47 -46.47)"/><ellipse class="cls-8" cx="320.32" cy="114.86" rx="34.73" ry="20.05"/><path class="cls-40" d="M379.91,151V137.58h-7.28a34.45,34.45,0,0,0-4.77-3.32c-16.06-9.28-42.1-9.28-58.16,0a33.61,33.61,0,0,0-4.77,3.32h-7.27v13.47h0c0,6.07,4,12.15,12,16.79,16.06,9.27,42.1,9.27,58.16,0C375.9,163.19,379.92,157.11,379.91,151Z" transform="translate(-18.47 -46.47)"/><path class="cls-10" d="M298,150.7V137.58h-.37v13.47c0,5.44,3.24,10.87,9.67,15.27C301.14,161.74,298,156.22,298,150.7Z" transform="translate(-18.47 -46.47)"/><path class="cls-5" d="M379.26,137.58v13c0,6.09-4,12.17-12,16.81-16.06,9.28-42.11,9.28-58.17,0-.81-.47-1.56-1-2.3-1.46.92.65,1.9,1.29,2.95,1.9,16.06,9.27,42.1,9.27,58.16,0,8-4.65,12.06-10.73,12.05-16.82V137.58Z" transform="translate(-18.47 -46.47)"/><ellipse class="cls-41" cx="320.32" cy="91.12" rx="41.13" ry="23.75"/><path class="cls-10" d="M310.81,121c8.16-4.71,18.82-7.09,29.51-7.16-11-.24-22.2,2.05-30.62,6.91-12.51,7.23-15.39,18.08-8.25,26.71C295.31,138.67,298.42,128.19,310.81,121Z" transform="translate(-18.47 -46.47)"/><path class="cls-5" d="M367.86,120.79a50.65,50.65,0,0,0-14.55-5.4,49.47,49.47,0,0,1,13.11,5.08c16.06,9.27,16.06,24.31,0,33.58-11.79,6.81-29,8.6-43.61,5.41,14.95,3.63,32.87,1.95,45.05-5.09C383.93,145.1,383.93,130.07,367.86,120.79Z" transform="translate(-18.47 -46.47)"/><ellipse class="cls-12" cx="320.12" cy="91.12" rx="26.28" ry="15.17"/><path class="cls-13" d="M320,135c10.26-5.93,26.9-5.93,37.17,0a16.07,16.07,0,0,1,6.72,6.66c2.45-5.1.22-10.79-6.72-14.8-10.27-5.92-26.91-5.92-37.17,0-6.94,4-9.17,9.7-6.72,14.8A16,16,0,0,1,320,135Z" transform="translate(-18.47 -46.47)"/><path class="cls-14" d="M320,132.11c10.26-5.92,26.9-5.92,37.17,0,4,2.3,6.38,5.14,7.28,8.1,1.43-4.7-1-9.72-7.28-13.36-10.27-5.92-26.91-5.92-37.17,0-6.3,3.64-8.71,8.66-7.29,13.36C313.61,137.25,316,134.41,320,132.11Z" transform="translate(-18.47 -46.47)"/><path class="cls-15" d="M320,129.56c10.26-5.93,26.9-5.93,37.17,0,4.53,2.62,7.06,5.95,7.58,9.38.67-4.32-1.85-8.78-7.58-12.09-10.27-5.92-26.91-5.92-37.17,0-5.73,3.31-8.25,7.76-7.59,12.08C312.94,135.51,315.46,132.17,320,129.56Z" transform="translate(-18.47 -46.47)"/><path class="cls-5" d="M360.06,119.25a2.59,2.59,0,0,0-2.42.33c-.51.48-.25,1.11.58,1.4a2.61,2.61,0,0,0,2.42-.33C361.15,120.17,360.89,119.54,360.06,119.25Z" transform="translate(-18.47 -46.47)"/><path class="cls-16" d="M365.87,122.06a2.71,2.71,0,0,0-2.45.06c-.65.4-.61,1,.09,1.41a2.71,2.71,0,0,0,2.45,0C366.61,123.07,366.57,122.44,365.87,122.06Z" transform="translate(-18.47 -46.47)"/><path class="cls-17" d="M370.63,125.47a2.64,2.64,0,0,0-2.42-.23c-.77.33-.95,1-.39,1.4a2.62,2.62,0,0,0,2.42.22C371,126.54,371.19,125.92,370.63,125.47Z" transform="translate(-18.47 -46.47)"/><path class="cls-18" d="M374.15,129.34a2.38,2.38,0,0,0-2.29-.49c-.87.23-1.26.82-.86,1.33a2.4,2.4,0,0,0,2.3.49C374.17,130.44,374.55,129.85,374.15,129.34Z" transform="translate(-18.47 -46.47)"/><path class="cls-19" d="M376.3,133.54c-.22-.54-1.16-.87-2.09-.74s-1.51.66-1.29,1.2a2,2,0,0,0,2.09.74C375.94,134.62,376.52,134.08,376.3,133.54Z" transform="translate(-18.47 -46.47)"/><path class="cls-20" d="M376.81,138.37c.42-.49.06-1.09-.8-1.33a2.41,2.41,0,0,0-2.32.46c-.42.49-.06,1.09.8,1.33A2.41,2.41,0,0,0,376.81,138.37Z" transform="translate(-18.47 -46.47)"/><path class="cls-42" d="M365.05,59.16H312.49v77.77h0c-.31,4.1,2.25,8.26,7.67,11.38,10.26,5.93,26.9,5.93,37.17,0,5.42-3.12,8-7.28,7.67-11.38h0Z" transform="translate(-18.47 -46.47)"/><path class="cls-43" d="M361.21,265.63c-10.57,0-21.14-2.32-29.19-7-7.84-4.53-12.16-10.56-12.16-17s4.32-12.46,12.16-17c16.09-9.29,42.29-9.29,58.39,0,7.84,4.53,12.15,10.56,12.15,17s-4.31,12.46-12.15,17h0C382.36,263.31,371.78,265.63,361.21,265.63Zm0-47.47c-10.49,0-21,2.31-29,6.92-7.69,4.44-11.93,10.34-11.93,16.6s4.24,12.15,11.93,16.59c16,9.22,42,9.22,57.94,0h0c7.7-4.44,11.93-10.33,11.93-16.59s-4.23-12.15-11.93-16.6C382.19,220.47,371.7,218.16,361.21,218.16Z" transform="translate(-18.47 -46.47)"/><ellipse class="cls-8" cx="342.75" cy="195.21" rx="34.73" ry="20.05"/><path class="cls-44" d="M402.34,231.37V217.93h-7.28a33.64,33.64,0,0,0-4.77-3.33c-16.06-9.27-42.1-9.27-58.16,0a33.64,33.64,0,0,0-4.77,3.33h-7.28v13.46h0c0,6.08,4,12.16,12.05,16.79,16.06,9.28,42.1,9.28,58.16,0C398.33,243.54,402.35,237.46,402.34,231.37Z" transform="translate(-18.47 -46.47)"/><path class="cls-10" d="M320.46,231V217.93h-.38v13.46c0,5.44,3.25,10.87,9.68,15.28C323.57,242.09,320.46,236.57,320.46,231Z" transform="translate(-18.47 -46.47)"/><path class="cls-5" d="M401.69,217.93v13c0,6.08-4,12.17-12,16.81-16.07,9.27-42.11,9.27-58.17,0-.82-.47-1.56-1-2.3-1.47.92.66,1.9,1.29,2.95,1.9,16.06,9.28,42.1,9.28,58.16,0,8-4.64,12.06-10.72,12-16.81V217.93Z" transform="translate(-18.47 -46.47)"/><ellipse class="cls-45" cx="342.75" cy="171.47" rx="41.13" ry="23.75"/><path class="cls-10" d="M333.24,201.39c8.16-4.71,18.82-7.09,29.51-7.16-11-.24-22.2,2.05-30.62,6.91-12.51,7.23-15.39,18.08-8.25,26.71C317.74,219,320.85,208.54,333.24,201.39Z" transform="translate(-18.47 -46.47)"/><path class="cls-5" d="M390.29,201.14a51,51,0,0,0-14.55-5.41,50,50,0,0,1,13.11,5.09c16.06,9.27,16.06,24.3,0,33.58-11.79,6.81-29,8.6-43.61,5.4,14.95,3.64,32.87,2,45.05-5.08C406.35,225.45,406.35,210.41,390.29,201.14Z" transform="translate(-18.47 -46.47)"/><path class="cls-12" d="M379.6,228.66c-10.27,5.93-26.91,5.93-37.17,0s-10.27-15.53,0-21.46,26.9-5.92,37.17,0S389.86,222.74,379.6,228.66Z" transform="translate(-18.47 -46.47)"/><path class="cls-13" d="M342.43,215.33c10.26-5.92,26.9-5.92,37.17,0a16.09,16.09,0,0,1,6.72,6.67c2.45-5.1.22-10.79-6.72-14.8-10.27-5.92-26.91-5.92-37.17,0-6.94,4-9.17,9.7-6.73,14.8A16.18,16.18,0,0,1,342.43,215.33Z" transform="translate(-18.47 -46.47)"/><path class="cls-14" d="M342.43,212.46c10.26-5.92,26.9-5.92,37.17,0,4,2.29,6.38,5.14,7.28,8.1,1.43-4.7-1-9.72-7.28-13.36-10.27-5.92-26.91-5.92-37.17,0-6.3,3.64-8.71,8.66-7.29,13.36C336,217.6,338.46,214.75,342.43,212.46Z" transform="translate(-18.47 -46.47)"/><path class="cls-15" d="M342.43,209.9c10.26-5.92,26.9-5.92,37.17,0,4.53,2.62,7.06,6,7.58,9.38.67-4.32-1.85-8.77-7.58-12.08-10.27-5.92-26.91-5.92-37.17,0-5.73,3.31-8.25,7.76-7.59,12.08C335.37,215.86,337.89,212.52,342.43,209.9Z" transform="translate(-18.47 -46.47)"/><path class="cls-5" d="M382.49,199.59a2.61,2.61,0,0,0-2.42.34c-.51.48-.25,1.1.57,1.4a2.63,2.63,0,0,0,2.43-.34C383.58,200.52,383.32,199.89,382.49,199.59Z" transform="translate(-18.47 -46.47)"/><path class="cls-16" d="M388.3,202.41a2.71,2.71,0,0,0-2.45.05c-.65.41-.61,1,.09,1.42a2.74,2.74,0,0,0,2.45,0C389,203.42,389,202.79,388.3,202.41Z" transform="translate(-18.47 -46.47)"/><path class="cls-17" d="M393.06,205.81a2.67,2.67,0,0,0-2.42-.22c-.77.32-.95.95-.39,1.4a2.62,2.62,0,0,0,2.42.22C393.45,206.89,393.62,206.26,393.06,205.81Z" transform="translate(-18.47 -46.47)"/><path class="cls-18" d="M396.58,209.69a2.4,2.4,0,0,0-2.3-.49c-.87.23-1.25.82-.85,1.32a2.38,2.38,0,0,0,2.3.5C396.6,210.79,397,210.19,396.58,209.69Z" transform="translate(-18.47 -46.47)"/><path class="cls-19" d="M398.73,213.89a2,2,0,0,0-2.09-.75c-.93.13-1.51.67-1.29,1.21s1.16.87,2.09.74S399,214.43,398.73,213.89Z" transform="translate(-18.47 -46.47)"/><path class="cls-20" d="M399.24,218.72c.42-.5.06-1.09-.8-1.34a2.46,2.46,0,0,0-2.32.46c-.42.5-.06,1.1.8,1.34A2.43,2.43,0,0,0,399.24,218.72Z" transform="translate(-18.47 -46.47)"/><path class="cls-46" d="M387.47,139.51H334.92v77.77h0c-.31,4.1,2.25,8.25,7.67,11.38,10.26,5.93,26.9,5.93,37.17,0,5.42-3.13,8-7.28,7.67-11.38h0Z" transform="translate(-18.47 -46.47)"/><path class="cls-47" d="M135.67,184.59h16.87V168.84a1.13,1.13,0,0,0-1.12-1.13H135.67Z" transform="translate(-18.47 -46.47)"/><path class="cls-48" d="M133.42,184.59V167.71H117.67a1.13,1.13,0,0,0-1.13,1.13v15.75Z" transform="translate(-18.47 -46.47)"/><path class="cls-49" d="M133.42,186.84H116.54v15.75a1.12,1.12,0,0,0,1.13,1.12h15.75Z" transform="translate(-18.47 -46.47)"/><path class="cls-50" d="M135.67,186.84v16.87h15.75a1.12,1.12,0,0,0,1.12-1.12V186.84Z" transform="translate(-18.47 -46.47)"/><path class="cls-51" d="M235.18,238.92c0-.06,0-.11,0-.17a1.36,1.36,0,0,1,1.19-1.47,1.34,1.34,0,0,1,1.2,1.47,1.91,1.91,0,0,1-.08.54,2.21,2.21,0,0,0,.31-1.12,1.45,1.45,0,1,0-2.82,0,2.15,2.15,0,0,0,.11.71Z" transform="translate(-18.47 -46.47)"/><path class="cls-51" d="M231.67,237.35h.12a1.31,1.31,0,0,1,1.11,1.22,2,2,0,0,1,0,.23l.11,0a2.06,2.06,0,0,0,0-.35c0-.91-.48-1.68-1.05-1.68s-.9.53-1,1.26A1,1,0,0,1,231.67,237.35Z" transform="translate(-18.47 -46.47)"/><path class="cls-51" d="M241.49,255.77a10.39,10.39,0,0,0,.15-3.69c-.32-2.17-3.37-8.93-3.9-9.69a9.75,9.75,0,0,0-1.78.9,12.13,12.13,0,0,1-2.1,1.06,1.34,1.34,0,0,1-.35,0,3.71,3.71,0,0,1-2.19-1.19,5.91,5.91,0,0,1-1.22,3,8.37,8.37,0,0,0-1,2.33,12.63,12.63,0,0,1-1,2.36,6.13,6.13,0,0,0-.64,4.79,7,7,0,0,0,2.09,2c1,.81,1.95,1.5,2,2.21a1.36,1.36,0,0,1-.76,1.51l1.12,1.28a7.77,7.77,0,0,0,1.24.08,18.1,18.1,0,0,0,2.53-.2,7,7,0,0,0,4.09-2.56,32.11,32.11,0,0,1,.17-3.54c.06-.28.29-.74,1.14-.74A2,2,0,0,1,241.49,255.77Z" transform="translate(-18.47 -46.47)"/><path class="cls-52" d="M231.75,241.51a2.76,2.76,0,0,0,1,1,2.49,2.49,0,0,1,.24.17c.34.22.48.32.72.28a12.12,12.12,0,0,0,2.22-1.17l.14-.09.5-.28c.27-.13.29-.16.3-.21a1.48,1.48,0,0,0-.75-.44l-.61-.24A12.39,12.39,0,0,0,234,240h0a2.65,2.65,0,0,0-1.27.79C232.43,241,231.94,241.36,231.75,241.51Z" transform="translate(-18.47 -46.47)"/><path class="cls-52" d="M227.29,259l-.51-.84c-.4-.63-1.1-1.33-1.44-1.33h-.05a1.68,1.68,0,0,0-.47.71,2.53,2.53,0,0,1-.85,1.14,4.31,4.31,0,0,1-1.24.39c-.33.07-1.09.23-1.13.39a1.6,1.6,0,0,0,.06.7,3.24,3.24,0,0,1,.08,1.21,6.47,6.47,0,0,1-.24.89c-.12.39-.27.84-.14,1a7.11,7.11,0,0,0,1.74.39,12,12,0,0,1,2.24.5l.14.06a13.36,13.36,0,0,0,3.63,1.15l.21,0a2.23,2.23,0,0,0,.93-1.15c.17-.75-.51-1.62-.94-2.07A29.42,29.42,0,0,1,227.29,259Z" transform="translate(-18.47 -46.47)"/><path class="cls-52" d="M247.58,260.77l-.1-.06a2.51,2.51,0,0,1-1.1-2.28.94.94,0,0,0,0-.36,4.13,4.13,0,0,1-.57.75,3.64,3.64,0,0,1-2.26.84,1.84,1.84,0,0,1-1.89-2.21h0a5.52,5.52,0,0,0,0,1.26c0,.23,0,.47,0,.69a17.77,17.77,0,0,1-.52,3.8c-.26,1.18.21,2,.78,2.18a.52.52,0,0,0,.18,0,3.92,3.92,0,0,0,2.17-1.36,12,12,0,0,1,2.84-1.75,11.23,11.23,0,0,0,1.41-.79s0-.06,0-.06C248.56,261.29,247.85,260.91,247.58,260.77Z" transform="translate(-18.47 -46.47)"/><path d="M249.36,260.08c-1.05-.44-1.5-1-1.46-1.87a2.85,2.85,0,0,0-.79-2,8.73,8.73,0,0,0,0-4.63c-.69-2-2.78-5.05-4.93-8.05a6.92,6.92,0,0,1-1-4.13,12.52,12.52,0,0,0-.92-5,5.21,5.21,0,0,0-4.94-3.19,6.79,6.79,0,0,0-3.75,1.14c-2.16,1.49-1.88,4.74-1.69,6.88,0,.3,0,.58.07.81a10.74,10.74,0,0,1-.14,3.55,14,14,0,0,1-1.08,1.51c-.52.69-1.11,1.47-1.59,2.19a16.84,16.84,0,0,0-1.5,3.49,16.85,16.85,0,0,1-.94,2.37,3.19,3.19,0,0,0-.31,2.42,2.42,2.42,0,0,0-.8,1c-.32.68-1,1-2.33,1.31a1.78,1.78,0,0,0-1.27.78,2.19,2.19,0,0,0,0,1.76,2.75,2.75,0,0,1-.18,2l-.21.64a1.15,1.15,0,0,0,.13,1c.51.78,2,1.05,3.53,1.23a13.63,13.63,0,0,1,2.9.84,14.06,14.06,0,0,0,2.82.81l.4,0a2.37,2.37,0,0,0,2.16-1.27,23.62,23.62,0,0,1,3.88-.45,17.17,17.17,0,0,1,3.85.39,3.1,3.1,0,0,0,1.17,1.27,2.87,2.87,0,0,0,1.3.29h0a3.14,3.14,0,0,0,2.3-.95,20.33,20.33,0,0,1,4.17-2.66l.87-.48a2,2,0,0,0,1.21-1.74A1.48,1.48,0,0,0,249.36,260.08Zm-13-23.71a1.65,1.65,0,0,1,1.41,1.8,2.21,2.21,0,0,1-.31,1.12,1.91,1.91,0,0,0,.08-.54,1.34,1.34,0,0,0-1.2-1.47,1.36,1.36,0,0,0-1.19,1.47c0,.06,0,.11,0,.17l-.1,0a2.15,2.15,0,0,1-.11-.71A1.64,1.64,0,0,1,236.38,236.37ZM234,240a12.39,12.39,0,0,1,1.56.56l.61.24a1.48,1.48,0,0,1,.75.44s0,.08-.3.21-.3.16-.5.29l-.14.08a12.12,12.12,0,0,1-2.22,1.17c-.24,0-.38-.06-.72-.28-.07-.06-.16-.11-.24-.17a2.76,2.76,0,0,1-1-1c.19-.15.68-.53.93-.75A2.65,2.65,0,0,1,234,240Zm-2-3.26c.57,0,1.05.77,1.05,1.68,0,.12,0,.23,0,.35l-.11,0a2,2,0,0,0,0-.23,1.31,1.31,0,0,0-1.11-1.22h-.12a1,1,0,0,0-.69.62C231.1,237.24,231.51,236.71,232,236.71Zm-1.75,27.45a2.23,2.23,0,0,1-.93,1.15l-.21,0a13.36,13.36,0,0,1-3.63-1.15l-.14-.06a12,12,0,0,0-2.24-.5,7.11,7.11,0,0,1-1.74-.39c-.13-.14,0-.59.14-1a6.47,6.47,0,0,0,.24-.89,3.24,3.24,0,0,0-.08-1.21,1.6,1.6,0,0,1-.06-.7c0-.16.8-.32,1.13-.39a4.31,4.31,0,0,0,1.24-.39,2.53,2.53,0,0,0,.85-1.14,1.68,1.68,0,0,1,.47-.71h.05c.34,0,1,.7,1.44,1.33l.51.84a29.42,29.42,0,0,0,2,3.11C229.74,262.54,230.42,263.41,230.25,264.16Zm9.74-7.67a32.11,32.11,0,0,0-.17,3.54,7,7,0,0,1-4.09,2.56,18.1,18.1,0,0,1-2.53.2,7.77,7.77,0,0,1-1.24-.08l-1.12-1.28a1.36,1.36,0,0,0,.76-1.51c-.1-.71-1-1.4-2-2.21a7,7,0,0,1-2.09-2,6.13,6.13,0,0,1,.64-4.79,12.63,12.63,0,0,0,1-2.36,8.37,8.37,0,0,1,1-2.33,5.91,5.91,0,0,0,1.22-3,3.71,3.71,0,0,0,2.19,1.19,1.34,1.34,0,0,0,.35,0,12.13,12.13,0,0,0,2.1-1.06,9.75,9.75,0,0,1,1.78-.9c.53.76,3.58,7.52,3.9,9.69a10.41,10.41,0,0,1-.15,3.69,3.48,3.48,0,0,0-.36,0C240.28,255.74,240.05,256.21,240,256.49Zm8.54,5a11.23,11.23,0,0,1-1.41.79,12,12,0,0,0-2.84,1.75,3.92,3.92,0,0,1-2.17,1.36.52.52,0,0,1-.18,0c-.57-.18-1-1-.78-2.18a17.77,17.77,0,0,0,.52-3.8c0-.22,0-.46,0-.69a5.52,5.52,0,0,1,0-1.26h0a1.84,1.84,0,0,0,1.89,2.21,3.64,3.64,0,0,0,2.26-.84,3.72,3.72,0,0,0,.57-.75.94.94,0,0,1,0,.36,2.51,2.51,0,0,0,1.1,2.28l.1.06c.27.14,1,.52,1,.69C248.57,261.46,248.57,261.48,248.53,261.52Z" transform="translate(-18.47 -46.47)"/><path class="cls-53" d="M187.1,112.83a2.25,2.25,0,0,0-2.25,2.25v10.5a2.25,2.25,0,1,0,4.5,0v-10.5A2.25,2.25,0,0,0,187.1,112.83Z" transform="translate(-18.47 -46.47)"/><path class="cls-53" d="M212.59,112.83a2.25,2.25,0,0,0-2.25,2.25v10.5a2.25,2.25,0,1,0,4.5,0v-10.5A2.25,2.25,0,0,0,212.59,112.83Z" transform="translate(-18.47 -46.47)"/><path class="cls-53" d="M208.09,112.83H191.6a.75.75,0,0,0-.75.75v12a3.75,3.75,0,0,0,3,3.67v5.32a2.25,2.25,0,0,0,4.5,0v-5.24h3v5.24a2.25,2.25,0,1,0,4.49,0v-5.32a3.75,3.75,0,0,0,3-3.67v-12A.75.75,0,0,0,208.09,112.83Z" transform="translate(-18.47 -46.47)"/><path class="cls-53" d="M205.3,103.94l1.83-1.83a.75.75,0,0,0,0-1.06.76.76,0,0,0-1.06,0l0,0-2.12,2.13a10.29,10.29,0,0,0-8.18,0l-2.13-2.13a.75.75,0,0,0-1.06,1.06l1.82,1.83a7.9,7.9,0,0,0-3.54,6.64.75.75,0,0,0,.75.75h16.49a.75.75,0,0,0,.75-.75A7.9,7.9,0,0,0,205.3,103.94Z" transform="translate(-18.47 -46.47)"/><circle class="cls-54" cx="177.63" cy="61.12" r="0.75"/><circle class="cls-54" cx="185.13" cy="61.12" r="0.75"/><path class="cls-55" d="M366.91,199a7.89,7.89,0,0,0,1.74-5.84,8.44,8.44,0,0,0-5.47,3,7.36,7.36,0,0,0-1.79,5.7A7.1,7.1,0,0,0,366.91,199Z" transform="translate(-18.47 -46.47)"/><path class="cls-55" d="M376.24,205.26a9.15,9.15,0,0,0-6.88-3.66c-3.23,0-4.6,1.55-6.84,1.55s-4.07-1.54-6.86-1.54a9.37,9.37,0,0,0-7.52,4.54c-2.6,4-2.15,11.63,2.06,18.09,1.51,2.31,3.53,4.92,6.17,4.94,2.34,0,3-1.51,6.18-1.52s3.79,1.54,6.13,1.51c2.64,0,4.76-2.9,6.27-5.21a25.65,25.65,0,0,0,2.33-4.37A7.93,7.93,0,0,1,376.24,205.26Z" transform="translate(-18.47 -46.47)"/><g id="Layer_7" data-name="Layer 7"><path class="cls-56" d="M354.94,132.16a16.27,16.27,0,1,1-16.29-16.25h0a16.26,16.26,0,0,1,16.28,16.24Z" transform="translate(-18.47 -46.47)"/><path class="cls-57" d="M354.94,132.16a16.28,16.28,0,0,1-21,15.55,16.65,16.65,0,0,0,2.12.14A16.26,16.26,0,0,0,340.81,116,16.29,16.29,0,0,1,354.94,132.16Z" transform="translate(-18.47 -46.47)"/><path class="cls-57" d="M347.13,140A20.5,20.5,0,0,0,348.25,128a21.2,21.2,0,0,0-1.12-3.66c.75-.15,1.42-.33,2.11-.51a20.12,20.12,0,0,0,2.74-.94c-.22-.3-.44-.6-.67-.89a24.66,24.66,0,0,1-2.35.75c-.75.2-1.5.38-2.25.56a20.89,20.89,0,0,0-1.59-2.75,19.22,19.22,0,0,0-4.32-4.5h0c-.27,0-.56-.06-.83-.09s-.81,0-1.22,0h-.11c-.41,0-.81,0-1.22,0a5.71,5.71,0,0,0-.82.09h0a19.22,19.22,0,0,0-4.32,4.5,19.78,19.78,0,0,0-1.62,2.82,23.31,23.31,0,0,1-4.61-1.39c-.24.29-.46.59-.67.89a23.93,23.93,0,0,0,4.83,1.5,20.84,20.84,0,0,0,0,15.64,23.84,23.84,0,0,0-4.82,1.5,9.85,9.85,0,0,0,.67.89,23.09,23.09,0,0,1,4.61-1.38,19.21,19.21,0,0,0,1.77,3,21.43,21.43,0,0,0,4.21,4.35c.26,0,.53.06.79.08s.81,0,1.21,0h.12c.4,0,.81,0,1.21,0a6.82,6.82,0,0,0,.79-.08,21.43,21.43,0,0,0,4.21-4.35,18.47,18.47,0,0,0,1.74-2.89c.75.16,1.55.35,2.29.56a23.79,23.79,0,0,1,2.35.75c.24-.29.46-.59.67-.89a20,20,0,0,0-2.73-.94C348.59,140.33,347.86,140.17,347.13,140Zm.05-11.86a19.4,19.4,0,0,1-1.12,11.65c-1-.18-2.07-.32-3.13-.42a45.83,45.83,0,0,0,.4-11.16c-.09-1.13-.23-2.25-.41-3.33,1.07-.1,2.11-.24,3.13-.42a20.24,20.24,0,0,1,1.13,3.67Zm-8.54,20.17a19.52,19.52,0,0,1-2.19-4.89,29.88,29.88,0,0,1-.79-3.06c.87-.06,1.69-.08,2.49-.09,1.18,0,2.34,0,3.47.09-.21,1-.48,2-.79,3.06a19.52,19.52,0,0,1-2.19,4.89Zm-.5-9.12c-.84,0-1.74,0-2.67.09a44.86,44.86,0,0,1-.42-11c.1-1.15.24-2.25.42-3.33.93.06,1.83.08,2.67.09h.66q1.53,0,3-.09.27,1.6.42,3.33a44.84,44.84,0,0,1-.42,11q-1.79-.12-3.66-.09Zm.5-23.25a21.88,21.88,0,0,1,3,8c-1.13.07-2.25.09-3.46.08-.79,0-1.62,0-2.48-.08a22.58,22.58,0,0,1,3-8Zm5.53,5.16a21.12,21.12,0,0,1,1.38,2.34q-1.4.22-2.85.36a27.87,27.87,0,0,0-2-6.48,17.84,17.84,0,0,1,3.51,3.75Zm-11.06,0a18.05,18.05,0,0,1,3.5-3.75,27.58,27.58,0,0,0-2,6.5c-.93-.08-1.89-.18-2.86-.33a18.5,18.5,0,0,1,1.41-2.39Zm-3,7a20.09,20.09,0,0,1,1.13-3.63c1.06.18,2.13.31,3.14.38-.17,1.07-.31,2.18-.41,3.32a46.17,46.17,0,0,0,.4,11.14c-1,.08-2.07.21-3.14.39a19.41,19.41,0,0,1-1.11-11.61Zm3.14,15.13a18,18,0,0,1-1.54-2.51c1-.16,1.93-.25,2.86-.33a31.63,31.63,0,0,0,.84,3.32,30,30,0,0,0,1.2,3.15,22.23,22.23,0,0,1-3.36-3.63Zm10.78,0a21.17,21.17,0,0,1-3.34,3.61,29.17,29.17,0,0,0,1.2-3.15,30.66,30.66,0,0,0,.84-3.3c1,.09,1.92.21,2.82.37a19.83,19.83,0,0,1-1.5,2.45Z" transform="translate(-18.47 -46.47)"/><path class="cls-58" d="M355.84,136.27H321.46a.8.8,0,0,1-.81-.8h0v-4.89a.81.81,0,0,1,.8-.81h34.39a.81.81,0,0,1,.81.81v4.89A.8.8,0,0,1,355.84,136.27Z" transform="translate(-18.47 -46.47)"/><path class="cls-59" d="M324.66,134c0,.07-.11.16-.26.16s-.24-.09-.24-.16V131.4c0-.1.09-.16.24-.16s.26.06.26.16v1.19a.51.51,0,0,1,.49-.29.74.74,0,0,1,.67.78V134c0,.1-.13.16-.25.16s-.25-.06-.25-.16v-.93a.37.37,0,0,0-.35-.34.32.32,0,0,0-.31.34h0Z" transform="translate(-18.47 -46.47)"/><path class="cls-59" d="M326.93,133.55c0,.15.05.2.22.2h.15a.23.23,0,0,1,.22.2h0a.22.22,0,0,1-.22.22h-.11c-.48,0-.75-.2-.75-.63v-1.89c0-.1.13-.16.25-.16s.26.06.26.16v.67h.45c.09,0,.13.09.13.18s0,.18-.13.18H327Z" transform="translate(-18.47 -46.47)"/><path class="cls-59" d="M328.51,133.55c0,.15.06.2.22.2h.16a.22.22,0,0,1,0,.43h-.16c-.47,0-.75-.2-.75-.63v-1.89c0-.1.14-.16.25-.16s.25.06.25.16v.67H329c.07,0,.12.09.12.18s-.05.18-.12.18h-.47Z" transform="translate(-18.47 -46.47)"/><path class="cls-59" d="M330.08,132.48v.12a.62.62,0,0,1,.52-.3.76.76,0,0,1,.75.75v.37a.76.76,0,0,1-.68.8.56.56,0,0,1-.51-.31v1c0,.08-.12.16-.26.16s-.25-.08-.25-.16v-2.4c0-.1.11-.16.24-.16S330.08,132.39,330.08,132.48Zm.75.61a.38.38,0,0,0-.36-.35.35.35,0,0,0-.34.35h0v.39a.38.38,0,0,0,.35.29.35.35,0,0,0,.34-.36Z" transform="translate(-18.47 -46.47)"/><path class="cls-59" d="M332.73,133.65c0-.34-.92-.12-.92-.75,0-.28.17-.57.69-.57.32,0,.62.11.62.25s-.06.25-.18.25-.21-.11-.43-.11-.28.09-.28.17c0,.28.94.09.94.75,0,.35-.25.56-.75.56s-.7-.16-.7-.33.06-.22.16-.22.2.17.53.17S332.73,133.74,332.73,133.65Z" transform="translate(-18.47 -46.47)"/><path class="cls-59" d="M334.21,132.8a.27.27,0,0,1-.27.26h0a.26.26,0,0,1-.26-.26.26.26,0,0,1,.26-.26h0a.26.26,0,0,1,.27.26Zm0,1.12a.27.27,0,0,1-.27.27h0a.27.27,0,0,1,0-.53h0a.27.27,0,0,1,.26.27h0Z" transform="translate(-18.47 -46.47)"/><path class="cls-59" d="M336.43,131.34a.08.08,0,0,1,0,.07l-1.4,2.81a.13.13,0,0,1-.15.09.18.18,0,0,1-.19-.14h0v-.07l1.4-2.84a.15.15,0,0,1,.14-.07.19.19,0,0,1,.2.17Z" transform="translate(-18.47 -46.47)"/><path class="cls-59" d="M337.61,131.34v.07l-1.42,2.81a.15.15,0,0,1-.15.09.17.17,0,0,1-.19-.17h0a.08.08,0,0,1,0-.07l1.39-2.84a.18.18,0,0,1,.15-.07.19.19,0,0,1,.2.16Z" transform="translate(-18.47 -46.47)"/><path class="cls-59" d="M339.86,134.17a.21.21,0,0,1-.19.09.22.22,0,0,1-.21-.09l-.3-.85-.3.84c0,.06-.12.1-.21.1a.2.2,0,0,1-.2-.1l-.6-1.54a.09.09,0,0,1,0-.07c0-.12.2-.21.33-.21a.15.15,0,0,1,.14.08l.39,1.13.3-1c0-.09.09-.11.17-.11s.14,0,.16.11l.3,1,.39-1.13a.18.18,0,0,1,.15-.08c.12,0,.32.09.32.21a.09.09,0,0,1,0,.07Z" transform="translate(-18.47 -46.47)"/><path class="cls-59" d="M342.79,134.17a.21.21,0,0,1-.19.09.22.22,0,0,1-.21-.09l-.29-.85-.3.84c0,.06-.12.1-.22.1a.21.21,0,0,1-.2-.1l-.6-1.54v-.07c0-.12.2-.21.33-.21a.18.18,0,0,1,.15.08l.39,1.13.28-1c0-.09.1-.11.18-.11s.14,0,.17.11l.28,1,.4-1.13a.16.16,0,0,1,.15-.08c.12,0,.31.09.31.21a.09.09,0,0,1,0,.07Z" transform="translate(-18.47 -46.47)"/><path class="cls-59" d="M345.73,134.17a.26.26,0,0,1-.38,0h0l-.31-.85-.29.84a.23.23,0,0,1-.22.1.2.2,0,0,1-.19-.1l-.62-1.54v-.07c0-.12.2-.21.33-.21a.16.16,0,0,1,.15.08l.39,1.13.29-1c0-.09.09-.11.16-.11s.15,0,.18.11l.29,1,.39-1.13a.18.18,0,0,1,.15-.08c.12,0,.32.09.32.21v.07Z" transform="translate(-18.47 -46.47)"/><path class="cls-60" d="M355.84,136.29h-6.31v-6.58h6.31a.8.8,0,0,1,.81.8h0v5a.79.79,0,0,1-.81.78Z" transform="translate(-18.47 -46.47)"/><path class="cls-61" d="M355.84,136.27h-1v-6.5h1a.8.8,0,0,1,.81.8h0v4.89a.8.8,0,0,1-.81.8Z" transform="translate(-18.47 -46.47)"/><path id="nd-2" class="cls-62" d="M349.93,132.67v.5a2.41,2.41,0,0,0,0,.38v.13a1.2,1.2,0,0,0,.13.33,1.38,1.38,0,0,0,.31.33l1.5,1.12v-.7a1.13,1.13,0,0,0,0-.26,1.28,1.28,0,0,0-.17-.42l-.06-.07a.77.77,0,0,0-.18-.18Z" transform="translate(-18.47 -46.47)"/><path id="nx-2" class="cls-62" d="M349.94,130.46a7.85,7.85,0,0,0,0,1,1.26,1.26,0,0,0,.08.43,1.09,1.09,0,0,0,.22.41h0l.16.16,4,3v-1.26a1.44,1.44,0,0,0-.18-.4,2.16,2.16,0,0,0-.27-.33C353.67,133.25,352.11,132.06,349.94,130.46Z" transform="translate(-18.47 -46.47)"/><path id="nu-2" class="cls-62" d="M352.42,130.42v.5a2.81,2.81,0,0,0,0,.41,1.11,1.11,0,0,0,.15.43,1.05,1.05,0,0,0,.31.32l1.5,1.12v-.65a.76.76,0,0,0,0-.3,1.28,1.28,0,0,0-.17-.42l0-.07a.77.77,0,0,0-.18-.18Z" transform="translate(-18.47 -46.47)"/></g><g id="Layer_2-2" data-name="Layer 2-2"><circle id="bg" class="cls-62" cx="235.36" cy="55.06" r="24"/><circle id="bg-2" class="cls-62" cx="235.36" cy="55.06" r="22.5"/><path id="nd" class="cls-51" d="M242.05,99.92c0,1.08-.05,2-.05,2.63a13.33,13.33,0,0,0,.08,2c0,.23.06.46.11.69a6.2,6.2,0,0,0,.69,1.71,5.9,5.9,0,0,0,1.63,1.71l7.9,6.06c.1-1.59.1-2.84.08-3.71a6.69,6.69,0,0,0-.13-1.34,6.57,6.57,0,0,0-.92-2.22l-.27-.4a4.82,4.82,0,0,0-.94-.92Z" transform="translate(-18.47 -46.47)"/><path id="nx" class="cls-51" d="M242.11,88.34a38.22,38.22,0,0,0-.13,5.13,7.48,7.48,0,0,0,.38,2.25,7,7,0,0,0,1.24,2.18h0a7,7,0,0,0,.8.84c.34.3,9.18,7,21.2,16,.11-2.74.12-4.77.08-5.3a7.87,7.87,0,0,0-.12-1l-.1-.44a7.38,7.38,0,0,0-.93-2.13,9,9,0,0,0-1.45-1.69C261.79,103.05,253.52,96.79,242.11,88.34Z" transform="translate(-18.47 -46.47)"/><path id="nu" class="cls-51" d="M255.2,88.31c0,1.08,0,2,0,2.64a11.81,11.81,0,0,0,.1,2.14,6.48,6.48,0,0,0,.79,2.26,5.33,5.33,0,0,0,1.63,1.71l7.91,6c.07-1.42.09-2.6.08-3.46a6.46,6.46,0,0,0-1.05-3.82c-.09-.13-.18-.27-.28-.39a4.51,4.51,0,0,0-.93-.92Z" transform="translate(-18.47 -46.47)"/></g></g></g></svg>